<?xml version="1.0" encoding="UTF-8" standalone="no"?>
<!-- Created with Inkscape (http://www.inkscape.org/) -->

<svg
   width="30.754999mm"
   height="29.339167mm"
   viewBox="0 0 30.754999 29.339166"
   version="1.1"
   id="svg2944"
   xmlns="http://www.w3.org/2000/svg"
   xmlns:svg="http://www.w3.org/2000/svg">
  <defs
     id="defs2941" />
  <g
     id="layer1"
     transform="translate(-196.3182,-73.686734)">
    <path
       style="fill:#1c71d8;stroke:none;stroke-width:0.133535px;stroke-linecap:butt;stroke-linejoin:miter;stroke-opacity:1"
       d="m 223.44078,77.343081 c -0.63681,0.783729 -0.2658,1.50242 0.12977,2.120276 -1.15349,2.028487 -3.70863,6.513027 -5.19348,9.119539 -0.79176,1.391277 -2.04439,1.843382 -2.04439,1.843382 0,0 2.25427,0.123859 3.04982,-1.269051 1.42528,-2.506754 4.08261,-7.173804 5.19416,-9.125575 0.54705,-0.864713 -0.81108,-1.312394 -0.37658,-2.075327 0.43449,-0.762926 2.17542,0.738734 2.87312,0.823042 -0.51188,-0.788073 -1.06754,-1.461247 -1.71517,-1.757534 -0.69729,-0.319005 -1.48346,-0.212626 -1.91725,0.321248 z"
       id="path78353" />
    <path
       id="path78355"
       style="color:#000000;clip-rule:nonzero;display:inline;overflow:visible;visibility:visible;isolation:auto;mix-blend-mode:normal;color-interpolation:sRGB;color-interpolation-filters:linearRGB;solid-color:#000000;solid-opacity:1;fill:#999999;fill-opacity:1;fill-rule:nonzero;stroke:none;stroke-width:2.98743;stroke-linecap:round;stroke-linejoin:round;stroke-miterlimit:4;stroke-dasharray:none;stroke-dashoffset:0;stroke-opacity:1;color-rendering:auto;image-rendering:auto;shape-rendering:auto;text-rendering:auto;enable-background:accumulate"
       d="m 215.82809,73.686788 c -0.0801,2.7e-4 -0.16053,0.0035 -0.24106,0.0097 -1.63559,0.07333 -3.07924,1.446883 -3.23493,3.076263 -0.21671,1.62024 0.87421,3.285308 2.44995,3.727302 0.66658,0.206244 1.40095,0.199863 2.09497,-0.02526 1.22467,-0.374668 2.13047,-1.493966 2.34758,-2.734161 -0.5643,-0.387531 -2.2035,0.754362 -3.01573,-0.01711 -0.88351,-0.839164 0.2221,-2.00907 1.18919,-1.667604 0.60903,0.215033 1.38994,0.786942 1.87128,0.931035 -0.009,-0.150101 -0.0281,-0.299984 -0.0589,-0.448939 -0.27075,-1.621178 -1.77452,-2.856169 -3.40231,-2.851265 z m -5.17071,6.394626 c -0.025,2.7e-4 -0.0501,0.001 -0.075,0.0025 -1.24685,0.277516 -2.46961,0.672049 -3.7073,0.99367 -1.84383,0.518872 -3.70084,0.997321 -5.53648,1.541289 -0.53568,0.190738 -1.37799,0.54602 -1.40709,1.481286 -0.0171,0.551102 0.28583,1.402207 0.54499,1.648132 0.32014,0.308719 1.15692,0.427395 1.73445,0.223681 1.87129,-0.515227 3.74256,-1.03054 5.61385,-1.545766 0.28158,0.245195 0.35365,0.505652 0.08,0.791301 -1.50035,2.639928 -2.44722,4.300487 -3.94757,6.940409 -0.0566,0.09964 -0.24972,0.137433 -1.23181,-0.230793 -1.35462,-0.5079 -2.94229,-1.114649 -4.0323,-1.508127 -1.54977,-0.559446 -2.07094,0.596768 -2.25549,1.030507 -0.38059,0.894519 0.20067,1.907514 1.00604,2.211012 2.1666,0.816458 5.10645,1.918555 6.74304,2.518116 0.35056,0.12842 1.41415,0.0142 1.87102,-0.68157 0.41448,-0.729691 1.8523,-3.257598 2.2668,-3.987293 0.31602,-0.190989 0.58399,0.0054 0.85524,0.174992 0.84245,0.477786 1.69198,0.944818 2.53443,1.42261 0.1911,0.316073 -0.005,0.583866 -0.17526,0.854984 -1.25325,2.228137 -2.54629,4.435932 -3.77467,6.676726 -0.42301,0.86959 0.13351,1.93792 1.01051,2.24706 0.77758,0.35982 1.75712,-0.003 2.13286,-0.76893 1.66657,-2.945104 3.35446,-5.878559 5.00754,-8.830899 0.39986,-0.855908 -0.0521,-1.940529 -0.91103,-2.308642 -0.80893,-0.459765 -1.61788,-0.91968 -2.42681,-1.37945 -0.19109,-0.316073 0.005,-0.583882 0.17553,-0.854983 0.61556,-1.08323 0.83414,-1.466986 1.4497,-2.550216 0.31612,-0.191144 0.57925,0.02143 0.85499,0.175519 0.28314,0.158179 1.47712,1.048024 2.20102,1.012614 1.56921,-0.44012 3.4295,-0.96456 4.84044,-1.367868 0.71228,-0.186987 1.12196,-0.829214 1.1034,-1.489185 0.0535,-0.904911 -0.78715,-2.035977 -1.70734,-1.901545 -1.32943,0.305428 -2.63572,0.718155 -3.95651,1.063929 -0.45439,-0.05979 -0.81004,-0.418752 -1.22313,-0.603675 -1.71653,-0.965178 -3.41703,-1.962525 -5.14412,-2.90679 -0.1623,-0.0666 -0.33865,-0.09602 -0.51395,-0.09447 z" />
    <path
       id="path78365"
       style="fill:#999999;stroke-width:0.00509233;stop-color:#000000"
       d="m 217.85584,77.166989 c -0.0314,0.18616 -0.35862,0.286209 -0.73094,0.223472 -0.37232,-0.06274 -0.56893,-0.26451 -0.53757,-0.450671 0.0314,-0.18616 0.35883,-0.38387 0.7096,-0.244182 0.64752,0.257855 0.59028,0.285222 0.55891,0.471381 z" />
    <circle
       id="circle78367"
       style="fill:#dc8add;stroke:#a51d2d;stroke-width:0.134734"
       cx="213.2337"
       cy="101.35959"
       r="0.00038665396" />
    <circle
       id="circle94916"
       style="fill:#dc8add;stroke:#a51d2d;stroke-width:0.134734"
       cx="213.2337"
       cy="134.51918"
       r="0.00038665396" />
  </g>
</svg>
