<?xml version="1.0" encoding="UTF-8" standalone="no"?>
<!-- Created with Inkscape (http://www.inkscape.org/) -->

<svg
   width="111.28032mm"
   height="80.035141mm"
   viewBox="0 0 111.28032 80.03514"
   version="1.1"
   id="svg2944"
   inkscape:version="1.2.2 (b0a8486541, 2022-12-01)"
   sodipodi:docname="logo_dark_motto.svg"
   xmlns:inkscape="http://www.inkscape.org/namespaces/inkscape"
   xmlns:sodipodi="http://sodipodi.sourceforge.net/DTD/sodipodi-0.dtd"
   xmlns="http://www.w3.org/2000/svg"
   xmlns:svg="http://www.w3.org/2000/svg">
  <sodipodi:namedview
     id="namedview2946"
     pagecolor="#ffffff"
     bordercolor="#000000"
     borderopacity="0.25"
     inkscape:showpageshadow="2"
     inkscape:pageopacity="0.0"
     inkscape:pagecheckerboard="0"
     inkscape:deskcolor="#d1d1d1"
     inkscape:document-units="mm"
     showgrid="false"
     inkscape:zoom="0.66012205"
     inkscape:cx="-556.71523"
     inkscape:cy="283.28095"
     inkscape:window-width="1920"
     inkscape:window-height="1013"
     inkscape:window-x="0"
     inkscape:window-y="0"
     inkscape:window-maximized="1"
     inkscape:current-layer="layer1" />
  <defs
     id="defs2941" />
  <g
     inkscape:label="Layer 1"
     inkscape:groupmode="layer"
     id="layer1"
     transform="translate(-252.44764,-73.173497)">
    <g
       id="g94913"
       transform="matrix(0.94800097,0,0,0.94800097,-275.86124,309.1781)">
      <g
         id="g78428"
         transform="translate(-4.1344382,3.4515166)" />
      <g
         id="g78425"
         transform="translate(-4.1344382,4.2452588)">
        <g
           id="g78371"
           transform="translate(17.726089,34.752033)">
          <g
             id="g78369">
            <path
               style="fill:#1c71d8;stroke:none;stroke-width:0.262228px;stroke-linecap:butt;stroke-linejoin:miter;stroke-opacity:1"
               d="m 617.12322,-275.14323 c -1.25052,1.53904 -0.52196,2.95036 0.25483,4.16367 -2.26515,3.98342 -7.28277,12.78989 -10.19864,17.90839 -1.55481,2.73211 -4.01465,3.61993 -4.01465,3.61993 0,0 4.42681,0.24322 5.98907,-2.49209 2.79888,-4.92261 8.01717,-14.08748 10.19997,-17.92025 1.07426,-1.69807 -1.59275,-2.5772 -0.73952,-4.0754 0.85323,-1.49819 4.27196,1.45068 5.64207,1.61624 -1.00521,-1.54757 -2.09636,-2.86951 -3.36816,-3.45134 -1.36929,-0.62644 -2.91312,-0.41754 -3.76497,0.63085 z"
               id="path78353"
               sodipodi:nodetypes="sccccczcss" />
            <path
               id="path78355"
               style="color:#000000;clip-rule:nonzero;display:inline;overflow:visible;visibility:visible;isolation:auto;mix-blend-mode:normal;color-interpolation:sRGB;color-interpolation-filters:linearRGB;solid-color:#000000;solid-opacity:1;fill:#deddda;fill-opacity:1;fill-rule:nonzero;stroke:none;stroke-width:5.86653;stroke-linecap:round;stroke-linejoin:round;stroke-miterlimit:4;stroke-dasharray:none;stroke-dashoffset:0;stroke-opacity:1;color-rendering:auto;image-rendering:auto;shape-rendering:auto;text-rendering:auto;enable-background:accumulate"
               d="m 602.17388,-282.32324 c -0.15722,5.3e-4 -0.31523,0.007 -0.47337,0.0191 -3.21188,0.14399 -6.04684,2.8413 -6.35256,6.04098 -0.42556,3.18173 1.71672,6.45149 4.81107,7.31945 1.30898,0.40501 2.75109,0.39248 4.11396,-0.0496 2.40493,-0.73575 4.18369,-2.93376 4.61004,-5.36918 -1.10815,-0.76101 -4.3271,1.48137 -5.92211,-0.0336 -1.73498,-1.6479 0.43614,-3.94529 2.33526,-3.27474 1.19597,0.42227 2.72947,1.54535 3.67472,1.82831 -0.0172,-0.29476 -0.0552,-0.58909 -0.11575,-0.8816 -0.53168,-3.18357 -3.4847,-5.60877 -6.68126,-5.59914 z m -10.15392,12.55738 c -0.0492,5.3e-4 -0.0983,0.002 -0.14726,0.005 -2.44848,0.54497 -4.84968,1.31973 -7.28017,1.95131 -3.6208,1.01893 -7.2675,1.95848 -10.87221,3.02669 -1.05193,0.37456 -2.70602,1.07224 -2.76315,2.90886 -0.0337,1.08222 0.56129,2.75357 1.07022,3.2365 0.62867,0.60624 2.27189,0.83929 3.406,0.43925 3.67472,-1.01177 7.34941,-2.02371 11.02413,-3.03548 0.55296,0.4815 0.69448,0.99297 0.15711,1.55391 -2.94629,5.18413 -4.8057,8.44503 -7.752,13.62915 -0.1112,0.19568 -0.4904,0.26989 -2.41895,-0.45321 -2.66012,-0.99739 -5.77789,-2.18888 -7.9184,-2.96157 -3.04334,-1.09861 -4.06678,1.1719 -4.42918,2.02365 -0.74739,1.7566 0.39405,3.74586 1.97559,4.34185 4.25464,1.60331 10.02774,3.76756 13.24158,4.94492 0.68842,0.2522 2.77701,0.0279 3.67419,-1.33842 0.81394,-1.43293 3.63744,-6.39708 4.4514,-7.83001 0.62058,-0.37505 1.14681,0.0102 1.67947,0.34364 1.65436,0.93825 3.32261,1.85538 4.97697,2.79363 0.37526,0.62069 -0.0103,1.14657 -0.34417,1.67897 -2.46105,4.37548 -5.00025,8.71101 -7.41246,13.11134 -0.83068,1.70765 0.26218,3.80557 1.98438,4.41265 1.52696,0.70658 3.45051,-0.006 4.18838,-1.50998 3.27271,-5.78342 6.58728,-11.54397 9.8335,-17.34158 0.78521,-1.68078 -0.10223,-3.81069 -1.78903,-4.53357 -1.58853,-0.90286 -3.17709,-1.80602 -4.76562,-2.70888 -0.37526,-0.62069 0.0108,-1.14659 0.3447,-1.67897 1.2088,-2.12718 1.63803,-2.88078 2.84683,-5.00796 0.62077,-0.37536 1.1375,0.0421 1.67897,0.34468 0.55602,0.31062 2.90068,2.05804 4.32223,1.98851 3.08153,-0.86428 6.73465,-1.89415 9.50537,-2.68614 1.39872,-0.36719 2.20324,-1.62836 2.16678,-2.92437 0.10507,-1.77701 -1.54575,-3.99813 -3.35277,-3.73414 -2.61065,0.59978 -5.17586,1.41027 -7.76955,2.08928 -0.8923,-0.11741 -1.59072,-0.82232 -2.40191,-1.18546 -3.37082,-1.89536 -6.71015,-3.85389 -10.10171,-5.70818 -0.31872,-0.13078 -0.66503,-0.18855 -1.00926,-0.18551 z"
               sodipodi:nodetypes="scccccssccsscccsccccsssssscccccccccccccscccccccs" />
            <path
               d="m 573.83489,-232.63306 2.47546,-4.34577 h 9.97388 l -5.07266,8.90525 c -2.65056,1.30136 -4.84729,2.18951 -6.59016,2.66446 -1.72797,0.46544 -3.59882,0.69817 -5.6126,0.69817 -2.47922,0 -4.26171,-0.42271 -5.34748,-1.26811 -1.07624,-0.8454 -1.57043,-2.10402 -1.48252,-3.77583 0.0974,-1.6718 0.76293,-3.59059 1.99659,-5.75635 1.29861,-2.27974 2.89695,-4.26027 4.79507,-5.94157 1.90353,-1.69082 4.01132,-2.97317 6.3234,-3.84707 1.79952,-0.67442 3.89614,-1.01164 6.28987,-1.01164 2.30824,0 3.22707,0.70889 4.12887,1.12684 2.05598,1.10363 2.40738,3.98144 1.90052,5.89751 l -6.52559,9e-5 c 0.19256,-0.7884 0.0993,-1.39159 -0.28009,-1.80954 -0.36985,-0.41795 -1.02973,-0.62693 -1.97962,-0.62693 -1.41534,0 -2.82706,0.49394 -4.2352,1.48184 -1.39324,0.97839 -2.69585,2.53146 -3.90787,4.65921 -1.28778,2.26075 -1.78492,3.87557 -1.49141,4.84446 0.30299,0.96889 1.21442,1.45334 2.73424,1.45334 0.72192,0 1.47009,-0.10455 2.24457,-0.31346 0.77447,-0.20897 1.72778,-0.56519 2.85996,-1.06863 l 1.12003,-1.96628 z"
               style="font-size:38.4138px;line-height:1.25;font-family:'Arial Black';-inkscape-font-specification:'Arial Black, Normal';letter-spacing:0px;word-spacing:0px;fill:#1c71d8;stroke-width:0.729519"
               id="path78357"
               sodipodi:nodetypes="cccccsccsccsccccscscssccc" />
            <path
               d="m 607.62775,-245.5991 h 10.72903 q 3.5051,0 4.2938,1.66707 0.80297,1.66706 -0.95014,4.74471 -1.80182,3.16314 -4.72562,4.94419 -2.90957,1.78105 -6.81362,1.78105 h -3.53359 l -4.41524,7.75113 h -6.48301 z m 1.41037,8.90525 h 1.58157 q 1.86655,0 2.98694,-0.64118 1.12851,-0.65542 1.70476,-1.66706 0.56001,-0.98315 0.29415,-1.66706 -0.26585,-0.68393 -2.07539,-0.68393 h -1.83804 z"
               style="font-size:38.4138px;line-height:1.25;font-family:'Arial Black';-inkscape-font-specification:'Arial Black, Normal';letter-spacing:0px;word-spacing:0px;fill:#1c71d8;stroke-width:0.729519"
               id="path78359" />
            <path
               d="m 621.15345,-236.58781 h 4.598 l -1.19614,2.09988 q 1.44056,-1.36372 2.42924,-1.87057 1.00762,-0.51895 2.04548,-0.51895 1.08615,0 1.99249,0.67583 l -3.51416,3.49979 q -0.66269,-0.36205 -1.16955,-0.36205 -0.96547,0 -1.95018,0.79651 -1.39961,1.12235 -3.15258,4.19975 l -2.44729,4.29631 h -4.93592 z"
               style="font-size:38.4138px;line-height:1.25;font-family:'Arial Black';-inkscape-font-specification:'Arial Black, Normal';letter-spacing:0px;word-spacing:0px;fill:#1c71d8;stroke-width:0.617895"
               id="path78361" />
            <path
               d="m 631.71843,-236.58781 h 5.18935 l -2.21723,8.53226 7.31005,-8.53226 h 4.83936 l -12.88316,13.69747 q -2.20254,2.34125 -3.57511,3.16189 -1.93918,1.15855 -4.55799,1.15855 -1.062,0 -3.1176,-0.28963 l 1.56616,-3.42739 q 0.86951,0.3379 2.17289,0.3379 0.86891,0 1.62677,-0.39824 0.76993,-0.39826 1.72835,-1.42405 z"
               style="font-size:38.4138px;line-height:1.25;font-family:'Arial Black';-inkscape-font-specification:'Arial Black, Normal';letter-spacing:0px;word-spacing:0px;fill:#1c71d8;stroke-width:0.617895"
               id="path78363" />
            <path
               id="path78365"
               style="fill:#deddda;stroke-width:0.01;stop-color:#000000"
               d="m 606.15586,-275.48903 c -0.0616,0.36557 -0.70424,0.56204 -1.43538,0.43884 -0.73113,-0.12321 -1.11724,-0.51943 -1.05564,-0.885 0.0616,-0.36557 0.70464,-0.75382 1.39347,-0.47951 1.27155,0.50636 1.15915,0.5601 1.09755,0.92567 z"
               sodipodi:nodetypes="sssss" />
            <circle
               id="circle78367"
               style="fill:#dc8add;stroke:#a51d2d;stroke-width:0.264583"
               cx="597.07922"
               cy="-227.98106"
               r="0.00075928762" />
          </g>
        </g>
        <g
           aria-label="Getting away with fewer evaluations!"
           id="text78375"
           style="font-style:oblique;font-weight:bold;font-stretch:semi-condensed;font-size:5.50452px;line-height:1.25;font-family:'DejaVu Sans';-inkscape-font-specification:'DejaVu Sans, Bold Oblique Semi-Condensed';letter-spacing:0px;word-spacing:0px;fill:#deddda;stroke-width:0.137613">
          <path
             d="m 571.12948,-175.87991 q -0.35478,0.19083 -0.73376,0.2849 -0.37897,0.0914 -0.81439,0.0914 -0.76869,0 -1.20948,-0.43273 -0.43811,-0.43541 -0.43811,-1.1853 0,-0.48648 0.13708,-0.91115 0.13707,-0.42735 0.41122,-0.77944 0.33328,-0.43004 0.78752,-0.64238 0.45423,-0.21233 1.03747,-0.21233 0.32253,0 0.65043,0.0753 0.3306,0.0753 0.65044,0.22308 l -0.14245,0.83052 q -0.29565,-0.19083 -0.57787,-0.2849 -0.28221,-0.0941 -0.56711,-0.0941 -0.62356,0 -1.01597,0.4623 -0.39242,0.46229 -0.39242,1.18798 0,0.48111 0.22846,0.7472 0.22846,0.26609 0.64506,0.26609 0.13439,0 0.26878,-0.0188 0.13707,-0.0215 0.27415,-0.0645 l 0.13976,-0.77945 h -0.5698 l 0.11826,-0.69344 h 1.4487 z"
             id="path3620" />
          <path
             d="m 574.93265,-176.97383 -0.0296,0.1532 h -2.02657 q 0,0.0161 -0.003,0.0484 -0.003,0.0296 -0.003,0.0457 0,0.29297 0.15857,0.43811 0.15858,0.14514 0.47574,0.14514 0.27415,0 0.57786,-0.0914 0.30372,-0.0914 0.637,-0.27146 l -0.13439,0.74719 q -0.31446,0.12902 -0.62893,0.19084 -0.31178,0.0645 -0.637,0.0645 -0.63431,0 -0.97834,-0.32522 -0.34403,-0.32522 -0.34403,-0.91921 0,-0.34403 0.10751,-0.66656 0.11019,-0.32522 0.32253,-0.594 0.24996,-0.32253 0.59668,-0.48917 0.34672,-0.16664 0.76869,-0.16664 0.55099,0 0.87353,0.32522 0.32253,0.32522 0.32253,0.87621 0,0.10751 -0.0134,0.22846 -0.0134,0.11826 -0.043,0.26071 z m -0.81707,-0.44079 q 0.008,-0.0349 0.0108,-0.0699 0.003,-0.0376 0.003,-0.0726 0,-0.21502 -0.11557,-0.34135 -0.11557,-0.12632 -0.31447,-0.12632 -0.25265,0 -0.43272,0.15589 -0.1774,0.1532 -0.27147,0.45423 z"
             id="path3622" />
          <path
             d="m 576.95922,-179.44656 -0.14783,0.8547 h 0.88696 l -0.12364,0.68807 h -0.88695 l -0.2204,1.27399 q -0.0108,0.043 -0.0161,0.0726 -0.003,0.0296 -0.003,0.0564 0,0.12364 0.0726,0.1774 0.0752,0.0537 0.24996,0.0537 h 0.44885 l -0.12364,0.68807 h -0.72838 q -0.39241,0 -0.59937,-0.18277 -0.20426,-0.18277 -0.20426,-0.5268 0,-0.0753 0.005,-0.16127 0.008,-0.086 0.0242,-0.1747 l 0.22308,-1.27668 h -0.42735 l 0.11826,-0.68807 h 0.43273 l 0.14783,-0.8547 z"
             id="path3624" />
          <path
             d="m 579.32713,-179.44656 -0.14783,0.8547 h 0.88696 l -0.12363,0.68807 h -0.88696 l -0.2204,1.27399 q -0.0108,0.043 -0.0161,0.0726 -0.003,0.0296 -0.003,0.0564 0,0.12364 0.0726,0.1774 0.0752,0.0537 0.24996,0.0537 h 0.44885 l -0.12363,0.68807 h -0.72839 q -0.39241,0 -0.59937,-0.18277 -0.20426,-0.18277 -0.20426,-0.5268 0,-0.0753 0.005,-0.16127 0.008,-0.086 0.0242,-0.1747 l 0.22308,-1.27668 h -0.42735 l 0.11826,-0.68807 h 0.43273 l 0.14783,-0.8547 z"
             id="path3626" />
          <path
             d="m 580.59306,-178.59186 h 0.87083 l -0.52948,3.01029 h -0.86815 z m 0.20158,-1.17186 h 0.87084 l -0.13708,0.78483 h -0.87352 z"
             id="path3628" />
          <path
             d="m 584.80477,-177.41462 -0.32253,1.83305 h -0.86814 l 0.27415,-1.56965 q 0.0296,-0.1532 0.043,-0.25803 0.0161,-0.10751 0.0161,-0.16932 0,-0.17202 -0.086,-0.26609 -0.086,-0.0941 -0.2419,-0.0941 -0.26877,0 -0.46229,0.23383 -0.19083,0.23115 -0.26609,0.64237 l -0.26071,1.48096 h -0.86814 l 0.5268,-3.01029 h 0.87083 l -0.0806,0.44079 q 0.23922,-0.26071 0.48111,-0.38703 0.2419,-0.12633 0.5053,-0.12633 0.37629,0 0.57787,0.21771 0.20427,0.21771 0.20427,0.61281 0,0.086 -0.0107,0.19083 -0.0108,0.10482 -0.0323,0.22846 z"
             id="path3630" />
          <path
             d="m 587.20494,-176.09225 q -0.20696,0.2634 -0.42198,0.38704 -0.21502,0.12364 -0.47036,0.12364 -0.4596,0 -0.72838,-0.32791 -0.26609,-0.33059 -0.26609,-0.9004 0,-0.30371 0.0941,-0.60743 0.0941,-0.3064 0.26608,-0.57518 0.21502,-0.32522 0.48917,-0.49455 0.27684,-0.17201 0.594,-0.17201 0.2849,0 0.47842,0.12364 0.1962,0.12363 0.3279,0.38972 l 0.0726,-0.44617 h 0.87352 l -0.45692,2.61519 q -0.13976,0.80901 -0.59936,1.19605 -0.45961,0.38703 -1.27669,0.38703 -0.25265,0 -0.48648,-0.043 -0.23115,-0.043 -0.45961,-0.1317 l 0.12902,-0.74988 q 0.20426,0.14514 0.40853,0.21502 0.20696,0.0726 0.42198,0.0726 0.43004,0 0.66119,-0.20427 0.23115,-0.20427 0.31178,-0.65044 z m -0.2419,-1.87336 q -0.31716,0 -0.52949,0.31984 -0.21233,0.31984 -0.21233,0.80364 0,0.27415 0.11288,0.41929 0.11558,0.14245 0.33329,0.14245 0.31715,0 0.52948,-0.31715 0.21234,-0.31985 0.21234,-0.79558 0,-0.27953 -0.11558,-0.42466 -0.11288,-0.14783 -0.33059,-0.14783 z"
             id="path3632" />
          <path
             d="m 592.03483,-176.9362 q -0.32522,0 -0.49186,0.11288 -0.16395,0.1102 -0.16395,0.32791 0,0.16395 0.0968,0.25802 0.0994,0.0941 0.27146,0.0941 0.2634,0 0.44348,-0.1774 0.18008,-0.18008 0.23921,-0.50529 l 0.0188,-0.1102 z m 1.35194,-0.36285 -0.30372,1.71748 h -0.86545 l 0.0726,-0.44617 q -0.21234,0.26877 -0.45155,0.39779 -0.23652,0.12632 -0.51336,0.12632 -0.38435,0 -0.61012,-0.22039 -0.22577,-0.22309 -0.22577,-0.59937 0,-0.57518 0.39779,-0.8789 0.40048,-0.3064 1.15573,-0.3064 h 0.51068 l 0.0107,-0.0753 q 0.005,-0.0376 0.005,-0.0538 0.003,-0.0161 0.003,-0.0296 0,-0.17739 -0.15051,-0.26609 -0.15052,-0.0914 -0.44886,-0.0914 -0.26877,0 -0.52142,0.0618 -0.24996,0.0618 -0.4838,0.18545 l 0.12901,-0.73376 q 0.27147,-0.0752 0.55637,-0.11288 0.2849,-0.0403 0.58862,-0.0403 0.60205,0 0.89502,0.23115 0.29297,0.22846 0.29297,0.69882 0,0.0914 -0.0108,0.20158 -0.0108,0.10751 -0.0323,0.23383 z"
             id="path3634" />
          <path
             d="m 594.17428,-178.59186 h 0.79827 l 0.0941,2.06957 0.81707,-2.06957 h 0.68807 l 0.0994,2.0642 0.8117,-2.0642 h 0.85202 l -1.23906,3.01029 h -0.91921 l -0.0887,-2.06957 -0.82783,2.06957 h -0.8977 z"
             id="path3636" />
          <path
             d="m 599.95027,-176.9362 q -0.32522,0 -0.49186,0.11288 -0.16396,0.1102 -0.16396,0.32791 0,0.16395 0.0968,0.25802 0.0995,0.0941 0.27147,0.0941 0.2634,0 0.44348,-0.1774 0.18008,-0.18008 0.23921,-0.50529 l 0.0188,-0.1102 z m 1.35194,-0.36285 -0.30372,1.71748 h -0.86546 l 0.0726,-0.44617 q -0.21233,0.26877 -0.45154,0.39779 -0.23652,0.12632 -0.51336,0.12632 -0.38435,0 -0.61012,-0.22039 -0.22577,-0.22309 -0.22577,-0.59937 0,-0.57518 0.39779,-0.8789 0.40047,-0.3064 1.15573,-0.3064 h 0.51067 l 0.0107,-0.0753 q 0.005,-0.0376 0.005,-0.0538 0.003,-0.0161 0.003,-0.0296 0,-0.17739 -0.15052,-0.26609 -0.15051,-0.0914 -0.44885,-0.0914 -0.26878,0 -0.52143,0.0618 -0.24996,0.0618 -0.48379,0.18545 l 0.12901,-0.73376 q 0.27146,-0.0752 0.55637,-0.11288 0.2849,-0.0403 0.58861,-0.0403 0.60206,0 0.89503,0.23115 0.29296,0.22846 0.29296,0.69882 0,0.0914 -0.0107,0.20158 -0.0108,0.10751 -0.0323,0.23383 z"
             id="path3638" />
          <path
             d="m 601.81825,-178.59186 h 0.81708 l 0.37091,2.0857 0.96222,-2.0857 h 0.92459 l -1.71479,3.29519 q -0.28759,0.55636 -0.53218,0.72838 -0.24458,0.1747 -0.63162,0.1747 h -0.52411 l 0.0887,-0.63162 h 0.27416 q 0.21233,0 0.33059,-0.0806 0.11826,-0.0779 0.20964,-0.27684 l 0.0779,-0.16126 z"
             id="path3640" />
          <path
             d="m 606.87123,-178.59186 h 0.79827 l 0.0941,2.06957 0.81707,-2.06957 h 0.68807 l 0.0994,2.0642 0.8117,-2.0642 h 0.85202 l -1.23906,3.01029 h -0.91921 l -0.0887,-2.06957 -0.82782,2.06957 h -0.89771 z"
             id="path3642" />
          <path
             d="m 611.69575,-178.59186 h 0.87083 l -0.52949,3.01029 h -0.86814 z m 0.20158,-1.17186 h 0.87083 l -0.13707,0.78483 h -0.87352 z"
             id="path3644" />
          <path
             d="m 614.4937,-179.44656 -0.14783,0.8547 h 0.88696 l -0.12363,0.68807 h -0.88696 l -0.2204,1.27399 q -0.0108,0.043 -0.0161,0.0726 -0.003,0.0296 -0.003,0.0564 0,0.12364 0.0726,0.1774 0.0752,0.0537 0.24996,0.0537 h 0.44885 l -0.12363,0.68807 h -0.72839 q -0.39241,0 -0.59936,-0.18277 -0.20427,-0.18277 -0.20427,-0.5268 0,-0.0753 0.005,-0.16127 0.008,-0.086 0.0242,-0.1747 l 0.22308,-1.27668 h -0.42735 l 0.11826,-0.68807 h 0.43273 l 0.14783,-0.8547 z"
             id="path3646" />
          <path
             d="m 618.27537,-177.41462 -0.32253,1.83305 h -0.86814 l 0.27415,-1.56965 q 0.0296,-0.1532 0.043,-0.25803 0.0161,-0.10751 0.0161,-0.16932 0,-0.17202 -0.086,-0.26609 -0.086,-0.0941 -0.2419,-0.0941 -0.26877,0 -0.46229,0.23383 -0.19083,0.23115 -0.26609,0.64237 l -0.26071,1.48096 h -0.86815 l 0.72839,-4.18215 h 0.87083 l -0.28222,1.61265 q 0.23921,-0.26071 0.48111,-0.38703 0.2419,-0.12633 0.5053,-0.12633 0.37628,0 0.57787,0.21771 0.20427,0.21771 0.20427,0.61281 0,0.086 -0.0108,0.19083 -0.0108,0.10482 -0.0323,0.22846 z"
             id="path3648" />
          <path
             d="m 623.00313,-179.76372 -0.11289,0.63162 h -0.47573 q -0.18276,0 -0.26609,0.0753 -0.0833,0.0726 -0.11557,0.25265 l -0.0403,0.21233 h 0.73375 l -0.11826,0.68807 h -0.73376 l -0.40585,2.32222 h -0.87083 l 0.40585,-2.32222 h -0.42735 l 0.12095,-0.68807 h 0.42466 l 0.0403,-0.20964 q 0.0887,-0.49992 0.37091,-0.73107 0.2849,-0.23115 0.80633,-0.23115 z"
             id="path3650" />
          <path
             d="m 625.59681,-176.97383 -0.0296,0.1532 h -2.02657 q 0,0.0161 -0.003,0.0484 -0.003,0.0296 -0.003,0.0457 0,0.29297 0.15858,0.43811 0.15858,0.14514 0.47573,0.14514 0.27416,0 0.57787,-0.0914 0.30372,-0.0914 0.637,-0.27146 l -0.13439,0.74719 q -0.31447,0.12902 -0.62893,0.19084 -0.31178,0.0645 -0.637,0.0645 -0.63431,0 -0.97834,-0.32522 -0.34404,-0.32522 -0.34404,-0.91921 0,-0.34403 0.10751,-0.66656 0.1102,-0.32522 0.32253,-0.594 0.24997,-0.32253 0.59669,-0.48917 0.34672,-0.16664 0.76869,-0.16664 0.55099,0 0.87352,0.32522 0.32253,0.32522 0.32253,0.87621 0,0.10751 -0.0134,0.22846 -0.0134,0.11826 -0.043,0.26071 z m -0.81708,-0.44079 q 0.008,-0.0349 0.0108,-0.0699 0.003,-0.0376 0.003,-0.0726 0,-0.21502 -0.11557,-0.34135 -0.11557,-0.12632 -0.31447,-0.12632 -0.25265,0 -0.43273,0.15589 -0.17739,0.1532 -0.27146,0.45423 z"
             id="path3652" />
          <path
             d="m 626.27144,-178.59186 h 0.79826 l 0.0941,2.06957 0.81707,-2.06957 h 0.68807 l 0.0994,2.0642 0.81171,-2.0642 h 0.85201 l -1.23905,3.01029 h -0.91921 l -0.0887,-2.06957 -0.82783,2.06957 h -0.89771 z"
             id="path3654" />
          <path
             d="m 633.53106,-176.97383 -0.0296,0.1532 h -2.02657 q 0,0.0161 -0.003,0.0484 -0.003,0.0296 -0.003,0.0457 0,0.29297 0.15858,0.43811 0.15858,0.14514 0.47573,0.14514 0.27415,0 0.57787,-0.0914 0.30372,-0.0914 0.637,-0.27146 l -0.13439,0.74719 q -0.31447,0.12902 -0.62893,0.19084 -0.31178,0.0645 -0.637,0.0645 -0.63431,0 -0.97834,-0.32522 -0.34404,-0.32522 -0.34404,-0.91921 0,-0.34403 0.10751,-0.66656 0.1102,-0.32522 0.32253,-0.594 0.24997,-0.32253 0.59669,-0.48917 0.34672,-0.16664 0.76869,-0.16664 0.55099,0 0.87352,0.32522 0.32253,0.32522 0.32253,0.87621 0,0.10751 -0.0134,0.22846 -0.0134,0.11826 -0.043,0.26071 z m -0.81708,-0.44079 q 0.008,-0.0349 0.0108,-0.0699 0.003,-0.0376 0.003,-0.0726 0,-0.21502 -0.11557,-0.34135 -0.11557,-0.12632 -0.31447,-0.12632 -0.25265,0 -0.43273,0.15589 -0.17739,0.1532 -0.27146,0.45423 z"
             id="path3656" />
          <path
             d="m 636.32364,-177.77209 q -0.0914,-0.0565 -0.20158,-0.086 -0.10751,-0.0296 -0.23115,-0.0296 -0.33328,0 -0.55367,0.23653 -0.21771,0.23652 -0.29297,0.68269 l -0.24727,1.38688 h -0.86815 l 0.5268,-3.01029 h 0.87083 l -0.0941,0.51605 q 0.17202,-0.2849 0.42736,-0.43542 0.25802,-0.1532 0.57249,-0.1532 0.0484,0 0.10482,0.005 0.0591,0.005 0.13707,0.0161 z"
             id="path3658" />
          <path
             d="m 641.05677,-176.97383 -0.0296,0.1532 h -2.02657 q 0,0.0161 -0.003,0.0484 -0.003,0.0296 -0.003,0.0457 0,0.29297 0.15857,0.43811 0.15858,0.14514 0.47574,0.14514 0.27415,0 0.57786,-0.0914 0.30372,-0.0914 0.637,-0.27146 l -0.13439,0.74719 q -0.31447,0.12902 -0.62893,0.19084 -0.31178,0.0645 -0.637,0.0645 -0.63431,0 -0.97834,-0.32522 -0.34403,-0.32522 -0.34403,-0.91921 0,-0.34403 0.10751,-0.66656 0.11019,-0.32522 0.32253,-0.594 0.24996,-0.32253 0.59668,-0.48917 0.34672,-0.16664 0.76869,-0.16664 0.55099,0 0.87352,0.32522 0.32254,0.32522 0.32254,0.87621 0,0.10751 -0.0134,0.22846 -0.0134,0.11826 -0.043,0.26071 z m -0.81707,-0.44079 q 0.008,-0.0349 0.0108,-0.0699 0.003,-0.0376 0.003,-0.0726 0,-0.21502 -0.11557,-0.34135 -0.11557,-0.12632 -0.31447,-0.12632 -0.25265,0 -0.43273,0.15589 -0.17739,0.1532 -0.27146,0.45423 z"
             id="path3660" />
          <path
             d="m 641.61314,-178.59186 h 0.79826 l 0.3521,2.10183 1.01866,-2.10183 h 0.87889 l -1.59115,3.01029 h -0.91652 z"
             id="path3662" />
          <path
             d="m 646.16082,-176.9362 q -0.32522,0 -0.49186,0.11288 -0.16396,0.1102 -0.16396,0.32791 0,0.16395 0.0968,0.25802 0.0994,0.0941 0.27147,0.0941 0.2634,0 0.44348,-0.1774 0.18008,-0.18008 0.23921,-0.50529 l 0.0188,-0.1102 z m 1.35194,-0.36285 -0.30372,1.71748 h -0.86546 l 0.0726,-0.44617 q -0.21233,0.26877 -0.45154,0.39779 -0.23652,0.12632 -0.51336,0.12632 -0.38435,0 -0.61012,-0.22039 -0.22577,-0.22309 -0.22577,-0.59937 0,-0.57518 0.39779,-0.8789 0.40047,-0.3064 1.15573,-0.3064 h 0.51067 l 0.0108,-0.0753 q 0.005,-0.0376 0.005,-0.0538 0.003,-0.0161 0.003,-0.0296 0,-0.17739 -0.15052,-0.26609 -0.15051,-0.0914 -0.44885,-0.0914 -0.26878,0 -0.52143,0.0618 -0.24996,0.0618 -0.48379,0.18545 l 0.12901,-0.73376 q 0.27146,-0.0752 0.55637,-0.11288 0.2849,-0.0403 0.58861,-0.0403 0.60206,0 0.89503,0.23115 0.29296,0.22846 0.29296,0.69882 0,0.0914 -0.0107,0.20158 -0.0108,0.10751 -0.0323,0.23383 z"
             id="path3664" />
          <path
             d="m 648.75181,-179.76372 h 0.87084 l -0.73107,4.18215 h -0.86815 z"
             id="path3666" />
          <path
             d="m 649.90217,-176.75343 0.31715,-1.83843 h 0.86815 l -0.27415,1.56696 q -0.0269,0.1532 -0.043,0.26071 -0.0134,0.10751 -0.0134,0.16933 0,0.16933 0.0833,0.2634 0.086,0.0941 0.24189,0.0941 0.26878,0 0.4623,-0.23114 0.19352,-0.23115 0.26608,-0.64238 l 0.26072,-1.48095 h 0.87083 l -0.5268,3.01029 h -0.87352 l 0.0806,-0.4408 q -0.22308,0.26072 -0.46767,0.38973 -0.24458,0.12901 -0.51336,0.12901 -0.37091,0 -0.57518,-0.21771 -0.20158,-0.2177 -0.20158,-0.61549 0,-0.0941 0.008,-0.1989 0.0108,-0.10482 0.0296,-0.2177 z"
             id="path3668" />
          <path
             d="m 654.724,-176.9362 q -0.32521,0 -0.49186,0.11288 -0.16395,0.1102 -0.16395,0.32791 0,0.16395 0.0968,0.25802 0.0995,0.0941 0.27146,0.0941 0.2634,0 0.44348,-0.1774 0.18008,-0.18008 0.23921,-0.50529 l 0.0188,-0.1102 z m 1.35194,-0.36285 -0.30371,1.71748 h -0.86546 l 0.0726,-0.44617 q -0.21233,0.26877 -0.45154,0.39779 -0.23652,0.12632 -0.51336,0.12632 -0.38435,0 -0.61012,-0.22039 -0.22577,-0.22309 -0.22577,-0.59937 0,-0.57518 0.39778,-0.8789 0.40048,-0.3064 1.15574,-0.3064 h 0.51067 l 0.0108,-0.0753 q 0.005,-0.0376 0.005,-0.0538 0.003,-0.0161 0.003,-0.0296 0,-0.17739 -0.15051,-0.26609 -0.15051,-0.0914 -0.44885,-0.0914 -0.26878,0 -0.52143,0.0618 -0.24996,0.0618 -0.48379,0.18545 l 0.12901,-0.73376 q 0.27146,-0.0752 0.55636,-0.11288 0.2849,-0.0403 0.58862,-0.0403 0.60206,0 0.89502,0.23115 0.29297,0.22846 0.29297,0.69882 0,0.0914 -0.0108,0.20158 -0.0108,0.10751 -0.0323,0.23383 z"
             id="path3670" />
          <path
             d="m 658.21539,-179.44656 -0.14782,0.8547 h 0.88695 l -0.12363,0.68807 h -0.88696 l -0.2204,1.27399 q -0.0108,0.043 -0.0161,0.0726 -0.003,0.0296 -0.003,0.0564 0,0.12364 0.0726,0.1774 0.0752,0.0537 0.24996,0.0537 h 0.44885 l -0.12363,0.68807 h -0.72838 q -0.39242,0 -0.59937,-0.18277 -0.20427,-0.18277 -0.20427,-0.5268 0,-0.0753 0.005,-0.16127 0.008,-0.086 0.0242,-0.1747 l 0.22309,-1.27668 h -0.42736 l 0.11826,-0.68807 h 0.43273 l 0.14783,-0.8547 z"
             id="path3672" />
          <path
             d="m 659.48132,-178.59186 h 0.87084 l -0.52949,3.01029 h -0.86815 z m 0.20159,-1.17186 h 0.87083 l -0.13708,0.78483 h -0.87352 z"
             id="path3674" />
          <path
             d="m 662.35454,-177.97636 q -0.33597,0 -0.55368,0.33865 -0.21771,0.33866 -0.21771,0.86277 0,0.28491 0.11558,0.43542 0.11826,0.14783 0.34403,0.14783 0.33597,0 0.55367,-0.33866 0.21771,-0.34135 0.21771,-0.86815 0,-0.28221 -0.11826,-0.43004 -0.11557,-0.14782 -0.34134,-0.14782 z m 0.0699,-0.68807 q 0.60474,0 0.95146,0.34135 0.34672,0.34134 0.34672,0.92996 0,0.34135 -0.11019,0.66388 -0.10751,0.31984 -0.31716,0.58593 -0.24458,0.31715 -0.58324,0.47842 -0.33597,0.16126 -0.74988,0.16126 -0.59669,0 -0.94072,-0.34134 -0.34403,-0.34135 -0.34403,-0.92997 0,-0.33865 0.1102,-0.66118 0.11019,-0.32522 0.31984,-0.594 0.2419,-0.31178 0.57518,-0.47304 0.33597,-0.16127 0.74182,-0.16127 z"
             id="path3676" />
          <path
             d="m 667.09573,-177.41462 -0.32253,1.83305 h -0.86814 l 0.27415,-1.56965 q 0.0296,-0.1532 0.043,-0.25803 0.0161,-0.10751 0.0161,-0.16932 0,-0.17202 -0.086,-0.26609 -0.086,-0.0941 -0.2419,-0.0941 -0.26877,0 -0.46229,0.23383 -0.19083,0.23115 -0.26609,0.64237 l -0.26071,1.48096 h -0.86814 l 0.5268,-3.01029 h 0.87083 l -0.0806,0.44079 q 0.23921,-0.26071 0.4811,-0.38703 0.2419,-0.12633 0.5053,-0.12633 0.37629,0 0.57787,0.21771 0.20427,0.21771 0.20427,0.61281 0,0.086 -0.0108,0.19083 -0.0107,0.10482 -0.0323,0.22846 z"
             id="path3678" />
          <path
             d="m 670.20008,-178.49779 -0.12632,0.7472 q -0.25534,-0.13439 -0.50798,-0.20427 -0.24997,-0.0699 -0.47574,-0.0699 -0.25533,0 -0.3951,0.0753 -0.13976,0.0726 -0.13976,0.20964 0,0.0806 0.0779,0.12901 0.0779,0.0484 0.30372,0.10214 l 0.15858,0.0323 q 0.52411,0.12364 0.73375,0.31984 0.21234,0.19352 0.21234,0.54024 0,0.52411 -0.37091,0.81977 -0.36822,0.29296 -1.03479,0.29296 -0.27952,0 -0.5698,-0.0484 -0.29028,-0.0484 -0.59131,-0.14514 l 0.1317,-0.75526 q 0.23384,0.15321 0.49992,0.23115 0.26878,0.0779 0.54831,0.0779 0.27415,0 0.41122,-0.0726 0.13977,-0.0726 0.13977,-0.21234 0,-0.0968 -0.0779,-0.15051 -0.0779,-0.0538 -0.31984,-0.1102 l -0.15858,-0.0323 q -0.46229,-0.10751 -0.66119,-0.31716 -0.19889,-0.20964 -0.19889,-0.58055 0,-0.50261 0.34134,-0.77407 0.34404,-0.27147 0.97835,-0.27147 0.27952,0 0.5483,0.043 0.27146,0.0403 0.54292,0.12363 z"
             id="path3680" />
          <path
             d="m 671.42033,-179.59439 h 0.87352 l -0.27415,1.54008 -0.31716,1.12348 h -0.62355 l 0.0672,-1.12348 z m -0.53486,3.05598 h 0.87083 l -0.16664,0.95684 h -0.87352 z"
             id="path3682" />
        </g>
      </g>
    </g>
  </g>
</svg>
