<?xml version="1.0" encoding="UTF-8" standalone="no"?>
<!-- Created with Inkscape (http://www.inkscape.org/) -->

<svg
   width="95.354683mm"
   height="72.696968mm"
   viewBox="0 0 95.354684 72.696967"
   version="1.1"
   id="svg2944"
   inkscape:version="1.2.2 (b0a8486541, 2022-12-01)"
   sodipodi:docname="logo_dark.svg"
   xmlns:inkscape="http://www.inkscape.org/namespaces/inkscape"
   xmlns:sodipodi="http://sodipodi.sourceforge.net/DTD/sodipodi-0.dtd"
   xmlns="http://www.w3.org/2000/svg"
   xmlns:svg="http://www.w3.org/2000/svg">
  <sodipodi:namedview
     id="namedview2946"
     pagecolor="#ffffff"
     bordercolor="#000000"
     borderopacity="0.25"
     inkscape:showpageshadow="2"
     inkscape:pageopacity="0.0"
     inkscape:pagecheckerboard="0"
     inkscape:deskcolor="#d1d1d1"
     inkscape:document-units="mm"
     showgrid="false"
     inkscape:zoom="0.66012205"
     inkscape:cx="-232.53276"
     inkscape:cy="-216.62661"
     inkscape:window-width="1920"
     inkscape:window-height="1013"
     inkscape:window-x="0"
     inkscape:window-y="0"
     inkscape:window-maximized="1"
     inkscape:current-layer="layer1" />
  <defs
     id="defs2941" />
  <g
     inkscape:label="Layer 1"
     inkscape:groupmode="layer"
     id="layer1"
     transform="translate(-166.69337,-205.5659)">
    <g
       id="g87555"
       transform="matrix(0.94800097,0,0,0.94800097,-267.61794,453.68226)">
      <g
         id="g78712"
         transform="translate(17.841288,7.4983956)">
        <g
           id="g74225"
           transform="translate(-113.39017,19.56456)">
          <g
             id="g74203">
            <path
               style="fill:#1c71d8;stroke:none;stroke-width:0.262228px;stroke-linecap:butt;stroke-linejoin:miter;stroke-opacity:1"
               d="m 617.12322,-275.14323 c -1.25052,1.53904 -0.52196,2.95036 0.25483,4.16367 -2.26515,3.98342 -7.28277,12.78989 -10.19864,17.90839 -1.55481,2.73211 -4.01465,3.61993 -4.01465,3.61993 0,0 4.42681,0.24322 5.98907,-2.49209 2.79888,-4.92261 8.01717,-14.08748 10.19997,-17.92025 1.07426,-1.69807 -1.59275,-2.5772 -0.73952,-4.0754 0.85323,-1.49819 4.27196,1.45068 5.64207,1.61624 -1.00521,-1.54757 -2.09636,-2.86951 -3.36816,-3.45134 -1.36929,-0.62644 -2.91312,-0.41754 -3.76497,0.63085 z"
               id="path73971"
               sodipodi:nodetypes="sccccczcss" />
            <path
               id="path73973"
               style="color:#000000;clip-rule:nonzero;display:inline;overflow:visible;visibility:visible;isolation:auto;mix-blend-mode:normal;color-interpolation:sRGB;color-interpolation-filters:linearRGB;solid-color:#000000;solid-opacity:1;fill:#deddda;fill-opacity:1;fill-rule:nonzero;stroke:none;stroke-width:5.86653;stroke-linecap:round;stroke-linejoin:round;stroke-miterlimit:4;stroke-dasharray:none;stroke-dashoffset:0;stroke-opacity:1;color-rendering:auto;image-rendering:auto;shape-rendering:auto;text-rendering:auto;enable-background:accumulate"
               d="m 602.17388,-282.32324 c -0.15722,5.3e-4 -0.31523,0.007 -0.47337,0.0191 -3.21188,0.14399 -6.04684,2.8413 -6.35256,6.04098 -0.42556,3.18173 1.71672,6.45149 4.81107,7.31945 1.30898,0.40501 2.75109,0.39248 4.11396,-0.0496 2.40493,-0.73575 4.18369,-2.93376 4.61004,-5.36918 -1.10815,-0.76101 -4.3271,1.48137 -5.92211,-0.0336 -1.73498,-1.6479 0.43614,-3.94529 2.33526,-3.27474 1.19597,0.42227 2.72947,1.54535 3.67472,1.82831 -0.0172,-0.29476 -0.0552,-0.58909 -0.11575,-0.8816 -0.53168,-3.18357 -3.4847,-5.60877 -6.68126,-5.59914 z m -10.15392,12.55738 c -0.0492,5.3e-4 -0.0983,0.002 -0.14726,0.005 -2.44848,0.54497 -4.84968,1.31973 -7.28017,1.95131 -3.6208,1.01893 -7.2675,1.95848 -10.87221,3.02669 -1.05193,0.37456 -2.70602,1.07224 -2.76315,2.90886 -0.0337,1.08222 0.56129,2.75357 1.07022,3.2365 0.62867,0.60624 2.27189,0.83929 3.406,0.43925 3.67472,-1.01177 7.34941,-2.02371 11.02413,-3.03548 0.55296,0.4815 0.69448,0.99297 0.15711,1.55391 -2.94629,5.18413 -4.8057,8.44503 -7.752,13.62915 -0.1112,0.19568 -0.4904,0.26989 -2.41895,-0.45321 -2.66012,-0.99739 -5.77789,-2.18888 -7.9184,-2.96157 -3.04334,-1.09861 -4.06678,1.1719 -4.42918,2.02365 -0.74739,1.7566 0.39405,3.74586 1.97559,4.34185 4.25464,1.60331 10.02774,3.76756 13.24158,4.94492 0.68842,0.2522 2.77701,0.0279 3.67419,-1.33842 0.81394,-1.43293 3.63744,-6.39708 4.4514,-7.83001 0.62058,-0.37505 1.14681,0.0102 1.67947,0.34364 1.65436,0.93825 3.32261,1.85538 4.97697,2.79363 0.37526,0.62069 -0.0103,1.14657 -0.34417,1.67897 -2.46105,4.37548 -5.00025,8.71101 -7.41246,13.11134 -0.83068,1.70765 0.26218,3.80557 1.98438,4.41265 1.52696,0.70658 3.45051,-0.006 4.18838,-1.50998 3.27271,-5.78342 6.58728,-11.54397 9.8335,-17.34158 0.78521,-1.68078 -0.10223,-3.81069 -1.78903,-4.53357 -1.58853,-0.90286 -3.17709,-1.80602 -4.76562,-2.70888 -0.37526,-0.62069 0.0108,-1.14659 0.3447,-1.67897 1.2088,-2.12718 1.63803,-2.88078 2.84683,-5.00796 0.62077,-0.37536 1.1375,0.0421 1.67897,0.34468 0.55602,0.31062 2.90068,2.05804 4.32223,1.98851 3.08153,-0.86428 6.73465,-1.89415 9.50537,-2.68614 1.39872,-0.36719 2.20324,-1.62836 2.16678,-2.92437 0.10507,-1.77701 -1.54575,-3.99813 -3.35277,-3.73414 -2.61065,0.59978 -5.17586,1.41027 -7.76955,2.08928 -0.8923,-0.11741 -1.59072,-0.82232 -2.40191,-1.18546 -3.37082,-1.89536 -6.71015,-3.85389 -10.10171,-5.70818 -0.31872,-0.13078 -0.66503,-0.18855 -1.00926,-0.18551 z"
               sodipodi:nodetypes="scccccssccsscccsccccsssssscccccccccccccscccccccs" />
            <path
               d="m 573.83489,-232.63306 2.47546,-4.34577 h 9.97388 l -5.07266,8.90525 c -2.65056,1.30136 -4.84729,2.18951 -6.59016,2.66446 -1.72797,0.46544 -3.59882,0.69817 -5.6126,0.69817 -2.47922,0 -4.26171,-0.42271 -5.34748,-1.26811 -1.07624,-0.8454 -1.57043,-2.10402 -1.48252,-3.77583 0.0974,-1.6718 0.76293,-3.59059 1.99659,-5.75635 1.29861,-2.27974 2.89695,-4.26027 4.79507,-5.94157 1.90353,-1.69082 4.01132,-2.97317 6.3234,-3.84707 1.79952,-0.67442 3.89614,-1.01164 6.28987,-1.01164 2.30824,0 3.22707,0.70889 4.12887,1.12684 2.05598,1.10363 2.40738,3.98144 1.90052,5.89751 l -6.52559,9e-5 c 0.19256,-0.7884 0.0993,-1.39159 -0.28009,-1.80954 -0.36985,-0.41795 -1.02973,-0.62693 -1.97962,-0.62693 -1.41534,0 -2.82706,0.49394 -4.2352,1.48184 -1.39324,0.97839 -2.69585,2.53146 -3.90787,4.65921 -1.28778,2.26075 -1.78492,3.87557 -1.49141,4.84446 0.30299,0.96889 1.21442,1.45334 2.73424,1.45334 0.72192,0 1.47009,-0.10455 2.24457,-0.31346 0.77447,-0.20897 1.72778,-0.56519 2.85996,-1.06863 l 1.12003,-1.96628 z"
               style="font-size:38.4138px;line-height:1.25;font-family:'Arial Black';-inkscape-font-specification:'Arial Black, Normal';letter-spacing:0px;word-spacing:0px;fill:#1c71d8;stroke-width:0.729519"
               id="path73975"
               sodipodi:nodetypes="cccccsccsccsccccscscssccc" />
            <path
               d="m 607.62775,-245.5991 h 10.72903 q 3.5051,0 4.2938,1.66707 0.80297,1.66706 -0.95014,4.74471 -1.80182,3.16314 -4.72562,4.94419 -2.90957,1.78105 -6.81362,1.78105 h -3.53359 l -4.41524,7.75113 h -6.48301 z m 1.41037,8.90525 h 1.58157 q 1.86655,0 2.98694,-0.64118 1.12851,-0.65542 1.70476,-1.66706 0.56001,-0.98315 0.29415,-1.66706 -0.26585,-0.68393 -2.07539,-0.68393 h -1.83804 z"
               style="font-size:38.4138px;line-height:1.25;font-family:'Arial Black';-inkscape-font-specification:'Arial Black, Normal';letter-spacing:0px;word-spacing:0px;fill:#1c71d8;stroke-width:0.729519"
               id="path73977" />
            <path
               d="m 621.15345,-236.58781 h 4.598 l -1.19614,2.09988 q 1.44056,-1.36372 2.42924,-1.87057 1.00762,-0.51895 2.04548,-0.51895 1.08615,0 1.99249,0.67583 l -3.51416,3.49979 q -0.66269,-0.36205 -1.16955,-0.36205 -0.96547,0 -1.95018,0.79651 -1.39961,1.12235 -3.15258,4.19975 l -2.44729,4.29631 h -4.93592 z"
               style="font-size:38.4138px;line-height:1.25;font-family:'Arial Black';-inkscape-font-specification:'Arial Black, Normal';letter-spacing:0px;word-spacing:0px;fill:#1c71d8;stroke-width:0.617895"
               id="path73979" />
            <path
               d="m 631.71843,-236.58781 h 5.18935 l -2.21723,8.53226 7.31005,-8.53226 h 4.83936 l -12.88316,13.69747 q -2.20254,2.34125 -3.57511,3.16189 -1.93918,1.15855 -4.55799,1.15855 -1.062,0 -3.1176,-0.28963 l 1.56616,-3.42739 q 0.86951,0.3379 2.17289,0.3379 0.86891,0 1.62677,-0.39824 0.76993,-0.39826 1.72835,-1.42405 z"
               style="font-size:38.4138px;line-height:1.25;font-family:'Arial Black';-inkscape-font-specification:'Arial Black, Normal';letter-spacing:0px;word-spacing:0px;fill:#1c71d8;stroke-width:0.617895"
               id="path73981" />
            <path
               id="path73983"
               style="fill:#deddda;stroke-width:0.01;stop-color:#000000"
               d="m 606.15586,-275.48903 c -0.0616,0.36557 -0.70424,0.56204 -1.43538,0.43884 -0.73113,-0.12321 -1.11724,-0.51943 -1.05564,-0.885 0.0616,-0.36557 0.70464,-0.75382 1.39347,-0.47951 1.27155,0.50636 1.15915,0.5601 1.09755,0.92567 z"
               sodipodi:nodetypes="sssss" />
            <circle
               id="circle73985"
               style="fill:#dc8add;stroke:#a51d2d;stroke-width:0.264583"
               cx="597.07922"
               cy="-227.98106"
               r="0.00075928762" />
          </g>
        </g>
      </g>
    </g>
  </g>
</svg>
