<?xml version="1.0" encoding="UTF-8" standalone="no"?>
<!-- Created with Inkscape (http://www.inkscape.org/) -->

<svg
   width="111.70403mm"
   height="80.458855mm"
   viewBox="0 0 111.70403 80.458854"
   version="1.1"
   id="svg2944"
   inkscape:version="1.2.2 (b0a8486541, 2022-12-01)"
   sodipodi:docname="logo_clear_motto.svg"
   xmlns:inkscape="http://www.inkscape.org/namespaces/inkscape"
   xmlns:sodipodi="http://sodipodi.sourceforge.net/DTD/sodipodi-0.dtd"
   xmlns="http://www.w3.org/2000/svg"
   xmlns:svg="http://www.w3.org/2000/svg">
  <sodipodi:namedview
     id="namedview2946"
     pagecolor="#ffffff"
     bordercolor="#000000"
     borderopacity="0.25"
     inkscape:showpageshadow="2"
     inkscape:pageopacity="0.0"
     inkscape:pagecheckerboard="0"
     inkscape:deskcolor="#d1d1d1"
     inkscape:document-units="mm"
     showgrid="false"
     inkscape:zoom="0.66012205"
     inkscape:cx="-153.75944"
     inkscape:cy="-87.862539"
     inkscape:window-width="1920"
     inkscape:window-height="1013"
     inkscape:window-x="0"
     inkscape:window-y="0"
     inkscape:window-maximized="1"
     inkscape:current-layer="layer1" />
  <defs
     id="defs2941" />
  <g
     inkscape:label="Layer 1"
     inkscape:groupmode="layer"
     id="layer1"
     transform="translate(-145.75987,-171.30848)">
    <g
       id="g3423">
      <g
         id="g3379">
        <path
           d="m 155.17471,244.81509 q -0.33633,0.18091 -0.6956,0.27008 -0.35927,0.0866 -0.77205,0.0866 -0.72872,0 -1.14658,-0.41022 -0.41533,-0.41278 -0.41533,-1.12366 0,-0.4612 0.12995,-0.86377 0.12994,-0.40513 0.38984,-0.73892 0.31595,-0.40768 0.74657,-0.60897 0.43061,-0.2013 0.98352,-0.2013 0.30576,0 0.61661,0.0714 0.31341,0.0714 0.61661,0.21148 l -0.13504,0.78733 q -0.28028,-0.18091 -0.54782,-0.27009 -0.26754,-0.0892 -0.53762,-0.0892 -0.59114,0 -0.96314,0.43825 -0.37202,0.43825 -0.37202,1.12621 0,0.4561 0.21658,0.70834 0.21658,0.25225 0.61152,0.25225 0.1274,0 0.25481,-0.0178 0.12994,-0.0204 0.25989,-0.0611 l 0.13249,-0.73892 h -0.54017 l 0.11211,-0.65739 h 1.37337 z"
           id="path3153"
           style="font-style:oblique;font-weight:bold;font-stretch:semi-condensed;font-size:5.50452px;line-height:1.25;font-family:'DejaVu Sans';-inkscape-font-specification:'DejaVu Sans, Bold Oblique Semi-Condensed';letter-spacing:0px;word-spacing:0px;stroke-width:0.130457" />
        <path
           d="m 158.78012,243.77805 -0.0281,0.14525 h -1.92119 q 0,0.0153 -0.003,0.0459 -0.003,0.0281 -0.003,0.0433 0,0.27773 0.15033,0.41532 0.15033,0.13759 0.451,0.13759 0.25989,0 0.54781,-0.0866 0.28793,-0.0866 0.60388,-0.25736 l -0.12741,0.70835 q -0.2981,0.1223 -0.59622,0.18091 -0.29557,0.0611 -0.60388,0.0611 -0.60133,0 -0.92747,-0.3083 -0.32614,-0.30831 -0.32614,-0.87142 0,-0.32614 0.10192,-0.6319 0.10446,-0.30831 0.30576,-0.5631 0.23696,-0.30576 0.56565,-0.46373 0.3287,-0.15798 0.72872,-0.15798 0.52234,0 0.82811,0.3083 0.30576,0.30831 0.30576,0.83065 0,0.10192 -0.0127,0.21658 -0.0127,0.11211 -0.0408,0.24715 z m -0.77458,-0.41787 q 0.008,-0.0331 0.0102,-0.0663 0.003,-0.0357 0.003,-0.0688 0,-0.20384 -0.10956,-0.32359 -0.10956,-0.11976 -0.29812,-0.11976 -0.23951,0 -0.41022,0.14778 -0.16817,0.14524 -0.25735,0.43062 z"
           id="path3155"
           style="font-style:oblique;font-weight:bold;font-stretch:semi-condensed;font-size:5.50452px;line-height:1.25;font-family:'DejaVu Sans';-inkscape-font-specification:'DejaVu Sans, Bold Oblique Semi-Condensed';letter-spacing:0px;word-spacing:0px;stroke-width:0.130457" />
        <path
           d="m 160.70131,241.4339 -0.14014,0.81027 h 0.84084 l -0.11721,0.65228 h -0.84083 l -0.20894,1.20775 q -0.0102,0.0408 -0.0153,0.0688 -0.003,0.0281 -0.003,0.0535 0,0.11721 0.0688,0.16817 0.0713,0.051 0.23697,0.051 h 0.42551 l -0.11721,0.65229 h -0.69051 q -0.372,0 -0.5682,-0.17326 -0.19364,-0.17326 -0.19364,-0.49941 0,-0.0714 0.005,-0.15287 0.008,-0.0815 0.0229,-0.16563 l 0.21148,-1.21029 h -0.40513 l 0.11211,-0.65228 h 0.41023 l 0.14014,-0.81027 z"
           id="path3157"
           style="font-style:oblique;font-weight:bold;font-stretch:semi-condensed;font-size:5.50452px;line-height:1.25;font-family:'DejaVu Sans';-inkscape-font-specification:'DejaVu Sans, Bold Oblique Semi-Condensed';letter-spacing:0px;word-spacing:0px;stroke-width:0.130457" />
        <path
           d="m 162.94609,241.4339 -0.14014,0.81027 h 0.84084 l -0.1172,0.65228 h -0.84084 l -0.20894,1.20775 q -0.0102,0.0408 -0.0153,0.0688 -0.003,0.0281 -0.003,0.0535 0,0.11721 0.0688,0.16817 0.0713,0.051 0.23696,0.051 h 0.42551 l -0.1172,0.65229 h -0.69052 q -0.372,0 -0.5682,-0.17326 -0.19364,-0.17326 -0.19364,-0.49941 0,-0.0714 0.005,-0.15287 0.008,-0.0815 0.0229,-0.16563 l 0.21148,-1.21029 h -0.40513 l 0.11211,-0.65228 h 0.41023 l 0.14015,-0.81027 z"
           id="path3159"
           style="font-style:oblique;font-weight:bold;font-stretch:semi-condensed;font-size:5.50452px;line-height:1.25;font-family:'DejaVu Sans';-inkscape-font-specification:'DejaVu Sans, Bold Oblique Semi-Condensed';letter-spacing:0px;word-spacing:0px;stroke-width:0.130457" />
        <path
           d="m 164.14619,242.24417 h 0.82555 l -0.50195,2.85375 h -0.823 z m 0.1911,-1.11094 h 0.82556 l -0.12995,0.74402 h -0.8281 z"
           id="path3161"
           style="font-style:oblique;font-weight:bold;font-stretch:semi-condensed;font-size:5.50452px;line-height:1.25;font-family:'DejaVu Sans';-inkscape-font-specification:'DejaVu Sans, Bold Oblique Semi-Condensed';letter-spacing:0px;word-spacing:0px;stroke-width:0.130457" />
        <path
           d="m 168.1389,243.36018 -0.30576,1.73774 h -0.823 l 0.2599,-1.48803 q 0.0281,-0.14524 0.0408,-0.24461 0.0153,-0.10192 0.0153,-0.16052 0,-0.16308 -0.0815,-0.25226 -0.0815,-0.0892 -0.22933,-0.0892 -0.25479,0 -0.43825,0.22167 -0.1809,0.21913 -0.25225,0.60898 l -0.24715,1.40394 h -0.823 l 0.49941,-2.85375 h 0.82554 l -0.0764,0.41787 q 0.22679,-0.24716 0.4561,-0.36692 0.22932,-0.11975 0.47902,-0.11975 0.35673,0 0.54782,0.20638 0.19365,0.20639 0.19365,0.58095 0,0.0815 -0.0101,0.1809 -0.0102,0.0994 -0.0306,0.21658 z"
           id="path3163"
           style="font-style:oblique;font-weight:bold;font-stretch:semi-condensed;font-size:5.50452px;line-height:1.25;font-family:'DejaVu Sans';-inkscape-font-specification:'DejaVu Sans, Bold Oblique Semi-Condensed';letter-spacing:0px;word-spacing:0px;stroke-width:0.130457" />
        <path
           d="m 170.41426,244.6138 q -0.1962,0.2497 -0.40003,0.3669 -0.20384,0.11722 -0.44591,0.11722 -0.4357,0 -0.6905,-0.31086 -0.25226,-0.3134 -0.25226,-0.85357 0,-0.28793 0.0892,-0.57586 0.0892,-0.29047 0.25225,-0.54527 0.20384,-0.3083 0.46373,-0.46882 0.26244,-0.16308 0.56311,-0.16308 0.27009,0 0.45354,0.11721 0.186,0.1172 0.31085,0.36946 l 0.0688,-0.42296 h 0.8281 l -0.43316,2.47919 q -0.1325,0.76694 -0.5682,1.13386 -0.43571,0.36691 -1.2103,0.36691 -0.23951,0 -0.46118,-0.0408 -0.21913,-0.0408 -0.43572,-0.12485 l 0.12232,-0.71089 q 0.19363,0.13759 0.38728,0.20384 0.1962,0.0688 0.40004,0.0688 0.40768,0 0.62681,-0.19365 0.21913,-0.19364 0.29557,-0.61661 z m -0.22932,-1.77596 q -0.30067,0 -0.50196,0.30321 -0.20128,0.30322 -0.20128,0.76185 0,0.2599 0.10701,0.39749 0.10957,0.13504 0.31595,0.13504 0.30066,0 0.50195,-0.30065 0.2013,-0.30321 0.2013,-0.75422 0,-0.26498 -0.10957,-0.40257 -0.10701,-0.14015 -0.3134,-0.14015 z"
           id="path3165"
           style="font-style:oblique;font-weight:bold;font-stretch:semi-condensed;font-size:5.50452px;line-height:1.25;font-family:'DejaVu Sans';-inkscape-font-specification:'DejaVu Sans, Bold Oblique Semi-Condensed';letter-spacing:0px;word-spacing:0px;stroke-width:0.130457" />
        <path
           d="m 174.993,243.81373 q -0.30831,0 -0.46628,0.10702 -0.15543,0.10446 -0.15543,0.31084 0,0.15544 0.0918,0.24462 0.0942,0.0892 0.25735,0.0892 0.2497,0 0.42041,-0.16816 0.17072,-0.17072 0.22678,-0.47903 l 0.0178,-0.10447 z m 1.28164,-0.34399 -0.28792,1.62818 h -0.82045 l 0.0688,-0.42297 q -0.20129,0.2548 -0.42807,0.3771 -0.22422,0.11975 -0.48666,0.11975 -0.36437,0 -0.5784,-0.20893 -0.21403,-0.21148 -0.21403,-0.5682 0,-0.54527 0.37711,-0.8332 0.37965,-0.29047 1.09563,-0.29047 h 0.48413 l 0.0101,-0.0714 q 0.005,-0.0357 0.005,-0.0509 0.003,-0.0153 0.003,-0.0281 0,-0.16816 -0.14269,-0.25224 -0.14269,-0.0867 -0.42552,-0.0867 -0.25479,0 -0.4943,0.0586 -0.23697,0.0586 -0.45865,0.1758 l 0.1223,-0.69559 q 0.25736,-0.0714 0.52744,-0.10702 0.27009,-0.0382 0.55802,-0.0382 0.57074,0 0.84848,0.21912 0.27773,0.21658 0.27773,0.66249 0,0.0866 -0.0102,0.19109 -0.0102,0.10192 -0.0306,0.22168 z"
           id="path3167"
           style="font-style:oblique;font-weight:bold;font-stretch:semi-condensed;font-size:5.50452px;line-height:1.25;font-family:'DejaVu Sans';-inkscape-font-specification:'DejaVu Sans, Bold Oblique Semi-Condensed';letter-spacing:0px;word-spacing:0px;stroke-width:0.130457" />
        <path
           d="m 177.0212,242.24417 h 0.75676 l 0.0892,1.96195 0.77458,-1.96195 h 0.6523 l 0.0942,1.95685 0.76949,-1.95685 h 0.80772 l -1.17464,2.85375 h -0.87141 l -0.0841,-1.96196 -0.78479,1.96196 h -0.85102 z"
           id="path3169"
           style="font-style:oblique;font-weight:bold;font-stretch:semi-condensed;font-size:5.50452px;line-height:1.25;font-family:'DejaVu Sans';-inkscape-font-specification:'DejaVu Sans, Bold Oblique Semi-Condensed';letter-spacing:0px;word-spacing:0px;stroke-width:0.130457" />
        <path
           d="m 182.49685,243.81373 q -0.30831,0 -0.46629,0.10702 -0.15543,0.10446 -0.15543,0.31084 0,0.15544 0.0918,0.24462 0.0943,0.0892 0.25735,0.0892 0.2497,0 0.42042,-0.16816 0.17072,-0.17072 0.22677,-0.47903 l 0.0178,-0.10447 z m 1.28164,-0.34399 -0.28793,1.62818 h -0.82046 l 0.0688,-0.42297 q -0.20129,0.2548 -0.42806,0.3771 -0.22422,0.11975 -0.48667,0.11975 -0.36436,0 -0.57839,-0.20893 -0.21403,-0.21148 -0.21403,-0.5682 0,-0.54527 0.3771,-0.8332 0.37965,-0.29047 1.09564,-0.29047 h 0.48411 l 0.0102,-0.0714 q 0.005,-0.0357 0.005,-0.0509 0.003,-0.0153 0.003,-0.0281 0,-0.16816 -0.14269,-0.25224 -0.14269,-0.0867 -0.42551,-0.0867 -0.25481,0 -0.49432,0.0586 -0.23696,0.0586 -0.45863,0.1758 l 0.1223,-0.69559 q 0.25734,-0.0714 0.52744,-0.10702 0.27008,-0.0382 0.558,-0.0382 0.57075,0 0.84849,0.21912 0.27773,0.21658 0.27773,0.66249 0,0.0866 -0.0102,0.19109 -0.0102,0.10192 -0.0306,0.22168 z"
           id="path3171"
           style="font-style:oblique;font-weight:bold;font-stretch:semi-condensed;font-size:5.50452px;line-height:1.25;font-family:'DejaVu Sans';-inkscape-font-specification:'DejaVu Sans, Bold Oblique Semi-Condensed';letter-spacing:0px;word-spacing:0px;stroke-width:0.130457" />
        <path
           d="m 184.26769,242.24417 h 0.7746 l 0.35162,1.97723 0.91219,-1.97723 h 0.87651 l -1.62562,3.12383 q -0.27264,0.52744 -0.50451,0.69051 -0.23186,0.16562 -0.59878,0.16562 h -0.49685 l 0.0841,-0.59878 h 0.25991 q 0.20129,0 0.3134,-0.0764 0.11211,-0.0738 0.19874,-0.26245 l 0.0738,-0.15287 z"
           id="path3173"
           style="font-style:oblique;font-weight:bold;font-stretch:semi-condensed;font-size:5.50452px;line-height:1.25;font-family:'DejaVu Sans';-inkscape-font-specification:'DejaVu Sans, Bold Oblique Semi-Condensed';letter-spacing:0px;word-spacing:0px;stroke-width:0.130457" />
        <path
           d="m 189.05792,242.24417 h 0.75677 l 0.0892,1.96195 0.77459,-1.96195 h 0.65229 l 0.0942,1.95685 0.76949,-1.95685 h 0.80772 l -1.17463,2.85375 h -0.87142 l -0.0841,-1.96196 -0.78478,1.96196 h -0.85103 z"
           id="path3175"
           style="font-style:oblique;font-weight:bold;font-stretch:semi-condensed;font-size:5.50452px;line-height:1.25;font-family:'DejaVu Sans';-inkscape-font-specification:'DejaVu Sans, Bold Oblique Semi-Condensed';letter-spacing:0px;word-spacing:0px;stroke-width:0.130457" />
        <path
           d="m 193.63157,242.24417 h 0.82555 l -0.50196,2.85375 h -0.82299 z m 0.1911,-1.11094 h 0.82555 l -0.12994,0.74402 h -0.8281 z"
           id="path3177"
           style="font-style:oblique;font-weight:bold;font-stretch:semi-condensed;font-size:5.50452px;line-height:1.25;font-family:'DejaVu Sans';-inkscape-font-specification:'DejaVu Sans, Bold Oblique Semi-Condensed';letter-spacing:0px;word-spacing:0px;stroke-width:0.130457" />
        <path
           d="m 196.28403,241.4339 -0.14014,0.81027 h 0.84084 l -0.1172,0.65228 h -0.84084 l -0.20894,1.20775 q -0.0102,0.0408 -0.0153,0.0688 -0.003,0.0281 -0.003,0.0535 0,0.11721 0.0688,0.16817 0.0713,0.051 0.23696,0.051 h 0.42551 l -0.1172,0.65229 H 195.723 q -0.372,0 -0.56819,-0.17326 -0.19365,-0.17326 -0.19365,-0.49941 0,-0.0714 0.005,-0.15287 0.008,-0.0815 0.0229,-0.16563 l 0.21148,-1.21029 h -0.40512 l 0.11211,-0.65228 h 0.41023 l 0.14014,-0.81027 z"
           id="path3179"
           style="font-style:oblique;font-weight:bold;font-stretch:semi-condensed;font-size:5.50452px;line-height:1.25;font-family:'DejaVu Sans';-inkscape-font-specification:'DejaVu Sans, Bold Oblique Semi-Condensed';letter-spacing:0px;word-spacing:0px;stroke-width:0.130457" />
        <path
           d="m 199.86906,243.36018 -0.30576,1.73774 h -0.823 l 0.2599,-1.48803 q 0.0281,-0.14524 0.0408,-0.24461 0.0153,-0.10192 0.0153,-0.16052 0,-0.16308 -0.0815,-0.25226 -0.0815,-0.0892 -0.22932,-0.0892 -0.2548,0 -0.43826,0.22167 -0.1809,0.21913 -0.25225,0.60898 l -0.24715,1.40394 h -0.82301 l 0.69052,-3.96468 h 0.82554 l -0.26754,1.5288 q 0.22677,-0.24716 0.45609,-0.36692 0.22932,-0.11975 0.47903,-0.11975 0.35671,0 0.54782,0.20638 0.19365,0.20639 0.19365,0.58095 0,0.0815 -0.0102,0.1809 -0.0102,0.0994 -0.0306,0.21658 z"
           id="path3181"
           style="font-style:oblique;font-weight:bold;font-stretch:semi-condensed;font-size:5.50452px;line-height:1.25;font-family:'DejaVu Sans';-inkscape-font-specification:'DejaVu Sans, Bold Oblique Semi-Condensed';letter-spacing:0px;word-spacing:0px;stroke-width:0.130457" />
        <path
           d="m 204.35098,241.13323 -0.10702,0.59879 h -0.45099 q -0.17326,0 -0.25225,0.0713 -0.079,0.0688 -0.10956,0.23951 l -0.0382,0.2013 h 0.6956 l -0.11211,0.65228 h -0.69561 l -0.38475,2.20147 h -0.82554 l 0.38474,-2.20147 h -0.40513 l 0.11467,-0.65228 h 0.40257 l 0.0382,-0.19875 q 0.0841,-0.47392 0.35162,-0.69305 0.27009,-0.21913 0.7644,-0.21913 z"
           id="path3183"
           style="font-style:oblique;font-weight:bold;font-stretch:semi-condensed;font-size:5.50452px;line-height:1.25;font-family:'DejaVu Sans';-inkscape-font-specification:'DejaVu Sans, Bold Oblique Semi-Condensed';letter-spacing:0px;word-spacing:0px;stroke-width:0.130457" />
        <path
           d="m 206.80979,243.77805 -0.0281,0.14525 h -1.92119 q 0,0.0153 -0.003,0.0459 -0.003,0.0281 -0.003,0.0433 0,0.27773 0.15034,0.41532 0.15033,0.13759 0.45099,0.13759 0.2599,0 0.54782,-0.0866 0.28793,-0.0866 0.60388,-0.25736 l -0.1274,0.70835 q -0.29812,0.1223 -0.59623,0.18091 -0.29557,0.0611 -0.60388,0.0611 -0.60132,0 -0.92746,-0.3083 -0.32615,-0.30831 -0.32615,-0.87142 0,-0.32614 0.10192,-0.6319 0.10447,-0.30831 0.30575,-0.5631 0.23698,-0.30576 0.56567,-0.46373 0.32869,-0.15798 0.72872,-0.15798 0.52233,0 0.82809,0.3083 0.30576,0.30831 0.30576,0.83065 0,0.10192 -0.0127,0.21658 -0.0127,0.11211 -0.0408,0.24715 z m -0.77459,-0.41787 q 0.008,-0.0331 0.0102,-0.0663 0.003,-0.0357 0.003,-0.0688 0,-0.20384 -0.10956,-0.32359 -0.10956,-0.11976 -0.29812,-0.11976 -0.23951,0 -0.41022,0.14778 -0.16817,0.14524 -0.25735,0.43062 z"
           id="path3185"
           style="font-style:oblique;font-weight:bold;font-stretch:semi-condensed;font-size:5.50452px;line-height:1.25;font-family:'DejaVu Sans';-inkscape-font-specification:'DejaVu Sans, Bold Oblique Semi-Condensed';letter-spacing:0px;word-spacing:0px;stroke-width:0.130457" />
        <path
           d="m 207.44934,242.24417 h 0.75675 l 0.0892,1.96195 0.77458,-1.96195 h 0.65229 l 0.0942,1.95685 0.7695,-1.95685 h 0.8077 l -1.17462,2.85375 h -0.87141 l -0.0841,-1.96196 -0.78478,1.96196 h -0.85103 z"
           id="path3187"
           style="font-style:oblique;font-weight:bold;font-stretch:semi-condensed;font-size:5.50452px;line-height:1.25;font-family:'DejaVu Sans';-inkscape-font-specification:'DejaVu Sans, Bold Oblique Semi-Condensed';letter-spacing:0px;word-spacing:0px;stroke-width:0.130457" />
        <path
           d="m 214.33147,243.77805 -0.0281,0.14525 h -1.92119 q 0,0.0153 -0.003,0.0459 -0.003,0.0281 -0.003,0.0433 0,0.27773 0.15033,0.41532 0.15034,0.13759 0.451,0.13759 0.25989,0 0.54782,-0.0866 0.28792,-0.0866 0.60387,-0.25736 l -0.1274,0.70835 q -0.29812,0.1223 -0.59622,0.18091 -0.29557,0.0611 -0.60388,0.0611 -0.60133,0 -0.92747,-0.3083 -0.32615,-0.30831 -0.32615,-0.87142 0,-0.32614 0.10192,-0.6319 0.10447,-0.30831 0.30576,-0.5631 0.23697,-0.30576 0.56566,-0.46373 0.32869,-0.15798 0.72872,-0.15798 0.52234,0 0.8281,0.3083 0.30576,0.30831 0.30576,0.83065 0,0.10192 -0.0127,0.21658 -0.0127,0.11211 -0.0408,0.24715 z m -0.77459,-0.41787 q 0.008,-0.0331 0.0102,-0.0663 0.003,-0.0357 0.003,-0.0688 0,-0.20384 -0.10956,-0.32359 -0.10956,-0.11976 -0.29812,-0.11976 -0.23951,0 -0.41023,0.14778 -0.16816,0.14524 -0.25734,0.43062 z"
           id="path3189"
           style="font-style:oblique;font-weight:bold;font-stretch:semi-condensed;font-size:5.50452px;line-height:1.25;font-family:'DejaVu Sans';-inkscape-font-specification:'DejaVu Sans, Bold Oblique Semi-Condensed';letter-spacing:0px;word-spacing:0px;stroke-width:0.130457" />
        <path
           d="m 216.97884,243.0213 q -0.0866,-0.0535 -0.1911,-0.0815 -0.10192,-0.0281 -0.21913,-0.0281 -0.31595,0 -0.52488,0.22422 -0.20639,0.22422 -0.27774,0.64719 l -0.23441,1.31477 h -0.82301 l 0.49941,-2.85375 h 0.82555 l -0.0892,0.48921 q 0.16308,-0.27009 0.40514,-0.41277 0.2446,-0.14524 0.54272,-0.14524 0.0459,0 0.0994,0.005 0.056,0.005 0.12994,0.0153 z"
           id="path3191"
           style="font-style:oblique;font-weight:bold;font-stretch:semi-condensed;font-size:5.50452px;line-height:1.25;font-family:'DejaVu Sans';-inkscape-font-specification:'DejaVu Sans, Bold Oblique Semi-Condensed';letter-spacing:0px;word-spacing:0px;stroke-width:0.130457" />
        <path
           d="m 221.46585,243.77805 -0.0281,0.14525 h -1.92119 q 0,0.0153 -0.003,0.0459 -0.003,0.0281 -0.003,0.0433 0,0.27773 0.15033,0.41532 0.15033,0.13759 0.451,0.13759 0.25989,0 0.54781,-0.0866 0.28793,-0.0866 0.60388,-0.25736 l -0.12741,0.70835 q -0.29811,0.1223 -0.59622,0.18091 -0.29557,0.0611 -0.60388,0.0611 -0.60133,0 -0.92747,-0.3083 -0.32614,-0.30831 -0.32614,-0.87142 0,-0.32614 0.10192,-0.6319 0.10446,-0.30831 0.30576,-0.5631 0.23696,-0.30576 0.56565,-0.46373 0.3287,-0.15798 0.72872,-0.15798 0.52234,0 0.8281,0.3083 0.30577,0.30831 0.30577,0.83065 0,0.10192 -0.0127,0.21658 -0.0127,0.11211 -0.0408,0.24715 z m -0.77458,-0.41787 q 0.008,-0.0331 0.0102,-0.0663 0.003,-0.0357 0.003,-0.0688 0,-0.20384 -0.10956,-0.32359 -0.10956,-0.11976 -0.29812,-0.11976 -0.23951,0 -0.41023,0.14778 -0.16816,0.14524 -0.25734,0.43062 z"
           id="path3193"
           style="font-style:oblique;font-weight:bold;font-stretch:semi-condensed;font-size:5.50452px;line-height:1.25;font-family:'DejaVu Sans';-inkscape-font-specification:'DejaVu Sans, Bold Oblique Semi-Condensed';letter-spacing:0px;word-spacing:0px;stroke-width:0.130457" />
        <path
           d="m 221.99329,242.24417 h 0.75675 l 0.33379,1.99252 0.96569,-1.99252 h 0.83319 l -1.50841,2.85375 h -0.86886 z"
           id="path3195"
           style="font-style:oblique;font-weight:bold;font-stretch:semi-condensed;font-size:5.50452px;line-height:1.25;font-family:'DejaVu Sans';-inkscape-font-specification:'DejaVu Sans, Bold Oblique Semi-Condensed';letter-spacing:0px;word-spacing:0px;stroke-width:0.130457" />
        <path
           d="m 226.30449,243.81373 q -0.3083,0 -0.46628,0.10702 -0.15543,0.10446 -0.15543,0.31084 0,0.15544 0.0918,0.24462 0.0942,0.0892 0.25736,0.0892 0.2497,0 0.42042,-0.16816 0.17071,-0.17072 0.22677,-0.47903 l 0.0178,-0.10447 z m 1.28164,-0.34399 -0.28792,1.62818 h -0.82046 l 0.0688,-0.42297 q -0.20129,0.2548 -0.42806,0.3771 -0.22423,0.11975 -0.48667,0.11975 -0.36436,0 -0.57839,-0.20893 -0.21404,-0.21148 -0.21404,-0.5682 0,-0.54527 0.37711,-0.8332 0.37965,-0.29047 1.09563,-0.29047 h 0.48412 l 0.0102,-0.0714 q 0.005,-0.0357 0.005,-0.0509 0.003,-0.0153 0.003,-0.0281 0,-0.16816 -0.14269,-0.25224 -0.14269,-0.0867 -0.42551,-0.0867 -0.25481,0 -0.49432,0.0586 -0.23696,0.0586 -0.45863,0.1758 l 0.1223,-0.69559 q 0.25734,-0.0714 0.52744,-0.10702 0.27009,-0.0382 0.558,-0.0382 0.57076,0 0.84849,0.21912 0.27773,0.21658 0.27773,0.66249 0,0.0866 -0.0102,0.19109 -0.0102,0.10192 -0.0306,0.22168 z"
           id="path3197"
           style="font-style:oblique;font-weight:bold;font-stretch:semi-condensed;font-size:5.50452px;line-height:1.25;font-family:'DejaVu Sans';-inkscape-font-specification:'DejaVu Sans, Bold Oblique Semi-Condensed';letter-spacing:0px;word-spacing:0px;stroke-width:0.130457" />
        <path
           d="m 228.76076,241.13323 h 0.82555 l -0.69305,3.96469 h -0.82301 z"
           id="path3199"
           style="font-style:oblique;font-weight:bold;font-stretch:semi-condensed;font-size:5.50452px;line-height:1.25;font-family:'DejaVu Sans';-inkscape-font-specification:'DejaVu Sans, Bold Oblique Semi-Condensed';letter-spacing:0px;word-spacing:0px;stroke-width:0.130457" />
        <path
           d="m 229.8513,243.98699 0.30066,-1.74282 h 0.823 l -0.25989,1.48548 q -0.0255,0.14523 -0.0408,0.24715 -0.0127,0.10192 -0.0127,0.16053 0,0.16051 0.079,0.2497 0.0815,0.0892 0.22931,0.0892 0.25481,0 0.43826,-0.21913 0.18346,-0.21914 0.25225,-0.60897 l 0.24716,-1.40394 h 0.82555 l -0.49941,2.85374 h -0.8281 l 0.0764,-0.41787 q -0.21148,0.24716 -0.44335,0.36946 -0.23186,0.1223 -0.48667,0.1223 -0.35162,0 -0.54527,-0.20638 -0.1911,-0.20639 -0.1911,-0.58349 0,-0.0892 0.008,-0.18855 0.0102,-0.0994 0.0281,-0.20639 z"
           id="path3201"
           style="font-style:oblique;font-weight:bold;font-stretch:semi-condensed;font-size:5.50452px;line-height:1.25;font-family:'DejaVu Sans';-inkscape-font-specification:'DejaVu Sans, Bold Oblique Semi-Condensed';letter-spacing:0px;word-spacing:0px;stroke-width:0.130457" />
        <path
           d="m 234.4224,243.81373 q -0.3083,0 -0.46629,0.10702 -0.15542,0.10446 -0.15542,0.31084 0,0.15544 0.0918,0.24462 0.0943,0.0892 0.25734,0.0892 0.2497,0 0.42042,-0.16816 0.17071,-0.17072 0.22677,-0.47903 l 0.0178,-0.10447 z m 1.28164,-0.34399 -0.28792,1.62818 h -0.82046 l 0.0688,-0.42297 q -0.20129,0.2548 -0.42806,0.3771 -0.22422,0.11975 -0.48667,0.11975 -0.36436,0 -0.57839,-0.20893 -0.21403,-0.21148 -0.21403,-0.5682 0,-0.54527 0.37709,-0.8332 0.37966,-0.29047 1.09565,-0.29047 h 0.48411 l 0.0102,-0.0714 q 0.005,-0.0357 0.005,-0.0509 0.003,-0.0153 0.003,-0.0281 0,-0.16816 -0.14268,-0.25224 -0.14268,-0.0867 -0.42551,-0.0867 -0.2548,0 -0.49432,0.0586 -0.23696,0.0586 -0.45863,0.1758 l 0.1223,-0.69559 q 0.25735,-0.0714 0.52743,-0.10702 0.27009,-0.0382 0.55801,-0.0382 0.57076,0 0.84848,0.21912 0.27774,0.21658 0.27774,0.66249 0,0.0866 -0.0102,0.19109 -0.0102,0.10192 -0.0306,0.22168 z"
           id="path3203"
           style="font-style:oblique;font-weight:bold;font-stretch:semi-condensed;font-size:5.50452px;line-height:1.25;font-family:'DejaVu Sans';-inkscape-font-specification:'DejaVu Sans, Bold Oblique Semi-Condensed';letter-spacing:0px;word-spacing:0px;stroke-width:0.130457" />
        <path
           d="m 237.73224,241.4339 -0.14014,0.81027 h 0.84083 l -0.1172,0.65228 h -0.84084 l -0.20894,1.20775 q -0.0102,0.0408 -0.0153,0.0688 -0.003,0.0281 -0.003,0.0535 0,0.11721 0.0688,0.16817 0.0713,0.051 0.23696,0.051 h 0.42552 l -0.11721,0.65229 h -0.6905 q -0.37202,0 -0.5682,-0.17326 -0.19365,-0.17326 -0.19365,-0.49941 0,-0.0714 0.005,-0.15287 0.008,-0.0815 0.0229,-0.16563 l 0.21149,-1.21029 h -0.40514 l 0.11211,-0.65228 h 0.41023 l 0.14014,-0.81027 z"
           id="path3205"
           style="font-style:oblique;font-weight:bold;font-stretch:semi-condensed;font-size:5.50452px;line-height:1.25;font-family:'DejaVu Sans';-inkscape-font-specification:'DejaVu Sans, Bold Oblique Semi-Condensed';letter-spacing:0px;word-spacing:0px;stroke-width:0.130457" />
        <path
           d="m 238.93234,242.24417 h 0.82556 l -0.50196,2.85375 h -0.82301 z m 0.19111,-1.11094 h 0.82555 l -0.12996,0.74402 h -0.82809 z"
           id="path3207"
           style="font-style:oblique;font-weight:bold;font-stretch:semi-condensed;font-size:5.50452px;line-height:1.25;font-family:'DejaVu Sans';-inkscape-font-specification:'DejaVu Sans, Bold Oblique Semi-Condensed';letter-spacing:0px;word-spacing:0px;stroke-width:0.130457" />
        <path
           d="m 241.65616,242.82765 q -0.3185,0 -0.52489,0.32105 -0.20639,0.32104 -0.20639,0.81791 0,0.27008 0.10957,0.41277 0.11211,0.14014 0.32614,0.14014 0.3185,0 0.52488,-0.32105 0.20639,-0.32359 0.20639,-0.823 0,-0.26754 -0.11211,-0.40767 -0.10956,-0.14015 -0.32359,-0.14015 z m 0.0663,-0.65228 q 0.5733,0 0.90199,0.32359 0.32869,0.3236 0.32869,0.8816 0,0.3236 -0.10446,0.62936 -0.10192,0.30321 -0.30067,0.55547 -0.23186,0.30065 -0.55291,0.45354 -0.3185,0.15287 -0.71089,0.15287 -0.56566,0 -0.8918,-0.32359 -0.32614,-0.32359 -0.32614,-0.8816 0,-0.32105 0.10447,-0.62681 0.10446,-0.30831 0.3032,-0.5631 0.22933,-0.29557 0.54528,-0.44845 0.3185,-0.15288 0.70324,-0.15288 z"
           id="path3209"
           style="font-style:oblique;font-weight:bold;font-stretch:semi-condensed;font-size:5.50452px;line-height:1.25;font-family:'DejaVu Sans';-inkscape-font-specification:'DejaVu Sans, Bold Oblique Semi-Condensed';letter-spacing:0px;word-spacing:0px;stroke-width:0.130457" />
        <path
           d="m 246.15081,243.36018 -0.30576,1.73774 h -0.823 l 0.2599,-1.48803 q 0.0281,-0.14524 0.0408,-0.24461 0.0153,-0.10192 0.0153,-0.16052 0,-0.16308 -0.0815,-0.25226 -0.0815,-0.0892 -0.22933,-0.0892 -0.25479,0 -0.43825,0.22167 -0.1809,0.21913 -0.25225,0.60898 l -0.24715,1.40394 h -0.823 l 0.49941,-2.85375 h 0.82554 l -0.0764,0.41787 q 0.22678,-0.24716 0.45609,-0.36692 0.22932,-0.11975 0.47902,-0.11975 0.35673,0 0.54782,0.20638 0.19365,0.20639 0.19365,0.58095 0,0.0815 -0.0102,0.1809 -0.0101,0.0994 -0.0306,0.21658 z"
           id="path3211"
           style="font-style:oblique;font-weight:bold;font-stretch:semi-condensed;font-size:5.50452px;line-height:1.25;font-family:'DejaVu Sans';-inkscape-font-specification:'DejaVu Sans, Bold Oblique Semi-Condensed';letter-spacing:0px;word-spacing:0px;stroke-width:0.130457" />
        <path
           d="m 249.09374,242.33335 -0.11976,0.70833 q -0.24206,-0.1274 -0.48156,-0.19365 -0.23697,-0.0663 -0.451,-0.0663 -0.24206,0 -0.37456,0.0714 -0.13249,0.0688 -0.13249,0.19874 0,0.0764 0.0738,0.12231 0.0739,0.0459 0.28793,0.0968 l 0.15033,0.0305 q 0.49686,0.11721 0.69559,0.30322 0.2013,0.18344 0.2013,0.51214 0,0.49686 -0.35162,0.77714 -0.34907,0.27772 -0.98098,0.27772 -0.26499,0 -0.54017,-0.0459 -0.27519,-0.0459 -0.56056,-0.13758 l 0.12485,-0.71599 q 0.22168,0.14523 0.47392,0.21912 0.25481,0.0739 0.5198,0.0739 0.25989,0 0.38984,-0.0688 0.1325,-0.0688 0.1325,-0.20129 0,-0.0918 -0.0738,-0.14269 -0.0738,-0.0509 -0.30321,-0.10446 l -0.15033,-0.0306 q -0.43825,-0.10192 -0.62681,-0.30066 -0.18855,-0.19875 -0.18855,-0.55037 0,-0.47648 0.32359,-0.73382 0.32615,-0.25735 0.92748,-0.25735 0.26498,0 0.51979,0.0408 0.25734,0.0382 0.51469,0.11721 z"
           id="path3213"
           style="font-style:oblique;font-weight:bold;font-stretch:semi-condensed;font-size:5.50452px;line-height:1.25;font-family:'DejaVu Sans';-inkscape-font-specification:'DejaVu Sans, Bold Oblique Semi-Condensed';letter-spacing:0px;word-spacing:0px;stroke-width:0.130457" />
        <path
           d="m 250.25053,241.29376 h 0.8281 l -0.25989,1.46001 -0.30067,1.06506 h -0.59113 l 0.0637,-1.06506 z m -0.50704,2.89707 h 0.82554 l -0.15797,0.90709 h -0.8281 z"
           id="path3215"
           style="font-style:oblique;font-weight:bold;font-stretch:semi-condensed;font-size:5.50452px;line-height:1.25;font-family:'DejaVu Sans';-inkscape-font-specification:'DejaVu Sans, Bold Oblique Semi-Condensed';letter-spacing:0px;word-spacing:0px;stroke-width:0.130457" />
      </g>
      <g
         id="g78349"
         transform="matrix(0.94800097,0,0,0.94800097,-243.20761,535.01613)">
        <path
           style="fill:#1a5fb4;stroke:none;stroke-width:0.262228px;stroke-linecap:butt;stroke-linejoin:miter;stroke-opacity:1"
           d="m 483.95392,-370.63018 c -1.25052,1.53904 -0.52196,2.95036 0.25483,4.16367 -2.26515,3.98342 -7.28277,12.78989 -10.19864,17.90839 -1.55481,2.73211 -4.01465,3.61993 -4.01465,3.61993 0,0 4.42681,0.24322 5.98907,-2.49209 2.79888,-4.92261 8.01717,-14.08748 10.19997,-17.92025 1.07426,-1.69807 -1.59275,-2.5772 -0.73952,-4.0754 0.85323,-1.49819 4.27196,1.45068 5.64207,1.61624 -1.00521,-1.54757 -2.09636,-2.86951 -3.36816,-3.45134 -1.36929,-0.62644 -2.91312,-0.41754 -3.76497,0.63085 z"
           id="path78333"
           sodipodi:nodetypes="sccccczcss" />
        <path
           id="path78335"
           style="color:#000000;clip-rule:nonzero;display:inline;overflow:visible;visibility:visible;isolation:auto;mix-blend-mode:normal;color-interpolation:sRGB;color-interpolation-filters:linearRGB;solid-color:#000000;solid-opacity:1;fill:#000000;fill-opacity:1;fill-rule:nonzero;stroke:none;stroke-width:22.1727;stroke-linecap:round;stroke-linejoin:round;stroke-miterlimit:4;stroke-dasharray:none;stroke-dashoffset:0;stroke-opacity:1;color-rendering:auto;image-rendering:auto;shape-rendering:auto;text-rendering:auto;enable-background:accumulate"
           d="m 3594.875,-152.33789 c -0.5942,0.002 -1.1914,0.0252 -1.7891,0.0723 -12.1394,0.54421 -22.8542,10.73875 -24.0097,22.83203 -1.6084,12.02543 6.4884,24.38358 18.1836,27.66406 4.9473,1.53075 10.3978,1.48339 15.5488,-0.1875 9.0895,-2.78078 15.8124,-11.08822 17.4238,-20.29297 -4.1883,-2.87623 -16.3544,5.5989 -22.3828,-0.12695 -6.5574,-6.22829 1.6484,-14.91132 8.8262,-12.37696 4.5202,1.59599 10.3161,5.84068 13.8887,6.91016 -0.065,-1.11406 -0.2085,-2.2265 -0.4375,-3.33203 -2.0095,-12.0324 -13.1705,-21.19853 -25.252,-21.16211 z m -38.377,47.46094 c -0.1858,0.002 -0.3715,0.007 -0.5566,0.0176 -9.2541,2.0597 -18.3295,4.987931 -27.5156,7.375005 -13.6849,3.851074 -27.4677,7.402124 -41.0918,11.439453 -3.9758,1.41566 -10.2275,4.052585 -10.4434,10.994141 -0.1273,4.09028 2.1214,10.407174 4.0449,12.232422 2.3761,2.2913 8.5867,3.172118 12.8731,1.660156 13.8887,-3.824013 27.7773,-7.648644 41.666,-11.472656 2.0899,1.819842 2.6248,3.752958 0.5938,5.873047 -11.1356,19.593562 -18.1633,31.918194 -29.2989,51.511718 -0.4203,0.739578 -1.8535,1.020086 -9.1425,-1.71289 -10.054,-3.769663 -21.8377,-8.272957 -29.9278,-11.19336 -11.5024,-4.152227 -15.3705,4.429225 -16.7402,7.648438 -2.8248,6.639118 1.4893,14.1575954 7.4668,16.410156 16.0805,6.0597543 37.9001,14.239589 50.0469,18.689453 2.6019,0.953197 10.4958,0.105602 13.8867,-5.0585936 3.0763,-5.4157985 13.7478,-24.1779514 16.8242,-29.5937504 2.3455,-1.417511 4.3344,0.03858 6.3476,1.298829 6.2527,3.546141 12.5579,7.012452 18.8106,10.5585932 1.4183,2.345915 -0.039,4.3334827 -1.3008,6.3457032 -9.3016,16.5372476 -18.8986,32.9235186 -28.0156,49.5546876 -3.1396,6.45411 0.9909,14.383259 7.5,16.677734 5.7712,2.670539 13.0413,-0.02402 15.8301,-5.707031 12.3693,-21.858595 24.8968,-43.630742 37.166,-65.5429688 2.9677,-6.3525542 -0.3864,-14.4026202 -6.7617,-17.1347652 -6.0039,-3.412385 -12.0079,-6.825897 -18.0118,-10.238282 -1.4183,-2.345915 0.041,-4.333558 1.3028,-6.345703 4.5687,-8.039735 6.191,-10.887999 10.7597,-18.927734 2.3462,-1.418684 4.2992,0.159238 6.3457,1.302734 2.1015,1.173997 10.9632,7.778416 16.336,7.515625 11.6467,-3.26657 25.4538,-7.158995 35.9258,-10.152343 5.2865,-1.387805 8.3272,-6.154429 8.1894,-11.052735 0.3971,-6.716258 -5.8422,-15.111039 -12.6719,-14.113281 -9.867,2.266885 -19.5623,5.330147 -29.3652,7.896484 -3.3725,-0.443754 -6.0122,-3.107971 -9.0781,-4.480468 -12.7401,-7.163566 -25.3612,-14.565879 -38.1797,-21.574218 -1.2046,-0.49428 -2.5135,-0.71265 -3.8145,-0.70117 z"
           transform="matrix(0.26458333,0,0,0.26458333,-482.13942,-337.50412)"
           sodipodi:nodetypes="scccccssccsscccsccccsssssscccccccccccccscccccccs" />
        <path
           d="m 440.66559,-328.12001 2.47546,-4.34577 h 9.97388 l -5.07266,8.90525 c -2.65056,1.30136 -4.84729,2.18951 -6.59016,2.66446 -1.72797,0.46544 -3.59882,0.69817 -5.6126,0.69817 -2.47922,0 -4.26171,-0.42271 -5.34748,-1.26811 -1.07624,-0.8454 -1.57043,-2.10402 -1.48252,-3.77583 0.0974,-1.6718 0.76293,-3.59059 1.99659,-5.75635 1.29861,-2.27974 2.89695,-4.26027 4.79507,-5.94157 1.90353,-1.69082 4.01132,-2.97317 6.3234,-3.84707 1.79952,-0.67442 3.89614,-1.01164 6.28987,-1.01164 2.30824,0 3.22707,0.70889 4.12887,1.12684 2.05598,1.10363 2.40738,3.98144 1.90052,5.89751 l -6.52559,9e-5 c 0.19256,-0.7884 0.0993,-1.39159 -0.28009,-1.80954 -0.36985,-0.41795 -1.02973,-0.62693 -1.97962,-0.62693 -1.41534,0 -2.82706,0.49394 -4.2352,1.48184 -1.39324,0.97839 -2.69585,2.53146 -3.90787,4.65921 -1.28778,2.26075 -1.78492,3.87557 -1.49141,4.84446 0.30299,0.96889 1.21442,1.45334 2.73424,1.45334 0.72192,0 1.47009,-0.10455 2.24457,-0.31346 0.77447,-0.20897 1.72778,-0.56519 2.85996,-1.06863 l 1.12003,-1.96628 z"
           style="font-size:38.4138px;line-height:1.25;font-family:'Arial Black';-inkscape-font-specification:'Arial Black, Normal';letter-spacing:0px;word-spacing:0px;fill:#1a5fb4;stroke-width:0.729519"
           id="path78337"
           sodipodi:nodetypes="cccccsccsccsccccscscssccc" />
        <path
           d="m 474.45845,-341.08605 h 10.72903 q 3.5051,0 4.2938,1.66707 0.80297,1.66706 -0.95014,4.74471 -1.80182,3.16314 -4.72562,4.94419 -2.90957,1.78105 -6.81362,1.78105 h -3.53359 l -4.41524,7.75113 h -6.48301 z m 1.41037,8.90525 h 1.58157 q 1.86655,0 2.98694,-0.64118 1.12851,-0.65542 1.70476,-1.66706 0.56001,-0.98315 0.29415,-1.66706 -0.26585,-0.68393 -2.07539,-0.68393 h -1.83804 z"
           style="font-size:38.4138px;line-height:1.25;font-family:'Arial Black';-inkscape-font-specification:'Arial Black, Normal';letter-spacing:0px;word-spacing:0px;fill:#1a5fb4;stroke-width:0.729519"
           id="path78339" />
        <path
           d="m 487.98415,-332.07476 h 4.598 l -1.19614,2.09988 q 1.44056,-1.36372 2.42924,-1.87057 1.00762,-0.51895 2.04548,-0.51895 1.08615,0 1.99249,0.67583 l -3.51416,3.49979 q -0.66269,-0.36205 -1.16955,-0.36205 -0.96547,0 -1.95018,0.79651 -1.39961,1.12235 -3.15258,4.19975 l -2.44729,4.29631 h -4.93592 z"
           style="font-size:38.4138px;line-height:1.25;font-family:'Arial Black';-inkscape-font-specification:'Arial Black, Normal';letter-spacing:0px;word-spacing:0px;fill:#1a5fb4;stroke-width:0.617895"
           id="path78341" />
        <path
           d="m 498.54913,-332.07476 h 5.18935 l -2.21723,8.53226 7.31005,-8.53226 h 4.83936 l -12.88316,13.69747 q -2.20254,2.34125 -3.57511,3.16189 -1.93918,1.15855 -4.55799,1.15855 -1.062,0 -3.1176,-0.28963 l 1.56616,-3.42739 q 0.86951,0.3379 2.17289,0.3379 0.86891,0 1.62677,-0.39824 0.76993,-0.39826 1.72835,-1.42405 z"
           style="font-size:38.4138px;line-height:1.25;font-family:'Arial Black';-inkscape-font-specification:'Arial Black, Normal';letter-spacing:0px;word-spacing:0px;fill:#1a5fb4;stroke-width:0.617895"
           id="path78343" />
        <path
           id="path78345"
           style="stroke-width:0.01;stop-color:#000000"
           d="m 472.98656,-370.97598 c -0.0616,0.36557 -0.70424,0.56204 -1.43538,0.43884 -0.73113,-0.12321 -1.11724,-0.51943 -1.05564,-0.885 0.0616,-0.36557 0.70464,-0.75382 1.39347,-0.47951 1.27155,0.50636 1.15915,0.5601 1.09755,0.92567 z"
           sodipodi:nodetypes="sssss" />
        <circle
           id="circle78347"
           style="fill:#dc8add;stroke:#a51d2d;stroke-width:0.264583"
           cx="463.90994"
           cy="-323.46802"
           r="0.00075928762" />
      </g>
    </g>
  </g>
</svg>
