<?xml version="1.0" encoding="UTF-8" standalone="no"?>
<!-- Created with Inkscape (http://www.inkscape.org/) -->

<svg
   width="226.32275mm"
   height="239.27631mm"
   viewBox="0 0 238.73683 252.4009"
   version="1.1"
   id="svg5"
   sodipodi:docname="logo_design.svg"
   inkscape:version="1.2.2 (b0a8486541, 2022-12-01)"
   xmlns:inkscape="http://www.inkscape.org/namespaces/inkscape"
   xmlns:sodipodi="http://sodipodi.sourceforge.net/DTD/sodipodi-0.dtd"
   xmlns="http://www.w3.org/2000/svg"
   xmlns:svg="http://www.w3.org/2000/svg">
  <sodipodi:namedview
     id="namedview7"
     pagecolor="#ffffff"
     bordercolor="#666666"
     borderopacity="1.0"
     inkscape:pageshadow="2"
     inkscape:pageopacity="0.0"
     inkscape:pagecheckerboard="0"
     inkscape:document-units="mm"
     showgrid="false"
     inkscape:zoom="0.54570062"
     inkscape:cx="493.86053"
     inkscape:cy="404.98396"
     inkscape:window-width="1920"
     inkscape:window-height="1013"
     inkscape:window-x="0"
     inkscape:window-y="0"
     inkscape:window-maximized="1"
     inkscape:current-layer="layer1"
     fit-margin-top="5"
     fit-margin-left="5"
     fit-margin-right="5"
     fit-margin-bottom="5"
     lock-margins="true"
     showguides="false"
     inkscape:showpageshadow="2"
     inkscape:deskcolor="#d1d1d1" />
  <defs
     id="defs2">
    <rect
       x="-246.40633"
       y="194.46552"
       width="777.54865"
       height="486.08777"
       id="rect3928" />
  </defs>
  <g
     inkscape:label="Layer 1"
     inkscape:groupmode="layer"
     id="layer1"
     transform="translate(-436.1581,416.92549)">
    <text
       xml:space="preserve"
       transform="scale(0.26458333)"
       id="text3926"
       style="font-style:normal;font-weight:normal;font-size:40px;line-height:1.25;font-family:sans-serif;letter-spacing:0px;word-spacing:0px;white-space:pre;shape-inside:url(#rect3928);fill:#000000;fill-opacity:1;stroke:none" />
    <g
       id="g99218"
       transform="translate(143.71621,-107.40353)">
      <g
         id="g73223"
         transform="translate(-136.66203)">
        <path
           style="fill:#1a5fb4;stroke:none;stroke-width:0.262228px;stroke-linecap:butt;stroke-linejoin:miter;stroke-opacity:1"
           d="m 501.42006,-302.34193 c -1.25052,1.53904 -0.52196,2.95036 0.25483,4.16367 -2.26515,3.98342 -7.28277,12.78989 -10.19864,17.90839 -1.55481,2.73211 -4.01465,3.61993 -4.01465,3.61993 0,0 4.42681,0.24322 5.98907,-2.49209 2.79888,-4.92261 8.01717,-14.08748 10.19997,-17.92025 1.07426,-1.69807 -1.59275,-2.5772 -0.73952,-4.0754 0.85323,-1.49819 4.27196,1.45068 5.64207,1.61624 -1.00521,-1.54757 -2.09636,-2.86951 -3.36816,-3.45134 -1.36929,-0.62644 -2.91312,-0.41754 -3.76497,0.63085 z"
           id="path52341"
           sodipodi:nodetypes="sccccczcss" />
        <path
           id="path52343"
           style="color:#000000;clip-rule:nonzero;display:inline;overflow:visible;visibility:visible;isolation:auto;mix-blend-mode:normal;color-interpolation:sRGB;color-interpolation-filters:linearRGB;solid-color:#000000;solid-opacity:1;fill:#000000;fill-opacity:1;fill-rule:nonzero;stroke:none;stroke-width:5.86652;stroke-linecap:round;stroke-linejoin:round;stroke-miterlimit:4;stroke-dasharray:none;stroke-dashoffset:0;stroke-opacity:1;color-rendering:auto;image-rendering:auto;shape-rendering:auto;text-rendering:auto;enable-background:accumulate"
           d="m 485.9975,-309.50264 c -3.21188,0.14399 -6.04696,2.84113 -6.3527,6.04081 -0.42555,3.18173 1.71691,6.45137 4.81126,7.31933 1.30899,0.40501 2.75082,0.39249 4.1137,-0.0496 3.1716,-0.9703 5.25491,-4.48334 4.58219,-7.73091 -0.55781,-3.34014 -3.78108,-5.84524 -7.15445,-5.57963 z m -9.82813,12.54296 c -2.44849,0.54496 -4.84939,1.31924 -7.27988,1.95082 -3.6208,1.01893 -7.26741,1.9589 -10.87213,3.02711 -1.05193,0.37456 -2.70618,1.07201 -2.76331,2.90863 -0.0337,1.08222 0.56141,2.75369 1.07035,3.23662 0.62867,0.60624 2.27186,0.83902 3.40598,0.43898 3.67472,-1.01177 7.34944,-2.02355 11.02416,-3.03532 0.55296,0.4815 0.69423,0.993 0.15686,1.55394 -2.94628,5.18413 -4.80542,8.44486 -7.7517,13.62898 -0.11122,0.19568 -0.49071,0.27016 -2.41927,-0.45294 -2.6601,-0.99739 -5.77786,-2.18881 -7.91835,-2.9615 -3.04336,-1.09861 -4.06686,1.17149 -4.42926,2.02324 -0.7474,1.7566 0.3944,3.74631 1.97594,4.3423 4.25463,1.60331 10.02763,3.76716 13.24145,4.94452 0.68844,0.2522 2.77693,0.0284 3.67411,-1.33796 0.81395,-1.43293 3.63736,-6.3971 4.45131,-7.83003 0.62057,-0.37505 1.14682,0.01 1.67949,0.34344 1.65436,0.93825 3.32254,1.85515 4.97691,2.7934 0.37525,0.62069 -0.0103,1.14665 -0.34421,1.67905 -2.46104,4.37548 -5.00012,8.71125 -7.41233,13.11158 -0.83069,1.70765 0.26229,3.80528 1.98449,4.41236 1.52696,0.70658 3.4502,-0.006 4.18806,-1.50963 3.27273,-5.78342 6.58778,-11.54418 9.83399,-17.34179 0.78522,-1.68078 -0.10236,-3.81072 -1.78916,-4.5336 -1.58851,-0.90286 -3.17702,-1.80573 -4.76553,-2.70859 -0.37526,-0.62069 0.0104,-1.14664 0.34426,-1.67902 1.20881,-2.12718 1.63823,-2.88105 2.84704,-5.00823 0.62075,-0.37536 1.13732,0.0421 1.67881,0.34465 0.55601,0.31062 2.90076,2.05837 4.3223,1.98884 3.08153,-0.86428 6.73476,-1.89421 9.50546,-2.6862 1.39872,-0.36719 2.20308,-1.62875 2.16663,-2.92476 0.10507,-1.77701 -1.5454,-3.99788 -3.35241,-3.73389 -2.61065,0.59978 -5.17623,1.41022 -7.7699,2.08923 -0.8923,-0.11741 -1.59077,-0.82213 -2.40197,-1.18527 -3.37082,-1.89536 -6.70984,-3.85407 -10.1014,-5.70836 -0.36424,-0.14946 -0.76491,-0.20366 -1.15679,-0.18059 z"
           sodipodi:nodetypes="cccccccccsccccsssssscccccccccccccsccccccccc" />
        <path
           d="m 458.13173,-259.83176 2.47546,-4.34577 h 9.97388 l -5.07266,8.90525 c -2.65056,1.30136 -4.84729,2.18951 -6.59016,2.66446 -1.72797,0.46544 -3.59882,0.69817 -5.6126,0.69817 -2.47922,0 -4.26171,-0.42271 -5.34748,-1.26811 -1.07624,-0.8454 -1.57043,-2.10402 -1.48252,-3.77583 0.0974,-1.6718 0.76293,-3.59059 1.99659,-5.75635 1.29861,-2.27974 2.89695,-4.26027 4.79507,-5.94157 1.90353,-1.69082 4.01132,-2.97317 6.3234,-3.84707 1.79952,-0.67442 3.89614,-1.01164 6.28987,-1.01164 2.30824,0 3.22707,0.70889 4.12887,1.12684 2.05598,1.10363 2.40738,3.98144 1.90052,5.89751 l -6.52559,9e-5 c 0.19256,-0.7884 0.0993,-1.39159 -0.28009,-1.80954 -0.36985,-0.41795 -1.02973,-0.62693 -1.97962,-0.62693 -1.41534,0 -2.82706,0.49394 -4.2352,1.48184 -1.39324,0.97839 -2.69585,2.53146 -3.90787,4.65921 -1.28778,2.26075 -1.78492,3.87557 -1.49141,4.84446 0.30299,0.96889 1.21442,1.45334 2.73424,1.45334 0.72192,0 1.47009,-0.10455 2.24457,-0.31346 0.77447,-0.20897 1.72778,-0.56519 2.85996,-1.06863 l 1.12003,-1.96628 z"
           style="font-size:38.4138px;line-height:1.25;font-family:'Arial Black';-inkscape-font-specification:'Arial Black, Normal';letter-spacing:0px;word-spacing:0px;fill:#1a5fb4;stroke-width:0.729519"
           id="path52345"
           sodipodi:nodetypes="cccccsccsccsccccscscssccc" />
        <path
           d="m 491.92459,-272.7978 h 10.72903 q 3.5051,0 4.2938,1.66707 0.80297,1.66706 -0.95014,4.74471 -1.80182,3.16314 -4.72562,4.94419 -2.90957,1.78105 -6.81362,1.78105 h -3.53359 l -4.41524,7.75113 h -6.48301 z m 1.41037,8.90525 h 1.58157 q 1.86655,0 2.98694,-0.64118 1.12851,-0.65542 1.70476,-1.66706 0.56001,-0.98315 0.29415,-1.66706 -0.26585,-0.68393 -2.07539,-0.68393 h -1.83804 z"
           style="font-size:38.4138px;line-height:1.25;font-family:'Arial Black';-inkscape-font-specification:'Arial Black, Normal';letter-spacing:0px;word-spacing:0px;fill:#1a5fb4;stroke-width:0.729519"
           id="path52347" />
        <path
           d="m 505.45029,-263.78651 h 4.598 l -1.19614,2.09988 q 1.44056,-1.36372 2.42924,-1.87057 1.00762,-0.51895 2.04548,-0.51895 1.08615,0 1.99249,0.67583 l -3.51416,3.49979 q -0.66269,-0.36205 -1.16955,-0.36205 -0.96547,0 -1.95018,0.79651 -1.39961,1.12235 -3.15258,4.19975 l -2.44729,4.29631 h -4.93592 z"
           style="font-size:38.4138px;line-height:1.25;font-family:'Arial Black';-inkscape-font-specification:'Arial Black, Normal';letter-spacing:0px;word-spacing:0px;fill:#1a5fb4;stroke-width:0.617895"
           id="path52349" />
        <path
           d="m 516.01527,-263.78651 h 5.18935 l -2.21723,8.53226 7.31005,-8.53226 h 4.83936 l -12.88316,13.69747 q -2.20254,2.34125 -3.57511,3.16189 -1.93918,1.15855 -4.55799,1.15855 -1.062,0 -3.1176,-0.28963 l 1.56616,-3.42739 q 0.86951,0.3379 2.17289,0.3379 0.86891,0 1.62677,-0.39824 0.76993,-0.39826 1.72835,-1.42405 z"
           style="font-size:38.4138px;line-height:1.25;font-family:'Arial Black';-inkscape-font-specification:'Arial Black, Normal';letter-spacing:0px;word-spacing:0px;fill:#1a5fb4;stroke-width:0.617895"
           id="path52351" />
        <path
           style="fill:#ffffff;stroke:none;stroke-width:0.01;stroke-linecap:butt;stroke-linejoin:miter;stroke-miterlimit:4;stroke-dasharray:none;stroke-opacity:1"
           d="m 487.25793,-301.59459 c -1.73498,-1.6479 0.43574,-3.94559 2.33486,-3.27504 1.19704,0.42265 2.73275,1.54772 3.67778,1.82943 0.036,0.68998 -0.021,1.06394 -0.0875,1.48109 -1.10528,-0.76724 -4.32862,1.48086 -5.9251,-0.0355 z"
           id="path52353"
           sodipodi:nodetypes="ssccs" />
        <path
           id="path52355"
           style="stroke-width:0.01;stop-color:#000000"
           d="m 490.4527,-302.68773 c -0.0616,0.36557 -0.70424,0.56204 -1.43538,0.43884 -0.73113,-0.12321 -1.11724,-0.51943 -1.05564,-0.885 0.0616,-0.36557 0.70464,-0.75382 1.39347,-0.47951 1.27155,0.50636 1.15915,0.5601 1.09755,0.92567 z"
           sodipodi:nodetypes="sssss" />
        <path
           style="fill:#dc8add;stroke:#a51d2d;stroke-width:0.176389;stroke-linecap:butt;stroke-linejoin:miter;stroke-miterlimit:4;stroke-dasharray:none;stroke-opacity:1"
           d="m 489.40979,-275.8465 -16.9831,29.84907"
           id="path52525" />
        <path
           style="fill:#dc8add;stroke:#a51d2d;stroke-width:0.176389;stroke-linecap:butt;stroke-linejoin:miter;stroke-miterlimit:4;stroke-dasharray:none;stroke-opacity:1"
           d="m 493.63969,-275.8465 -16.9831,29.84907"
           id="path52733" />
        <path
           style="fill:#dc8add;stroke:#a51d2d;stroke-width:0.176389;stroke-linecap:butt;stroke-linejoin:miter;stroke-miterlimit:4;stroke-dasharray:none;stroke-opacity:1"
           d="m 477.27768,-275.8465 -16.9831,29.84907"
           id="path52735" />
        <circle
           id="path53059"
           style="fill:#dc8add;stroke:#a51d2d;stroke-width:0.264583"
           cx="481.3761"
           cy="-255.17976"
           r="0.00075928762" />
        <path
           style="fill:#63452c;stroke:#865e3c;stroke-width:0.176389;stroke-linecap:butt;stroke-linejoin:miter;stroke-miterlimit:4;stroke-dasharray:none;stroke-opacity:1"
           d="m 477.8529,-255.50932 h 4.19807"
           id="path53162" />
        <path
           style="fill:#63452c;stroke:#865e3c;stroke-width:0.176389;stroke-linecap:butt;stroke-linejoin:miter;stroke-miterlimit:4;stroke-dasharray:none;stroke-opacity:1"
           d="M 465.72793,-255.50932 H 469.926"
           id="path53280" />
        <path
           style="fill:#dc8add;stroke:#a51d2d;stroke-width:0.176389;stroke-linecap:butt;stroke-linejoin:miter;stroke-miterlimit:4;stroke-dasharray:none;stroke-opacity:1"
           d="m 481.51608,-275.8465 -16.9831,29.84907"
           id="path53282" />
        <circle
           id="path53317"
           style="fill:#63452c;stroke:#865e3c;stroke-width:0.264583"
           cx="437.71405"
           cy="-251.74924"
           r="0.0021475898" />
        <circle
           id="path53319"
           style="fill:#63452c;stroke:#865e3c;stroke-width:0.264583"
           cx="437.71405"
           cy="-251.74924"
           r="0.0021475898" />
        <path
           style="fill:none;stroke:#a51d2d;stroke-width:0.176389;stroke-linecap:butt;stroke-linejoin:miter;stroke-miterlimit:4;stroke-dasharray:none;stroke-opacity:1"
           d="m 436.52004,-251.87247 h 89.38893"
           id="path53662" />
        <path
           style="fill:#dc8add;stroke:#a51d2d;stroke-width:0.176389;stroke-linecap:butt;stroke-linejoin:miter;stroke-miterlimit:4;stroke-dasharray:none;stroke-opacity:1"
           d="m 506.52521,-306.75391 -16.9831,29.84907"
           id="path53859" />
      </g>
      <circle
         id="path55231"
         style="fill:#ffffff;stroke:#a51d2d;stroke-width:0.264583"
         cx="341.96167"
         cy="-230.8511"
         r="0.006074301" />
    </g>
    <g
       id="g87555"
       transform="translate(-21.975726,16.646465)">
      <rect
         style="fill:#241f31;stroke:#ed333b;stroke-width:0.0468003;stroke-miterlimit:4;stroke-dasharray:none;stop-color:#000000"
         id="rect73042"
         width="100.53821"
         height="76.637688"
         x="458.15723"
         y="-261.70245" />
      <g
         id="g78712"
         transform="translate(17.841288,7.4983956)">
        <g
           id="g74225"
           transform="translate(-113.39017,19.56456)">
          <g
             id="g74203">
            <path
               style="fill:#1c71d8;stroke:none;stroke-width:0.262228px;stroke-linecap:butt;stroke-linejoin:miter;stroke-opacity:1"
               d="m 617.12322,-275.14323 c -1.25052,1.53904 -0.52196,2.95036 0.25483,4.16367 -2.26515,3.98342 -7.28277,12.78989 -10.19864,17.90839 -1.55481,2.73211 -4.01465,3.61993 -4.01465,3.61993 0,0 4.42681,0.24322 5.98907,-2.49209 2.79888,-4.92261 8.01717,-14.08748 10.19997,-17.92025 1.07426,-1.69807 -1.59275,-2.5772 -0.73952,-4.0754 0.85323,-1.49819 4.27196,1.45068 5.64207,1.61624 -1.00521,-1.54757 -2.09636,-2.86951 -3.36816,-3.45134 -1.36929,-0.62644 -2.91312,-0.41754 -3.76497,0.63085 z"
               id="path73971"
               sodipodi:nodetypes="sccccczcss" />
            <path
               id="path73973"
               style="color:#000000;clip-rule:nonzero;display:inline;overflow:visible;visibility:visible;isolation:auto;mix-blend-mode:normal;color-interpolation:sRGB;color-interpolation-filters:linearRGB;solid-color:#000000;solid-opacity:1;fill:#deddda;fill-opacity:1;fill-rule:nonzero;stroke:none;stroke-width:5.86653;stroke-linecap:round;stroke-linejoin:round;stroke-miterlimit:4;stroke-dasharray:none;stroke-dashoffset:0;stroke-opacity:1;color-rendering:auto;image-rendering:auto;shape-rendering:auto;text-rendering:auto;enable-background:accumulate"
               d="m 602.17388,-282.32324 c -0.15722,5.3e-4 -0.31523,0.007 -0.47337,0.0191 -3.21188,0.14399 -6.04684,2.8413 -6.35256,6.04098 -0.42556,3.18173 1.71672,6.45149 4.81107,7.31945 1.30898,0.40501 2.75109,0.39248 4.11396,-0.0496 2.40493,-0.73575 4.18369,-2.93376 4.61004,-5.36918 -1.10815,-0.76101 -4.3271,1.48137 -5.92211,-0.0336 -1.73498,-1.6479 0.43614,-3.94529 2.33526,-3.27474 1.19597,0.42227 2.72947,1.54535 3.67472,1.82831 -0.0172,-0.29476 -0.0552,-0.58909 -0.11575,-0.8816 -0.53168,-3.18357 -3.4847,-5.60877 -6.68126,-5.59914 z m -10.15392,12.55738 c -0.0492,5.3e-4 -0.0983,0.002 -0.14726,0.005 -2.44848,0.54497 -4.84968,1.31973 -7.28017,1.95131 -3.6208,1.01893 -7.2675,1.95848 -10.87221,3.02669 -1.05193,0.37456 -2.70602,1.07224 -2.76315,2.90886 -0.0337,1.08222 0.56129,2.75357 1.07022,3.2365 0.62867,0.60624 2.27189,0.83929 3.406,0.43925 3.67472,-1.01177 7.34941,-2.02371 11.02413,-3.03548 0.55296,0.4815 0.69448,0.99297 0.15711,1.55391 -2.94629,5.18413 -4.8057,8.44503 -7.752,13.62915 -0.1112,0.19568 -0.4904,0.26989 -2.41895,-0.45321 -2.66012,-0.99739 -5.77789,-2.18888 -7.9184,-2.96157 -3.04334,-1.09861 -4.06678,1.1719 -4.42918,2.02365 -0.74739,1.7566 0.39405,3.74586 1.97559,4.34185 4.25464,1.60331 10.02774,3.76756 13.24158,4.94492 0.68842,0.2522 2.77701,0.0279 3.67419,-1.33842 0.81394,-1.43293 3.63744,-6.39708 4.4514,-7.83001 0.62058,-0.37505 1.14681,0.0102 1.67947,0.34364 1.65436,0.93825 3.32261,1.85538 4.97697,2.79363 0.37526,0.62069 -0.0103,1.14657 -0.34417,1.67897 -2.46105,4.37548 -5.00025,8.71101 -7.41246,13.11134 -0.83068,1.70765 0.26218,3.80557 1.98438,4.41265 1.52696,0.70658 3.45051,-0.006 4.18838,-1.50998 3.27271,-5.78342 6.58728,-11.54397 9.8335,-17.34158 0.78521,-1.68078 -0.10223,-3.81069 -1.78903,-4.53357 -1.58853,-0.90286 -3.17709,-1.80602 -4.76562,-2.70888 -0.37526,-0.62069 0.0108,-1.14659 0.3447,-1.67897 1.2088,-2.12718 1.63803,-2.88078 2.84683,-5.00796 0.62077,-0.37536 1.1375,0.0421 1.67897,0.34468 0.55602,0.31062 2.90068,2.05804 4.32223,1.98851 3.08153,-0.86428 6.73465,-1.89415 9.50537,-2.68614 1.39872,-0.36719 2.20324,-1.62836 2.16678,-2.92437 0.10507,-1.77701 -1.54575,-3.99813 -3.35277,-3.73414 -2.61065,0.59978 -5.17586,1.41027 -7.76955,2.08928 -0.8923,-0.11741 -1.59072,-0.82232 -2.40191,-1.18546 -3.37082,-1.89536 -6.71015,-3.85389 -10.10171,-5.70818 -0.31872,-0.13078 -0.66503,-0.18855 -1.00926,-0.18551 z"
               sodipodi:nodetypes="scccccssccsscccsccccsssssscccccccccccccscccccccs" />
            <path
               d="m 573.83489,-232.63306 2.47546,-4.34577 h 9.97388 l -5.07266,8.90525 c -2.65056,1.30136 -4.84729,2.18951 -6.59016,2.66446 -1.72797,0.46544 -3.59882,0.69817 -5.6126,0.69817 -2.47922,0 -4.26171,-0.42271 -5.34748,-1.26811 -1.07624,-0.8454 -1.57043,-2.10402 -1.48252,-3.77583 0.0974,-1.6718 0.76293,-3.59059 1.99659,-5.75635 1.29861,-2.27974 2.89695,-4.26027 4.79507,-5.94157 1.90353,-1.69082 4.01132,-2.97317 6.3234,-3.84707 1.79952,-0.67442 3.89614,-1.01164 6.28987,-1.01164 2.30824,0 3.22707,0.70889 4.12887,1.12684 2.05598,1.10363 2.40738,3.98144 1.90052,5.89751 l -6.52559,9e-5 c 0.19256,-0.7884 0.0993,-1.39159 -0.28009,-1.80954 -0.36985,-0.41795 -1.02973,-0.62693 -1.97962,-0.62693 -1.41534,0 -2.82706,0.49394 -4.2352,1.48184 -1.39324,0.97839 -2.69585,2.53146 -3.90787,4.65921 -1.28778,2.26075 -1.78492,3.87557 -1.49141,4.84446 0.30299,0.96889 1.21442,1.45334 2.73424,1.45334 0.72192,0 1.47009,-0.10455 2.24457,-0.31346 0.77447,-0.20897 1.72778,-0.56519 2.85996,-1.06863 l 1.12003,-1.96628 z"
               style="font-size:38.4138px;line-height:1.25;font-family:'Arial Black';-inkscape-font-specification:'Arial Black, Normal';letter-spacing:0px;word-spacing:0px;fill:#1c71d8;stroke-width:0.729519"
               id="path73975"
               sodipodi:nodetypes="cccccsccsccsccccscscssccc" />
            <path
               d="m 607.62775,-245.5991 h 10.72903 q 3.5051,0 4.2938,1.66707 0.80297,1.66706 -0.95014,4.74471 -1.80182,3.16314 -4.72562,4.94419 -2.90957,1.78105 -6.81362,1.78105 h -3.53359 l -4.41524,7.75113 h -6.48301 z m 1.41037,8.90525 h 1.58157 q 1.86655,0 2.98694,-0.64118 1.12851,-0.65542 1.70476,-1.66706 0.56001,-0.98315 0.29415,-1.66706 -0.26585,-0.68393 -2.07539,-0.68393 h -1.83804 z"
               style="font-size:38.4138px;line-height:1.25;font-family:'Arial Black';-inkscape-font-specification:'Arial Black, Normal';letter-spacing:0px;word-spacing:0px;fill:#1c71d8;stroke-width:0.729519"
               id="path73977" />
            <path
               d="m 621.15345,-236.58781 h 4.598 l -1.19614,2.09988 q 1.44056,-1.36372 2.42924,-1.87057 1.00762,-0.51895 2.04548,-0.51895 1.08615,0 1.99249,0.67583 l -3.51416,3.49979 q -0.66269,-0.36205 -1.16955,-0.36205 -0.96547,0 -1.95018,0.79651 -1.39961,1.12235 -3.15258,4.19975 l -2.44729,4.29631 h -4.93592 z"
               style="font-size:38.4138px;line-height:1.25;font-family:'Arial Black';-inkscape-font-specification:'Arial Black, Normal';letter-spacing:0px;word-spacing:0px;fill:#1c71d8;stroke-width:0.617895"
               id="path73979" />
            <path
               d="m 631.71843,-236.58781 h 5.18935 l -2.21723,8.53226 7.31005,-8.53226 h 4.83936 l -12.88316,13.69747 q -2.20254,2.34125 -3.57511,3.16189 -1.93918,1.15855 -4.55799,1.15855 -1.062,0 -3.1176,-0.28963 l 1.56616,-3.42739 q 0.86951,0.3379 2.17289,0.3379 0.86891,0 1.62677,-0.39824 0.76993,-0.39826 1.72835,-1.42405 z"
               style="font-size:38.4138px;line-height:1.25;font-family:'Arial Black';-inkscape-font-specification:'Arial Black, Normal';letter-spacing:0px;word-spacing:0px;fill:#1c71d8;stroke-width:0.617895"
               id="path73981" />
            <path
               id="path73983"
               style="fill:#deddda;stroke-width:0.01;stop-color:#000000"
               d="m 606.15586,-275.48903 c -0.0616,0.36557 -0.70424,0.56204 -1.43538,0.43884 -0.73113,-0.12321 -1.11724,-0.51943 -1.05564,-0.885 0.0616,-0.36557 0.70464,-0.75382 1.39347,-0.47951 1.27155,0.50636 1.15915,0.5601 1.09755,0.92567 z"
               sodipodi:nodetypes="sssss" />
            <circle
               id="circle73985"
               style="fill:#dc8add;stroke:#a51d2d;stroke-width:0.264583"
               cx="597.07922"
               cy="-227.98106"
               r="0.00075928762" />
          </g>
        </g>
      </g>
    </g>
    <g
       id="g94913">
      <g
         id="g78428"
         transform="translate(-4.1344382,3.4515166)">
        <rect
           style="fill:#241f31;stroke:#ed333b;stroke-width:0.0530479;stroke-miterlimit:4;stroke-dasharray:none;stop-color:#000000"
           id="rect78331"
           width="117.33114"
           height="84.372124"
           x="561.44824"
           y="-252.37474" />
      </g>
      <g
         id="g78425"
         transform="translate(-4.1344382,4.2452588)">
        <g
           id="g78371"
           transform="translate(17.726089,34.752033)">
          <g
             id="g78369">
            <path
               style="fill:#1c71d8;stroke:none;stroke-width:0.262228px;stroke-linecap:butt;stroke-linejoin:miter;stroke-opacity:1"
               d="m 617.12322,-275.14323 c -1.25052,1.53904 -0.52196,2.95036 0.25483,4.16367 -2.26515,3.98342 -7.28277,12.78989 -10.19864,17.90839 -1.55481,2.73211 -4.01465,3.61993 -4.01465,3.61993 0,0 4.42681,0.24322 5.98907,-2.49209 2.79888,-4.92261 8.01717,-14.08748 10.19997,-17.92025 1.07426,-1.69807 -1.59275,-2.5772 -0.73952,-4.0754 0.85323,-1.49819 4.27196,1.45068 5.64207,1.61624 -1.00521,-1.54757 -2.09636,-2.86951 -3.36816,-3.45134 -1.36929,-0.62644 -2.91312,-0.41754 -3.76497,0.63085 z"
               id="path78353"
               sodipodi:nodetypes="sccccczcss" />
            <path
               id="path78355"
               style="color:#000000;clip-rule:nonzero;display:inline;overflow:visible;visibility:visible;isolation:auto;mix-blend-mode:normal;color-interpolation:sRGB;color-interpolation-filters:linearRGB;solid-color:#000000;solid-opacity:1;fill:#deddda;fill-opacity:1;fill-rule:nonzero;stroke:none;stroke-width:5.86653;stroke-linecap:round;stroke-linejoin:round;stroke-miterlimit:4;stroke-dasharray:none;stroke-dashoffset:0;stroke-opacity:1;color-rendering:auto;image-rendering:auto;shape-rendering:auto;text-rendering:auto;enable-background:accumulate"
               d="m 602.17388,-282.32324 c -0.15722,5.3e-4 -0.31523,0.007 -0.47337,0.0191 -3.21188,0.14399 -6.04684,2.8413 -6.35256,6.04098 -0.42556,3.18173 1.71672,6.45149 4.81107,7.31945 1.30898,0.40501 2.75109,0.39248 4.11396,-0.0496 2.40493,-0.73575 4.18369,-2.93376 4.61004,-5.36918 -1.10815,-0.76101 -4.3271,1.48137 -5.92211,-0.0336 -1.73498,-1.6479 0.43614,-3.94529 2.33526,-3.27474 1.19597,0.42227 2.72947,1.54535 3.67472,1.82831 -0.0172,-0.29476 -0.0552,-0.58909 -0.11575,-0.8816 -0.53168,-3.18357 -3.4847,-5.60877 -6.68126,-5.59914 z m -10.15392,12.55738 c -0.0492,5.3e-4 -0.0983,0.002 -0.14726,0.005 -2.44848,0.54497 -4.84968,1.31973 -7.28017,1.95131 -3.6208,1.01893 -7.2675,1.95848 -10.87221,3.02669 -1.05193,0.37456 -2.70602,1.07224 -2.76315,2.90886 -0.0337,1.08222 0.56129,2.75357 1.07022,3.2365 0.62867,0.60624 2.27189,0.83929 3.406,0.43925 3.67472,-1.01177 7.34941,-2.02371 11.02413,-3.03548 0.55296,0.4815 0.69448,0.99297 0.15711,1.55391 -2.94629,5.18413 -4.8057,8.44503 -7.752,13.62915 -0.1112,0.19568 -0.4904,0.26989 -2.41895,-0.45321 -2.66012,-0.99739 -5.77789,-2.18888 -7.9184,-2.96157 -3.04334,-1.09861 -4.06678,1.1719 -4.42918,2.02365 -0.74739,1.7566 0.39405,3.74586 1.97559,4.34185 4.25464,1.60331 10.02774,3.76756 13.24158,4.94492 0.68842,0.2522 2.77701,0.0279 3.67419,-1.33842 0.81394,-1.43293 3.63744,-6.39708 4.4514,-7.83001 0.62058,-0.37505 1.14681,0.0102 1.67947,0.34364 1.65436,0.93825 3.32261,1.85538 4.97697,2.79363 0.37526,0.62069 -0.0103,1.14657 -0.34417,1.67897 -2.46105,4.37548 -5.00025,8.71101 -7.41246,13.11134 -0.83068,1.70765 0.26218,3.80557 1.98438,4.41265 1.52696,0.70658 3.45051,-0.006 4.18838,-1.50998 3.27271,-5.78342 6.58728,-11.54397 9.8335,-17.34158 0.78521,-1.68078 -0.10223,-3.81069 -1.78903,-4.53357 -1.58853,-0.90286 -3.17709,-1.80602 -4.76562,-2.70888 -0.37526,-0.62069 0.0108,-1.14659 0.3447,-1.67897 1.2088,-2.12718 1.63803,-2.88078 2.84683,-5.00796 0.62077,-0.37536 1.1375,0.0421 1.67897,0.34468 0.55602,0.31062 2.90068,2.05804 4.32223,1.98851 3.08153,-0.86428 6.73465,-1.89415 9.50537,-2.68614 1.39872,-0.36719 2.20324,-1.62836 2.16678,-2.92437 0.10507,-1.77701 -1.54575,-3.99813 -3.35277,-3.73414 -2.61065,0.59978 -5.17586,1.41027 -7.76955,2.08928 -0.8923,-0.11741 -1.59072,-0.82232 -2.40191,-1.18546 -3.37082,-1.89536 -6.71015,-3.85389 -10.10171,-5.70818 -0.31872,-0.13078 -0.66503,-0.18855 -1.00926,-0.18551 z"
               sodipodi:nodetypes="scccccssccsscccsccccsssssscccccccccccccscccccccs" />
            <path
               d="m 573.83489,-232.63306 2.47546,-4.34577 h 9.97388 l -5.07266,8.90525 c -2.65056,1.30136 -4.84729,2.18951 -6.59016,2.66446 -1.72797,0.46544 -3.59882,0.69817 -5.6126,0.69817 -2.47922,0 -4.26171,-0.42271 -5.34748,-1.26811 -1.07624,-0.8454 -1.57043,-2.10402 -1.48252,-3.77583 0.0974,-1.6718 0.76293,-3.59059 1.99659,-5.75635 1.29861,-2.27974 2.89695,-4.26027 4.79507,-5.94157 1.90353,-1.69082 4.01132,-2.97317 6.3234,-3.84707 1.79952,-0.67442 3.89614,-1.01164 6.28987,-1.01164 2.30824,0 3.22707,0.70889 4.12887,1.12684 2.05598,1.10363 2.40738,3.98144 1.90052,5.89751 l -6.52559,9e-5 c 0.19256,-0.7884 0.0993,-1.39159 -0.28009,-1.80954 -0.36985,-0.41795 -1.02973,-0.62693 -1.97962,-0.62693 -1.41534,0 -2.82706,0.49394 -4.2352,1.48184 -1.39324,0.97839 -2.69585,2.53146 -3.90787,4.65921 -1.28778,2.26075 -1.78492,3.87557 -1.49141,4.84446 0.30299,0.96889 1.21442,1.45334 2.73424,1.45334 0.72192,0 1.47009,-0.10455 2.24457,-0.31346 0.77447,-0.20897 1.72778,-0.56519 2.85996,-1.06863 l 1.12003,-1.96628 z"
               style="font-size:38.4138px;line-height:1.25;font-family:'Arial Black';-inkscape-font-specification:'Arial Black, Normal';letter-spacing:0px;word-spacing:0px;fill:#1c71d8;stroke-width:0.729519"
               id="path78357"
               sodipodi:nodetypes="cccccsccsccsccccscscssccc" />
            <path
               d="m 607.62775,-245.5991 h 10.72903 q 3.5051,0 4.2938,1.66707 0.80297,1.66706 -0.95014,4.74471 -1.80182,3.16314 -4.72562,4.94419 -2.90957,1.78105 -6.81362,1.78105 h -3.53359 l -4.41524,7.75113 h -6.48301 z m 1.41037,8.90525 h 1.58157 q 1.86655,0 2.98694,-0.64118 1.12851,-0.65542 1.70476,-1.66706 0.56001,-0.98315 0.29415,-1.66706 -0.26585,-0.68393 -2.07539,-0.68393 h -1.83804 z"
               style="font-size:38.4138px;line-height:1.25;font-family:'Arial Black';-inkscape-font-specification:'Arial Black, Normal';letter-spacing:0px;word-spacing:0px;fill:#1c71d8;stroke-width:0.729519"
               id="path78359" />
            <path
               d="m 621.15345,-236.58781 h 4.598 l -1.19614,2.09988 q 1.44056,-1.36372 2.42924,-1.87057 1.00762,-0.51895 2.04548,-0.51895 1.08615,0 1.99249,0.67583 l -3.51416,3.49979 q -0.66269,-0.36205 -1.16955,-0.36205 -0.96547,0 -1.95018,0.79651 -1.39961,1.12235 -3.15258,4.19975 l -2.44729,4.29631 h -4.93592 z"
               style="font-size:38.4138px;line-height:1.25;font-family:'Arial Black';-inkscape-font-specification:'Arial Black, Normal';letter-spacing:0px;word-spacing:0px;fill:#1c71d8;stroke-width:0.617895"
               id="path78361" />
            <path
               d="m 631.71843,-236.58781 h 5.18935 l -2.21723,8.53226 7.31005,-8.53226 h 4.83936 l -12.88316,13.69747 q -2.20254,2.34125 -3.57511,3.16189 -1.93918,1.15855 -4.55799,1.15855 -1.062,0 -3.1176,-0.28963 l 1.56616,-3.42739 q 0.86951,0.3379 2.17289,0.3379 0.86891,0 1.62677,-0.39824 0.76993,-0.39826 1.72835,-1.42405 z"
               style="font-size:38.4138px;line-height:1.25;font-family:'Arial Black';-inkscape-font-specification:'Arial Black, Normal';letter-spacing:0px;word-spacing:0px;fill:#1c71d8;stroke-width:0.617895"
               id="path78363" />
            <path
               id="path78365"
               style="fill:#deddda;stroke-width:0.01;stop-color:#000000"
               d="m 606.15586,-275.48903 c -0.0616,0.36557 -0.70424,0.56204 -1.43538,0.43884 -0.73113,-0.12321 -1.11724,-0.51943 -1.05564,-0.885 0.0616,-0.36557 0.70464,-0.75382 1.39347,-0.47951 1.27155,0.50636 1.15915,0.5601 1.09755,0.92567 z"
               sodipodi:nodetypes="sssss" />
            <circle
               id="circle78367"
               style="fill:#dc8add;stroke:#a51d2d;stroke-width:0.264583"
               cx="597.07922"
               cy="-227.98106"
               r="0.00075928762" />
          </g>
        </g>
        <text
           xml:space="preserve"
           style="font-style:oblique;font-variant:normal;font-weight:bold;font-stretch:semi-condensed;font-size:5.50452px;line-height:1.25;font-family:'DejaVu Sans';-inkscape-font-specification:'DejaVu Sans, Bold Oblique Semi-Condensed';font-variant-ligatures:normal;font-variant-caps:normal;font-variant-numeric:normal;font-variant-east-asian:normal;letter-spacing:0px;word-spacing:0px;fill:#deddda;fill-opacity:1;stroke:none;stroke-width:0.137613"
           x="567.75366"
           y="-175.58157"
           id="text78375"><tspan
             sodipodi:role="line"
             id="tspan78373"
             style="font-style:oblique;font-variant:normal;font-weight:bold;font-stretch:semi-condensed;font-size:5.50452px;font-family:'DejaVu Sans';-inkscape-font-specification:'DejaVu Sans, Bold Oblique Semi-Condensed';font-variant-ligatures:normal;font-variant-caps:normal;font-variant-numeric:normal;font-variant-east-asian:normal;fill:#deddda;stroke-width:0.137613"
             x="567.75366"
             y="-175.58157">Getting away with fewer evaluations!</tspan></text>
      </g>
    </g>
    <g
       id="g94896">
      <g
         id="g78616"
         transform="translate(-4.134438,10.548921)">
        <text
           xml:space="preserve"
           style="font-style:oblique;font-variant:normal;font-weight:bold;font-stretch:semi-condensed;font-size:5.50452px;line-height:1.25;font-family:'DejaVu Sans';-inkscape-font-specification:'DejaVu Sans, Bold Oblique Semi-Condensed';font-variant-ligatures:normal;font-variant-caps:normal;font-variant-numeric:normal;font-variant-east-asian:normal;letter-spacing:0px;word-spacing:0px;fill:#000000;fill-opacity:1;stroke:none;stroke-width:0.137613"
           x="567.75366"
           y="-274.18811"
           id="text77363"><tspan
             sodipodi:role="line"
             id="tspan77361"
             style="font-style:oblique;font-variant:normal;font-weight:bold;font-stretch:semi-condensed;font-size:5.50452px;font-family:'DejaVu Sans';-inkscape-font-specification:'DejaVu Sans, Bold Oblique Semi-Condensed';font-variant-ligatures:normal;font-variant-caps:normal;font-variant-numeric:normal;font-variant-east-asian:normal;stroke-width:0.137613"
             x="567.75366"
             y="-274.18811">Getting away with fewer evaluations!</tspan></text>
        <g
           id="g78351"
           transform="translate(17.726089,42.573474)">
          <g
             id="g78349"
             transform="translate(133.1693,-10.940993)">
            <path
               style="fill:#1a5fb4;stroke:none;stroke-width:0.262228px;stroke-linecap:butt;stroke-linejoin:miter;stroke-opacity:1"
               d="m 483.95392,-370.63018 c -1.25052,1.53904 -0.52196,2.95036 0.25483,4.16367 -2.26515,3.98342 -7.28277,12.78989 -10.19864,17.90839 -1.55481,2.73211 -4.01465,3.61993 -4.01465,3.61993 0,0 4.42681,0.24322 5.98907,-2.49209 2.79888,-4.92261 8.01717,-14.08748 10.19997,-17.92025 1.07426,-1.69807 -1.59275,-2.5772 -0.73952,-4.0754 0.85323,-1.49819 4.27196,1.45068 5.64207,1.61624 -1.00521,-1.54757 -2.09636,-2.86951 -3.36816,-3.45134 -1.36929,-0.62644 -2.91312,-0.41754 -3.76497,0.63085 z"
               id="path78333"
               sodipodi:nodetypes="sccccczcss" />
            <path
               id="path78335"
               style="color:#000000;clip-rule:nonzero;display:inline;overflow:visible;visibility:visible;isolation:auto;mix-blend-mode:normal;color-interpolation:sRGB;color-interpolation-filters:linearRGB;solid-color:#000000;solid-opacity:1;fill:#000000;fill-opacity:1;fill-rule:nonzero;stroke:none;stroke-width:22.1727;stroke-linecap:round;stroke-linejoin:round;stroke-miterlimit:4;stroke-dasharray:none;stroke-dashoffset:0;stroke-opacity:1;color-rendering:auto;image-rendering:auto;shape-rendering:auto;text-rendering:auto;enable-background:accumulate"
               d="m 3594.875,-152.33789 c -0.5942,0.002 -1.1914,0.0252 -1.7891,0.0723 -12.1394,0.54421 -22.8542,10.73875 -24.0097,22.83203 -1.6084,12.02543 6.4884,24.38358 18.1836,27.66406 4.9473,1.53075 10.3978,1.48339 15.5488,-0.1875 9.0895,-2.78078 15.8124,-11.08822 17.4238,-20.29297 -4.1883,-2.87623 -16.3544,5.5989 -22.3828,-0.12695 -6.5574,-6.22829 1.6484,-14.91132 8.8262,-12.37696 4.5202,1.59599 10.3161,5.84068 13.8887,6.91016 -0.065,-1.11406 -0.2085,-2.2265 -0.4375,-3.33203 -2.0095,-12.0324 -13.1705,-21.19853 -25.252,-21.16211 z m -38.377,47.46094 c -0.1858,0.002 -0.3715,0.007 -0.5566,0.0176 -9.2541,2.0597 -18.3295,4.987931 -27.5156,7.375005 -13.6849,3.851074 -27.4677,7.402124 -41.0918,11.439453 -3.9758,1.41566 -10.2275,4.052585 -10.4434,10.994141 -0.1273,4.09028 2.1214,10.407174 4.0449,12.232422 2.3761,2.2913 8.5867,3.172118 12.8731,1.660156 13.8887,-3.824013 27.7773,-7.648644 41.666,-11.472656 2.0899,1.819842 2.6248,3.752958 0.5938,5.873047 -11.1356,19.593562 -18.1633,31.918194 -29.2989,51.511718 -0.4203,0.739578 -1.8535,1.020086 -9.1425,-1.71289 -10.054,-3.769663 -21.8377,-8.272957 -29.9278,-11.19336 -11.5024,-4.152227 -15.3705,4.429225 -16.7402,7.648438 -2.8248,6.639118 1.4893,14.1575954 7.4668,16.410156 16.0805,6.0597543 37.9001,14.239589 50.0469,18.689453 2.6019,0.953197 10.4958,0.105602 13.8867,-5.0585936 3.0763,-5.4157985 13.7478,-24.1779514 16.8242,-29.5937504 2.3455,-1.417511 4.3344,0.03858 6.3476,1.298829 6.2527,3.546141 12.5579,7.012452 18.8106,10.5585932 1.4183,2.345915 -0.039,4.3334827 -1.3008,6.3457032 -9.3016,16.5372476 -18.8986,32.9235186 -28.0156,49.5546876 -3.1396,6.45411 0.9909,14.383259 7.5,16.677734 5.7712,2.670539 13.0413,-0.02402 15.8301,-5.707031 12.3693,-21.858595 24.8968,-43.630742 37.166,-65.5429688 2.9677,-6.3525542 -0.3864,-14.4026202 -6.7617,-17.1347652 -6.0039,-3.412385 -12.0079,-6.825897 -18.0118,-10.238282 -1.4183,-2.345915 0.041,-4.333558 1.3028,-6.345703 4.5687,-8.039735 6.191,-10.887999 10.7597,-18.927734 2.3462,-1.418684 4.2992,0.159238 6.3457,1.302734 2.1015,1.173997 10.9632,7.778416 16.336,7.515625 11.6467,-3.26657 25.4538,-7.158995 35.9258,-10.152343 5.2865,-1.387805 8.3272,-6.154429 8.1894,-11.052735 0.3971,-6.716258 -5.8422,-15.111039 -12.6719,-14.113281 -9.867,2.266885 -19.5623,5.330147 -29.3652,7.896484 -3.3725,-0.443754 -6.0122,-3.107971 -9.0781,-4.480468 -12.7401,-7.163566 -25.3612,-14.565879 -38.1797,-21.574218 -1.2046,-0.49428 -2.5135,-0.71265 -3.8145,-0.70117 z"
               transform="matrix(0.26458333,0,0,0.26458333,-482.13942,-337.50412)"
               sodipodi:nodetypes="scccccssccsscccsccccsssssscccccccccccccscccccccs" />
            <path
               d="m 440.66559,-328.12001 2.47546,-4.34577 h 9.97388 l -5.07266,8.90525 c -2.65056,1.30136 -4.84729,2.18951 -6.59016,2.66446 -1.72797,0.46544 -3.59882,0.69817 -5.6126,0.69817 -2.47922,0 -4.26171,-0.42271 -5.34748,-1.26811 -1.07624,-0.8454 -1.57043,-2.10402 -1.48252,-3.77583 0.0974,-1.6718 0.76293,-3.59059 1.99659,-5.75635 1.29861,-2.27974 2.89695,-4.26027 4.79507,-5.94157 1.90353,-1.69082 4.01132,-2.97317 6.3234,-3.84707 1.79952,-0.67442 3.89614,-1.01164 6.28987,-1.01164 2.30824,0 3.22707,0.70889 4.12887,1.12684 2.05598,1.10363 2.40738,3.98144 1.90052,5.89751 l -6.52559,9e-5 c 0.19256,-0.7884 0.0993,-1.39159 -0.28009,-1.80954 -0.36985,-0.41795 -1.02973,-0.62693 -1.97962,-0.62693 -1.41534,0 -2.82706,0.49394 -4.2352,1.48184 -1.39324,0.97839 -2.69585,2.53146 -3.90787,4.65921 -1.28778,2.26075 -1.78492,3.87557 -1.49141,4.84446 0.30299,0.96889 1.21442,1.45334 2.73424,1.45334 0.72192,0 1.47009,-0.10455 2.24457,-0.31346 0.77447,-0.20897 1.72778,-0.56519 2.85996,-1.06863 l 1.12003,-1.96628 z"
               style="font-size:38.4138px;line-height:1.25;font-family:'Arial Black';-inkscape-font-specification:'Arial Black, Normal';letter-spacing:0px;word-spacing:0px;fill:#1a5fb4;stroke-width:0.729519"
               id="path78337"
               sodipodi:nodetypes="cccccsccsccsccccscscssccc" />
            <path
               d="m 474.45845,-341.08605 h 10.72903 q 3.5051,0 4.2938,1.66707 0.80297,1.66706 -0.95014,4.74471 -1.80182,3.16314 -4.72562,4.94419 -2.90957,1.78105 -6.81362,1.78105 h -3.53359 l -4.41524,7.75113 h -6.48301 z m 1.41037,8.90525 h 1.58157 q 1.86655,0 2.98694,-0.64118 1.12851,-0.65542 1.70476,-1.66706 0.56001,-0.98315 0.29415,-1.66706 -0.26585,-0.68393 -2.07539,-0.68393 h -1.83804 z"
               style="font-size:38.4138px;line-height:1.25;font-family:'Arial Black';-inkscape-font-specification:'Arial Black, Normal';letter-spacing:0px;word-spacing:0px;fill:#1a5fb4;stroke-width:0.729519"
               id="path78339" />
            <path
               d="m 487.98415,-332.07476 h 4.598 l -1.19614,2.09988 q 1.44056,-1.36372 2.42924,-1.87057 1.00762,-0.51895 2.04548,-0.51895 1.08615,0 1.99249,0.67583 l -3.51416,3.49979 q -0.66269,-0.36205 -1.16955,-0.36205 -0.96547,0 -1.95018,0.79651 -1.39961,1.12235 -3.15258,4.19975 l -2.44729,4.29631 h -4.93592 z"
               style="font-size:38.4138px;line-height:1.25;font-family:'Arial Black';-inkscape-font-specification:'Arial Black, Normal';letter-spacing:0px;word-spacing:0px;fill:#1a5fb4;stroke-width:0.617895"
               id="path78341" />
            <path
               d="m 498.54913,-332.07476 h 5.18935 l -2.21723,8.53226 7.31005,-8.53226 h 4.83936 l -12.88316,13.69747 q -2.20254,2.34125 -3.57511,3.16189 -1.93918,1.15855 -4.55799,1.15855 -1.062,0 -3.1176,-0.28963 l 1.56616,-3.42739 q 0.86951,0.3379 2.17289,0.3379 0.86891,0 1.62677,-0.39824 0.76993,-0.39826 1.72835,-1.42405 z"
               style="font-size:38.4138px;line-height:1.25;font-family:'Arial Black';-inkscape-font-specification:'Arial Black, Normal';letter-spacing:0px;word-spacing:0px;fill:#1a5fb4;stroke-width:0.617895"
               id="path78343" />
            <path
               id="path78345"
               style="stroke-width:0.01;stop-color:#000000"
               d="m 472.98656,-370.97598 c -0.0616,0.36557 -0.70424,0.56204 -1.43538,0.43884 -0.73113,-0.12321 -1.11724,-0.51943 -1.05564,-0.885 0.0616,-0.36557 0.70464,-0.75382 1.39347,-0.47951 1.27155,0.50636 1.15915,0.5601 1.09755,0.92567 z"
               sodipodi:nodetypes="sssss" />
            <circle
               id="circle78347"
               style="fill:#dc8add;stroke:#a51d2d;stroke-width:0.264583"
               cx="463.90994"
               cy="-323.46802"
               r="0.00075928762" />
          </g>
        </g>
      </g>
      <g
         id="g78432"
         transform="translate(-4.134453,-88.851325)"
         style="fill:none;stroke:#c0bfbc;stroke-width:0.5;stroke-miterlimit:4;stroke-dasharray:none">
        <rect
           style="fill:none;stroke:#c0bfbc;stroke-width:0.5;stroke-miterlimit:4;stroke-dasharray:none;stop-color:#000000"
           id="rect78430"
           width="117.33114"
           height="84.372124"
           x="561.44824"
           y="-252.37474" />
      </g>
    </g>
    <text
       xml:space="preserve"
       style="font-style:normal;font-weight:normal;font-size:7.66868px;line-height:1.25;font-family:sans-serif;letter-spacing:0px;word-spacing:0px;fill:#000000;fill-opacity:1;stroke:none;stroke-width:0.191717"
       x="554.5083"
       y="-389.95557"
       id="text80698"><tspan
         sodipodi:role="line"
         id="tspan80696"
         style="stroke-width:0.191717"
         x="554.5083"
         y="-389.95557">Motto font: DejaVu Sans</tspan><tspan
         sodipodi:role="line"
         style="stroke-width:0.191717"
         x="554.5083"
         y="-380.36972"
         id="tspan81324">(Bold Oblique Semi-condensed)</tspan></text>
    <g
       id="g87541"
       transform="translate(-21.975726,16.646465)">
      <g
         id="g74214"
         transform="translate(-95.548882,41.188061)">
        <g
           id="g73889"
           transform="translate(133.1693,-10.940993)">
          <path
             style="fill:#1a5fb4;stroke:none;stroke-width:0.262228px;stroke-linecap:butt;stroke-linejoin:miter;stroke-opacity:1"
             d="m 483.95392,-370.63018 c -1.25052,1.53904 -0.52196,2.95036 0.25483,4.16367 -2.26515,3.98342 -7.28277,12.78989 -10.19864,17.90839 -1.55481,2.73211 -4.01465,3.61993 -4.01465,3.61993 0,0 4.42681,0.24322 5.98907,-2.49209 2.79888,-4.92261 8.01717,-14.08748 10.19997,-17.92025 1.07426,-1.69807 -1.59275,-2.5772 -0.73952,-4.0754 0.85323,-1.49819 4.27196,1.45068 5.64207,1.61624 -1.00521,-1.54757 -2.09636,-2.86951 -3.36816,-3.45134 -1.36929,-0.62644 -2.91312,-0.41754 -3.76497,0.63085 z"
             id="path73168"
             sodipodi:nodetypes="sccccczcss" />
          <path
             id="path73170"
             style="color:#000000;clip-rule:nonzero;display:inline;overflow:visible;visibility:visible;isolation:auto;mix-blend-mode:normal;color-interpolation:sRGB;color-interpolation-filters:linearRGB;solid-color:#000000;solid-opacity:1;fill:#000000;fill-opacity:1;fill-rule:nonzero;stroke:none;stroke-width:22.1727;stroke-linecap:round;stroke-linejoin:round;stroke-miterlimit:4;stroke-dasharray:none;stroke-dashoffset:0;stroke-opacity:1;color-rendering:auto;image-rendering:auto;shape-rendering:auto;text-rendering:auto;enable-background:accumulate"
             d="m 3594.875,-152.33789 c -0.5942,0.002 -1.1914,0.0252 -1.7891,0.0723 -12.1394,0.54421 -22.8542,10.73875 -24.0097,22.83203 -1.6084,12.02543 6.4884,24.38358 18.1836,27.66406 4.9473,1.53075 10.3978,1.48339 15.5488,-0.1875 9.0895,-2.78078 15.8124,-11.08822 17.4238,-20.29297 -4.1883,-2.87623 -16.3544,5.5989 -22.3828,-0.12695 -6.5574,-6.22829 1.6484,-14.91132 8.8262,-12.37696 4.5202,1.59599 10.3161,5.84068 13.8887,6.91016 -0.065,-1.11406 -0.2085,-2.2265 -0.4375,-3.33203 -2.0095,-12.0324 -13.1705,-21.19853 -25.252,-21.16211 z m -38.377,47.46094 c -0.1858,0.002 -0.3715,0.007 -0.5566,0.0176 -9.2541,2.0597 -18.3295,4.987931 -27.5156,7.375005 -13.6849,3.851074 -27.4677,7.402124 -41.0918,11.439453 -3.9758,1.41566 -10.2275,4.052585 -10.4434,10.994141 -0.1273,4.09028 2.1214,10.407174 4.0449,12.232422 2.3761,2.2913 8.5867,3.172118 12.8731,1.660156 13.8887,-3.824013 27.7773,-7.648644 41.666,-11.472656 2.0899,1.819842 2.6248,3.752958 0.5938,5.873047 -11.1356,19.593562 -18.1633,31.918194 -29.2989,51.511718 -0.4203,0.739578 -1.8535,1.020086 -9.1425,-1.71289 -10.054,-3.769663 -21.8377,-8.272957 -29.9278,-11.19336 -11.5024,-4.152227 -15.3705,4.429225 -16.7402,7.648438 -2.8248,6.639118 1.4893,14.1575954 7.4668,16.410156 16.0805,6.0597543 37.9001,14.239589 50.0469,18.689453 2.6019,0.953197 10.4958,0.105602 13.8867,-5.0585936 3.0763,-5.4157985 13.7478,-24.1779514 16.8242,-29.5937504 2.3455,-1.417511 4.3344,0.03858 6.3476,1.298829 6.2527,3.546141 12.5579,7.012452 18.8106,10.5585932 1.4183,2.345915 -0.039,4.3334827 -1.3008,6.3457032 -9.3016,16.5372476 -18.8986,32.9235186 -28.0156,49.5546876 -3.1396,6.45411 0.9909,14.383259 7.5,16.677734 5.7712,2.670539 13.0413,-0.02402 15.8301,-5.707031 12.3693,-21.858595 24.8968,-43.630742 37.166,-65.5429688 2.9677,-6.3525542 -0.3864,-14.4026202 -6.7617,-17.1347652 -6.0039,-3.412385 -12.0079,-6.825897 -18.0118,-10.238282 -1.4183,-2.345915 0.041,-4.333558 1.3028,-6.345703 4.5687,-8.039735 6.191,-10.887999 10.7597,-18.927734 2.3462,-1.418684 4.2992,0.159238 6.3457,1.302734 2.1015,1.173997 10.9632,7.778416 16.336,7.515625 11.6467,-3.26657 25.4538,-7.158995 35.9258,-10.152343 5.2865,-1.387805 8.3272,-6.154429 8.1894,-11.052735 0.3971,-6.716258 -5.8422,-15.111039 -12.6719,-14.113281 -9.867,2.266885 -19.5623,5.330147 -29.3652,7.896484 -3.3725,-0.443754 -6.0122,-3.107971 -9.0781,-4.480468 -12.7401,-7.163566 -25.3612,-14.565879 -38.1797,-21.574218 -1.2046,-0.49428 -2.5135,-0.71265 -3.8145,-0.70117 z"
             transform="matrix(0.26458333,0,0,0.26458333,-482.13942,-337.50412)"
             sodipodi:nodetypes="scccccssccsscccsccccsssssscccccccccccccscccccccs" />
          <path
             d="m 440.66559,-328.12001 2.47546,-4.34577 h 9.97388 l -5.07266,8.90525 c -2.65056,1.30136 -4.84729,2.18951 -6.59016,2.66446 -1.72797,0.46544 -3.59882,0.69817 -5.6126,0.69817 -2.47922,0 -4.26171,-0.42271 -5.34748,-1.26811 -1.07624,-0.8454 -1.57043,-2.10402 -1.48252,-3.77583 0.0974,-1.6718 0.76293,-3.59059 1.99659,-5.75635 1.29861,-2.27974 2.89695,-4.26027 4.79507,-5.94157 1.90353,-1.69082 4.01132,-2.97317 6.3234,-3.84707 1.79952,-0.67442 3.89614,-1.01164 6.28987,-1.01164 2.30824,0 3.22707,0.70889 4.12887,1.12684 2.05598,1.10363 2.40738,3.98144 1.90052,5.89751 l -6.52559,9e-5 c 0.19256,-0.7884 0.0993,-1.39159 -0.28009,-1.80954 -0.36985,-0.41795 -1.02973,-0.62693 -1.97962,-0.62693 -1.41534,0 -2.82706,0.49394 -4.2352,1.48184 -1.39324,0.97839 -2.69585,2.53146 -3.90787,4.65921 -1.28778,2.26075 -1.78492,3.87557 -1.49141,4.84446 0.30299,0.96889 1.21442,1.45334 2.73424,1.45334 0.72192,0 1.47009,-0.10455 2.24457,-0.31346 0.77447,-0.20897 1.72778,-0.56519 2.85996,-1.06863 l 1.12003,-1.96628 z"
             style="font-size:38.4138px;line-height:1.25;font-family:'Arial Black';-inkscape-font-specification:'Arial Black, Normal';letter-spacing:0px;word-spacing:0px;fill:#1a5fb4;stroke-width:0.729519"
             id="path73172"
             sodipodi:nodetypes="cccccsccsccsccccscscssccc" />
          <path
             d="m 474.45845,-341.08605 h 10.72903 q 3.5051,0 4.2938,1.66707 0.80297,1.66706 -0.95014,4.74471 -1.80182,3.16314 -4.72562,4.94419 -2.90957,1.78105 -6.81362,1.78105 h -3.53359 l -4.41524,7.75113 h -6.48301 z m 1.41037,8.90525 h 1.58157 q 1.86655,0 2.98694,-0.64118 1.12851,-0.65542 1.70476,-1.66706 0.56001,-0.98315 0.29415,-1.66706 -0.26585,-0.68393 -2.07539,-0.68393 h -1.83804 z"
             style="font-size:38.4138px;line-height:1.25;font-family:'Arial Black';-inkscape-font-specification:'Arial Black, Normal';letter-spacing:0px;word-spacing:0px;fill:#1a5fb4;stroke-width:0.729519"
             id="path73174" />
          <path
             d="m 487.98415,-332.07476 h 4.598 l -1.19614,2.09988 q 1.44056,-1.36372 2.42924,-1.87057 1.00762,-0.51895 2.04548,-0.51895 1.08615,0 1.99249,0.67583 l -3.51416,3.49979 q -0.66269,-0.36205 -1.16955,-0.36205 -0.96547,0 -1.95018,0.79651 -1.39961,1.12235 -3.15258,4.19975 l -2.44729,4.29631 h -4.93592 z"
             style="font-size:38.4138px;line-height:1.25;font-family:'Arial Black';-inkscape-font-specification:'Arial Black, Normal';letter-spacing:0px;word-spacing:0px;fill:#1a5fb4;stroke-width:0.617895"
             id="path73176" />
          <path
             d="m 498.54913,-332.07476 h 5.18935 l -2.21723,8.53226 7.31005,-8.53226 h 4.83936 l -12.88316,13.69747 q -2.20254,2.34125 -3.57511,3.16189 -1.93918,1.15855 -4.55799,1.15855 -1.062,0 -3.1176,-0.28963 l 1.56616,-3.42739 q 0.86951,0.3379 2.17289,0.3379 0.86891,0 1.62677,-0.39824 0.76993,-0.39826 1.72835,-1.42405 z"
             style="font-size:38.4138px;line-height:1.25;font-family:'Arial Black';-inkscape-font-specification:'Arial Black, Normal';letter-spacing:0px;word-spacing:0px;fill:#1a5fb4;stroke-width:0.617895"
             id="path73178" />
          <path
             id="path73182"
             style="stroke-width:0.01;stop-color:#000000"
             d="m 472.98656,-370.97598 c -0.0616,0.36557 -0.70424,0.56204 -1.43538,0.43884 -0.73113,-0.12321 -1.11724,-0.51943 -1.05564,-0.885 0.0616,-0.36557 0.70464,-0.75382 1.39347,-0.47951 1.27155,0.50636 1.15915,0.5601 1.09755,0.92567 z"
             sodipodi:nodetypes="sssss" />
          <circle
             id="circle73190"
             style="fill:#dc8add;stroke:#a51d2d;stroke-width:0.264583"
             cx="463.90994"
             cy="-323.46802"
             r="0.00075928762" />
        </g>
      </g>
      <rect
         style="fill:none;stroke:#c0bfbc;stroke-width:0.5;stroke-miterlimit:4;stroke-dasharray:none;stop-color:#000000"
         id="rect78714"
         width="100.53821"
         height="76.637688"
         x="458.6864"
         y="-354.00531" />
    </g>
  </g>
</svg>
