<?xml version="1.0" encoding="UTF-8" standalone="no"?>
<!-- Created with Inkscape (http://www.inkscape.org/) -->

<svg
   width="82.203857mm"
   height="79.417534mm"
   viewBox="0 0 82.203857 79.417534"
   version="1.1"
   id="svg2944"
   inkscape:version="1.2.2 (b0a8486541, 2022-12-01)"
   sodipodi:docname="logo_both_outline.svg"
   xmlns:inkscape="http://www.inkscape.org/namespaces/inkscape"
   xmlns:sodipodi="http://sodipodi.sourceforge.net/DTD/sodipodi-0.dtd"
   xmlns="http://www.w3.org/2000/svg"
   xmlns:svg="http://www.w3.org/2000/svg">
  <sodipodi:namedview
     id="namedview2946"
     pagecolor="#ffffff"
     bordercolor="#000000"
     borderopacity="0.25"
     inkscape:showpageshadow="2"
     inkscape:pageopacity="0.0"
     inkscape:pagecheckerboard="0"
     inkscape:deskcolor="#d1d1d1"
     inkscape:document-units="mm"
     showgrid="false"
     inkscape:zoom="0.76645439"
     inkscape:cx="440.33931"
     inkscape:cy="63.930744"
     inkscape:window-width="1920"
     inkscape:window-height="1013"
     inkscape:window-x="0"
     inkscape:window-y="0"
     inkscape:window-maximized="1"
     inkscape:current-layer="layer1" />
  <defs
     id="defs2941" />
  <g
     inkscape:label="Layer 1"
     inkscape:groupmode="layer"
     id="layer1"
     transform="translate(-163.35224,-176.71952)">
    <path
       style="fill:#1a5fb4;stroke:#8daff1;stroke-width:0.15;stroke-linecap:butt;stroke-linejoin:miter;stroke-dasharray:none;stroke-opacity:1"
       d="m 216.15362,183.15614 c -1.23633,1.52155 -0.51604,2.91684 0.25192,4.11637 -2.23942,3.93819 -7.20005,12.64464 -10.08281,17.70501 -1.53715,2.70109 -3.96905,3.57882 -3.96905,3.57882 0,0 4.37653,0.24045 5.92106,-2.46378 2.76709,-4.86671 7.92611,-13.9275 10.08412,-17.71674 1.06206,-1.67878 -1.57466,-2.54792 -0.73112,-4.02911 0.84353,-1.48118 4.22344,1.43421 5.57799,1.59789 -0.99379,-1.53 -2.07255,-2.83693 -3.32991,-3.41215 -1.35374,-0.61932 -2.88003,-0.41279 -3.7222,0.62369 z"
       id="path78333"
       sodipodi:nodetypes="sccccczcss" />
    <g
       id="g5192"
       style="fill:#595959;stroke:#999999;stroke-width:0.15;stroke-dasharray:none;stroke-opacity:1;fill-opacity:1">
      <path
         id="path78335"
         style="color:#000000;clip-rule:nonzero;display:inline;overflow:visible;visibility:visible;isolation:auto;mix-blend-mode:normal;color-interpolation:sRGB;color-interpolation-filters:linearRGB;solid-color:#000000;solid-opacity:1;fill:#595959;fill-opacity:1;fill-rule:nonzero;stroke:#999999;stroke-width:0.15;stroke-linecap:round;stroke-linejoin:round;stroke-miterlimit:4;stroke-dasharray:none;stroke-dashoffset:0;stroke-opacity:1;color-rendering:auto;image-rendering:auto;shape-rendering:auto;text-rendering:auto;enable-background:accumulate"
         d="m 201.40919,176.85181 c -0.14904,5e-4 -0.29864,0.006 -0.44856,0.0181 -3.04486,0.1365 -5.73254,2.69348 -6.02237,5.72678 -0.40343,3.01629 1.62751,6.11577 4.56097,6.93859 1.24089,0.38395 2.60802,0.37205 3.90002,-0.047 2.27986,-0.69749 3.96609,-2.78084 4.37027,-5.08961 -1.05053,-0.72143 -4.10206,1.40411 -5.61413,-0.032 -1.64476,-1.56221 0.41345,-3.73988 2.21382,-3.10421 1.13378,0.40032 2.58741,1.46497 3.48351,1.73323 -0.0163,-0.27944 -0.0521,-0.55883 -0.10955,-0.83612 -0.50403,-3.01803 -3.30364,-5.31683 -6.33398,-5.30769 z m -9.62577,11.90367 v 5.1e-4 c -0.0466,5e-4 -0.0931,0.002 -0.13953,0.004 -2.32116,0.51662 -4.5978,1.25128 -6.9019,1.85001 -3.43252,0.96595 -6.8896,1.85641 -10.30687,2.86908 -0.99723,0.35508 -2.56532,1.01634 -2.61948,2.75745 -0.0319,1.02594 0.53194,2.61073 1.01441,3.06855 0.59598,0.57471 2.15412,0.79523 3.22926,0.416 3.48363,-0.95916 6.96689,-1.91819 10.45053,-2.87735 0.5242,0.45647 0.65877,0.94153 0.14934,1.4733 -2.64553,4.65492 -4.41295,7.7554 -6.96081,12.23749 0.4459,-0.0453 0.8946,-0.0718 1.34462,-0.078 1.8628,-0.1195 3.80613,0.31977 5.37125,1.35341 7.6e-4,6.1e-4 0.001,0.001 0.002,0.002 0.35723,-0.62832 0.83696,-1.47176 1.02423,-1.80144 0.58831,-0.35555 1.08719,0.0103 1.59215,0.32608 1.56833,0.88947 3.14973,1.75895 4.71806,2.64842 0.35575,0.58841 -0.0103,1.08691 -0.3266,1.59163 -2.33307,4.14796 -4.74019,8.2577 -7.02696,12.42922 -0.78749,1.61885 0.24889,3.6077 1.88154,4.18321 1.44756,0.66984 3.2708,-0.006 3.9703,-1.43144 3.10253,-5.48269 6.245,-10.94369 9.32243,-16.43982 0.74437,-1.59338 -0.0969,-3.61264 -1.69602,-4.29793 -1.50593,-0.85591 -3.01214,-1.7119 -4.51807,-2.5678 -0.35575,-0.58841 0.0106,-1.08694 0.32711,-1.59164 1.14595,-2.01657 1.5526,-2.73095 2.69854,-4.74751 0.58849,-0.35585 1.07833,0.0397 1.59164,0.32659 0.52711,0.29447 2.74979,1.95108 4.09742,1.88516 2.92129,-0.81933 6.3847,-1.79581 9.01134,-2.54662 1.32599,-0.3481 2.0887,-1.5433 2.05414,-2.77192 0.0996,-1.6846 -1.46556,-3.79062 -3.17862,-3.54035 -2.4749,0.56859 -4.90662,1.33706 -7.36544,1.98076 -0.84591,-0.1113 -1.50787,-0.77971 -2.27687,-1.12397 -3.19553,-1.7968 -6.36147,-3.65317 -9.57667,-5.41104 -0.30214,-0.12398 -0.63021,-0.17909 -0.95653,-0.17621 z m -23.70243,18.96576 c -1.7975,-0.003 -2.4902,1.54123 -2.76934,2.19729 -0.70853,1.66525 0.37344,3.55102 1.87275,4.11602 0.79465,0.29946 1.74213,0.65389 2.61896,0.98341 0.44039,-0.38002 0.8948,-0.74313 1.36219,-1.08728 1.8701,-1.38134 4.00432,-2.41509 6.25647,-2.97707 -0.13056,-0.0463 -0.25559,-0.0897 -0.40514,-0.14573 -2.5218,-0.94553 -5.47732,-2.07507 -7.50652,-2.80758 -0.54096,-0.19528 -1.01457,-0.27843 -1.42937,-0.27906 z m 11.17399,8.14524 c -1.12853,-0.016 -2.28165,0.43934 -3.23132,1.00873 -0.15244,0.0979 -0.30147,0.19955 -0.44701,0.30541 1.56931,0.58485 3.04917,1.1349 4.16047,1.54202 0.50286,0.18422 1.79256,0.0977 2.74764,-0.54312 h -1.71514 c 0.11609,-0.65855 0.50527,-1.6051 -0.21497,-2.05672 -0.42035,-0.17205 -0.85807,-0.25004 -1.29967,-0.25632 z" />
      <path
         id="path78345"
         style="fill:#595959;stroke:#999999;stroke-width:0.15;stroke-dasharray:none;stroke-opacity:1;stop-color:#000000;fill-opacity:1"
         d="m 205.18411,183.33054 c -0.0584,0.34656 -0.66762,0.53282 -1.36074,0.41602 -0.69312,-0.1168 -1.05915,-0.49242 -1.00075,-0.83898 0.0584,-0.34656 0.668,-0.71462 1.32101,-0.45457 1.20543,0.48002 1.09887,0.53097 1.04048,0.87753 z"
         sodipodi:nodetypes="sssss" />
    </g>
    <g
       id="g10319"
       style="stroke:#8daff1;stroke-width:0.15;stroke-dasharray:none;stroke-opacity:1">
      <path
         d="m 174.5438,223.95804 2.34674,-4.11979 h 9.45524 l -4.80888,8.44218 c -2.51274,1.23369 -4.59524,2.07566 -6.24748,2.52591 -1.63812,0.44124 -3.41169,0.66187 -5.32075,0.66187 -2.3503,0 -4.04011,-0.40073 -5.06942,-1.20217 -1.02027,-0.80144 -1.48877,-1.99461 -1.40543,-3.57949 0.0923,-1.58487 0.72326,-3.40388 1.89277,-5.45703 1.23108,-2.16119 2.74631,-4.03874 4.54573,-5.63261 1.80455,-1.6029 3.80274,-2.81857 5.99459,-3.64703 1.70595,-0.63935 3.69355,-0.95903 5.9628,-0.95903 1.53351,0 3.09816,0.59711 3.91418,1.06824 1.76254,1.0176 2.2822,3.77441 1.80169,5.59085 l -6.18626,8e-5 c 0.18254,-0.7474 0.0941,-1.31922 -0.26553,-1.71544 -0.35062,-0.39622 -0.97618,-0.59433 -1.87668,-0.59433 -1.34174,0 -2.68006,0.46825 -4.01497,1.40478 -1.3208,0.92752 -2.55567,2.39983 -3.70467,4.41694 -1.22082,2.14319 -1.69211,3.67404 -1.41386,4.59255 0.28724,0.91851 1.15127,1.37777 2.59206,1.37777 0.68439,0 1.39365,-0.0991 2.12786,-0.29716 0.7342,-0.1981 1.63794,-0.5358 2.71124,-1.01306 l 1.06179,-1.86404 z"
         style="font-size:38.4138px;line-height:1.25;font-family:'Arial Black';-inkscape-font-specification:'Arial Black, Normal';letter-spacing:0px;word-spacing:0px;fill:#1a5fb4;stroke:#8daff1;stroke-width:0.15;stroke-dasharray:none;stroke-opacity:1"
         id="path78337"
         sodipodi:nodetypes="cccccsccsccsscccscscssccc" />
      <path
         d="m 220.21052,220.20894 h 4.35891 l -1.13395,1.99068 q 1.36566,-1.2928 2.30293,-1.7733 0.95522,-0.49196 1.93911,-0.49196 1.02967,0 1.88889,0.64068 l -3.33143,3.31781 q -0.62823,-0.34323 -1.10874,-0.34323 -0.91526,0 -1.84877,0.7551 -1.32683,1.06399 -2.98865,3.98136 l -2.32003,4.07291 h -4.67926 z"
         style="font-size:38.4138px;line-height:1.25;font-family:'Arial Black';-inkscape-font-specification:'Arial Black, Normal';letter-spacing:0px;word-spacing:0px;fill:#1a5fb4;stroke:#8daff1;stroke-width:0.15;stroke-dasharray:none;stroke-opacity:1"
         id="path78341" />
      <path
         d="m 206.57946,211.66622 h 10.17113 q 3.32284,0 4.07053,1.58039 0.76121,1.58037 -0.90074,4.49799 -1.70812,2.99866 -4.47989,4.68709 -2.75827,1.68844 -6.45932,1.68844 h -3.34984 l -4.18565,7.34808 h -6.1459 z m 1.33703,8.44219 h 1.49933 q 1.76949,0 2.83162,-0.60784 1.06983,-0.62134 1.61612,-1.58037 0.53089,-0.93203 0.27885,-1.58038 -0.25202,-0.64837 -1.96747,-0.64837 h -1.74246 z"
         style="font-size:38.4138px;line-height:1.25;font-family:'Arial Black';-inkscape-font-specification:'Arial Black, Normal';letter-spacing:0px;word-spacing:0px;fill:#1a5fb4;stroke:#8daff1;stroke-width:0.15;stroke-dasharray:none;stroke-opacity:1"
         id="path78339" />
      <path
         d="m 230.91484,220.20894 h 4.91951 l -2.10194,8.08859 6.92994,-8.08859 h 4.58771 l -12.21324,12.98521 q -2.08801,2.21951 -3.38921,2.99748 -1.83835,1.0983 -4.32098,1.0983 -1.00678,0 -2.95549,-0.27457 l 1.48472,-3.24917 q 0.8243,0.32033 2.0599,0.32033 0.82373,0 1.54218,-0.37753 0.7299,-0.37755 1.63848,-1.35 z"
         style="font-size:38.4138px;line-height:1.25;font-family:'Arial Black';-inkscape-font-specification:'Arial Black, Normal';letter-spacing:0px;word-spacing:0px;fill:#1a5fb4;stroke:#8daff1;stroke-width:0.15;stroke-dasharray:none;stroke-opacity:1"
         id="path78343" />
      <circle
         id="circle78347"
         style="fill:#dc8add;stroke:#8daff1;stroke-width:0.15;stroke-dasharray:none;stroke-opacity:1"
         cx="196.57947"
         cy="228.36813"
         r="0.00071980542" />
    </g>
    <g
       aria-label="Getting away with fewer evaluations!"
       id="text12696"
       style="font-style:oblique;font-weight:bold;font-stretch:semi-condensed;font-size:6.77989px;font-family:'DejaVu Sans';-inkscape-font-specification:'DejaVu Sans, Bold Oblique Semi-Condensed';opacity:1;fill:#595959;stroke:#b3b3b3;stroke-width:0.05;stroke-dasharray:none;stop-color:#000000;stop-opacity:1;fill-opacity:1"
       transform="translate(-0.52916663)">
      <path
         d="m 176.49871,247.06001 q -0.43699,0.23505 -0.90377,0.35091 -0.46678,0.11256 -1.00308,0.11256 -0.9468,0 -1.48972,-0.53299 -0.53961,-0.5363 -0.53961,-1.45993 0,-0.5992 0.16884,-1.12225 0.16883,-0.52637 0.5065,-0.96005 0.4105,-0.52968 0.96998,-0.79121 0.55947,-0.26152 1.27785,-0.26152 0.39726,0 0.80114,0.0927 0.40719,0.0927 0.80114,0.27477 l -0.17546,1.02294 q -0.36415,-0.23504 -0.71176,-0.35091 -0.3476,-0.11587 -0.69851,-0.11587 -0.76803,0 -1.25137,0.56941 -0.48333,0.5694 -0.48333,1.46324 0,0.59257 0.28139,0.92031 0.2814,0.32774 0.79452,0.32774 0.16553,0 0.33105,-0.0232 0.16884,-0.0265 0.33767,-0.0795 l 0.17215,-0.96005 h -0.70183 l 0.14566,-0.8541 h 1.78436 z"
         style="stroke-width:0.05;stroke-dasharray:none;stop-color:#000000;stop-opacity:1;stroke:#b3b3b3;fill:#595959;fill-opacity:1"
         id="path12962" />
      <path
         d="m 181.18306,245.71264 -0.0364,0.1887 h -2.49611 q 0,0.0199 -0.003,0.0596 -0.003,0.0364 -0.003,0.0563 0,0.36085 0.19532,0.53962 0.19532,0.17876 0.58595,0.17876 0.33767,0 0.71176,-0.11255 0.37409,-0.11256 0.78459,-0.33436 l -0.16553,0.92031 q -0.38733,0.15891 -0.77465,0.23505 -0.38402,0.0795 -0.78459,0.0795 -0.78128,0 -1.20502,-0.40057 -0.42374,-0.40057 -0.42374,-1.13219 0,-0.42374 0.13242,-0.821 0.13573,-0.40057 0.39726,-0.73162 0.30787,-0.39726 0.73493,-0.60251 0.42705,-0.20525 0.9468,-0.20525 0.67865,0 1.07591,0.40057 0.39726,0.40057 0.39726,1.07922 0,0.13242 -0.0166,0.28139 -0.0165,0.14566 -0.053,0.32112 z m -1.00639,-0.54292 q 0.01,-0.043 0.0132,-0.0861 0.003,-0.0464 0.003,-0.0894 0,-0.26484 -0.14235,-0.42043 -0.14235,-0.15559 -0.38733,-0.15559 -0.31119,0 -0.53299,0.19201 -0.21849,0.18869 -0.33436,0.55947 z"
         style="stroke-width:0.05;stroke-dasharray:none;stop-color:#000000;stop-opacity:1;stroke:#b3b3b3;fill:#595959;fill-opacity:1"
         id="path12964" />
      <path
         d="m 183.67917,242.66699 -0.18208,1.05273 h 1.09246 l -0.15228,0.84749 h -1.09246 l -0.27146,1.56917 q -0.0132,0.053 -0.0199,0.0894 -0.003,0.0364 -0.003,0.0695 0,0.15228 0.0894,0.21849 0.0927,0.0662 0.30787,0.0662 h 0.55285 l -0.15228,0.84748 h -0.89714 q -0.48333,0 -0.73824,-0.22511 -0.2516,-0.22511 -0.2516,-0.64886 0,-0.0927 0.007,-0.19862 0.01,-0.10594 0.0298,-0.21519 l 0.27477,-1.57248 h -0.52637 l 0.14566,-0.84749 h 0.53299 l 0.18208,-1.05273 z"
         style="stroke-width:0.05;stroke-dasharray:none;stop-color:#000000;stop-opacity:1;stroke:#b3b3b3;fill:#595959;fill-opacity:1"
         id="path12966" />
      <path
         d="m 186.59571,242.66699 -0.18208,1.05273 h 1.09247 l -0.15229,0.84749 h -1.09246 l -0.27146,1.56917 q -0.0132,0.053 -0.0199,0.0894 -0.003,0.0364 -0.003,0.0695 0,0.15228 0.0894,0.21849 0.0927,0.0662 0.30788,0.0662 h 0.55285 l -0.15228,0.84748 h -0.89715 q -0.48333,0 -0.73824,-0.22511 -0.25159,-0.22511 -0.25159,-0.64886 0,-0.0927 0.007,-0.19862 0.01,-0.10594 0.0298,-0.21519 l 0.27477,-1.57248 h -0.52637 l 0.14567,-0.84749 h 0.53299 l 0.18207,-1.05273 z"
         style="stroke-width:0.05;stroke-dasharray:none;stop-color:#000000;stop-opacity:1;stroke:#b3b3b3;fill:#595959;fill-opacity:1"
         id="path12968" />
      <path
         d="m 188.15495,243.71972 h 1.0726 l -0.65216,3.70775 h -1.06929 z m 0.24829,-1.44337 h 1.0726 l -0.16883,0.96666 h -1.07591 z"
         style="stroke-width:0.05;stroke-dasharray:none;stop-color:#000000;stop-opacity:1;stroke:#b3b3b3;fill:#595959;fill-opacity:1"
         id="path12970" />
      <path
         d="m 193.3425,245.16972 -0.39726,2.25775 h -1.06929 l 0.33767,-1.93332 q 0.0364,-0.1887 0.053,-0.31781 0.0199,-0.13242 0.0199,-0.20856 0,-0.21187 -0.10594,-0.32774 -0.10593,-0.11587 -0.29794,-0.11587 -0.33105,0 -0.56941,0.28802 -0.23504,0.2847 -0.32773,0.7912 l -0.32112,1.82408 h -1.06929 l 0.64886,-3.70775 h 1.0726 l -0.0993,0.54292 q 0.29463,-0.32111 0.59258,-0.47671 0.29794,-0.15559 0.62237,-0.15559 0.46347,0 0.71176,0.26815 0.25159,0.26815 0.25159,0.75479 0,0.10594 -0.0132,0.23505 -0.0132,0.12911 -0.0397,0.28139 z"
         style="stroke-width:0.05;stroke-dasharray:none;stop-color:#000000;stop-opacity:1;stroke:#b3b3b3;fill:#595959;fill-opacity:1"
         id="path12972" />
      <path
         d="m 196.29877,246.79848 q -0.25491,0.32443 -0.51975,0.47671 -0.26484,0.15228 -0.57934,0.15228 -0.56609,0 -0.89714,-0.40388 -0.32774,-0.40719 -0.32774,-1.10901 0,-0.37409 0.11587,-0.74817 0.11587,-0.3774 0.32774,-0.70845 0.26484,-0.40057 0.60251,-0.60913 0.34098,-0.21187 0.73162,-0.21187 0.35091,0 0.58926,0.15228 0.24167,0.15229 0.40388,0.48002 l 0.0894,-0.54954 h 1.07591 l -0.56279,3.22111 q -0.17214,0.99646 -0.73824,1.47317 -0.56609,0.47671 -1.57248,0.47671 -0.31119,0 -0.5992,-0.053 -0.2847,-0.053 -0.56609,-0.16222 l 0.1589,-0.92363 q 0.2516,0.17877 0.50319,0.26484 0.25491,0.0894 0.51975,0.0894 0.52968,0 0.81438,-0.2516 0.28471,-0.2516 0.38402,-0.80114 z m -0.29795,-2.30741 q -0.39064,0 -0.65216,0.39395 -0.26153,0.39394 -0.26153,0.98983 0,0.33767 0.13904,0.51644 0.14235,0.17546 0.4105,0.17546 0.39064,0 0.65217,-0.39064 0.26152,-0.39395 0.26152,-0.97991 0,-0.34429 -0.14235,-0.52306 -0.13904,-0.18207 -0.40719,-0.18207 z"
         style="stroke-width:0.05;stroke-dasharray:none;stop-color:#000000;stop-opacity:1;stroke:#b3b3b3;fill:#595959;fill-opacity:1"
         id="path12974" />
      <path
         d="m 202.24772,245.75899 q -0.40057,0 -0.60582,0.13904 -0.20194,0.13573 -0.20194,0.40388 0,0.20194 0.11918,0.3178 0.12249,0.11587 0.33436,0.11587 0.32443,0 0.54623,-0.21849 0.22181,-0.2218 0.29464,-0.62237 l 0.0232,-0.13573 z m 1.66518,-0.44692 -0.37408,2.1154 h -1.06598 l 0.0894,-0.54954 q -0.26153,0.33105 -0.55616,0.48996 -0.29133,0.15559 -0.63231,0.15559 -0.4734,0 -0.75148,-0.27146 -0.27808,-0.27477 -0.27808,-0.73824 0,-0.70845 0.48995,-1.08253 0.49327,-0.3774 1.42352,-0.3774 h 0.62899 l 0.0132,-0.0927 q 0.007,-0.0464 0.007,-0.0662 0.003,-0.0199 0.003,-0.0364 0,-0.21849 -0.18539,-0.32774 -0.18538,-0.11255 -0.55285,-0.11255 -0.33105,0 -0.64223,0.0761 -0.30788,0.0761 -0.59589,0.22842 l 0.1589,-0.90376 q 0.33436,-0.0927 0.68527,-0.13904 0.35092,-0.0497 0.725,-0.0497 0.74155,0 1.1024,0.2847 0.36084,0.28139 0.36084,0.86073 0,0.11256 -0.0132,0.24829 -0.0132,0.13242 -0.0397,0.28801 z"
         style="stroke-width:0.05;stroke-dasharray:none;stop-color:#000000;stop-opacity:1;stroke:#b3b3b3;fill:#595959;fill-opacity:1"
         id="path12976" />
      <path
         d="m 204.88288,243.71972 h 0.98321 l 0.11587,2.54908 1.00639,-2.54908 h 0.84749 l 0.12249,2.54246 0.99977,-2.54246 h 1.04942 l -1.52614,3.70775 h -1.13218 l -0.10925,-2.54907 -1.01963,2.54907 h -1.10571 z"
         style="stroke-width:0.05;stroke-dasharray:none;stop-color:#000000;stop-opacity:1;stroke:#b3b3b3;fill:#595959;fill-opacity:1"
         id="path12978" />
      <path
         d="m 211.99713,245.75899 q -0.40057,0 -0.60583,0.13904 -0.20194,0.13573 -0.20194,0.40388 0,0.20194 0.11918,0.3178 0.12249,0.11587 0.33436,0.11587 0.32443,0 0.54623,-0.21849 0.22181,-0.2218 0.29464,-0.62237 l 0.0232,-0.13573 z m 1.66517,-0.44692 -0.37408,2.1154 h -1.06598 l 0.0894,-0.54954 q -0.26153,0.33105 -0.55616,0.48996 -0.29132,0.15559 -0.63231,0.15559 -0.4734,0 -0.75148,-0.27146 -0.27808,-0.27477 -0.27808,-0.73824 0,-0.70845 0.48995,-1.08253 0.49327,-0.3774 1.42352,-0.3774 h 0.62899 l 0.0132,-0.0927 q 0.007,-0.0464 0.007,-0.0662 0.003,-0.0199 0.003,-0.0364 0,-0.21849 -0.18538,-0.32774 -0.18539,-0.11255 -0.55286,-0.11255 -0.33105,0 -0.64223,0.0761 -0.30788,0.0761 -0.59589,0.22842 l 0.1589,-0.90376 q 0.33436,-0.0927 0.68527,-0.13904 0.35092,-0.0497 0.725,-0.0497 0.74155,0 1.1024,0.2847 0.36084,0.28139 0.36084,0.86073 0,0.11256 -0.0132,0.24829 -0.0132,0.13242 -0.0397,0.28801 z"
         style="stroke-width:0.05;stroke-dasharray:none;stop-color:#000000;stop-opacity:1;stroke:#b3b3b3;fill:#595959;fill-opacity:1"
         id="path12980" />
      <path
         d="m 214.29792,243.71972 h 1.00639 l 0.45685,2.56895 1.18515,-2.56895 h 1.13881 l -2.11209,4.05867 q -0.35422,0.68527 -0.65548,0.89714 -0.30125,0.21518 -0.77796,0.21518 h -0.64555 l 0.10925,-0.77796 h 0.33767 q 0.26152,0 0.40719,-0.0993 0.14566,-0.096 0.25821,-0.34098 l 0.096,-0.19863 z"
         style="stroke-width:0.05;stroke-dasharray:none;stop-color:#000000;stop-opacity:1;stroke:#b3b3b3;fill:#595959;fill-opacity:1"
         id="path12982" />
      <path
         d="m 220.52165,243.71972 h 0.98321 l 0.11587,2.54908 1.00639,-2.54908 h 0.84749 l 0.12248,2.54246 0.99977,-2.54246 h 1.04943 l -1.52614,3.70775 h -1.13219 l -0.10924,-2.54907 -1.01964,2.54907 h -1.1057 z"
         style="stroke-width:0.05;stroke-dasharray:none;stop-color:#000000;stop-opacity:1;stroke:#b3b3b3;fill:#595959;fill-opacity:1"
         id="path12984" />
      <path
         d="m 226.46398,243.71972 h 1.0726 l -0.65217,3.70775 h -1.06929 z m 0.24829,-1.44337 h 1.0726 l -0.16884,0.96666 h -1.07591 z"
         style="stroke-width:0.05;stroke-dasharray:none;stop-color:#000000;stop-opacity:1;stroke:#b3b3b3;fill:#595959;fill-opacity:1"
         id="path12986" />
      <path
         d="m 229.9102,242.66699 -0.18207,1.05273 h 1.09246 l -0.15228,0.84749 h -1.09247 l -0.27146,1.56917 q -0.0132,0.053 -0.0199,0.0894 -0.003,0.0364 -0.003,0.0695 0,0.15228 0.0894,0.21849 0.0927,0.0662 0.30788,0.0662 h 0.55285 l -0.15228,0.84748 h -0.89714 q -0.48334,0 -0.73824,-0.22511 -0.2516,-0.22511 -0.2516,-0.64886 0,-0.0927 0.007,-0.19862 0.01,-0.10594 0.0298,-0.21519 l 0.27477,-1.57248 h -0.52636 l 0.14566,-0.84749 h 0.53299 l 0.18207,-1.05273 z"
         style="stroke-width:0.05;stroke-dasharray:none;stop-color:#000000;stop-opacity:1;stroke:#b3b3b3;fill:#595959;fill-opacity:1"
         id="path12988" />
      <path
         d="m 234.56807,245.16972 -0.39726,2.25775 h -1.06929 l 0.33767,-1.93332 q 0.0364,-0.1887 0.053,-0.31781 0.0199,-0.13242 0.0199,-0.20856 0,-0.21187 -0.10593,-0.32774 -0.10594,-0.11587 -0.29795,-0.11587 -0.33105,0 -0.5694,0.28802 -0.23505,0.2847 -0.32774,0.7912 l -0.32112,1.82408 h -1.06929 l 0.89714,-5.15112 h 1.0726 l -0.3476,1.98629 q 0.29464,-0.32111 0.59258,-0.47671 0.29795,-0.15559 0.62237,-0.15559 0.46347,0 0.71176,0.26815 0.2516,0.26815 0.2516,0.75479 0,0.10594 -0.0132,0.23505 -0.0132,0.12911 -0.0397,0.28139 z"
         style="stroke-width:0.05;stroke-dasharray:none;stop-color:#000000;stop-opacity:1;stroke:#b3b3b3;fill:#595959;fill-opacity:1"
         id="path12990" />
      <path
         d="m 175.63467,250.75121 -0.13904,0.77797 h -0.58596 q -0.22511,0 -0.32774,0.0927 -0.10262,0.0894 -0.14235,0.31119 l -0.0497,0.26153 h 0.90377 l -0.14566,0.84748 h -0.90377 l -0.49988,2.86027 h -1.0726 l 0.49988,-2.86027 h -0.52637 l 0.14898,-0.84748 h 0.52305 l 0.0497,-0.25822 q 0.10925,-0.61576 0.45685,-0.90046 0.35091,-0.2847 0.99315,-0.2847 z"
         style="stroke-width:0.05;stroke-dasharray:none;stop-color:#000000;stop-opacity:1;stroke:#b3b3b3;fill:#595959;fill-opacity:1"
         id="path12992" />
      <path
         d="m 178.8293,254.1875 -0.0364,0.1887 h -2.49611 q 0,0.0199 -0.003,0.0596 -0.003,0.0364 -0.003,0.0563 0,0.36084 0.19532,0.53961 0.19532,0.17876 0.58595,0.17876 0.33767,0 0.71176,-0.11255 0.37409,-0.11256 0.78459,-0.33436 l -0.16553,0.92032 q -0.38733,0.1589 -0.77465,0.23504 -0.38402,0.0795 -0.78459,0.0795 -0.78128,0 -1.20502,-0.40057 -0.42374,-0.40057 -0.42374,-1.13219 0,-0.42374 0.13242,-0.821 0.13573,-0.40057 0.39726,-0.73162 0.30787,-0.39726 0.73493,-0.60251 0.42705,-0.20525 0.9468,-0.20525 0.67865,0 1.07591,0.40057 0.39726,0.40057 0.39726,1.07922 0,0.13242 -0.0166,0.28139 -0.0165,0.14567 -0.053,0.32112 z m -1.00639,-0.54292 q 0.01,-0.043 0.0132,-0.0861 0.003,-0.0464 0.003,-0.0894 0,-0.26484 -0.14235,-0.42044 -0.14235,-0.15559 -0.38733,-0.15559 -0.31119,0 -0.53299,0.19201 -0.21849,0.1887 -0.33436,0.55947 z"
         style="stroke-width:0.05;stroke-dasharray:none;stop-color:#000000;stop-opacity:1;stroke:#b3b3b3;fill:#595959;fill-opacity:1"
         id="path12994" />
      <path
         d="m 179.66023,252.19459 h 0.98322 l 0.11586,2.54907 1.00639,-2.54907 h 0.84749 l 0.12249,2.54245 0.99977,-2.54245 h 1.04942 l -1.52613,3.70775 h -1.13219 l -0.10925,-2.54908 -1.01963,2.54908 h -1.10571 z"
         style="stroke-width:0.05;stroke-dasharray:none;stop-color:#000000;stop-opacity:1;stroke:#b3b3b3;fill:#595959;fill-opacity:1"
         id="path12996" />
      <path
         d="m 188.60187,254.1875 -0.0364,0.1887 h -2.49612 q 0,0.0199 -0.003,0.0596 -0.003,0.0364 -0.003,0.0563 0,0.36084 0.19532,0.53961 0.19532,0.17876 0.58596,0.17876 0.33767,0 0.71176,-0.11255 0.37408,-0.11256 0.78458,-0.33436 l -0.16552,0.92032 q -0.38733,0.1589 -0.77466,0.23504 -0.38401,0.0795 -0.78458,0.0795 -0.78128,0 -1.20502,-0.40057 -0.42375,-0.40057 -0.42375,-1.13219 0,-0.42374 0.13242,-0.821 0.13573,-0.40057 0.39726,-0.73162 0.30788,-0.39726 0.73493,-0.60251 0.42705,-0.20525 0.9468,-0.20525 0.67865,0 1.07591,0.40057 0.39726,0.40057 0.39726,1.07922 0,0.13242 -0.0165,0.28139 -0.0165,0.14567 -0.053,0.32112 z m -1.00639,-0.54292 q 0.01,-0.043 0.0132,-0.0861 0.003,-0.0464 0.003,-0.0894 0,-0.26484 -0.14235,-0.42044 -0.14235,-0.15559 -0.38732,-0.15559 -0.31119,0 -0.53299,0.19201 -0.2185,0.1887 -0.33436,0.55947 z"
         style="stroke-width:0.05;stroke-dasharray:none;stop-color:#000000;stop-opacity:1;stroke:#b3b3b3;fill:#595959;fill-opacity:1"
         id="path12998" />
      <path
         d="m 192.04147,253.20429 q -0.11255,-0.0695 -0.24828,-0.10594 -0.13242,-0.0364 -0.28471,-0.0364 -0.4105,0 -0.68196,0.29133 -0.26815,0.29132 -0.36084,0.84086 l -0.30457,1.70822 h -1.06929 l 0.64886,-3.70775 h 1.0726 l -0.11587,0.63561 q 0.21187,-0.35091 0.52637,-0.5363 0.31781,-0.1887 0.70514,-0.1887 0.0596,0 0.12911,0.007 0.0728,0.007 0.16883,0.0199 z"
         style="stroke-width:0.05;stroke-dasharray:none;stop-color:#000000;stop-opacity:1;stroke:#b3b3b3;fill:#595959;fill-opacity:1"
         id="path13000" />
      <path
         d="m 197.87125,254.1875 -0.0364,0.1887 h -2.49612 q 0,0.0199 -0.003,0.0596 -0.003,0.0364 -0.003,0.0563 0,0.36084 0.19532,0.53961 0.19532,0.17876 0.58596,0.17876 0.33767,0 0.71176,-0.11255 0.37408,-0.11256 0.78458,-0.33436 l -0.16552,0.92032 q -0.38733,0.1589 -0.77466,0.23504 -0.38402,0.0795 -0.78458,0.0795 -0.78128,0 -1.20502,-0.40057 -0.42375,-0.40057 -0.42375,-1.13219 0,-0.42374 0.13242,-0.821 0.13573,-0.40057 0.39726,-0.73162 0.30788,-0.39726 0.73493,-0.60251 0.42705,-0.20525 0.9468,-0.20525 0.67865,0 1.07591,0.40057 0.39726,0.40057 0.39726,1.07922 0,0.13242 -0.0165,0.28139 -0.0165,0.14567 -0.053,0.32112 z m -1.00639,-0.54292 q 0.01,-0.043 0.0132,-0.0861 0.003,-0.0464 0.003,-0.0894 0,-0.26484 -0.14235,-0.42044 -0.14235,-0.15559 -0.38733,-0.15559 -0.31118,0 -0.53298,0.19201 -0.2185,0.1887 -0.33436,0.55947 z"
         style="stroke-width:0.05;stroke-dasharray:none;stop-color:#000000;stop-opacity:1;stroke:#b3b3b3;fill:#595959;fill-opacity:1"
         id="path13002" />
      <path
         d="m 198.55652,252.19459 h 0.98322 l 0.43367,2.5888 1.25468,-2.5888 h 1.08253 l -1.95981,3.70775 h -1.12888 z"
         style="stroke-width:0.05;stroke-dasharray:none;stop-color:#000000;stop-opacity:1;stroke:#b3b3b3;fill:#595959;fill-opacity:1"
         id="path13004" />
      <path
         d="m 204.15788,254.23385 q -0.40057,0 -0.60582,0.13904 -0.20194,0.13573 -0.20194,0.40388 0,0.20194 0.11918,0.31781 0.12248,0.11586 0.33436,0.11586 0.32442,0 0.54623,-0.21849 0.2218,-0.2218 0.29463,-0.62237 l 0.0232,-0.13573 z m 1.66518,-0.44692 -0.37409,2.11541 h -1.06598 l 0.0894,-0.54954 q -0.26153,0.33105 -0.55617,0.48995 -0.29132,0.15559 -0.6323,0.15559 -0.4734,0 -0.75148,-0.27146 -0.27809,-0.27477 -0.27809,-0.73824 0,-0.70844 0.48996,-1.08253 0.49326,-0.3774 1.42351,-0.3774 h 0.62899 l 0.0132,-0.0927 q 0.007,-0.0464 0.007,-0.0662 0.003,-0.0199 0.003,-0.0364 0,-0.21849 -0.18539,-0.32773 -0.18539,-0.11256 -0.55285,-0.11256 -0.33105,0 -0.64224,0.0761 -0.30787,0.0761 -0.59589,0.22842 l 0.15891,-0.90376 q 0.33436,-0.0927 0.68527,-0.13904 0.35091,-0.0497 0.725,-0.0497 0.74155,0 1.10239,0.2847 0.36084,0.2814 0.36084,0.86073 0,0.11256 -0.0132,0.24829 -0.0132,0.13242 -0.0397,0.28801 z"
         style="stroke-width:0.05;stroke-dasharray:none;stop-color:#000000;stop-opacity:1;stroke:#b3b3b3;fill:#595959;fill-opacity:1"
         id="path13006" />
      <path
         d="m 207.34919,250.75121 h 1.0726 l -0.90045,5.15113 h -1.06929 z"
         style="stroke-width:0.05;stroke-dasharray:none;stop-color:#000000;stop-opacity:1;stroke:#b3b3b3;fill:#595959;fill-opacity:1"
         id="path13008" />
      <path
         d="m 208.76608,254.45896 0.39064,-2.26437 h 1.06929 l -0.33767,1.93001 q -0.0331,0.1887 -0.053,0.32112 -0.0166,0.13242 -0.0166,0.20856 0,0.20856 0.10263,0.32443 0.10593,0.11587 0.29794,0.11587 0.33105,0 0.56941,-0.28471 0.23835,-0.2847 0.32773,-0.7912 l 0.32112,-1.82408 h 1.0726 l -0.64886,3.70775 h -1.07591 l 0.0993,-0.54292 q -0.27477,0.32111 -0.57603,0.48002 -0.30125,0.1589 -0.6323,0.1589 -0.45685,0 -0.70845,-0.26815 -0.24828,-0.26815 -0.24828,-0.7581 0,-0.11587 0.01,-0.24498 0.0132,-0.12911 0.0364,-0.26815 z"
         style="stroke-width:0.05;stroke-dasharray:none;stop-color:#000000;stop-opacity:1;stroke:#b3b3b3;fill:#595959;fill-opacity:1"
         id="path13010" />
      <path
         d="m 214.70511,254.23385 q -0.40057,0 -0.60582,0.13904 -0.20194,0.13573 -0.20194,0.40388 0,0.20194 0.11918,0.31781 0.12249,0.11586 0.33436,0.11586 0.32443,0 0.54623,-0.21849 0.2218,-0.2218 0.29463,-0.62237 l 0.0232,-0.13573 z m 1.66518,-0.44692 -0.37409,2.11541 h -1.06598 l 0.0894,-0.54954 q -0.26153,0.33105 -0.55617,0.48995 -0.29132,0.15559 -0.6323,0.15559 -0.4734,0 -0.75148,-0.27146 -0.27808,-0.27477 -0.27808,-0.73824 0,-0.70844 0.48995,-1.08253 0.49326,-0.3774 1.42351,-0.3774 h 0.629 l 0.0132,-0.0927 q 0.007,-0.0464 0.007,-0.0662 0.003,-0.0199 0.003,-0.0364 0,-0.21849 -0.18539,-0.32773 -0.18539,-0.11256 -0.55285,-0.11256 -0.33105,0 -0.64224,0.0761 -0.30787,0.0761 -0.59589,0.22842 l 0.15891,-0.90376 q 0.33436,-0.0927 0.68527,-0.13904 0.35091,-0.0497 0.725,-0.0497 0.74155,0 1.10239,0.2847 0.36085,0.2814 0.36085,0.86073 0,0.11256 -0.0132,0.24829 -0.0132,0.13242 -0.0397,0.28801 z"
         style="stroke-width:0.05;stroke-dasharray:none;stop-color:#000000;stop-opacity:1;stroke:#b3b3b3;fill:#595959;fill-opacity:1"
         id="path13012" />
      <path
         d="m 219.00544,251.14185 -0.18208,1.05274 h 1.09247 l -0.15229,0.84748 h -1.09246 l -0.27146,1.56918 q -0.0132,0.053 -0.0199,0.0894 -0.003,0.0364 -0.003,0.0695 0,0.15228 0.0894,0.21849 0.0927,0.0662 0.30788,0.0662 h 0.55285 l -0.15228,0.84749 h -0.89715 q -0.48333,0 -0.73824,-0.22512 -0.25159,-0.22511 -0.25159,-0.64885 0,-0.0927 0.007,-0.19863 0.01,-0.10594 0.0298,-0.21518 l 0.27477,-1.57249 h -0.52637 l 0.14567,-0.84748 h 0.53299 l 0.18207,-1.05274 z"
         style="stroke-width:0.05;stroke-dasharray:none;stop-color:#000000;stop-opacity:1;stroke:#b3b3b3;fill:#595959;fill-opacity:1"
         id="path13014" />
      <path
         d="m 220.56468,252.19459 h 1.0726 l -0.65217,3.70775 h -1.06928 z m 0.24829,-1.44338 h 1.0726 l -0.16884,0.96666 h -1.07591 z"
         style="stroke-width:0.05;stroke-dasharray:none;stop-color:#000000;stop-opacity:1;stroke:#b3b3b3;fill:#595959;fill-opacity:1"
         id="path13016" />
      <path
         d="m 224.1036,252.95269 q -0.41381,0 -0.68196,0.41712 -0.26815,0.41712 -0.26815,1.06267 0,0.35091 0.14235,0.5363 0.14566,0.18208 0.42374,0.18208 0.41381,0 0.68196,-0.41713 0.26815,-0.42043 0.26815,-1.06929 0,-0.3476 -0.14566,-0.52967 -0.14235,-0.18208 -0.42043,-0.18208 z m 0.0861,-0.84749 q 0.74486,0 1.17192,0.42043 0.42705,0.42044 0.42705,1.14544 0,0.42043 -0.13573,0.81769 -0.13242,0.39395 -0.39064,0.72168 -0.30125,0.39064 -0.71838,0.58927 -0.41381,0.19863 -0.92362,0.19863 -0.73493,0 -1.15868,-0.42043 -0.42374,-0.42043 -0.42374,-1.14543 0,-0.41712 0.13573,-0.81438 0.13573,-0.40057 0.39395,-0.73162 0.29794,-0.38402 0.70845,-0.58265 0.41381,-0.19863 0.91369,-0.19863 z"
         style="stroke-width:0.05;stroke-dasharray:none;stop-color:#000000;stop-opacity:1;stroke:#b3b3b3;fill:#595959;fill-opacity:1"
         id="path13018" />
      <path
         d="m 229.94331,253.64458 -0.39726,2.25776 h -1.06929 l 0.33767,-1.93333 q 0.0364,-0.1887 0.053,-0.31781 0.0199,-0.13242 0.0199,-0.20856 0,-0.21187 -0.10593,-0.32774 -0.10594,-0.11586 -0.29795,-0.11586 -0.33105,0 -0.5694,0.28801 -0.23505,0.2847 -0.32774,0.79121 l -0.32112,1.82408 h -1.06929 l 0.64886,-3.70775 h 1.0726 l -0.0993,0.54292 q 0.29464,-0.32112 0.59258,-0.47671 0.29795,-0.1556 0.62237,-0.1556 0.46347,0 0.71176,0.26815 0.2516,0.26815 0.2516,0.75479 0,0.10594 -0.0132,0.23505 -0.0132,0.12911 -0.0397,0.28139 z"
         style="stroke-width:0.05;stroke-dasharray:none;stop-color:#000000;stop-opacity:1;stroke:#b3b3b3;fill:#595959;fill-opacity:1"
         id="path13020" />
      <path
         d="m 233.76693,252.31045 -0.15559,0.92032 q -0.3145,-0.16553 -0.62569,-0.2516 -0.30787,-0.0861 -0.58595,-0.0861 -0.3145,0 -0.48665,0.0927 -0.17214,0.0894 -0.17214,0.25822 0,0.0993 0.096,0.15891 0.096,0.0596 0.37409,0.12579 l 0.19532,0.0397 q 0.64554,0.15228 0.90376,0.39395 0.26153,0.23835 0.26153,0.66541 0,0.64554 -0.45685,1.0097 -0.45353,0.36084 -1.27454,0.36084 -0.34429,0 -0.70182,-0.0596 -0.35753,-0.0596 -0.72831,-0.17876 l 0.16222,-0.93025 q 0.28801,0.1887 0.61575,0.2847 0.33105,0.096 0.67534,0.096 0.33767,0 0.5065,-0.0894 0.17215,-0.0894 0.17215,-0.26153 0,-0.11918 -0.096,-0.18539 -0.096,-0.0662 -0.39394,-0.13573 l -0.19532,-0.0397 q -0.56941,-0.13242 -0.81438,-0.39064 -0.24498,-0.25822 -0.24498,-0.71507 0,-0.61906 0.42043,-0.95342 0.42374,-0.33436 1.20502,-0.33436 0.34429,0 0.67534,0.053 0.33436,0.0497 0.66872,0.15228 z"
         style="stroke-width:0.05;stroke-dasharray:none;stop-color:#000000;stop-opacity:1;stroke:#b3b3b3;fill:#595959;fill-opacity:1"
         id="path13022" />
      <path
         d="m 235.26989,250.95977 h 1.07592 l -0.33768,1.89691 -0.39063,1.38379 h -0.76804 l 0.0828,-1.38379 z m -0.65878,3.76403 h 1.0726 l -0.20525,1.17854 h -1.07591 z"
         style="stroke-width:0.05;stroke-dasharray:none;stop-color:#000000;stop-opacity:1;stroke:#b3b3b3;fill:#595959;fill-opacity:1"
         id="path13024" />
    </g>
  </g>
</svg>
