<?xml version="1.0" encoding="utf-8" standalone="no"?>
<!DOCTYPE svg PUBLIC "-//W3C//DTD SVG 1.1//EN"
  "http://www.w3.org/Graphics/SVG/1.1/DTD/svg11.dtd">
<svg xmlns:xlink="http://www.w3.org/1999/xlink" width="288pt" height="432pt" viewBox="0 0 288 432" xmlns="http://www.w3.org/2000/svg" version="1.1">
 <metadata>
  <rdf:RDF xmlns:dc="http://purl.org/dc/elements/1.1/" xmlns:cc="http://creativecommons.org/ns#" xmlns:rdf="http://www.w3.org/1999/02/22-rdf-syntax-ns#">
   <cc:Work>
    <dc:type rdf:resource="http://purl.org/dc/dcmitype/StillImage"/>
    <dc:date>2025-03-30T17:16:43.524148</dc:date>
    <dc:format>image/svg+xml</dc:format>
    <dc:creator>
     <cc:Agent>
      <dc:title>Matplotlib v3.10.1, https://matplotlib.org/</dc:title>
     </cc:Agent>
    </dc:creator>
   </cc:Work>
  </rdf:RDF>
 </metadata>
 <defs>
  <style type="text/css">*{stroke-linejoin: round; stroke-linecap: butt}</style>
 </defs>
 <g id="figure_1">
  <g id="patch_1">
   <path d="M 0 432 
L 288 432 
L 288 0 
L 0 0 
z
" style="fill: #ffffff"/>
  </g>
  <g id="axes_1">
   <g id="patch_2">
    <path d="M 43.01649 95.196922 
L 284.99976 95.196922 
L 284.99976 3.00024 
L 43.01649 3.00024 
z
" style="fill: #ffffff"/>
   </g>
   <g id="patch_3">
    <path d="M 43.01649 95.196922 
L 138.343233 95.196922 
L 138.343233 3.00024 
L 43.01649 3.00024 
z
" clip-path="url(#p0f04f4ec98)" style="fill: #d9d9d9"/>
   </g>
   <g id="line2d_1">
    <path d="M 138.343233 95.196922 
L 138.343233 3.00024 
" clip-path="url(#p0f04f4ec98)" style="fill: none; stroke-dasharray: 2.775,1.2; stroke-dashoffset: 0; stroke: #bfbfbf; stroke-width: 0.75"/>
   </g>
   <g id="line2d_2">
    <path d="M 167.674538 95.196922 
L 167.674538 3.00024 
" clip-path="url(#p0f04f4ec98)" style="fill: none; stroke-dasharray: 2.775,1.2; stroke-dashoffset: 0; stroke: #bfbfbf; stroke-width: 0.75"/>
   </g>
   <g id="line2d_3">
    <path d="M 197.005844 95.196922 
L 197.005844 3.00024 
" clip-path="url(#p0f04f4ec98)" style="fill: none; stroke-dasharray: 2.775,1.2; stroke-dashoffset: 0; stroke: #bfbfbf; stroke-width: 0.75"/>
   </g>
   <g id="line2d_4">
    <path d="M 226.337149 95.196922 
L 226.337149 3.00024 
" clip-path="url(#p0f04f4ec98)" style="fill: none; stroke-dasharray: 2.775,1.2; stroke-dashoffset: 0; stroke: #bfbfbf; stroke-width: 0.75"/>
   </g>
   <g id="line2d_5">
    <path d="M 255.668455 95.196922 
L 255.668455 3.00024 
" clip-path="url(#p0f04f4ec98)" style="fill: none; stroke-dasharray: 2.775,1.2; stroke-dashoffset: 0; stroke: #bfbfbf; stroke-width: 0.75"/>
   </g>
   <g id="matplotlib.axis_1">
    <g id="xtick_1">
     <g id="line2d_6">
      <defs>
       <path id="m45448d6b46" d="M 0 0 
L 0 3.5 
" style="stroke: #000000; stroke-width: 0.8"/>
      </defs>
      <g>
       <use xlink:href="#m45448d6b46" x="43.01649" y="95.196922" style="stroke: #000000; stroke-width: 0.8"/>
      </g>
     </g>
    </g>
    <g id="xtick_2">
     <g id="line2d_7">
      <g>
       <use xlink:href="#m45448d6b46" x="79.680622" y="95.196922" style="stroke: #000000; stroke-width: 0.8"/>
      </g>
     </g>
    </g>
    <g id="xtick_3">
     <g id="line2d_8">
      <g>
       <use xlink:href="#m45448d6b46" x="116.344754" y="95.196922" style="stroke: #000000; stroke-width: 0.8"/>
      </g>
     </g>
    </g>
    <g id="xtick_4">
     <g id="line2d_9">
      <g>
       <use xlink:href="#m45448d6b46" x="153.008886" y="95.196922" style="stroke: #000000; stroke-width: 0.8"/>
      </g>
     </g>
    </g>
    <g id="xtick_5">
     <g id="line2d_10">
      <g>
       <use xlink:href="#m45448d6b46" x="189.673017" y="95.196922" style="stroke: #000000; stroke-width: 0.8"/>
      </g>
     </g>
    </g>
    <g id="xtick_6">
     <g id="line2d_11">
      <g>
       <use xlink:href="#m45448d6b46" x="226.337149" y="95.196922" style="stroke: #000000; stroke-width: 0.8"/>
      </g>
     </g>
    </g>
    <g id="xtick_7">
     <g id="line2d_12">
      <g>
       <use xlink:href="#m45448d6b46" x="263.001281" y="95.196922" style="stroke: #000000; stroke-width: 0.8"/>
      </g>
     </g>
    </g>
   </g>
   <g id="matplotlib.axis_2">
    <g id="ytick_1">
     <g id="line2d_13">
      <path d="M 43.01649 73.00396 
L 284.99976 73.00396 
" clip-path="url(#p0f04f4ec98)" style="fill: none; stroke: #b0b0b0; stroke-width: 0.8; stroke-linecap: square"/>
     </g>
     <g id="line2d_14">
      <defs>
       <path id="m385dde560e" d="M 0 0 
L -3.5 0 
" style="stroke: #000000; stroke-width: 0.8"/>
      </defs>
      <g>
       <use xlink:href="#m385dde560e" x="43.01649" y="73.00396" style="stroke: #000000; stroke-width: 0.8"/>
      </g>
     </g>
     <g id="text_1">
      <!-- $\mathdefault{10^{-2}}$ -->
      <g transform="translate(15.855917 76.463209) scale(0.1 -0.1)">
       <defs>
        <path id="CMR17-31" d="M 1702 4058 
C 1702 4192 1696 4192 1606 4192 
C 1357 3916 979 3827 621 3827 
C 602 3827 570 3827 563 3808 
C 557 3795 557 3782 557 3648 
C 755 3648 1088 3686 1344 3839 
L 1344 461 
C 1344 236 1331 160 781 160 
L 589 160 
L 589 0 
C 896 0 1216 0 1523 0 
C 1830 0 2150 0 2458 0 
L 2458 160 
L 2266 160 
C 1715 160 1702 230 1702 458 
L 1702 4058 
z
" transform="scale(0.015625)"/>
        <path id="CMR17-30" d="M 2688 2025 
C 2688 2416 2682 3080 2413 3591 
C 2176 4039 1798 4198 1466 4198 
C 1158 4198 768 4058 525 3597 
C 269 3118 243 2524 243 2025 
C 243 1661 250 1106 448 619 
C 723 -39 1216 -128 1466 -128 
C 1760 -128 2208 -7 2470 600 
C 2662 1042 2688 1559 2688 2025 
z
M 1466 -26 
C 1056 -26 813 325 723 812 
C 653 1188 653 1738 653 2096 
C 653 2588 653 2997 736 3387 
C 858 3929 1216 4096 1466 4096 
C 1728 4096 2067 3923 2189 3400 
C 2272 3036 2278 2607 2278 2096 
C 2278 1680 2278 1169 2202 792 
C 2067 95 1690 -26 1466 -26 
z
" transform="scale(0.015625)"/>
        <path id="CMSY10-0" d="M 4218 1472 
C 4326 1472 4442 1472 4442 1600 
C 4442 1728 4326 1728 4218 1728 
L 755 1728 
C 646 1728 531 1728 531 1600 
C 531 1472 646 1472 755 1472 
L 4218 1472 
z
" transform="scale(0.015625)"/>
        <path id="CMR17-32" d="M 2669 989 
L 2554 989 
C 2490 536 2438 459 2413 420 
C 2381 369 1920 369 1830 369 
L 602 369 
C 832 619 1280 1072 1824 1597 
C 2214 1967 2669 2402 2669 3035 
C 2669 3790 2067 4224 1395 4224 
C 691 4224 262 3604 262 3030 
C 262 2780 448 2748 525 2748 
C 589 2748 781 2787 781 3010 
C 781 3207 614 3264 525 3264 
C 486 3264 448 3258 422 3245 
C 544 3790 915 4058 1306 4058 
C 1862 4058 2227 3617 2227 3035 
C 2227 2479 1901 2000 1536 1584 
L 262 146 
L 262 0 
L 2515 0 
L 2669 989 
z
" transform="scale(0.015625)"/>
       </defs>
       <use xlink:href="#CMR17-31" transform="scale(0.996264)"/>
       <use xlink:href="#CMR17-30" transform="translate(45.690477 0) scale(0.996264)"/>
       <use xlink:href="#CMSY10-0" transform="translate(91.380954 36.153639) scale(0.697382)"/>
       <use xlink:href="#CMR17-32" transform="translate(145.621947 36.153639) scale(0.697382)"/>
      </g>
     </g>
    </g>
    <g id="ytick_2">
     <g id="line2d_15">
      <path d="M 43.01649 46.809507 
L 284.99976 46.809507 
" clip-path="url(#p0f04f4ec98)" style="fill: none; stroke: #b0b0b0; stroke-width: 0.8; stroke-linecap: square"/>
     </g>
     <g id="line2d_16">
      <g>
       <use xlink:href="#m385dde560e" x="43.01649" y="46.809507" style="stroke: #000000; stroke-width: 0.8"/>
      </g>
     </g>
     <g id="text_2">
      <!-- $\mathdefault{10^{-1}}$ -->
      <g transform="translate(15.855917 50.268756) scale(0.1 -0.1)">
       <use xlink:href="#CMR17-31" transform="scale(0.996264)"/>
       <use xlink:href="#CMR17-30" transform="translate(45.690477 0) scale(0.996264)"/>
       <use xlink:href="#CMSY10-0" transform="translate(91.380954 36.153639) scale(0.697382)"/>
       <use xlink:href="#CMR17-31" transform="translate(145.621947 36.153639) scale(0.697382)"/>
      </g>
     </g>
    </g>
    <g id="ytick_3">
     <g id="line2d_17">
      <path d="M 43.01649 20.615054 
L 284.99976 20.615054 
" clip-path="url(#p0f04f4ec98)" style="fill: none; stroke: #b0b0b0; stroke-width: 0.8; stroke-linecap: square"/>
     </g>
     <g id="line2d_18">
      <g>
       <use xlink:href="#m385dde560e" x="43.01649" y="20.615054" style="stroke: #000000; stroke-width: 0.8"/>
      </g>
     </g>
     <g id="text_3">
      <!-- $\mathdefault{10^{0}}$ -->
      <g transform="translate(22.082582 24.074304) scale(0.1 -0.1)">
       <use xlink:href="#CMR17-31" transform="scale(0.996264)"/>
       <use xlink:href="#CMR17-30" transform="translate(45.690477 0) scale(0.996264)"/>
       <use xlink:href="#CMR17-30" transform="translate(91.380954 36.153639) scale(0.697382)"/>
      </g>
     </g>
    </g>
    <g id="ytick_4">
     <g id="line2d_19">
      <defs>
       <path id="m543c8f7e3d" d="M 0 0 
L -2 0 
" style="stroke: #000000; stroke-width: 0.6"/>
      </defs>
      <g>
       <use xlink:href="#m543c8f7e3d" x="43.01649" y="91.313097" style="stroke: #000000; stroke-width: 0.6"/>
      </g>
     </g>
    </g>
    <g id="ytick_5">
     <g id="line2d_20">
      <g>
       <use xlink:href="#m543c8f7e3d" x="43.01649" y="86.700483" style="stroke: #000000; stroke-width: 0.6"/>
      </g>
     </g>
    </g>
    <g id="ytick_6">
     <g id="line2d_21">
      <g>
       <use xlink:href="#m543c8f7e3d" x="43.01649" y="83.427781" style="stroke: #000000; stroke-width: 0.6"/>
      </g>
     </g>
    </g>
    <g id="ytick_7">
     <g id="line2d_22">
      <g>
       <use xlink:href="#m543c8f7e3d" x="43.01649" y="80.889276" style="stroke: #000000; stroke-width: 0.6"/>
      </g>
     </g>
    </g>
    <g id="ytick_8">
     <g id="line2d_23">
      <g>
       <use xlink:href="#m543c8f7e3d" x="43.01649" y="78.815167" style="stroke: #000000; stroke-width: 0.6"/>
      </g>
     </g>
    </g>
    <g id="ytick_9">
     <g id="line2d_24">
      <g>
       <use xlink:href="#m543c8f7e3d" x="43.01649" y="77.061532" style="stroke: #000000; stroke-width: 0.6"/>
      </g>
     </g>
    </g>
    <g id="ytick_10">
     <g id="line2d_25">
      <g>
       <use xlink:href="#m543c8f7e3d" x="43.01649" y="75.542465" style="stroke: #000000; stroke-width: 0.6"/>
      </g>
     </g>
    </g>
    <g id="ytick_11">
     <g id="line2d_26">
      <g>
       <use xlink:href="#m543c8f7e3d" x="43.01649" y="74.202552" style="stroke: #000000; stroke-width: 0.6"/>
      </g>
     </g>
    </g>
    <g id="ytick_12">
     <g id="line2d_27">
      <g>
       <use xlink:href="#m543c8f7e3d" x="43.01649" y="65.118644" style="stroke: #000000; stroke-width: 0.6"/>
      </g>
     </g>
    </g>
    <g id="ytick_13">
     <g id="line2d_28">
      <g>
       <use xlink:href="#m543c8f7e3d" x="43.01649" y="60.50603" style="stroke: #000000; stroke-width: 0.6"/>
      </g>
     </g>
    </g>
    <g id="ytick_14">
     <g id="line2d_29">
      <g>
       <use xlink:href="#m543c8f7e3d" x="43.01649" y="57.233328" style="stroke: #000000; stroke-width: 0.6"/>
      </g>
     </g>
    </g>
    <g id="ytick_15">
     <g id="line2d_30">
      <g>
       <use xlink:href="#m543c8f7e3d" x="43.01649" y="54.694823" style="stroke: #000000; stroke-width: 0.6"/>
      </g>
     </g>
    </g>
    <g id="ytick_16">
     <g id="line2d_31">
      <g>
       <use xlink:href="#m543c8f7e3d" x="43.01649" y="52.620714" style="stroke: #000000; stroke-width: 0.6"/>
      </g>
     </g>
    </g>
    <g id="ytick_17">
     <g id="line2d_32">
      <g>
       <use xlink:href="#m543c8f7e3d" x="43.01649" y="50.867079" style="stroke: #000000; stroke-width: 0.6"/>
      </g>
     </g>
    </g>
    <g id="ytick_18">
     <g id="line2d_33">
      <g>
       <use xlink:href="#m543c8f7e3d" x="43.01649" y="49.348012" style="stroke: #000000; stroke-width: 0.6"/>
      </g>
     </g>
    </g>
    <g id="ytick_19">
     <g id="line2d_34">
      <g>
       <use xlink:href="#m543c8f7e3d" x="43.01649" y="48.0081" style="stroke: #000000; stroke-width: 0.6"/>
      </g>
     </g>
    </g>
    <g id="ytick_20">
     <g id="line2d_35">
      <g>
       <use xlink:href="#m543c8f7e3d" x="43.01649" y="38.924191" style="stroke: #000000; stroke-width: 0.6"/>
      </g>
     </g>
    </g>
    <g id="ytick_21">
     <g id="line2d_36">
      <g>
       <use xlink:href="#m543c8f7e3d" x="43.01649" y="34.311577" style="stroke: #000000; stroke-width: 0.6"/>
      </g>
     </g>
    </g>
    <g id="ytick_22">
     <g id="line2d_37">
      <g>
       <use xlink:href="#m543c8f7e3d" x="43.01649" y="31.038875" style="stroke: #000000; stroke-width: 0.6"/>
      </g>
     </g>
    </g>
    <g id="ytick_23">
     <g id="line2d_38">
      <g>
       <use xlink:href="#m543c8f7e3d" x="43.01649" y="28.50037" style="stroke: #000000; stroke-width: 0.6"/>
      </g>
     </g>
    </g>
    <g id="ytick_24">
     <g id="line2d_39">
      <g>
       <use xlink:href="#m543c8f7e3d" x="43.01649" y="26.426261" style="stroke: #000000; stroke-width: 0.6"/>
      </g>
     </g>
    </g>
    <g id="ytick_25">
     <g id="line2d_40">
      <g>
       <use xlink:href="#m543c8f7e3d" x="43.01649" y="24.672626" style="stroke: #000000; stroke-width: 0.6"/>
      </g>
     </g>
    </g>
    <g id="ytick_26">
     <g id="line2d_41">
      <g>
       <use xlink:href="#m543c8f7e3d" x="43.01649" y="23.153559" style="stroke: #000000; stroke-width: 0.6"/>
      </g>
     </g>
    </g>
    <g id="ytick_27">
     <g id="line2d_42">
      <g>
       <use xlink:href="#m543c8f7e3d" x="43.01649" y="21.813647" style="stroke: #000000; stroke-width: 0.6"/>
      </g>
     </g>
    </g>
    <g id="ytick_28">
     <g id="line2d_43">
      <g>
       <use xlink:href="#m543c8f7e3d" x="43.01649" y="12.729738" style="stroke: #000000; stroke-width: 0.6"/>
      </g>
     </g>
    </g>
    <g id="ytick_29">
     <g id="line2d_44">
      <g>
       <use xlink:href="#m543c8f7e3d" x="43.01649" y="8.117124" style="stroke: #000000; stroke-width: 0.6"/>
      </g>
     </g>
    </g>
    <g id="ytick_30">
     <g id="line2d_45">
      <g>
       <use xlink:href="#m543c8f7e3d" x="43.01649" y="4.844422" style="stroke: #000000; stroke-width: 0.6"/>
      </g>
     </g>
    </g>
    <g id="text_4">
     <!-- Conv. crit. -->
     <g transform="translate(9.918738 71.5284) rotate(-90) scale(0.1 -0.1)">
      <defs>
       <path id="CMSS17-43" d="M 3501 714 
C 3072 427 2874 344 2355 344 
C 1459 344 934 1303 934 2179 
C 934 3112 1472 4032 2381 4032 
C 2790 4032 3059 3918 3386 3715 
L 3475 4217 
C 3168 4370 2778 4440 2387 4440 
C 1158 4440 397 3316 397 2179 
C 397 927 1299 -64 2323 -64 
C 2874 -64 3066 -19 3539 280 
L 3501 714 
z
" transform="scale(0.015625)"/>
       <path id="CMSS17-6f" d="M 2829 1356 
C 2829 2176 2221 2816 1504 2816 
C 768 2816 173 2157 173 1356 
C 173 544 787 -64 1498 -64 
C 2227 -64 2829 563 2829 1356 
z
M 1504 337 
C 1050 337 659 709 659 1408 
C 659 2151 1114 2427 1498 2427 
C 1914 2427 2342 2126 2342 1408 
C 2342 683 1926 337 1504 337 
z
" transform="scale(0.015625)"/>
       <path id="CMSS17-6e" d="M 2618 1877 
C 2618 2283 2522 2816 1798 2816 
C 1389 2816 1120 2606 941 2389 
L 941 2758 
L 474 2758 
L 474 0 
L 960 0 
L 960 1559 
C 960 1964 1114 2428 1549 2428 
C 2112 2428 2131 2048 2131 1829 
L 2131 0 
L 2618 0 
L 2618 1877 
z
" transform="scale(0.015625)"/>
       <path id="CMSS17-76" d="M 2675 2752 
L 2176 2752 
L 1747 1556 
C 1613 1165 1421 627 1389 352 
L 1382 352 
C 1370 468 1318 634 1286 749 
C 1248 890 1197 1056 1158 1172 
L 595 2752 
L 83 2752 
L 1094 0 
L 1664 0 
L 2675 2752 
z
" transform="scale(0.015625)"/>
       <path id="CMSS17-2e" d="M 1088 510 
L 576 510 
L 576 0 
L 1088 0 
L 1088 510 
z
" transform="scale(0.015625)"/>
       <path id="CMSS17-63" d="M 2464 2541 
C 2464 2585 2170 2714 2093 2739 
C 1882 2816 1613 2816 1542 2816 
C 710 2816 211 2093 211 1363 
C 211 595 768 -64 1517 -64 
C 1946 -64 2253 76 2502 242 
L 2464 664 
C 2189 453 1869 337 1523 337 
C 1024 337 698 774 698 1369 
C 698 1831 909 2414 1549 2414 
C 1901 2414 2099 2343 2394 2145 
L 2464 2541 
z
" transform="scale(0.015625)"/>
       <path id="CMSS17-72" d="M 954 1363 
C 954 1965 1395 2368 1958 2368 
L 1958 2789 
C 1549 2789 1165 2585 934 2253 
L 934 2758 
L 480 2758 
L 480 0 
L 954 0 
L 954 1363 
z
" transform="scale(0.015625)"/>
       <path id="CMSS17-69" d="M 979 4183 
L 442 4183 
L 442 3648 
L 979 3648 
L 979 4183 
z
M 947 2739 
L 474 2739 
L 474 0 
L 947 0 
L 947 2739 
z
" transform="scale(0.015625)"/>
       <path id="CMSS17-74" d="M 1069 2368 
L 1901 2368 
L 1901 2737 
L 1069 2737 
L 1069 3520 
L 614 3520 
L 614 2737 
L 109 2737 
L 109 2368 
L 602 2368 
L 602 749 
C 602 384 685 -64 1107 -64 
C 1427 -64 1722 25 2003 172 
L 1901 548 
C 1747 414 1562 337 1363 337 
C 1082 337 1069 696 1069 856 
L 1069 2368 
z
" transform="scale(0.015625)"/>
      </defs>
      <use xlink:href="#CMSS17-43" transform="scale(0.996264)"/>
      <use xlink:href="#CMSS17-6f" transform="translate(59.855772 0) scale(0.996264)"/>
      <use xlink:href="#CMSS17-6e" transform="translate(106.699395 0) scale(0.996264)"/>
      <use xlink:href="#CMSS17-76" transform="translate(154.904338 0) scale(0.996264)"/>
      <use xlink:href="#CMSS17-2e" transform="translate(197.90448 0) scale(0.996264)"/>
      <use xlink:href="#CMSS17-63" transform="translate(265.567492 0) scale(0.996264)"/>
      <use xlink:href="#CMSS17-72" transform="translate(307.206314 0) scale(0.996264)"/>
      <use xlink:href="#CMSS17-69" transform="translate(339.116086 0) scale(0.996264)"/>
      <use xlink:href="#CMSS17-74" transform="translate(361.296809 0) scale(0.996264)"/>
      <use xlink:href="#CMSS17-2e" transform="translate(395.128376 0) scale(0.996264)"/>
     </g>
    </g>
   </g>
   <g id="line2d_46">
    <path d="M 160.341712 7.190998 
L 189.673017 22.450948 
L 219.004323 76.71682 
L 248.335628 86.321439 
L 277.666934 91.006163 
" clip-path="url(#p0f04f4ec98)" style="fill: none; stroke: #1f77b4; stroke-width: 1.5; stroke-linecap: square"/>
   </g>
   <g id="line2d_47">
    <path d="M 43.01649 55.440145 
L 284.99976 55.440145 
" clip-path="url(#p0f04f4ec98)" style="fill: none; stroke-dasharray: 3.7,1.6; stroke-dashoffset: 0; stroke: #1f77b4"/>
   </g>
   <g id="patch_4">
    <path d="M 43.01649 95.196922 
L 43.01649 3.00024 
" style="fill: none; stroke: #000000; stroke-width: 0.8; stroke-linejoin: miter; stroke-linecap: square"/>
   </g>
   <g id="patch_5">
    <path d="M 284.99976 95.196922 
L 284.99976 3.00024 
" style="fill: none; stroke: #000000; stroke-width: 0.8; stroke-linejoin: miter; stroke-linecap: square"/>
   </g>
   <g id="patch_6">
    <path d="M 43.01649 95.196922 
L 284.99976 95.196922 
" style="fill: none; stroke: #000000; stroke-width: 0.8; stroke-linejoin: miter; stroke-linecap: square"/>
   </g>
   <g id="patch_7">
    <path d="M 43.01649 3.00024 
L 284.99976 3.00024 
" style="fill: none; stroke: #000000; stroke-width: 0.8; stroke-linejoin: miter; stroke-linecap: square"/>
   </g>
   <g id="legend_1">
    <g id="patch_8">
     <path d="M 47.91649 91.696922 
L 117.463192 91.696922 
Q 118.863192 91.696922 118.863192 90.296922 
L 118.863192 81.240907 
Q 118.863192 79.840907 117.463192 79.840907 
L 47.91649 79.840907 
Q 46.51649 79.840907 46.51649 81.240907 
L 46.51649 90.296922 
Q 46.51649 91.696922 47.91649 91.696922 
z
" style="fill: #ffffff; opacity: 0.8; stroke: #cccccc; stroke-linejoin: miter"/>
    </g>
    <g id="line2d_48">
     <path d="M 49.31649 85.090907 
L 56.31649 85.090907 
L 63.31649 85.090907 
" style="fill: none; stroke: #1f77b4; stroke-width: 1.5; stroke-linecap: square"/>
    </g>
    <g id="text_5">
     <!-- CorrectCounter -->
     <g transform="translate(68.91649 87.540907) scale(0.07 -0.07)">
      <defs>
       <path id="CMSS17-65" d="M 2502 1377 
C 2502 1590 2490 2003 2285 2345 
C 2061 2713 1696 2816 1421 2816 
C 755 2816 192 2188 192 1375 
C 192 582 774 -64 1510 -64 
C 1798 -64 2150 19 2470 248 
C 2470 274 2458 414 2451 420 
C 2451 433 2432 630 2432 656 
C 2125 407 1773 325 1517 325 
C 1107 325 666 667 646 1377 
L 2502 1377 
z
M 698 1728 
C 781 2084 1062 2421 1421 2421 
C 1517 2421 1965 2421 2080 1728 
L 698 1728 
z
" transform="scale(0.015625)"/>
       <path id="CMSS17-75" d="M 2618 2739 
L 2131 2739 
L 2131 972 
C 2131 498 1786 306 1421 306 
C 998 306 960 447 960 709 
L 960 2739 
L 474 2739 
L 474 678 
C 474 179 646 -64 1088 -64 
C 1306 -64 1798 -13 2144 306 
L 2144 0 
L 2618 0 
L 2618 2739 
z
" transform="scale(0.015625)"/>
      </defs>
      <use xlink:href="#CMSS17-43" transform="scale(0.996264)"/>
      <use xlink:href="#CMSS17-6f" transform="translate(59.855772 0) scale(0.996264)"/>
      <use xlink:href="#CMSS17-72" transform="translate(104.096941 0) scale(0.996264)"/>
      <use xlink:href="#CMSS17-72" transform="translate(136.006714 0) scale(0.996264)"/>
      <use xlink:href="#CMSS17-65" transform="translate(167.916486 0) scale(0.996264)"/>
      <use xlink:href="#CMSS17-63" transform="translate(209.555308 0) scale(0.996264)"/>
      <use xlink:href="#CMSS17-74" transform="translate(251.19413 0) scale(0.996264)"/>
      <use xlink:href="#CMSS17-43" transform="translate(285.025697 0) scale(0.996264)"/>
      <use xlink:href="#CMSS17-6f" transform="translate(344.881469 0) scale(0.996264)"/>
      <use xlink:href="#CMSS17-75" transform="translate(391.725092 0) scale(0.996264)"/>
      <use xlink:href="#CMSS17-6e" transform="translate(439.930035 0) scale(0.996264)"/>
      <use xlink:href="#CMSS17-74" transform="translate(488.134978 0) scale(0.996264)"/>
      <use xlink:href="#CMSS17-65" transform="translate(521.966545 0) scale(0.996264)"/>
      <use xlink:href="#CMSS17-72" transform="translate(563.605367 0) scale(0.996264)"/>
     </g>
    </g>
   </g>
  </g>
  <g id="axes_2">
   <g id="patch_9">
    <path d="M 43.01649 196.894083 
L 284.99976 196.894083 
L 284.99976 104.697402 
L 43.01649 104.697402 
z
" style="fill: #ffffff"/>
   </g>
   <g id="patch_10">
    <path d="M 43.01649 196.894083 
L 138.343233 196.894083 
L 138.343233 104.697402 
L 43.01649 104.697402 
z
" clip-path="url(#pa61175df60)" style="fill: #d9d9d9"/>
   </g>
   <g id="line2d_49">
    <path d="M 138.343233 196.894083 
L 138.343233 104.697402 
" clip-path="url(#pa61175df60)" style="fill: none; stroke-dasharray: 2.775,1.2; stroke-dashoffset: 0; stroke: #bfbfbf; stroke-width: 0.75"/>
   </g>
   <g id="line2d_50">
    <path d="M 167.674538 196.894083 
L 167.674538 104.697402 
" clip-path="url(#pa61175df60)" style="fill: none; stroke-dasharray: 2.775,1.2; stroke-dashoffset: 0; stroke: #bfbfbf; stroke-width: 0.75"/>
   </g>
   <g id="line2d_51">
    <path d="M 197.005844 196.894083 
L 197.005844 104.697402 
" clip-path="url(#pa61175df60)" style="fill: none; stroke-dasharray: 2.775,1.2; stroke-dashoffset: 0; stroke: #bfbfbf; stroke-width: 0.75"/>
   </g>
   <g id="line2d_52">
    <path d="M 226.337149 196.894083 
L 226.337149 104.697402 
" clip-path="url(#pa61175df60)" style="fill: none; stroke-dasharray: 2.775,1.2; stroke-dashoffset: 0; stroke: #bfbfbf; stroke-width: 0.75"/>
   </g>
   <g id="line2d_53">
    <path d="M 255.668455 196.894083 
L 255.668455 104.697402 
" clip-path="url(#pa61175df60)" style="fill: none; stroke-dasharray: 2.775,1.2; stroke-dashoffset: 0; stroke: #bfbfbf; stroke-width: 0.75"/>
   </g>
   <g id="line2d_54">
    <path d="M 43.01649 110.376244 
L 284.99976 110.376244 
" clip-path="url(#pa61175df60)" style="fill: none; stroke: #4c4c4c; stroke-width: 0.75; stroke-linecap: square"/>
   </g>
   <g id="line2d_55">
    <path d="M 43.01649 112.894029 
L 284.99976 112.894029 
" clip-path="url(#pa61175df60)" style="fill: none; stroke-dasharray: 2.775,1.2; stroke-dashoffset: 0; stroke: #4c4c4c; stroke-width: 0.75"/>
   </g>
   <g id="line2d_56">
    <path d="M 43.01649 127.519572 
L 284.99976 127.519572 
" clip-path="url(#pa61175df60)" style="fill: none; stroke-dasharray: 4.8,1.2,0.75,1.2; stroke-dashoffset: 0; stroke: #4c4c4c; stroke-width: 0.75"/>
   </g>
   <g id="line2d_57">
    <path d="M 43.01649 176.997668 
L 284.99976 176.997668 
" clip-path="url(#pa61175df60)" style="fill: none; stroke-dasharray: 0.75,1.2375; stroke-dashoffset: 0; stroke: #4c4c4c; stroke-width: 0.75"/>
   </g>
   <g id="PathCollection_1">
    <defs>
     <path id="C0_0_481fe280c0" d="M 0 1.5 
C 0.397805 1.5 0.77937 1.341951 1.06066 1.06066 
C 1.341951 0.77937 1.5 0.397805 1.5 -0 
C 1.5 -0.397805 1.341951 -0.77937 1.06066 -1.06066 
C 0.77937 -1.341951 0.397805 -1.5 0 -1.5 
C -0.397805 -1.5 -0.77937 -1.341951 -1.06066 -1.06066 
C -1.341951 -0.77937 -1.5 -0.397805 -1.5 0 
C -1.5 0.397805 -1.341951 0.77937 -1.06066 1.06066 
C -0.77937 1.341951 -0.397805 1.5 0 1.5 
z
"/>
    </defs>
    <g clip-path="url(#pa61175df60)">
     <use xlink:href="#C0_0_481fe280c0" x="57.682143" y="179.212515" style="fill: #453882; stroke: #1a1a1a; stroke-width: 0.1"/>
    </g>
    <g clip-path="url(#pa61175df60)">
     <use xlink:href="#C0_0_481fe280c0" x="72.347796" y="148.394839" style="fill: #1f978b; stroke: #1a1a1a; stroke-width: 0.1"/>
    </g>
    <g clip-path="url(#pa61175df60)">
     <use xlink:href="#C0_0_481fe280c0" x="87.013448" y="115.208542" style="fill: #cde11d; stroke: #1a1a1a; stroke-width: 0.1"/>
    </g>
    <g clip-path="url(#pa61175df60)">
     <use xlink:href="#C0_0_481fe280c0" x="101.679101" y="192.703325" style="fill: #440154; stroke: #1a1a1a; stroke-width: 0.1"/>
    </g>
    <g clip-path="url(#pa61175df60)">
     <use xlink:href="#C0_0_481fe280c0" x="116.344754" y="128.030874" style="fill: #69cd5b; stroke: #1a1a1a; stroke-width: 0.1"/>
    </g>
    <g clip-path="url(#pa61175df60)">
     <use xlink:href="#C0_0_481fe280c0" x="131.010406" y="180.920555" style="fill: #46307e; stroke: #1a1a1a; stroke-width: 0.1"/>
    </g>
    <g clip-path="url(#pa61175df60)">
     <use xlink:href="#C0_0_481fe280c0" x="145.676059" y="111.089189" style="fill: #efe51c; stroke: #1a1a1a; stroke-width: 0.1"/>
    </g>
    <g clip-path="url(#pa61175df60)">
     <use xlink:href="#C0_0_481fe280c0" x="160.341712" y="109.616403" style="fill: #f8e621; stroke: #1a1a1a; stroke-width: 0.1"/>
    </g>
    <g clip-path="url(#pa61175df60)">
     <use xlink:href="#C0_0_481fe280c0" x="175.007365" y="108.88816" style="fill: #fde725; stroke: #1a1a1a; stroke-width: 0.1"/>
    </g>
    <g clip-path="url(#pa61175df60)">
     <use xlink:href="#C0_0_481fe280c0" x="189.673017" y="110.755345" style="fill: #f1e51d; stroke: #1a1a1a; stroke-width: 0.1"/>
    </g>
    <g clip-path="url(#pa61175df60)">
     <use xlink:href="#C0_0_481fe280c0" x="204.33867" y="109.920932" style="fill: #f6e620; stroke: #1a1a1a; stroke-width: 0.1"/>
    </g>
    <g clip-path="url(#pa61175df60)">
     <use xlink:href="#C0_0_481fe280c0" x="219.004323" y="110.612875" style="fill: #f1e51d; stroke: #1a1a1a; stroke-width: 0.1"/>
    </g>
    <g clip-path="url(#pa61175df60)">
     <use xlink:href="#C0_0_481fe280c0" x="233.669975" y="110.62059" style="fill: #f1e51d; stroke: #1a1a1a; stroke-width: 0.1"/>
    </g>
    <g clip-path="url(#pa61175df60)">
     <use xlink:href="#C0_0_481fe280c0" x="248.335628" y="109.603174" style="fill: #f8e621; stroke: #1a1a1a; stroke-width: 0.1"/>
    </g>
    <g clip-path="url(#pa61175df60)">
     <use xlink:href="#C0_0_481fe280c0" x="263.001281" y="111.982844" style="fill: #e7e419; stroke: #1a1a1a; stroke-width: 0.1"/>
    </g>
    <g clip-path="url(#pa61175df60)">
     <use xlink:href="#C0_0_481fe280c0" x="277.666934" y="113.223669" style="fill: #dde318; stroke: #1a1a1a; stroke-width: 0.1"/>
    </g>
   </g>
   <g id="matplotlib.axis_3">
    <g id="xtick_8">
     <g id="line2d_58">
      <g>
       <use xlink:href="#m45448d6b46" x="43.01649" y="196.894083" style="stroke: #000000; stroke-width: 0.8"/>
      </g>
     </g>
    </g>
    <g id="xtick_9">
     <g id="line2d_59">
      <g>
       <use xlink:href="#m45448d6b46" x="79.680622" y="196.894083" style="stroke: #000000; stroke-width: 0.8"/>
      </g>
     </g>
    </g>
    <g id="xtick_10">
     <g id="line2d_60">
      <g>
       <use xlink:href="#m45448d6b46" x="116.344754" y="196.894083" style="stroke: #000000; stroke-width: 0.8"/>
      </g>
     </g>
    </g>
    <g id="xtick_11">
     <g id="line2d_61">
      <g>
       <use xlink:href="#m45448d6b46" x="153.008886" y="196.894083" style="stroke: #000000; stroke-width: 0.8"/>
      </g>
     </g>
    </g>
    <g id="xtick_12">
     <g id="line2d_62">
      <g>
       <use xlink:href="#m45448d6b46" x="189.673017" y="196.894083" style="stroke: #000000; stroke-width: 0.8"/>
      </g>
     </g>
    </g>
    <g id="xtick_13">
     <g id="line2d_63">
      <g>
       <use xlink:href="#m45448d6b46" x="226.337149" y="196.894083" style="stroke: #000000; stroke-width: 0.8"/>
      </g>
     </g>
    </g>
    <g id="xtick_14">
     <g id="line2d_64">
      <g>
       <use xlink:href="#m45448d6b46" x="263.001281" y="196.894083" style="stroke: #000000; stroke-width: 0.8"/>
      </g>
     </g>
    </g>
   </g>
   <g id="matplotlib.axis_4">
    <g id="ytick_31">
     <g id="line2d_65">
      <path d="M 43.01649 176.674643 
L 284.99976 176.674643 
" clip-path="url(#pa61175df60)" style="fill: none; stroke: #b0b0b0; stroke-width: 0.8; stroke-linecap: square"/>
     </g>
     <g id="line2d_66">
      <g>
       <use xlink:href="#m385dde560e" x="43.01649" y="176.674643" style="stroke: #000000; stroke-width: 0.8"/>
      </g>
     </g>
     <g id="text_6">
      <!-- $\mathdefault{−60}$ -->
      <g transform="translate(18.305076 180.133892) scale(0.1 -0.1)">
       <defs>
        <path id="CMR17-36" d="M 678 2176 
C 678 3690 1395 4032 1811 4032 
C 1946 4032 2272 4009 2400 3776 
C 2298 3776 2106 3776 2106 3553 
C 2106 3381 2246 3323 2336 3323 
C 2394 3323 2566 3348 2566 3560 
C 2566 3954 2246 4179 1805 4179 
C 1043 4179 243 3390 243 1984 
C 243 253 966 -128 1478 -128 
C 2099 -128 2688 427 2688 1283 
C 2688 2081 2170 2662 1517 2662 
C 1126 2662 838 2407 678 1960 
L 678 2176 
z
M 1478 25 
C 691 25 691 1200 691 1436 
C 691 1896 909 2560 1504 2560 
C 1613 2560 1926 2560 2138 2120 
C 2253 1870 2253 1609 2253 1289 
C 2253 944 2253 690 2118 434 
C 1978 171 1773 25 1478 25 
z
" transform="scale(0.015625)"/>
       </defs>
       <use xlink:href="#CMSY10-0" transform="scale(0.996264)"/>
       <use xlink:href="#CMR17-36" transform="translate(77.487468 0) scale(0.996264)"/>
       <use xlink:href="#CMR17-30" transform="translate(123.177945 0) scale(0.996264)"/>
      </g>
     </g>
    </g>
    <g id="ytick_32">
     <g id="line2d_67">
      <path d="M 43.01649 150.746999 
L 284.99976 150.746999 
" clip-path="url(#pa61175df60)" style="fill: none; stroke: #b0b0b0; stroke-width: 0.8; stroke-linecap: square"/>
     </g>
     <g id="line2d_68">
      <g>
       <use xlink:href="#m385dde560e" x="43.01649" y="150.746999" style="stroke: #000000; stroke-width: 0.8"/>
      </g>
     </g>
     <g id="text_7">
      <!-- $\mathdefault{−40}$ -->
      <g transform="translate(18.305076 154.206248) scale(0.1 -0.1)">
       <defs>
        <path id="CMR17-34" d="M 2150 4122 
C 2150 4256 2144 4256 2029 4256 
L 128 1254 
L 128 1088 
L 1779 1088 
L 1779 457 
C 1779 224 1766 160 1318 160 
L 1197 160 
L 1197 0 
C 1402 0 1747 0 1965 0 
C 2182 0 2528 0 2733 0 
L 2733 160 
L 2611 160 
C 2163 160 2150 224 2150 457 
L 2150 1088 
L 2803 1088 
L 2803 1254 
L 2150 1254 
L 2150 4122 
z
M 1798 3703 
L 1798 1254 
L 256 1254 
L 1798 3703 
z
" transform="scale(0.015625)"/>
       </defs>
       <use xlink:href="#CMSY10-0" transform="scale(0.996264)"/>
       <use xlink:href="#CMR17-34" transform="translate(77.487468 0) scale(0.996264)"/>
       <use xlink:href="#CMR17-30" transform="translate(123.177945 0) scale(0.996264)"/>
      </g>
     </g>
    </g>
    <g id="ytick_33">
     <g id="line2d_69">
      <path d="M 43.01649 124.819355 
L 284.99976 124.819355 
" clip-path="url(#pa61175df60)" style="fill: none; stroke: #b0b0b0; stroke-width: 0.8; stroke-linecap: square"/>
     </g>
     <g id="line2d_70">
      <g>
       <use xlink:href="#m385dde560e" x="43.01649" y="124.819355" style="stroke: #000000; stroke-width: 0.8"/>
      </g>
     </g>
     <g id="text_8">
      <!-- $\mathdefault{−20}$ -->
      <g transform="translate(18.305076 128.278604) scale(0.1 -0.1)">
       <use xlink:href="#CMSY10-0" transform="scale(0.996264)"/>
       <use xlink:href="#CMR17-32" transform="translate(77.487468 0) scale(0.996264)"/>
       <use xlink:href="#CMR17-30" transform="translate(123.177945 0) scale(0.996264)"/>
      </g>
     </g>
    </g>
    <g id="text_9">
     <!-- $\log(p)$ -->
     <g transform="translate(11.814416 163.610556) rotate(-90) scale(0.1 -0.1)">
      <defs>
       <path id="CMR17-6c" d="M 979 4396 
L 218 4326 
L 218 4160 
C 595 4160 653 4122 653 3817 
L 653 426 
C 653 184 627 153 218 153 
L 218 -13 
C 371 0 653 0 813 0 
C 979 0 1261 0 1414 -13 
L 1414 153 
C 1005 153 979 178 979 426 
L 979 4396 
z
" transform="scale(0.015625)"/>
       <path id="CMR17-6f" d="M 2758 1356 
C 2758 2176 2163 2816 1466 2816 
C 768 2816 173 2176 173 1356 
C 173 551 768 -64 1466 -64 
C 2163 -64 2758 551 2758 1356 
z
M 1466 51 
C 1165 51 909 230 762 480 
C 602 767 582 1126 582 1408 
C 582 1677 595 2010 762 2298 
C 890 2509 1139 2714 1466 2714 
C 1754 2714 1997 2554 2150 2330 
C 2349 2029 2349 1607 2349 1408 
C 2349 1158 2336 775 2163 467 
C 1984 173 1709 51 1466 51 
z
" transform="scale(0.015625)"/>
       <path id="CMR17-67" d="M 710 1164 
C 832 1068 1043 960 1299 960 
C 1805 960 2240 1357 2240 1888 
C 2240 2054 2189 2310 1997 2509 
C 2176 2692 2438 2752 2586 2752 
C 2611 2752 2650 2752 2682 2734 
C 2656 2728 2598 2703 2598 2605 
C 2598 2527 2656 2471 2739 2471 
C 2835 2471 2886 2533 2886 2614 
C 2886 2731 2790 2854 2586 2854 
C 2330 2854 2106 2738 1926 2580 
C 1734 2753 1504 2816 1299 2816 
C 794 2816 358 2419 358 1888 
C 358 1522 570 1292 634 1228 
C 442 1004 442 743 442 711 
C 442 545 506 302 723 168 
C 390 85 128 -169 128 -486 
C 128 -943 736 -1280 1466 -1280 
C 2170 -1280 2803 -956 2803 -479 
C 2803 384 1856 384 1363 384 
C 1216 384 954 384 922 391 
C 723 423 589 602 589 826 
C 589 883 589 1024 710 1164 
z
M 1299 1068 
C 736 1068 736 1760 736 1889 
C 736 2016 736 2708 1299 2708 
C 1862 2708 1862 2016 1862 1889 
C 1862 1760 1862 1068 1299 1068 
z
M 1466 -1171 
C 826 -1171 384 -835 384 -486 
C 384 -289 493 -105 634 -4 
C 794 104 858 104 1293 104 
C 1818 104 2547 104 2547 -486 
C 2547 -835 2106 -1171 1466 -1171 
z
" transform="scale(0.015625)"/>
       <path id="CMR17-28" d="M 1958 -1561 
C 1958 -1555 1958 -1542 1939 -1523 
C 1645 -1224 858 -407 858 1581 
C 858 3569 1632 4379 1946 4697 
C 1946 4704 1958 4717 1958 4736 
C 1958 4755 1939 4768 1914 4768 
C 1843 4768 1299 4296 986 3594 
C 666 2887 576 2199 576 1588 
C 576 1128 621 351 1005 -471 
C 1312 -1135 1837 -1600 1914 -1600 
C 1946 -1600 1958 -1587 1958 -1561 
z
" transform="scale(0.015625)"/>
       <path id="CMMI12-70" d="M 275 -789 
C 230 -980 205 -1031 -58 -1031 
C -134 -1031 -198 -1031 -198 -1152 
C -198 -1165 -192 -1216 -122 -1216 
C -38 -1216 51 -1216 134 -1216 
L 410 -1216 
C 544 -1216 870 -1216 1005 -1216 
C 1043 -1216 1120 -1216 1120 -1101 
C 1120 -1031 1075 -1031 966 -1031 
C 672 -1031 653 -987 653 -937 
C 653 -861 941 219 979 364 
C 1050 185 1222 -64 1555 -64 
C 2278 -64 3059 875 3059 1814 
C 3059 2401 2726 2816 2246 2816 
C 1837 2816 1491 2420 1421 2331 
C 1370 2650 1120 2816 864 2816 
C 678 2816 531 2727 410 2484 
C 294 2254 205 1865 205 1839 
C 205 1814 230 1782 275 1782 
C 326 1782 333 1788 371 1935 
C 467 2312 589 2689 845 2689 
C 992 2689 1043 2587 1043 2397 
C 1043 2245 1024 2181 998 2067 
L 275 -789 
z
M 1382 1993 
C 1427 2171 1606 2357 1709 2446 
C 1779 2510 1990 2689 2234 2689 
C 2515 2689 2643 2408 2643 2076 
C 2643 1769 2464 1047 2304 715 
C 2144 370 1850 64 1555 64 
C 1120 64 1050 613 1050 639 
C 1050 658 1062 709 1069 741 
L 1382 1993 
z
" transform="scale(0.015625)"/>
       <path id="CMR17-29" d="M 1683 1581 
C 1683 2040 1638 2817 1254 3639 
C 947 4303 422 4768 346 4768 
C 326 4768 301 4761 301 4729 
C 301 4717 307 4710 314 4697 
C 621 4378 1402 3568 1402 1584 
C 1402 -407 627 -1217 314 -1537 
C 307 -1549 301 -1556 301 -1568 
C 301 -1600 326 -1600 346 -1600 
C 416 -1600 960 -1128 1274 -426 
C 1594 281 1683 969 1683 1581 
z
" transform="scale(0.015625)"/>
      </defs>
      <use xlink:href="#CMR17-6c" transform="scale(0.996264)"/>
      <use xlink:href="#CMR17-6f" transform="translate(24.871058 0) scale(0.996264)"/>
      <use xlink:href="#CMR17-67" transform="translate(70.561536 0) scale(0.996264)"/>
      <use xlink:href="#CMR17-28" transform="translate(117.553179 0) scale(0.996264)"/>
      <use xlink:href="#CMMI12-70" transform="translate(152.833947 0) scale(0.996264)"/>
      <use xlink:href="#CMR17-29" transform="translate(201.793461 0) scale(0.996264)"/>
     </g>
    </g>
   </g>
   <g id="patch_11">
    <path d="M 43.01649 196.894083 
L 43.01649 104.697402 
" style="fill: none; stroke: #000000; stroke-width: 0.8; stroke-linejoin: miter; stroke-linecap: square"/>
   </g>
   <g id="patch_12">
    <path d="M 284.99976 196.894083 
L 284.99976 104.697402 
" style="fill: none; stroke: #000000; stroke-width: 0.8; stroke-linejoin: miter; stroke-linecap: square"/>
   </g>
   <g id="patch_13">
    <path d="M 43.01649 196.894083 
L 284.99976 196.894083 
" style="fill: none; stroke: #000000; stroke-width: 0.8; stroke-linejoin: miter; stroke-linecap: square"/>
   </g>
   <g id="patch_14">
    <path d="M 43.01649 104.697402 
L 284.99976 104.697402 
" style="fill: none; stroke: #000000; stroke-width: 0.8; stroke-linejoin: miter; stroke-linecap: square"/>
   </g>
   <g id="text_10">
    <g id="patch_15">
     <path d="M 200.026932 193.606835 
L 280.520346 193.606835 
L 280.520346 178.054128 
L 200.026932 178.054128 
z
" style="fill: #ffffff; opacity: 0.5; stroke: #000000; stroke-linejoin: miter"/>
    </g>
    <!-- Output scale: $9.4\cdot 10^{3}$ -->
    <g transform="translate(204.016932 188.260821) scale(0.07 -0.07)">
     <defs>
      <path id="CMSS17-4f" d="M 4096 2178 
C 4096 3503 3219 4497 2214 4497 
C 1210 4497 333 3497 333 2178 
C 333 847 1222 -128 2214 -128 
C 3206 -128 4096 847 4096 2178 
z
M 2214 273 
C 1510 273 870 1057 870 2261 
C 870 3433 1549 4096 2214 4096 
C 2880 4096 3558 3433 3558 2261 
C 3558 1051 2912 273 2214 273 
z
" transform="scale(0.015625)"/>
      <path id="CMSS17-70" d="M 966 333 
C 1178 129 1466 -5 1773 -5 
C 2368 -5 2880 603 2880 1412 
C 2880 2159 2496 2816 1946 2816 
C 1626 2816 1242 2702 954 2472 
L 954 2765 
L 480 2765 
L 480 -1216 
L 966 -1216 
L 966 333 
z
M 966 2100 
C 1018 2176 1235 2415 1587 2415 
C 2035 2415 2394 1960 2394 1412 
C 2394 787 1958 384 1530 384 
C 1402 384 1267 415 1139 523 
C 966 674 966 768 966 857 
L 966 2100 
z
" transform="scale(0.015625)"/>
      <path id="CMSS17-73" d="M 2061 2627 
C 1683 2807 1389 2807 1197 2807 
C 742 2807 198 2648 198 2003 
C 198 1359 902 1218 1094 1179 
C 1389 1122 1715 1058 1715 740 
C 1715 337 1254 337 1171 337 
C 915 337 563 407 243 638 
L 166 210 
C 531 0 883 -64 1178 -64 
C 1965 -64 2163 416 2163 781 
C 2163 1094 1984 1305 1862 1401 
C 1651 1568 1574 1587 1050 1696 
C 960 1709 646 1779 646 2066 
C 646 2432 1050 2432 1139 2432 
C 1555 2432 1811 2303 1984 2208 
L 2061 2627 
z
" transform="scale(0.015625)"/>
      <path id="CMSS17-61" d="M 2406 1791 
C 2406 2392 1978 2808 1402 2808 
C 1120 2808 813 2757 461 2553 
L 499 2135 
C 659 2248 934 2432 1395 2432 
C 1722 2432 1920 2180 1920 1782 
L 1920 1536 
C 896 1536 256 1238 256 726 
C 256 461 416 -64 947 -64 
C 1043 -64 1562 -64 1933 217 
L 1933 -19 
L 2406 -19 
L 2406 1791 
z
M 1920 816 
C 1920 701 1920 548 1728 434 
C 1562 325 1350 325 1261 325 
C 941 325 723 511 723 744 
C 723 1211 1722 1211 1920 1211 
L 1920 816 
z
" transform="scale(0.015625)"/>
      <path id="CMSS17-6c" d="M 947 4416 
L 474 4416 
L 474 0 
L 947 0 
L 947 4416 
z
" transform="scale(0.015625)"/>
      <path id="CMSS17-3a" d="M 1088 2749 
L 576 2749 
L 576 2240 
L 1088 2240 
L 1088 2749 
z
M 576 510 
L 576 0 
L 1088 0 
L 1088 510 
L 576 510 
z
" transform="scale(0.015625)"/>
      <path id="CMR17-39" d="M 2253 1864 
C 2253 464 1670 31 1190 31 
C 1043 31 685 31 538 294 
C 704 268 826 357 826 518 
C 826 692 685 749 595 749 
C 538 749 365 723 365 506 
C 365 71 742 -128 1203 -128 
C 1939 -128 2688 674 2688 2073 
C 2688 3817 1971 4179 1485 4179 
C 851 4179 243 3628 243 2778 
C 243 1991 762 1408 1414 1408 
C 1952 1408 2189 1903 2253 2112 
L 2253 1864 
z
M 1427 1510 
C 1254 1510 1011 1542 813 1922 
C 678 2169 678 2461 678 2771 
C 678 3146 678 3405 858 3684 
C 947 3817 1114 4032 1485 4032 
C 2240 4032 2240 2885 2240 2632 
C 2240 2182 2035 1510 1427 1510 
z
" transform="scale(0.015625)"/>
      <path id="CMMI12-3a" d="M 1178 307 
C 1178 492 1024 619 870 619 
C 685 619 557 466 557 313 
C 557 128 710 0 864 0 
C 1050 0 1178 153 1178 307 
z
" transform="scale(0.015625)"/>
      <path id="CMSY10-1" d="M 1229 1619 
C 1229 1805 1075 1958 890 1958 
C 704 1958 550 1805 550 1619 
C 550 1433 704 1280 890 1280 
C 1075 1280 1229 1433 1229 1619 
z
" transform="scale(0.015625)"/>
      <path id="CMR17-33" d="M 1414 2157 
C 1984 2157 2234 1662 2234 1090 
C 2234 320 1824 25 1453 25 
C 1114 25 563 194 390 693 
C 422 680 454 680 486 680 
C 640 680 755 782 755 948 
C 755 1133 614 1216 486 1216 
C 378 1216 211 1165 211 926 
C 211 335 787 -128 1466 -128 
C 2176 -128 2720 430 2720 1085 
C 2720 1707 2208 2157 1600 2227 
C 2086 2328 2554 2756 2554 3329 
C 2554 3820 2048 4179 1472 4179 
C 890 4179 378 3829 378 3329 
C 378 3110 544 3072 627 3072 
C 762 3072 877 3155 877 3321 
C 877 3486 762 3569 627 3569 
C 602 3569 570 3569 544 3557 
C 730 3959 1235 4032 1459 4032 
C 1683 4032 2106 3925 2106 3320 
C 2106 3143 2080 2828 1862 2550 
C 1670 2304 1453 2304 1242 2284 
C 1210 2284 1062 2269 1037 2269 
C 992 2263 966 2257 966 2208 
C 966 2163 973 2157 1101 2157 
L 1414 2157 
z
" transform="scale(0.015625)"/>
     </defs>
     <use xlink:href="#CMSS17-4f" transform="scale(0.996264)"/>
     <use xlink:href="#CMSS17-75" transform="translate(69.024255 0) scale(0.996264)"/>
     <use xlink:href="#CMSS17-74" transform="translate(117.229198 0) scale(0.996264)"/>
     <use xlink:href="#CMSS17-70" transform="translate(151.060765 0) scale(0.996264)"/>
     <use xlink:href="#CMSS17-75" transform="translate(199.265708 0) scale(0.996264)"/>
     <use xlink:href="#CMSS17-74" transform="translate(247.470651 0) scale(0.996264)"/>
     <use xlink:href="#CMSS17-73" transform="translate(312.531331 0) scale(0.996264)"/>
     <use xlink:href="#CMSS17-63" transform="translate(348.444873 0) scale(0.996264)"/>
     <use xlink:href="#CMSS17-61" transform="translate(390.083695 0) scale(0.996264)"/>
     <use xlink:href="#CMSS17-6c" transform="translate(435.005616 0) scale(0.996264)"/>
     <use xlink:href="#CMSS17-65" transform="translate(457.186339 0) scale(0.996264)"/>
     <use xlink:href="#CMSS17-3a" transform="translate(498.825161 0) scale(0.996264)"/>
     <use xlink:href="#CMR17-39" transform="translate(566.488172 0) scale(0.996264)"/>
     <use xlink:href="#CMMI12-3a" transform="translate(612.17865 0) scale(0.996264)"/>
     <use xlink:href="#CMR17-34" transform="translate(639.275827 0) scale(0.996264)"/>
     <use xlink:href="#CMSY10-1" transform="translate(707.105511 0) scale(0.996264)"/>
     <use xlink:href="#CMR17-31" transform="translate(756.918802 0) scale(0.996264)"/>
     <use xlink:href="#CMR17-30" transform="translate(802.60928 0) scale(0.996264)"/>
     <use xlink:href="#CMR17-33" transform="translate(848.299757 36.153639) scale(0.697382)"/>
    </g>
   </g>
   <g id="legend_2">
    <g id="patch_16">
     <path d="M 47.91649 193.394083 
L 139.161881 193.394083 
Q 140.561881 193.394083 140.561881 191.994083 
L 140.561881 150.798691 
Q 140.561881 149.398691 139.161881 149.398691 
L 47.91649 149.398691 
Q 46.51649 149.398691 46.51649 150.798691 
L 46.51649 191.994083 
Q 46.51649 193.394083 47.91649 193.394083 
z
" style="fill: #ffffff; opacity: 0.8; stroke: #cccccc; stroke-linejoin: miter"/>
    </g>
    <g id="line2d_71">
     <path d="M 49.31649 154.979077 
L 56.31649 154.979077 
L 63.31649 154.979077 
" style="fill: none; stroke: #4c4c4c; stroke-width: 0.75; stroke-linecap: square"/>
    </g>
    <g id="text_11">
     <!-- 1-$\sigma$ (Gauss. approx.) -->
     <g transform="translate(68.91649 157.429077) scale(0.07 -0.07)">
      <defs>
       <path id="CMSS17-31" d="M 1818 4288 
L 1696 4288 
C 1350 3940 947 3890 538 3890 
L 538 3520 
C 723 3520 1024 3520 1325 3667 
L 1325 369 
L 570 369 
L 570 0 
L 2573 0 
L 2573 369 
L 1818 369 
L 1818 4288 
z
" transform="scale(0.015625)"/>
       <path id="CMSS17-2d" d="M 1664 1216 
L 1664 1585 
L 64 1585 
L 64 1216 
L 1664 1216 
z
" transform="scale(0.015625)"/>
       <path id="CMMI12-1b" d="M 3251 2408 
C 3334 2408 3546 2408 3546 2612 
C 3546 2752 3424 2752 3309 2752 
L 1894 2752 
C 934 2752 243 1686 243 932 
C 243 390 595 -64 1171 -64 
C 1926 -64 2752 747 2752 1705 
C 2752 1954 2694 2196 2541 2408 
L 3251 2408 
z
M 1178 64 
C 851 64 614 313 614 754 
C 614 1137 845 2408 1786 2408 
C 2061 2408 2368 2274 2368 1781 
C 2368 1558 2266 1021 2042 652 
C 1811 275 1466 64 1178 64 
z
" transform="scale(0.015625)"/>
       <path id="CMSS17-28" d="M 1613 4768 
C 1267 4417 474 3601 474 1588 
C 474 -433 1267 -1243 1613 -1600 
L 2003 -1600 
C 1216 -784 960 357 960 1581 
C 960 2798 1203 3946 2003 4768 
L 1613 4768 
z
" transform="scale(0.015625)"/>
       <path id="CMSS17-47" d="M 3610 1856 
L 2336 1856 
L 2336 1461 
L 3123 1461 
L 3123 471 
C 2874 401 2618 350 2362 350 
C 1466 350 934 1301 934 2200 
C 934 3095 1491 4032 2362 4032 
C 2854 4032 3130 3881 3469 3627 
L 3552 4134 
C 3130 4351 2867 4440 2387 4440 
C 1146 4440 397 3324 397 2182 
C 397 1090 1152 -64 2349 -64 
C 2797 -64 3213 51 3610 248 
L 3610 1856 
z
" transform="scale(0.015625)"/>
       <path id="CMSS17-78" d="M 1587 1414 
L 2656 2739 
L 2099 2739 
L 1363 1777 
L 602 2739 
L 32 2739 
L 1139 1414 
L 0 0 
L 563 0 
L 1363 1121 
L 2195 0 
L 2758 0 
L 1587 1414 
z
" transform="scale(0.015625)"/>
       <path id="CMSS17-29" d="M 723 -1600 
C 1069 -1249 1862 -433 1862 1581 
C 1862 3601 1069 4411 723 4768 
L 333 4768 
C 1120 3952 1376 2811 1376 1588 
C 1376 370 1133 -778 333 -1600 
L 723 -1600 
z
" transform="scale(0.015625)"/>
      </defs>
      <use xlink:href="#CMSS17-31" transform="scale(0.996264)"/>
      <use xlink:href="#CMSS17-2d" transform="translate(46.843624 0) scale(0.996264)"/>
      <use xlink:href="#CMMI12-1b" transform="translate(78.072736 0) scale(0.996264)"/>
      <use xlink:href="#CMSS17-28" transform="translate(168.321903 0) scale(0.996264)"/>
      <use xlink:href="#CMSS17-47" transform="translate(204.755817 0) scale(0.996264)"/>
      <use xlink:href="#CMSS17-61" transform="translate(267.214042 0) scale(0.996264)"/>
      <use xlink:href="#CMSS17-75" transform="translate(312.135963 0) scale(0.996264)"/>
      <use xlink:href="#CMSS17-73" transform="translate(360.340906 0) scale(0.996264)"/>
      <use xlink:href="#CMSS17-73" transform="translate(396.254448 0) scale(0.996264)"/>
      <use xlink:href="#CMSS17-2e" transform="translate(432.16799 0) scale(0.996264)"/>
      <use xlink:href="#CMSS17-61" transform="translate(499.831002 0) scale(0.996264)"/>
      <use xlink:href="#CMSS17-70" transform="translate(544.752922 0) scale(0.996264)"/>
      <use xlink:href="#CMSS17-70" transform="translate(592.957866 0) scale(0.996264)"/>
      <use xlink:href="#CMSS17-72" transform="translate(638.560355 0) scale(0.996264)"/>
      <use xlink:href="#CMSS17-6f" transform="translate(670.470127 0) scale(0.996264)"/>
      <use xlink:href="#CMSS17-78" transform="translate(714.711297 0) scale(0.996264)"/>
      <use xlink:href="#CMSS17-2e" transform="translate(757.711439 0) scale(0.996264)"/>
      <use xlink:href="#CMSS17-29" transform="translate(783.735643 0) scale(0.996264)"/>
     </g>
    </g>
    <g id="line2d_72">
     <path d="M 49.31649 165.452925 
L 56.31649 165.452925 
L 63.31649 165.452925 
" style="fill: none; stroke-dasharray: 2.775,1.2; stroke-dashoffset: 0; stroke: #4c4c4c; stroke-width: 0.75"/>
    </g>
    <g id="text_12">
     <!-- 2-$\sigma$ (Gauss. approx.) -->
     <g transform="translate(68.91649 167.902925) scale(0.07 -0.07)">
      <defs>
       <path id="CMSS17-32" d="M 1651 1357 
C 1830 1541 2099 1764 2285 1987 
C 2464 2204 2701 2511 2701 2957 
C 2701 3657 2227 4288 1421 4288 
C 787 4288 422 3893 250 3274 
L 499 2929 
C 640 3510 838 3880 1338 3880 
C 1888 3880 2195 3433 2195 2942 
C 2195 2355 1747 1901 1408 1563 
C 1030 1187 659 804 301 408 
L 301 0 
L 2701 0 
L 2701 433 
L 1613 433 
C 1536 433 1459 433 1382 433 
L 742 433 
L 742 439 
L 1651 1357 
z
" transform="scale(0.015625)"/>
      </defs>
      <use xlink:href="#CMSS17-32" transform="scale(0.996264)"/>
      <use xlink:href="#CMSS17-2d" transform="translate(46.843624 0) scale(0.996264)"/>
      <use xlink:href="#CMMI12-1b" transform="translate(78.072736 0) scale(0.996264)"/>
      <use xlink:href="#CMSS17-28" transform="translate(168.321903 0) scale(0.996264)"/>
      <use xlink:href="#CMSS17-47" transform="translate(204.755817 0) scale(0.996264)"/>
      <use xlink:href="#CMSS17-61" transform="translate(267.214042 0) scale(0.996264)"/>
      <use xlink:href="#CMSS17-75" transform="translate(312.135963 0) scale(0.996264)"/>
      <use xlink:href="#CMSS17-73" transform="translate(360.340906 0) scale(0.996264)"/>
      <use xlink:href="#CMSS17-73" transform="translate(396.254448 0) scale(0.996264)"/>
      <use xlink:href="#CMSS17-2e" transform="translate(432.16799 0) scale(0.996264)"/>
      <use xlink:href="#CMSS17-61" transform="translate(499.831002 0) scale(0.996264)"/>
      <use xlink:href="#CMSS17-70" transform="translate(544.752922 0) scale(0.996264)"/>
      <use xlink:href="#CMSS17-70" transform="translate(592.957866 0) scale(0.996264)"/>
      <use xlink:href="#CMSS17-72" transform="translate(638.560355 0) scale(0.996264)"/>
      <use xlink:href="#CMSS17-6f" transform="translate(670.470127 0) scale(0.996264)"/>
      <use xlink:href="#CMSS17-78" transform="translate(714.711297 0) scale(0.996264)"/>
      <use xlink:href="#CMSS17-2e" transform="translate(757.711439 0) scale(0.996264)"/>
      <use xlink:href="#CMSS17-29" transform="translate(783.735643 0) scale(0.996264)"/>
     </g>
    </g>
    <g id="line2d_73">
     <path d="M 49.31649 175.926773 
L 56.31649 175.926773 
L 63.31649 175.926773 
" style="fill: none; stroke-dasharray: 4.8,1.2,0.75,1.2; stroke-dashoffset: 0; stroke: #4c4c4c; stroke-width: 0.75"/>
    </g>
    <g id="text_13">
     <!-- 5-$\sigma$ (Gauss. approx.) -->
     <g transform="translate(68.91649 178.376773) scale(0.07 -0.07)">
      <defs>
       <path id="CMSS17-35" d="M 934 3752 
L 2502 3752 
L 2502 4160 
L 467 4160 
L 467 1781 
L 896 1781 
C 1011 2046 1248 2240 1555 2240 
C 1843 2240 2163 1989 2163 1266 
C 2163 493 1709 267 1376 267 
C 966 267 589 512 422 851 
L 218 499 
C 512 49 992 -128 1376 -128 
C 2118 -128 2701 497 2701 1253 
C 2701 2030 2182 2629 1562 2629 
C 1338 2629 1120 2553 934 2399 
L 934 3752 
z
" transform="scale(0.015625)"/>
      </defs>
      <use xlink:href="#CMSS17-35" transform="scale(0.996264)"/>
      <use xlink:href="#CMSS17-2d" transform="translate(46.843624 0) scale(0.996264)"/>
      <use xlink:href="#CMMI12-1b" transform="translate(78.072736 0) scale(0.996264)"/>
      <use xlink:href="#CMSS17-28" transform="translate(168.321903 0) scale(0.996264)"/>
      <use xlink:href="#CMSS17-47" transform="translate(204.755817 0) scale(0.996264)"/>
      <use xlink:href="#CMSS17-61" transform="translate(267.214042 0) scale(0.996264)"/>
      <use xlink:href="#CMSS17-75" transform="translate(312.135963 0) scale(0.996264)"/>
      <use xlink:href="#CMSS17-73" transform="translate(360.340906 0) scale(0.996264)"/>
      <use xlink:href="#CMSS17-73" transform="translate(396.254448 0) scale(0.996264)"/>
      <use xlink:href="#CMSS17-2e" transform="translate(432.16799 0) scale(0.996264)"/>
      <use xlink:href="#CMSS17-61" transform="translate(499.831002 0) scale(0.996264)"/>
      <use xlink:href="#CMSS17-70" transform="translate(544.752922 0) scale(0.996264)"/>
      <use xlink:href="#CMSS17-70" transform="translate(592.957866 0) scale(0.996264)"/>
      <use xlink:href="#CMSS17-72" transform="translate(638.560355 0) scale(0.996264)"/>
      <use xlink:href="#CMSS17-6f" transform="translate(670.470127 0) scale(0.996264)"/>
      <use xlink:href="#CMSS17-78" transform="translate(714.711297 0) scale(0.996264)"/>
      <use xlink:href="#CMSS17-2e" transform="translate(757.711439 0) scale(0.996264)"/>
      <use xlink:href="#CMSS17-29" transform="translate(783.735643 0) scale(0.996264)"/>
     </g>
    </g>
    <g id="line2d_74">
     <path d="M 49.31649 186.400621 
L 56.31649 186.400621 
L 63.31649 186.400621 
" style="fill: none; stroke-dasharray: 0.75,1.2375; stroke-dashoffset: 0; stroke: #4c4c4c; stroke-width: 0.75"/>
    </g>
    <g id="text_14">
     <!-- 10-$\sigma$ (Gauss. approx.) -->
     <g transform="translate(68.91649 188.850621) scale(0.07 -0.07)">
      <defs>
       <path id="CMSS17-30" d="M 2758 2044 
C 2758 2405 2752 3077 2490 3596 
C 2227 4096 1805 4229 1504 4229 
C 1069 4229 698 3975 506 3570 
C 301 3146 243 2709 243 2044 
C 243 1589 262 1031 493 543 
C 755 5 1197 -128 1498 -128 
C 1894 -128 2278 81 2496 518 
C 2720 974 2758 1474 2758 2044 
z
M 1498 261 
C 1011 261 864 811 819 995 
C 742 1310 730 1614 730 2114 
C 730 2506 730 2948 851 3297 
C 998 3701 1254 3840 1498 3840 
C 1971 3840 2125 3372 2176 3208 
C 2272 2873 2272 2481 2272 2114 
C 2272 1526 2272 261 1498 261 
z
" transform="scale(0.015625)"/>
      </defs>
      <use xlink:href="#CMSS17-31" transform="scale(0.996264)"/>
      <use xlink:href="#CMSS17-30" transform="translate(46.843624 0) scale(0.996264)"/>
      <use xlink:href="#CMSS17-2d" transform="translate(93.687247 0) scale(0.996264)"/>
      <use xlink:href="#CMMI12-1b" transform="translate(124.91636 0) scale(0.996264)"/>
      <use xlink:href="#CMSS17-28" transform="translate(215.165526 0) scale(0.996264)"/>
      <use xlink:href="#CMSS17-47" transform="translate(251.59944 0) scale(0.996264)"/>
      <use xlink:href="#CMSS17-61" transform="translate(314.057666 0) scale(0.996264)"/>
      <use xlink:href="#CMSS17-75" transform="translate(358.979586 0) scale(0.996264)"/>
      <use xlink:href="#CMSS17-73" transform="translate(407.18453 0) scale(0.996264)"/>
      <use xlink:href="#CMSS17-73" transform="translate(443.098072 0) scale(0.996264)"/>
      <use xlink:href="#CMSS17-2e" transform="translate(479.011614 0) scale(0.996264)"/>
      <use xlink:href="#CMSS17-61" transform="translate(546.674625 0) scale(0.996264)"/>
      <use xlink:href="#CMSS17-70" transform="translate(591.596546 0) scale(0.996264)"/>
      <use xlink:href="#CMSS17-70" transform="translate(639.801489 0) scale(0.996264)"/>
      <use xlink:href="#CMSS17-72" transform="translate(685.403978 0) scale(0.996264)"/>
      <use xlink:href="#CMSS17-6f" transform="translate(717.313751 0) scale(0.996264)"/>
      <use xlink:href="#CMSS17-78" transform="translate(761.55492 0) scale(0.996264)"/>
      <use xlink:href="#CMSS17-2e" transform="translate(804.555062 0) scale(0.996264)"/>
      <use xlink:href="#CMSS17-29" transform="translate(830.579267 0) scale(0.996264)"/>
     </g>
    </g>
   </g>
  </g>
  <g id="axes_3">
   <g id="patch_17">
    <path d="M 43.01649 298.591245 
L 284.99976 298.591245 
L 284.99976 206.394563 
L 43.01649 206.394563 
z
" style="fill: #ffffff"/>
   </g>
   <g id="patch_18">
    <path d="M 43.01649 298.591245 
L 138.343233 298.591245 
L 138.343233 206.394563 
L 43.01649 206.394563 
z
" clip-path="url(#p010079f9e0)" style="fill: #d9d9d9"/>
   </g>
   <g id="patch_19">
    <path d="M 43.01649 287.058422 
L 284.99976 287.058422 
L 284.99976 261.651397 
L 43.01649 261.651397 
z
" clip-path="url(#p010079f9e0)" style="fill: #1f77b4; opacity: 0.2"/>
   </g>
   <g id="patch_20">
    <path d="M 43.01649 280.773685 
L 284.99976 280.773685 
L 284.99976 267.921585 
L 43.01649 267.921585 
z
" clip-path="url(#p010079f9e0)" style="fill: #1f77b4; opacity: 0.2"/>
   </g>
   <g id="line2d_75">
    <path d="M 138.343233 298.591245 
L 138.343233 206.394563 
" clip-path="url(#p010079f9e0)" style="fill: none; stroke-dasharray: 2.775,1.2; stroke-dashoffset: 0; stroke: #bfbfbf; stroke-width: 0.75"/>
   </g>
   <g id="line2d_76">
    <path d="M 167.674538 298.591245 
L 167.674538 206.394563 
" clip-path="url(#p010079f9e0)" style="fill: none; stroke-dasharray: 2.775,1.2; stroke-dashoffset: 0; stroke: #bfbfbf; stroke-width: 0.75"/>
   </g>
   <g id="line2d_77">
    <path d="M 197.005844 298.591245 
L 197.005844 206.394563 
" clip-path="url(#p010079f9e0)" style="fill: none; stroke-dasharray: 2.775,1.2; stroke-dashoffset: 0; stroke: #bfbfbf; stroke-width: 0.75"/>
   </g>
   <g id="line2d_78">
    <path d="M 226.337149 298.591245 
L 226.337149 206.394563 
" clip-path="url(#p010079f9e0)" style="fill: none; stroke-dasharray: 2.775,1.2; stroke-dashoffset: 0; stroke: #bfbfbf; stroke-width: 0.75"/>
   </g>
   <g id="line2d_79">
    <path d="M 255.668455 298.591245 
L 255.668455 206.394563 
" clip-path="url(#p010079f9e0)" style="fill: none; stroke-dasharray: 2.775,1.2; stroke-dashoffset: 0; stroke: #bfbfbf; stroke-width: 0.75"/>
   </g>
   <g id="PathCollection_2">
    <defs>
     <path id="C1_0_13f474d12f" d="M 0 1.5 
C 0.397805 1.5 0.77937 1.341951 1.06066 1.06066 
C 1.341951 0.77937 1.5 0.397805 1.5 -0 
C 1.5 -0.397805 1.341951 -0.77937 1.06066 -1.06066 
C 0.77937 -1.341951 0.397805 -1.5 0 -1.5 
C -0.397805 -1.5 -0.77937 -1.341951 -1.06066 -1.06066 
C -1.341951 -0.77937 -1.5 -0.397805 -1.5 0 
C -1.5 0.397805 -1.341951 0.77937 -1.06066 1.06066 
C -0.77937 1.341951 -0.397805 1.5 0 1.5 
z
"/>
    </defs>
    <g clip-path="url(#p010079f9e0)">
     <use xlink:href="#C1_0_13f474d12f" x="57.682143" y="221.772559" style="fill: #453882; stroke: #1a1a1a; stroke-width: 0.1"/>
    </g>
    <g clip-path="url(#p010079f9e0)">
     <use xlink:href="#C1_0_13f474d12f" x="72.347796" y="244.906805" style="fill: #1f978b; stroke: #1a1a1a; stroke-width: 0.1"/>
    </g>
    <g clip-path="url(#p010079f9e0)">
     <use xlink:href="#C1_0_13f474d12f" x="87.013448" y="293.77066" style="fill: #cde11d; stroke: #1a1a1a; stroke-width: 0.1"/>
    </g>
    <g clip-path="url(#p010079f9e0)">
     <use xlink:href="#C1_0_13f474d12f" x="101.679101" y="210.585322" style="fill: #440154; stroke: #1a1a1a; stroke-width: 0.1"/>
    </g>
    <g clip-path="url(#p010079f9e0)">
     <use xlink:href="#C1_0_13f474d12f" x="116.344754" y="294.400487" style="fill: #69cd5b; stroke: #1a1a1a; stroke-width: 0.1"/>
    </g>
    <g clip-path="url(#p010079f9e0)">
     <use xlink:href="#C1_0_13f474d12f" x="131.010406" y="256.785099" style="fill: #46307e; stroke: #1a1a1a; stroke-width: 0.1"/>
    </g>
    <g clip-path="url(#p010079f9e0)">
     <use xlink:href="#C1_0_13f474d12f" x="145.676059" y="284.455686" style="fill: #efe51c; stroke: #1a1a1a; stroke-width: 0.1"/>
    </g>
    <g clip-path="url(#p010079f9e0)">
     <use xlink:href="#C1_0_13f474d12f" x="160.341712" y="281.63169" style="fill: #f8e621; stroke: #1a1a1a; stroke-width: 0.1"/>
    </g>
    <g clip-path="url(#p010079f9e0)">
     <use xlink:href="#C1_0_13f474d12f" x="175.007365" y="272.252859" style="fill: #fde725; stroke: #1a1a1a; stroke-width: 0.1"/>
    </g>
    <g clip-path="url(#p010079f9e0)">
     <use xlink:href="#C1_0_13f474d12f" x="189.673017" y="272.333938" style="fill: #f1e51d; stroke: #1a1a1a; stroke-width: 0.1"/>
    </g>
    <g clip-path="url(#p010079f9e0)">
     <use xlink:href="#C1_0_13f474d12f" x="204.33867" y="268.313472" style="fill: #f6e620; stroke: #1a1a1a; stroke-width: 0.1"/>
    </g>
    <g clip-path="url(#p010079f9e0)">
     <use xlink:href="#C1_0_13f474d12f" x="219.004323" y="263.474301" style="fill: #f1e51d; stroke: #1a1a1a; stroke-width: 0.1"/>
    </g>
    <g clip-path="url(#p010079f9e0)">
     <use xlink:href="#C1_0_13f474d12f" x="233.669975" y="269.383835" style="fill: #f1e51d; stroke: #1a1a1a; stroke-width: 0.1"/>
    </g>
    <g clip-path="url(#p010079f9e0)">
     <use xlink:href="#C1_0_13f474d12f" x="248.335628" y="280.544163" style="fill: #f8e621; stroke: #1a1a1a; stroke-width: 0.1"/>
    </g>
    <g clip-path="url(#p010079f9e0)">
     <use xlink:href="#C1_0_13f474d12f" x="263.001281" y="266.891501" style="fill: #e7e419; stroke: #1a1a1a; stroke-width: 0.1"/>
    </g>
    <g clip-path="url(#p010079f9e0)">
     <use xlink:href="#C1_0_13f474d12f" x="277.666934" y="277.7291" style="fill: #dde318; stroke: #1a1a1a; stroke-width: 0.1"/>
    </g>
   </g>
   <g id="matplotlib.axis_5">
    <g id="xtick_15">
     <g id="line2d_80">
      <g>
       <use xlink:href="#m45448d6b46" x="43.01649" y="298.591245" style="stroke: #000000; stroke-width: 0.8"/>
      </g>
     </g>
    </g>
    <g id="xtick_16">
     <g id="line2d_81">
      <g>
       <use xlink:href="#m45448d6b46" x="79.680622" y="298.591245" style="stroke: #000000; stroke-width: 0.8"/>
      </g>
     </g>
    </g>
    <g id="xtick_17">
     <g id="line2d_82">
      <g>
       <use xlink:href="#m45448d6b46" x="116.344754" y="298.591245" style="stroke: #000000; stroke-width: 0.8"/>
      </g>
     </g>
    </g>
    <g id="xtick_18">
     <g id="line2d_83">
      <g>
       <use xlink:href="#m45448d6b46" x="153.008886" y="298.591245" style="stroke: #000000; stroke-width: 0.8"/>
      </g>
     </g>
    </g>
    <g id="xtick_19">
     <g id="line2d_84">
      <g>
       <use xlink:href="#m45448d6b46" x="189.673017" y="298.591245" style="stroke: #000000; stroke-width: 0.8"/>
      </g>
     </g>
    </g>
    <g id="xtick_20">
     <g id="line2d_85">
      <g>
       <use xlink:href="#m45448d6b46" x="226.337149" y="298.591245" style="stroke: #000000; stroke-width: 0.8"/>
      </g>
     </g>
    </g>
    <g id="xtick_21">
     <g id="line2d_86">
      <g>
       <use xlink:href="#m45448d6b46" x="263.001281" y="298.591245" style="stroke: #000000; stroke-width: 0.8"/>
      </g>
     </g>
    </g>
   </g>
   <g id="matplotlib.axis_6">
    <g id="ytick_34">
     <g id="line2d_87">
      <path d="M 43.01649 255.916754 
L 284.99976 255.916754 
" clip-path="url(#p010079f9e0)" style="fill: none; stroke: #b0b0b0; stroke-width: 0.8; stroke-linecap: square"/>
     </g>
     <g id="line2d_88">
      <g>
       <use xlink:href="#m385dde560e" x="43.01649" y="255.916754" style="stroke: #000000; stroke-width: 0.8"/>
      </g>
     </g>
     <g id="text_15">
      <!-- $\mathdefault{5}$ -->
      <g transform="translate(31.035155 259.376004) scale(0.1 -0.1)">
       <defs>
        <path id="CMR17-35" d="M 730 3692 
C 794 3666 1056 3584 1325 3584 
C 1920 3584 2246 3911 2432 4100 
C 2432 4157 2432 4192 2394 4192 
C 2387 4192 2374 4192 2323 4163 
C 2099 4058 1837 3973 1517 3973 
C 1325 3973 1037 3999 723 4139 
C 653 4171 640 4171 634 4171 
C 602 4171 595 4164 595 4037 
L 595 2203 
C 595 2089 595 2057 659 2057 
C 691 2057 704 2070 736 2114 
C 941 2401 1222 2522 1542 2522 
C 1766 2522 2246 2382 2246 1289 
C 2246 1085 2246 715 2054 421 
C 1894 159 1645 25 1370 25 
C 947 25 518 320 403 814 
C 429 807 480 795 506 795 
C 589 795 749 840 749 1038 
C 749 1210 627 1280 506 1280 
C 358 1280 262 1190 262 1011 
C 262 454 704 -128 1382 -128 
C 2042 -128 2669 440 2669 1264 
C 2669 2030 2170 2624 1549 2624 
C 1222 2624 947 2503 730 2274 
L 730 3692 
z
" transform="scale(0.015625)"/>
       </defs>
       <use xlink:href="#CMR17-35" transform="scale(0.996264)"/>
      </g>
     </g>
    </g>
    <g id="ytick_35">
     <g id="line2d_89">
      <path d="M 43.01649 210.204383 
L 284.99976 210.204383 
" clip-path="url(#p010079f9e0)" style="fill: none; stroke: #b0b0b0; stroke-width: 0.8; stroke-linecap: square"/>
     </g>
     <g id="line2d_90">
      <g>
       <use xlink:href="#m385dde560e" x="43.01649" y="210.204383" style="stroke: #000000; stroke-width: 0.8"/>
      </g>
     </g>
     <g id="text_16">
      <!-- $\mathdefault{10}$ -->
      <g transform="translate(26.05382 213.663633) scale(0.1 -0.1)">
       <use xlink:href="#CMR17-31" transform="scale(0.996264)"/>
       <use xlink:href="#CMR17-30" transform="translate(45.690477 0) scale(0.996264)"/>
      </g>
     </g>
    </g>
    <g id="text_17">
     <!-- $x_{1}$ -->
     <g transform="translate(20.116641 257.325482) rotate(-90) scale(0.1 -0.1)">
      <defs>
       <path id="CMMI12-78" d="M 3034 2606 
C 2829 2567 2752 2414 2752 2293 
C 2752 2139 2874 2088 2963 2088 
C 3155 2088 3290 2254 3290 2427 
C 3290 2695 2982 2816 2714 2816 
C 2323 2816 2106 2433 2048 2312 
C 1901 2816 1504 2816 1389 2816 
C 736 2816 390 1980 390 1839 
C 390 1814 416 1782 461 1782 
C 512 1782 525 1820 538 1846 
C 755 2555 1184 2689 1370 2689 
C 1658 2689 1715 2420 1715 2267 
C 1715 2127 1677 1980 1600 1673 
L 1382 798 
C 1286 415 1101 64 762 64 
C 730 64 570 64 435 147 
C 666 192 717 383 717 460 
C 717 588 621 664 499 664 
C 346 664 179 530 179 326 
C 179 57 480 -64 755 -64 
C 1062 -64 1280 179 1414 441 
C 1517 64 1837 -64 2074 -64 
C 2726 -64 3072 773 3072 913 
C 3072 945 3046 971 3008 971 
C 2950 971 2944 939 2925 888 
C 2752 326 2381 64 2093 64 
C 1869 64 1747 230 1747 492 
C 1747 632 1773 734 1875 1156 
L 2099 2024 
C 2195 2408 2413 2689 2707 2689 
C 2720 2689 2899 2689 3034 2606 
z
" transform="scale(0.015625)"/>
      </defs>
      <use xlink:href="#CMMI12-78" transform="scale(0.996264)"/>
      <use xlink:href="#CMR17-31" transform="translate(55.43406 -14.943915) scale(0.697382)"/>
     </g>
    </g>
   </g>
   <g id="line2d_91">
    <path d="M 43.01649 274.296977 
L 284.99976 274.296977 
" clip-path="url(#p010079f9e0)" style="fill: none; stroke-dasharray: 5.55,2.4; stroke-dashoffset: 0; stroke: #1f77b4; stroke-opacity: 0.3; stroke-width: 1.5"/>
   </g>
   <g id="patch_21">
    <path d="M 43.01649 298.591245 
L 43.01649 206.394563 
" style="fill: none; stroke: #000000; stroke-width: 0.8; stroke-linejoin: miter; stroke-linecap: square"/>
   </g>
   <g id="patch_22">
    <path d="M 284.99976 298.591245 
L 284.99976 206.394563 
" style="fill: none; stroke: #000000; stroke-width: 0.8; stroke-linejoin: miter; stroke-linecap: square"/>
   </g>
   <g id="patch_23">
    <path d="M 43.01649 298.591245 
L 284.99976 298.591245 
" style="fill: none; stroke: #000000; stroke-width: 0.8; stroke-linejoin: miter; stroke-linecap: square"/>
   </g>
   <g id="patch_24">
    <path d="M 43.01649 206.394563 
L 284.99976 206.394563 
" style="fill: none; stroke: #000000; stroke-width: 0.8; stroke-linejoin: miter; stroke-linecap: square"/>
   </g>
   <g id="text_18">
    <g id="patch_25">
     <path d="M 207.308661 295.303997 
L 280.520346 295.303997 
L 280.520346 279.75129 
L 207.308661 279.75129 
z
" style="fill: #ffffff; opacity: 0.5; stroke: #000000; stroke-linejoin: miter"/>
    </g>
    <!-- Length scale: $1\cdot 10^{2}$ -->
    <g transform="translate(211.298661 289.957982) scale(0.07 -0.07)">
     <defs>
      <path id="CMSS17-4c" d="M 1670 414 
C 1594 414 1517 414 1440 414 
L 1101 414 
L 1101 4416 
L 563 4416 
L 563 0 
L 3002 0 
L 3002 414 
L 1670 414 
z
" transform="scale(0.015625)"/>
      <path id="CMSS17-67" d="M 2848 2808 
C 2483 2808 2170 2738 1914 2617 
C 1702 2777 1485 2808 1338 2808 
C 781 2808 358 2349 358 1814 
C 358 1468 550 1207 563 1195 
C 448 1035 384 863 384 672 
C 384 448 474 289 544 200 
C 211 -3 166 -314 166 -435 
C 166 -898 749 -1280 1498 -1280 
C 2253 -1280 2835 -898 2835 -428 
C 2835 448 1856 448 1587 448 
L 1069 448 
C 973 448 717 448 717 791 
C 717 921 774 1004 781 1010 
C 877 940 1075 832 1338 832 
C 1869 832 2310 1278 2310 1827 
C 2310 2132 2170 2355 2112 2432 
L 2131 2432 
C 2150 2432 2419 2432 2515 2432 
C 2720 2432 2739 2429 2918 2419 
L 2848 2808 
z
M 1338 1182 
C 1120 1182 813 1315 813 1823 
C 813 2375 1165 2464 1331 2464 
C 1549 2464 1856 2331 1856 1823 
C 1856 1271 1504 1182 1338 1182 
z
M 1581 -10 
C 1734 -10 2381 -10 2381 -442 
C 2381 -714 1984 -929 1504 -929 
C 1018 -929 621 -720 621 -435 
C 621 -403 621 -10 1062 -10 
L 1581 -10 
z
" transform="scale(0.015625)"/>
      <path id="CMSS17-68" d="M 2618 1891 
C 2618 2292 2522 2820 1798 2820 
C 1395 2820 1133 2623 947 2407 
L 947 4448 
L 474 4448 
L 474 32 
L 960 32 
L 960 1573 
C 960 1973 1114 2432 1549 2432 
C 2112 2432 2131 2056 2131 1839 
L 2131 32 
L 2618 32 
L 2618 1891 
z
" transform="scale(0.015625)"/>
     </defs>
     <use xlink:href="#CMSS17-4c" transform="scale(0.996264)"/>
     <use xlink:href="#CMSS17-65" transform="translate(50.687105 0) scale(0.996264)"/>
     <use xlink:href="#CMSS17-6e" transform="translate(92.325927 0) scale(0.996264)"/>
     <use xlink:href="#CMSS17-67" transform="translate(140.530871 0) scale(0.996264)"/>
     <use xlink:href="#CMSS17-74" transform="translate(187.374494 0) scale(0.996264)"/>
     <use xlink:href="#CMSS17-68" transform="translate(221.206061 0) scale(0.996264)"/>
     <use xlink:href="#CMSS17-73" transform="translate(300.640117 0) scale(0.996264)"/>
     <use xlink:href="#CMSS17-63" transform="translate(336.553659 0) scale(0.996264)"/>
     <use xlink:href="#CMSS17-61" transform="translate(378.192481 0) scale(0.996264)"/>
     <use xlink:href="#CMSS17-6c" transform="translate(423.114401 0) scale(0.996264)"/>
     <use xlink:href="#CMSS17-65" transform="translate(445.295124 0) scale(0.996264)"/>
     <use xlink:href="#CMSS17-3a" transform="translate(486.933946 0) scale(0.996264)"/>
     <use xlink:href="#CMR17-31" transform="translate(554.596958 0) scale(0.996264)"/>
     <use xlink:href="#CMSY10-1" transform="translate(622.426642 0) scale(0.996264)"/>
     <use xlink:href="#CMR17-31" transform="translate(672.239934 0) scale(0.996264)"/>
     <use xlink:href="#CMR17-30" transform="translate(717.930411 0) scale(0.996264)"/>
     <use xlink:href="#CMR17-32" transform="translate(763.620888 36.153639) scale(0.697382)"/>
    </g>
   </g>
  </g>
  <g id="axes_4">
   <g id="patch_26">
    <path d="M 43.01649 400.288407 
L 284.99976 400.288407 
L 284.99976 308.091725 
L 43.01649 308.091725 
z
" style="fill: #ffffff"/>
   </g>
   <g id="patch_27">
    <path d="M 43.01649 400.288407 
L 138.343233 400.288407 
L 138.343233 308.091725 
L 43.01649 308.091725 
z
" clip-path="url(#p4f665932f0)" style="fill: #d9d9d9"/>
   </g>
   <g id="patch_28">
    <path d="M 43.01649 348.770797 
L 284.99976 348.770797 
L 284.99976 317.181168 
L 43.01649 317.181168 
z
" clip-path="url(#p4f665932f0)" style="fill: #1f77b4; opacity: 0.2"/>
   </g>
   <g id="patch_29">
    <path d="M 43.01649 341.005904 
L 284.99976 341.005904 
L 284.99976 324.76585 
L 43.01649 324.76585 
z
" clip-path="url(#p4f665932f0)" style="fill: #1f77b4; opacity: 0.2"/>
   </g>
   <g id="line2d_92">
    <path d="M 138.343233 400.288407 
L 138.343233 308.091725 
" clip-path="url(#p4f665932f0)" style="fill: none; stroke-dasharray: 2.775,1.2; stroke-dashoffset: 0; stroke: #bfbfbf; stroke-width: 0.75"/>
   </g>
   <g id="line2d_93">
    <path d="M 167.674538 400.288407 
L 167.674538 308.091725 
" clip-path="url(#p4f665932f0)" style="fill: none; stroke-dasharray: 2.775,1.2; stroke-dashoffset: 0; stroke: #bfbfbf; stroke-width: 0.75"/>
   </g>
   <g id="line2d_94">
    <path d="M 197.005844 400.288407 
L 197.005844 308.091725 
" clip-path="url(#p4f665932f0)" style="fill: none; stroke-dasharray: 2.775,1.2; stroke-dashoffset: 0; stroke: #bfbfbf; stroke-width: 0.75"/>
   </g>
   <g id="line2d_95">
    <path d="M 226.337149 400.288407 
L 226.337149 308.091725 
" clip-path="url(#p4f665932f0)" style="fill: none; stroke-dasharray: 2.775,1.2; stroke-dashoffset: 0; stroke: #bfbfbf; stroke-width: 0.75"/>
   </g>
   <g id="line2d_96">
    <path d="M 255.668455 400.288407 
L 255.668455 308.091725 
" clip-path="url(#p4f665932f0)" style="fill: none; stroke-dasharray: 2.775,1.2; stroke-dashoffset: 0; stroke: #bfbfbf; stroke-width: 0.75"/>
   </g>
   <g id="PathCollection_3">
    <defs>
     <path id="C2_0_3985ed4317" d="M 0 1.5 
C 0.397805 1.5 0.77937 1.341951 1.06066 1.06066 
C 1.341951 0.77937 1.5 0.397805 1.5 -0 
C 1.5 -0.397805 1.341951 -0.77937 1.06066 -1.06066 
C 0.77937 -1.341951 0.397805 -1.5 0 -1.5 
C -0.397805 -1.5 -0.77937 -1.341951 -1.06066 -1.06066 
C -1.341951 -0.77937 -1.5 -0.397805 -1.5 0 
C -1.5 0.397805 -1.341951 0.77937 -1.06066 1.06066 
C -0.77937 1.341951 -0.397805 1.5 0 1.5 
z
"/>
    </defs>
    <g clip-path="url(#p4f665932f0)">
     <use xlink:href="#C2_0_3985ed4317" x="57.682143" y="349.583199" style="fill: #453882; stroke: #1a1a1a; stroke-width: 0.1"/>
    </g>
    <g clip-path="url(#p4f665932f0)">
     <use xlink:href="#C2_0_3985ed4317" x="72.347796" y="361.703244" style="fill: #1f978b; stroke: #1a1a1a; stroke-width: 0.1"/>
    </g>
    <g clip-path="url(#p4f665932f0)">
     <use xlink:href="#C2_0_3985ed4317" x="87.013448" y="337.386269" style="fill: #cde11d; stroke: #1a1a1a; stroke-width: 0.1"/>
    </g>
    <g clip-path="url(#p4f665932f0)">
     <use xlink:href="#C2_0_3985ed4317" x="101.679101" y="337.100381" style="fill: #440154; stroke: #1a1a1a; stroke-width: 0.1"/>
    </g>
    <g clip-path="url(#p4f665932f0)">
     <use xlink:href="#C2_0_3985ed4317" x="116.344754" y="312.282483" style="fill: #69cd5b; stroke: #1a1a1a; stroke-width: 0.1"/>
    </g>
    <g clip-path="url(#p4f665932f0)">
     <use xlink:href="#C2_0_3985ed4317" x="131.010406" y="396.097648" style="fill: #46307e; stroke: #1a1a1a; stroke-width: 0.1"/>
    </g>
    <g clip-path="url(#p4f665932f0)">
     <use xlink:href="#C2_0_3985ed4317" x="145.676059" y="346.51316" style="fill: #efe51c; stroke: #1a1a1a; stroke-width: 0.1"/>
    </g>
    <g clip-path="url(#p4f665932f0)">
     <use xlink:href="#C2_0_3985ed4317" x="160.341712" y="339.29593" style="fill: #f8e621; stroke: #1a1a1a; stroke-width: 0.1"/>
    </g>
    <g clip-path="url(#p4f665932f0)">
     <use xlink:href="#C2_0_3985ed4317" x="175.007365" y="334.879973" style="fill: #fde725; stroke: #1a1a1a; stroke-width: 0.1"/>
    </g>
    <g clip-path="url(#p4f665932f0)">
     <use xlink:href="#C2_0_3985ed4317" x="189.673017" y="344.347303" style="fill: #f1e51d; stroke: #1a1a1a; stroke-width: 0.1"/>
    </g>
    <g clip-path="url(#p4f665932f0)">
     <use xlink:href="#C2_0_3985ed4317" x="204.33867" y="321.99503" style="fill: #f6e620; stroke: #1a1a1a; stroke-width: 0.1"/>
    </g>
    <g clip-path="url(#p4f665932f0)">
     <use xlink:href="#C2_0_3985ed4317" x="219.004323" y="329.779678" style="fill: #f1e51d; stroke: #1a1a1a; stroke-width: 0.1"/>
    </g>
    <g clip-path="url(#p4f665932f0)">
     <use xlink:href="#C2_0_3985ed4317" x="233.669975" y="318.840454" style="fill: #f1e51d; stroke: #1a1a1a; stroke-width: 0.1"/>
    </g>
    <g clip-path="url(#p4f665932f0)">
     <use xlink:href="#C2_0_3985ed4317" x="248.335628" y="331.741467" style="fill: #f8e621; stroke: #1a1a1a; stroke-width: 0.1"/>
    </g>
    <g clip-path="url(#p4f665932f0)">
     <use xlink:href="#C2_0_3985ed4317" x="263.001281" y="314.562788" style="fill: #e7e419; stroke: #1a1a1a; stroke-width: 0.1"/>
    </g>
    <g clip-path="url(#p4f665932f0)">
     <use xlink:href="#C2_0_3985ed4317" x="277.666934" y="353.424529" style="fill: #dde318; stroke: #1a1a1a; stroke-width: 0.1"/>
    </g>
   </g>
   <g id="matplotlib.axis_7">
    <g id="xtick_22">
     <g id="line2d_97">
      <g>
       <use xlink:href="#m45448d6b46" x="43.01649" y="400.288407" style="stroke: #000000; stroke-width: 0.8"/>
      </g>
     </g>
     <g id="text_19">
      <!-- $\mathdefault{0.0}$ -->
      <g transform="translate(36.651451 414.206905) scale(0.1 -0.1)">
       <use xlink:href="#CMR17-30" transform="scale(0.996264)"/>
       <use xlink:href="#CMMI12-3a" transform="translate(45.690477 0) scale(0.996264)"/>
       <use xlink:href="#CMR17-30" transform="translate(72.787654 0) scale(0.996264)"/>
      </g>
     </g>
    </g>
    <g id="xtick_23">
     <g id="line2d_98">
      <g>
       <use xlink:href="#m45448d6b46" x="79.680622" y="400.288407" style="stroke: #000000; stroke-width: 0.8"/>
      </g>
     </g>
     <g id="text_20">
      <!-- $\mathdefault{2.5}$ -->
      <g transform="translate(73.315582 414.206905) scale(0.1 -0.1)">
       <use xlink:href="#CMR17-32" transform="scale(0.996264)"/>
       <use xlink:href="#CMMI12-3a" transform="translate(45.690477 0) scale(0.996264)"/>
       <use xlink:href="#CMR17-35" transform="translate(72.787654 0) scale(0.996264)"/>
      </g>
     </g>
    </g>
    <g id="xtick_24">
     <g id="line2d_99">
      <g>
       <use xlink:href="#m45448d6b46" x="116.344754" y="400.288407" style="stroke: #000000; stroke-width: 0.8"/>
      </g>
     </g>
     <g id="text_21">
      <!-- $\mathdefault{5.0}$ -->
      <g transform="translate(109.979714 414.206905) scale(0.1 -0.1)">
       <use xlink:href="#CMR17-35" transform="scale(0.996264)"/>
       <use xlink:href="#CMMI12-3a" transform="translate(45.690477 0) scale(0.996264)"/>
       <use xlink:href="#CMR17-30" transform="translate(72.787654 0) scale(0.996264)"/>
      </g>
     </g>
    </g>
    <g id="xtick_25">
     <g id="line2d_100">
      <g>
       <use xlink:href="#m45448d6b46" x="153.008886" y="400.288407" style="stroke: #000000; stroke-width: 0.8"/>
      </g>
     </g>
     <g id="text_22">
      <!-- $\mathdefault{7.5}$ -->
      <g transform="translate(146.643846 414.206905) scale(0.1 -0.1)">
       <defs>
        <path id="CMR17-37" d="M 2886 3941 
L 2886 4081 
L 1382 4081 
C 634 4081 621 4165 595 4288 
L 480 4288 
L 294 3094 
L 410 3094 
C 429 3215 474 3540 550 3661 
C 589 3712 1062 3712 1171 3712 
L 2579 3712 
L 1869 2661 
C 1395 1954 1069 999 1069 165 
C 1069 89 1069 -128 1299 -128 
C 1530 -128 1530 89 1530 171 
L 1530 465 
C 1530 1508 1709 2196 2003 2636 
L 2886 3941 
z
" transform="scale(0.015625)"/>
       </defs>
       <use xlink:href="#CMR17-37" transform="scale(0.996264)"/>
       <use xlink:href="#CMMI12-3a" transform="translate(45.690477 0) scale(0.996264)"/>
       <use xlink:href="#CMR17-35" transform="translate(72.787654 0) scale(0.996264)"/>
      </g>
     </g>
    </g>
    <g id="xtick_26">
     <g id="line2d_101">
      <g>
       <use xlink:href="#m45448d6b46" x="189.673017" y="400.288407" style="stroke: #000000; stroke-width: 0.8"/>
      </g>
     </g>
     <g id="text_23">
      <!-- $\mathdefault{10.0}$ -->
      <g transform="translate(180.81731 414.206905) scale(0.1 -0.1)">
       <use xlink:href="#CMR17-31" transform="scale(0.996264)"/>
       <use xlink:href="#CMR17-30" transform="translate(45.690477 0) scale(0.996264)"/>
       <use xlink:href="#CMMI12-3a" transform="translate(91.380954 0) scale(0.996264)"/>
       <use xlink:href="#CMR17-30" transform="translate(118.478131 0) scale(0.996264)"/>
      </g>
     </g>
    </g>
    <g id="xtick_27">
     <g id="line2d_102">
      <g>
       <use xlink:href="#m45448d6b46" x="226.337149" y="400.288407" style="stroke: #000000; stroke-width: 0.8"/>
      </g>
     </g>
     <g id="text_24">
      <!-- $\mathdefault{12.5}$ -->
      <g transform="translate(217.481442 414.206905) scale(0.1 -0.1)">
       <use xlink:href="#CMR17-31" transform="scale(0.996264)"/>
       <use xlink:href="#CMR17-32" transform="translate(45.690477 0) scale(0.996264)"/>
       <use xlink:href="#CMMI12-3a" transform="translate(91.380954 0) scale(0.996264)"/>
       <use xlink:href="#CMR17-35" transform="translate(118.478131 0) scale(0.996264)"/>
      </g>
     </g>
    </g>
    <g id="xtick_28">
     <g id="line2d_103">
      <g>
       <use xlink:href="#m45448d6b46" x="263.001281" y="400.288407" style="stroke: #000000; stroke-width: 0.8"/>
      </g>
     </g>
     <g id="text_25">
      <!-- $\mathdefault{15.0}$ -->
      <g transform="translate(254.145574 414.206905) scale(0.1 -0.1)">
       <use xlink:href="#CMR17-31" transform="scale(0.996264)"/>
       <use xlink:href="#CMR17-35" transform="translate(45.690477 0) scale(0.996264)"/>
       <use xlink:href="#CMMI12-3a" transform="translate(91.380954 0) scale(0.996264)"/>
       <use xlink:href="#CMR17-30" transform="translate(118.478131 0) scale(0.996264)"/>
      </g>
     </g>
    </g>
    <g id="text_26">
     <!-- Number of posterior evaluations -->
     <g transform="translate(97.23064 427.062582) scale(0.1 -0.1)">
      <defs>
       <path id="CMSS17-4e" d="M 1466 4180 
L 1350 4416 
L 563 4416 
L 563 0 
L 1062 0 
L 1062 3926 
L 1069 3932 
C 1114 3817 1139 3760 1402 3194 
L 2771 236 
L 2886 0 
L 3674 0 
L 3674 4416 
L 3174 4416 
L 3174 490 
L 3168 483 
C 3123 598 3098 655 2835 1221 
L 1466 4180 
z
" transform="scale(0.015625)"/>
       <path id="CMSS17-6d" d="M 4288 1877 
C 4288 2308 4179 2816 3462 2816 
C 2982 2816 2694 2516 2566 2331 
C 2451 2670 2182 2816 1798 2816 
C 1363 2816 1088 2568 941 2389 
L 941 2758 
L 474 2758 
L 474 0 
L 960 0 
L 960 1559 
C 960 1939 1101 2428 1555 2428 
C 2138 2428 2138 2016 2138 1829 
L 2138 0 
L 2624 0 
L 2624 1559 
C 2624 1939 2765 2428 3219 2428 
C 3802 2428 3802 2016 3802 1829 
L 3802 0 
L 4288 0 
L 4288 1877 
z
" transform="scale(0.015625)"/>
       <path id="CMSS17-62" d="M 954 4416 
L 480 4416 
L 480 -13 
L 966 -13 
L 966 274 
C 1210 38 1504 -64 1766 -64 
C 2381 -64 2880 549 2880 1352 
C 2880 2086 2496 2756 1926 2756 
C 1523 2756 1165 2591 954 2419 
L 954 4416 
z
M 966 2046 
C 1107 2222 1306 2368 1587 2368 
C 1965 2368 2394 2097 2394 1352 
C 2394 558 1882 325 1530 325 
C 1402 325 1267 356 1139 464 
C 966 615 966 709 966 797 
L 966 2046 
z
" transform="scale(0.015625)"/>
       <path id="CMSS17-66" d="M 1075 2368 
L 1722 2368 
L 1722 2737 
L 1062 2737 
L 1062 3559 
C 1062 4014 1408 4092 1606 4092 
C 1670 4092 1850 4092 2080 4009 
L 2080 4429 
C 1933 4461 1754 4480 1613 4480 
C 1018 4480 602 3993 602 3359 
L 602 2737 
L 160 2737 
L 160 2368 
L 602 2368 
L 602 0 
L 1075 0 
L 1075 2368 
z
" transform="scale(0.015625)"/>
      </defs>
      <use xlink:href="#CMSS17-4e" transform="scale(0.996264)"/>
      <use xlink:href="#CMSS17-75" transform="translate(66.061519 0) scale(0.996264)"/>
      <use xlink:href="#CMSS17-6d" transform="translate(114.266462 0) scale(0.996264)"/>
      <use xlink:href="#CMSS17-62" transform="translate(188.495717 0) scale(0.996264)"/>
      <use xlink:href="#CMSS17-65" transform="translate(239.303099 0) scale(0.996264)"/>
      <use xlink:href="#CMSS17-72" transform="translate(280.941921 0) scale(0.996264)"/>
      <use xlink:href="#CMSS17-6f" transform="translate(344.080806 0) scale(0.996264)"/>
      <use xlink:href="#CMSS17-66" transform="translate(390.92443 0) scale(0.996264)"/>
      <use xlink:href="#CMSS17-70" transform="translate(450.780201 0) scale(0.996264)"/>
      <use xlink:href="#CMSS17-6f" transform="translate(501.587583 0) scale(0.996264)"/>
      <use xlink:href="#CMSS17-73" transform="translate(548.431206 0) scale(0.996264)"/>
      <use xlink:href="#CMSS17-74" transform="translate(584.344748 0) scale(0.996264)"/>
      <use xlink:href="#CMSS17-65" transform="translate(618.176315 0) scale(0.996264)"/>
      <use xlink:href="#CMSS17-72" transform="translate(659.815137 0) scale(0.996264)"/>
      <use xlink:href="#CMSS17-69" transform="translate(691.72491 0) scale(0.996264)"/>
      <use xlink:href="#CMSS17-6f" transform="translate(713.905633 0) scale(0.996264)"/>
      <use xlink:href="#CMSS17-72" transform="translate(758.146802 0) scale(0.996264)"/>
      <use xlink:href="#CMSS17-65" transform="translate(821.285688 0) scale(0.996264)"/>
      <use xlink:href="#CMSS17-76" transform="translate(862.92451 0) scale(0.996264)"/>
      <use xlink:href="#CMSS17-61" transform="translate(905.924651 0) scale(0.996264)"/>
      <use xlink:href="#CMSS17-6c" transform="translate(950.846572 0) scale(0.996264)"/>
      <use xlink:href="#CMSS17-75" transform="translate(973.027295 0) scale(0.996264)"/>
      <use xlink:href="#CMSS17-61" transform="translate(1021.232238 0) scale(0.996264)"/>
      <use xlink:href="#CMSS17-74" transform="translate(1066.154159 0) scale(0.996264)"/>
      <use xlink:href="#CMSS17-69" transform="translate(1099.985726 0) scale(0.996264)"/>
      <use xlink:href="#CMSS17-6f" transform="translate(1122.166449 0) scale(0.996264)"/>
      <use xlink:href="#CMSS17-6e" transform="translate(1169.010072 0) scale(0.996264)"/>
      <use xlink:href="#CMSS17-73" transform="translate(1217.215015 0) scale(0.996264)"/>
     </g>
    </g>
   </g>
   <g id="matplotlib.axis_8">
    <g id="ytick_36">
     <g id="line2d_104">
      <path d="M 43.01649 379.133454 
L 284.99976 379.133454 
" clip-path="url(#p4f665932f0)" style="fill: none; stroke: #b0b0b0; stroke-width: 0.8; stroke-linecap: square"/>
     </g>
     <g id="line2d_105">
      <g>
       <use xlink:href="#m385dde560e" x="43.01649" y="379.133454" style="stroke: #000000; stroke-width: 0.8"/>
      </g>
     </g>
     <g id="text_27">
      <!-- $\mathdefault{−5}$ -->
      <g transform="translate(23.286411 382.592704) scale(0.1 -0.1)">
       <use xlink:href="#CMSY10-0" transform="scale(0.996264)"/>
       <use xlink:href="#CMR17-35" transform="translate(77.487468 0) scale(0.996264)"/>
      </g>
     </g>
    </g>
    <g id="ytick_37">
     <g id="line2d_106">
      <path d="M 43.01649 346.032178 
L 284.99976 346.032178 
" clip-path="url(#p4f665932f0)" style="fill: none; stroke: #b0b0b0; stroke-width: 0.8; stroke-linecap: square"/>
     </g>
     <g id="line2d_107">
      <g>
       <use xlink:href="#m385dde560e" x="43.01649" y="346.032178" style="stroke: #000000; stroke-width: 0.8"/>
      </g>
     </g>
     <g id="text_28">
      <!-- $\mathdefault{0}$ -->
      <g transform="translate(31.035155 349.491428) scale(0.1 -0.1)">
       <use xlink:href="#CMR17-30" transform="scale(0.996264)"/>
      </g>
     </g>
    </g>
    <g id="ytick_38">
     <g id="line2d_108">
      <path d="M 43.01649 312.930902 
L 284.99976 312.930902 
" clip-path="url(#p4f665932f0)" style="fill: none; stroke: #b0b0b0; stroke-width: 0.8; stroke-linecap: square"/>
     </g>
     <g id="line2d_109">
      <g>
       <use xlink:href="#m385dde560e" x="43.01649" y="312.930902" style="stroke: #000000; stroke-width: 0.8"/>
      </g>
     </g>
     <g id="text_29">
      <!-- $\mathdefault{5}$ -->
      <g transform="translate(31.035155 316.390152) scale(0.1 -0.1)">
       <use xlink:href="#CMR17-35" transform="scale(0.996264)"/>
      </g>
     </g>
    </g>
    <g id="text_30">
     <!-- $x_{2}$ -->
     <g transform="translate(17.349233 359.022644) rotate(-90) scale(0.1 -0.1)">
      <use xlink:href="#CMMI12-78" transform="scale(0.996264)"/>
      <use xlink:href="#CMR17-32" transform="translate(55.43406 -14.943915) scale(0.697382)"/>
     </g>
    </g>
   </g>
   <g id="line2d_110">
    <path d="M 43.01649 332.857337 
L 284.99976 332.857337 
" clip-path="url(#p4f665932f0)" style="fill: none; stroke-dasharray: 5.55,2.4; stroke-dashoffset: 0; stroke: #1f77b4; stroke-opacity: 0.3; stroke-width: 1.5"/>
   </g>
   <g id="patch_30">
    <path d="M 43.01649 400.288407 
L 43.01649 308.091725 
" style="fill: none; stroke: #000000; stroke-width: 0.8; stroke-linejoin: miter; stroke-linecap: square"/>
   </g>
   <g id="patch_31">
    <path d="M 284.99976 400.288407 
L 284.99976 308.091725 
" style="fill: none; stroke: #000000; stroke-width: 0.8; stroke-linejoin: miter; stroke-linecap: square"/>
   </g>
   <g id="patch_32">
    <path d="M 43.01649 400.288407 
L 284.99976 400.288407 
" style="fill: none; stroke: #000000; stroke-width: 0.8; stroke-linejoin: miter; stroke-linecap: square"/>
   </g>
   <g id="patch_33">
    <path d="M 43.01649 308.091725 
L 284.99976 308.091725 
" style="fill: none; stroke: #000000; stroke-width: 0.8; stroke-linejoin: miter; stroke-linecap: square"/>
   </g>
   <g id="text_31">
    <g id="patch_34">
     <path d="M 200.971297 397.001158 
L 280.520346 397.001158 
L 280.520346 381.448451 
L 200.971297 381.448451 
z
" style="fill: #ffffff; opacity: 0.5; stroke: #000000; stroke-linejoin: miter"/>
    </g>
    <!-- Length scale: $1.8\cdot 10^{2}$ -->
    <g transform="translate(204.961297 391.655144) scale(0.07 -0.07)">
     <defs>
      <path id="CMR17-38" d="M 1741 2264 
C 2144 2467 2554 2773 2554 3263 
C 2554 3841 1990 4179 1472 4179 
C 890 4179 378 3759 378 3180 
C 378 3021 416 2747 666 2505 
C 730 2442 998 2251 1171 2130 
C 883 1983 211 1634 211 934 
C 211 279 838 -128 1459 -128 
C 2144 -128 2720 362 2720 1010 
C 2720 1590 2330 1857 2074 2029 
L 1741 2264 
z
M 902 2822 
C 851 2854 595 3051 595 3351 
C 595 3739 998 4032 1459 4032 
C 1965 4032 2336 3676 2336 3262 
C 2336 2669 1670 2331 1638 2331 
C 1632 2331 1626 2331 1574 2370 
L 902 2822 
z
M 2080 1519 
C 2176 1449 2483 1240 2483 851 
C 2483 381 2010 25 1472 25 
C 890 25 448 438 448 940 
C 448 1443 838 1862 1280 2060 
L 2080 1519 
z
" transform="scale(0.015625)"/>
     </defs>
     <use xlink:href="#CMSS17-4c" transform="scale(0.996264)"/>
     <use xlink:href="#CMSS17-65" transform="translate(50.687105 0) scale(0.996264)"/>
     <use xlink:href="#CMSS17-6e" transform="translate(92.325927 0) scale(0.996264)"/>
     <use xlink:href="#CMSS17-67" transform="translate(140.530871 0) scale(0.996264)"/>
     <use xlink:href="#CMSS17-74" transform="translate(187.374494 0) scale(0.996264)"/>
     <use xlink:href="#CMSS17-68" transform="translate(221.206061 0) scale(0.996264)"/>
     <use xlink:href="#CMSS17-73" transform="translate(300.640117 0) scale(0.996264)"/>
     <use xlink:href="#CMSS17-63" transform="translate(336.553659 0) scale(0.996264)"/>
     <use xlink:href="#CMSS17-61" transform="translate(378.192481 0) scale(0.996264)"/>
     <use xlink:href="#CMSS17-6c" transform="translate(423.114401 0) scale(0.996264)"/>
     <use xlink:href="#CMSS17-65" transform="translate(445.295124 0) scale(0.996264)"/>
     <use xlink:href="#CMSS17-3a" transform="translate(486.933946 0) scale(0.996264)"/>
     <use xlink:href="#CMR17-31" transform="translate(554.596958 0) scale(0.996264)"/>
     <use xlink:href="#CMMI12-3a" transform="translate(600.287435 0) scale(0.996264)"/>
     <use xlink:href="#CMR17-38" transform="translate(627.384612 0) scale(0.996264)"/>
     <use xlink:href="#CMSY10-1" transform="translate(695.214296 0) scale(0.996264)"/>
     <use xlink:href="#CMR17-31" transform="translate(745.027588 0) scale(0.996264)"/>
     <use xlink:href="#CMR17-30" transform="translate(790.718065 0) scale(0.996264)"/>
     <use xlink:href="#CMR17-32" transform="translate(836.408542 36.153639) scale(0.697382)"/>
    </g>
   </g>
  </g>
 </g>
 <defs>
  <clipPath id="p0f04f4ec98">
   <rect x="43.01649" y="3.00024" width="241.98327" height="92.196682"/>
  </clipPath>
  <clipPath id="pa61175df60">
   <rect x="43.01649" y="104.697402" width="241.98327" height="92.196682"/>
  </clipPath>
  <clipPath id="p010079f9e0">
   <rect x="43.01649" y="206.394563" width="241.98327" height="92.196682"/>
  </clipPath>
  <clipPath id="p4f665932f0">
   <rect x="43.01649" y="308.091725" width="241.98327" height="92.196682"/>
  </clipPath>
 </defs>
</svg>
