<?xml version="1.0" encoding="utf-8" standalone="no"?>
<!DOCTYPE svg PUBLIC "-//W3C//DTD SVG 1.1//EN"
  "http://www.w3.org/Graphics/SVG/1.1/DTD/svg11.dtd">
<svg xmlns:xlink="http://www.w3.org/1999/xlink" width="460.8pt" height="345.6pt" viewBox="0 0 460.8 345.6" xmlns="http://www.w3.org/2000/svg" version="1.1">
 <metadata>
  <rdf:RDF xmlns:dc="http://purl.org/dc/elements/1.1/" xmlns:cc="http://creativecommons.org/ns#" xmlns:rdf="http://www.w3.org/1999/02/22-rdf-syntax-ns#">
   <cc:Work>
    <dc:type rdf:resource="http://purl.org/dc/dcmitype/StillImage"/>
    <dc:date>2024-03-25T18:17:24.341997</dc:date>
    <dc:format>image/svg+xml</dc:format>
    <dc:creator>
     <cc:Agent>
      <dc:title>Matplotlib v3.7.1, https://matplotlib.org/</dc:title>
     </cc:Agent>
    </dc:creator>
   </cc:Work>
  </rdf:RDF>
 </metadata>
 <defs>
  <style type="text/css">*{stroke-linejoin: round; stroke-linecap: butt}</style>
 </defs>
 <g id="figure_1">
  <g id="patch_1">
   <path d="M 0 345.6 
L 460.8 345.6 
L 460.8 0 
L 0 0 
z
" style="fill: #ffffff"/>
  </g>
  <g id="axes_1">
   <g id="patch_2">
    <path d="M 57.6 307.584 
L 414.72 307.584 
L 414.72 41.472 
L 57.6 41.472 
z
" style="fill: #ffffff"/>
   </g>
   <g id="patch_3">
    <path d="M 73.832727 307.584 
L 94.123636 307.584 
L 94.123636 307.584 
L 73.832727 307.584 
z
" clip-path="url(#p577acd30f9)" style="fill: #1f77b4"/>
   </g>
   <g id="patch_4">
    <path d="M 99.196364 307.584 
L 119.487273 307.584 
L 119.487273 218.292953 
L 99.196364 218.292953 
z
" clip-path="url(#p577acd30f9)" style="fill: #1f77b4"/>
   </g>
   <g id="patch_5">
    <path d="M 124.56 307.584 
L 144.850909 307.584 
L 144.850909 231.533657 
L 124.56 231.533657 
z
" clip-path="url(#p577acd30f9)" style="fill: #1f77b4"/>
   </g>
   <g id="patch_6">
    <path d="M 149.923636 307.584 
L 170.214545 307.584 
L 170.214545 233.295436 
L 149.923636 233.295436 
z
" clip-path="url(#p577acd30f9)" style="fill: #1f77b4"/>
   </g>
   <g id="patch_7">
    <path d="M 175.287273 307.584 
L 195.578182 307.584 
L 195.578182 237.366161 
L 175.287273 237.366161 
z
" clip-path="url(#p577acd30f9)" style="fill: #1f77b4"/>
   </g>
   <g id="patch_8">
    <path d="M 200.650909 307.584 
L 220.941818 307.584 
L 220.941818 227.367238 
L 200.650909 227.367238 
z
" clip-path="url(#p577acd30f9)" style="fill: #1f77b4"/>
   </g>
   <g id="patch_9">
    <path d="M 226.014545 307.584 
L 246.305455 307.584 
L 246.305455 211.052761 
L 226.014545 211.052761 
z
" clip-path="url(#p577acd30f9)" style="fill: #1f77b4"/>
   </g>
   <g id="patch_10">
    <path d="M 251.378182 307.584 
L 271.669091 307.584 
L 271.669091 229.738131 
L 251.378182 229.738131 
z
" clip-path="url(#p577acd30f9)" style="fill: #1f77b4"/>
   </g>
   <g id="patch_11">
    <path d="M 276.741818 307.584 
L 297.032727 307.584 
L 297.032727 219.790068 
L 276.741818 219.790068 
z
" clip-path="url(#p577acd30f9)" style="fill: #1f77b4"/>
   </g>
   <g id="patch_12">
    <path d="M 302.105455 307.584 
L 322.396364 307.584 
L 322.396364 215.26088 
L 302.105455 215.26088 
z
" clip-path="url(#p577acd30f9)" style="fill: #1f77b4"/>
   </g>
   <g id="patch_13">
    <path d="M 327.469091 307.584 
L 347.76 307.584 
L 347.76 200.008195 
L 327.469091 200.008195 
z
" clip-path="url(#p577acd30f9)" style="fill: #1f77b4"/>
   </g>
   <g id="patch_14">
    <path d="M 352.832727 307.584 
L 373.123636 307.584 
L 373.123636 188.055863 
L 352.832727 188.055863 
z
" clip-path="url(#p577acd30f9)" style="fill: #1f77b4"/>
   </g>
   <g id="patch_15">
    <path d="M 378.196364 307.584 
L 398.487273 307.584 
L 398.487273 186.930677 
L 378.196364 186.930677 
z
" clip-path="url(#p577acd30f9)" style="fill: #1f77b4"/>
   </g>
   <g id="patch_16">
    <path d="M 73.832727 307.584 
L 94.123636 307.584 
L 94.123636 300.83457 
L 73.832727 300.83457 
z
" clip-path="url(#p577acd30f9)" style="fill: #ff7f0e"/>
   </g>
   <g id="patch_17">
    <path d="M 99.196364 218.292953 
L 119.487273 218.292953 
L 119.487273 217.971402 
L 99.196364 217.971402 
z
" clip-path="url(#p577acd30f9)" style="fill: #ff7f0e"/>
   </g>
   <g id="patch_18">
    <path d="M 124.56 231.533657 
L 144.850909 231.533657 
L 144.850909 231.309005 
L 124.56 231.309005 
z
" clip-path="url(#p577acd30f9)" style="fill: #ff7f0e"/>
   </g>
   <g id="patch_19">
    <path d="M 149.923636 233.295436 
L 170.214545 233.295436 
L 170.214545 233.063312 
L 149.923636 233.063312 
z
" clip-path="url(#p577acd30f9)" style="fill: #ff7f0e"/>
   </g>
   <g id="patch_20">
    <path d="M 175.287273 237.366161 
L 195.578182 237.366161 
L 195.578182 237.143438 
L 175.287273 237.143438 
z
" clip-path="url(#p577acd30f9)" style="fill: #ff7f0e"/>
   </g>
   <g id="patch_21">
    <path d="M 200.650909 227.367238 
L 220.941818 227.367238 
L 220.941818 227.149576 
L 200.650909 227.149576 
z
" clip-path="url(#p577acd30f9)" style="fill: #ff7f0e"/>
   </g>
   <g id="patch_22">
    <path d="M 226.014545 211.052761 
L 246.305455 211.052761 
L 246.305455 210.823288 
L 226.014545 210.823288 
z
" clip-path="url(#p577acd30f9)" style="fill: #ff7f0e"/>
   </g>
   <g id="patch_23">
    <path d="M 251.378182 229.738131 
L 271.669091 229.738131 
L 271.669091 229.506249 
L 251.378182 229.506249 
z
" clip-path="url(#p577acd30f9)" style="fill: #ff7f0e"/>
   </g>
   <g id="patch_24">
    <path d="M 276.741818 219.790068 
L 297.032727 219.790068 
L 297.032727 219.556257 
L 276.741818 219.556257 
z
" clip-path="url(#p577acd30f9)" style="fill: #ff7f0e"/>
   </g>
   <g id="patch_25">
    <path d="M 302.105455 215.26088 
L 322.396364 215.26088 
L 322.396364 215.032854 
L 302.105455 215.032854 
z
" clip-path="url(#p577acd30f9)" style="fill: #ff7f0e"/>
   </g>
   <g id="patch_26">
    <path d="M 327.469091 200.008195 
L 347.76 200.008195 
L 347.76 199.744495 
L 327.469091 199.744495 
z
" clip-path="url(#p577acd30f9)" style="fill: #ff7f0e"/>
   </g>
   <g id="patch_27">
    <path d="M 352.832727 188.055863 
L 373.123636 188.055863 
L 373.123636 187.810723 
L 352.832727 187.810723 
z
" clip-path="url(#p577acd30f9)" style="fill: #ff7f0e"/>
   </g>
   <g id="patch_28">
    <path d="M 378.196364 186.930677 
L 398.487273 186.930677 
L 398.487273 186.693974 
L 378.196364 186.693974 
z
" clip-path="url(#p577acd30f9)" style="fill: #ff7f0e"/>
   </g>
   <g id="patch_29">
    <path d="M 73.832727 300.83457 
L 94.123636 300.83457 
L 94.123636 252.24981 
L 73.832727 252.24981 
z
" clip-path="url(#p577acd30f9)" style="fill: #2ca02c"/>
   </g>
   <g id="patch_30">
    <path d="M 99.196364 217.971402 
L 119.487273 217.971402 
L 119.487273 143.595099 
L 99.196364 143.595099 
z
" clip-path="url(#p577acd30f9)" style="fill: #2ca02c"/>
   </g>
   <g id="patch_31">
    <path d="M 124.56 231.309005 
L 144.850909 231.309005 
L 144.850909 222.19061 
L 124.56 222.19061 
z
" clip-path="url(#p577acd30f9)" style="fill: #2ca02c"/>
   </g>
   <g id="patch_32">
    <path d="M 149.923636 233.063312 
L 170.214545 233.063312 
L 170.214545 162.585871 
L 149.923636 162.585871 
z
" clip-path="url(#p577acd30f9)" style="fill: #2ca02c"/>
   </g>
   <g id="patch_33">
    <path d="M 175.287273 237.143438 
L 195.578182 237.143438 
L 195.578182 234.478472 
L 175.287273 234.478472 
z
" clip-path="url(#p577acd30f9)" style="fill: #2ca02c"/>
   </g>
   <g id="patch_34">
    <path d="M 200.650909 227.149576 
L 220.941818 227.149576 
L 220.941818 134.75101 
L 200.650909 134.75101 
z
" clip-path="url(#p577acd30f9)" style="fill: #2ca02c"/>
   </g>
   <g id="patch_35">
    <path d="M 226.014545 210.823288 
L 246.305455 210.823288 
L 246.305455 201.71815 
L 226.014545 201.71815 
z
" clip-path="url(#p577acd30f9)" style="fill: #2ca02c"/>
   </g>
   <g id="patch_36">
    <path d="M 251.378182 229.506249 
L 271.669091 229.506249 
L 271.669091 110.842731 
L 251.378182 110.842731 
z
" clip-path="url(#p577acd30f9)" style="fill: #2ca02c"/>
   </g>
   <g id="patch_37">
    <path d="M 276.741818 219.556257 
L 297.032727 219.556257 
L 297.032727 206.906348 
L 276.741818 206.906348 
z
" clip-path="url(#p577acd30f9)" style="fill: #2ca02c"/>
   </g>
   <g id="patch_38">
    <path d="M 302.105455 215.032854 
L 322.396364 215.032854 
L 322.396364 91.330585 
L 302.105455 91.330585 
z
" clip-path="url(#p577acd30f9)" style="fill: #2ca02c"/>
   </g>
   <g id="patch_39">
    <path d="M 327.469091 199.744495 
L 347.76 199.744495 
L 347.76 169.229001 
L 327.469091 169.229001 
z
" clip-path="url(#p577acd30f9)" style="fill: #2ca02c"/>
   </g>
   <g id="patch_40">
    <path d="M 352.832727 187.810723 
L 373.123636 187.810723 
L 373.123636 54.300678 
L 352.832727 54.300678 
z
" clip-path="url(#p577acd30f9)" style="fill: #2ca02c"/>
   </g>
   <g id="patch_41">
    <path d="M 378.196364 186.693974 
L 398.487273 186.693974 
L 398.487273 180.067475 
L 378.196364 180.067475 
z
" clip-path="url(#p577acd30f9)" style="fill: #2ca02c"/>
   </g>
   <g id="patch_42">
    <path d="M 73.832727 252.24981 
L 94.123636 252.24981 
L 94.123636 252.24981 
L 73.832727 252.24981 
z
" clip-path="url(#p577acd30f9)" style="fill: #d62728"/>
   </g>
   <g id="patch_43">
    <path d="M 99.196364 143.595099 
L 119.487273 143.595099 
L 119.487273 143.455053 
L 99.196364 143.455053 
z
" clip-path="url(#p577acd30f9)" style="fill: #d62728"/>
   </g>
   <g id="patch_44">
    <path d="M 124.56 222.19061 
L 144.850909 222.19061 
L 144.850909 222.048636 
L 124.56 222.048636 
z
" clip-path="url(#p577acd30f9)" style="fill: #d62728"/>
   </g>
   <g id="patch_45">
    <path d="M 149.923636 162.585871 
L 170.214545 162.585871 
L 170.214545 162.394483 
L 149.923636 162.394483 
z
" clip-path="url(#p577acd30f9)" style="fill: #d62728"/>
   </g>
   <g id="patch_46">
    <path d="M 175.287273 234.478472 
L 195.578182 234.478472 
L 195.578182 234.33457 
L 175.287273 234.33457 
z
" clip-path="url(#p577acd30f9)" style="fill: #d62728"/>
   </g>
   <g id="patch_47">
    <path d="M 200.650909 134.75101 
L 220.941818 134.75101 
L 220.941818 134.607831 
L 200.650909 134.607831 
z
" clip-path="url(#p577acd30f9)" style="fill: #d62728"/>
   </g>
   <g id="patch_48">
    <path d="M 226.014545 201.71815 
L 246.305455 201.71815 
L 246.305455 201.566293 
L 226.014545 201.566293 
z
" clip-path="url(#p577acd30f9)" style="fill: #d62728"/>
   </g>
   <g id="patch_49">
    <path d="M 251.378182 110.842731 
L 271.669091 110.842731 
L 271.669091 110.693526 
L 251.378182 110.693526 
z
" clip-path="url(#p577acd30f9)" style="fill: #d62728"/>
   </g>
   <g id="patch_50">
    <path d="M 276.741818 206.906348 
L 297.032727 206.906348 
L 297.032727 206.742439 
L 276.741818 206.742439 
z
" clip-path="url(#p577acd30f9)" style="fill: #d62728"/>
   </g>
   <g id="patch_51">
    <path d="M 302.105455 91.330585 
L 322.396364 91.330585 
L 322.396364 91.154383 
L 302.105455 91.154383 
z
" clip-path="url(#p577acd30f9)" style="fill: #d62728"/>
   </g>
   <g id="patch_52">
    <path d="M 327.469091 169.229001 
L 347.76 169.229001 
L 347.76 169.038336 
L 327.469091 169.038336 
z
" clip-path="url(#p577acd30f9)" style="fill: #d62728"/>
   </g>
   <g id="patch_53">
    <path d="M 352.832727 54.300678 
L 373.123636 54.300678 
L 373.123636 54.144 
L 352.832727 54.144 
z
" clip-path="url(#p577acd30f9)" style="fill: #d62728"/>
   </g>
   <g id="patch_54">
    <path d="M 378.196364 180.067475 
L 398.487273 180.067475 
L 398.487273 179.925983 
L 378.196364 179.925983 
z
" clip-path="url(#p577acd30f9)" style="fill: #d62728"/>
   </g>
   <g id="matplotlib.axis_1">
    <g id="xtick_1">
     <g id="line2d_1">
      <defs>
       <path id="m552e7f5e88" d="M 0 0 
L 0 3.5 
" style="stroke: #000000; stroke-width: 0.8"/>
      </defs>
      <g>
       <use xlink:href="#m552e7f5e88" x="83.978182" y="307.584" style="stroke: #000000; stroke-width: 0.8"/>
      </g>
     </g>
     <g id="text_1">
      <!-- 0 -->
      <g transform="translate(81.487514 321.502498) scale(0.1 -0.1)">
       <defs>
        <path id="CMSS17-30" d="M 2758 2044 
C 2758 2405 2752 3077 2490 3596 
C 2227 4096 1805 4229 1504 4229 
C 1069 4229 698 3975 506 3570 
C 301 3146 243 2709 243 2044 
C 243 1589 262 1031 493 543 
C 755 5 1197 -128 1498 -128 
C 1894 -128 2278 81 2496 518 
C 2720 974 2758 1474 2758 2044 
z
M 1498 261 
C 1011 261 864 811 819 995 
C 742 1310 730 1614 730 2114 
C 730 2506 730 2948 851 3297 
C 998 3701 1254 3840 1498 3840 
C 1971 3840 2125 3372 2176 3208 
C 2272 2873 2272 2481 2272 2114 
C 2272 1526 2272 261 1498 261 
z
" transform="scale(0.015625)"/>
       </defs>
       <use xlink:href="#CMSS17-30" transform="scale(0.996264)"/>
      </g>
     </g>
    </g>
    <g id="xtick_2">
     <g id="line2d_2">
      <g>
       <use xlink:href="#m552e7f5e88" x="109.341818" y="307.584" style="stroke: #000000; stroke-width: 0.8"/>
      </g>
     </g>
     <g id="text_2">
      <!-- 1 -->
      <g transform="translate(106.851151 321.502498) scale(0.1 -0.1)">
       <defs>
        <path id="CMSS17-31" d="M 1818 4288 
L 1696 4288 
C 1350 3940 947 3890 538 3890 
L 538 3520 
C 723 3520 1024 3520 1325 3667 
L 1325 369 
L 570 369 
L 570 0 
L 2573 0 
L 2573 369 
L 1818 369 
L 1818 4288 
z
" transform="scale(0.015625)"/>
       </defs>
       <use xlink:href="#CMSS17-31" transform="scale(0.996264)"/>
      </g>
     </g>
    </g>
    <g id="xtick_3">
     <g id="line2d_3">
      <g>
       <use xlink:href="#m552e7f5e88" x="134.705455" y="307.584" style="stroke: #000000; stroke-width: 0.8"/>
      </g>
     </g>
     <g id="text_3">
      <!-- 2 -->
      <g transform="translate(132.214787 321.502498) scale(0.1 -0.1)">
       <defs>
        <path id="CMSS17-32" d="M 1651 1357 
C 1830 1541 2099 1764 2285 1987 
C 2464 2204 2701 2511 2701 2957 
C 2701 3657 2227 4288 1421 4288 
C 787 4288 422 3893 250 3274 
L 499 2929 
C 640 3510 838 3880 1338 3880 
C 1888 3880 2195 3433 2195 2942 
C 2195 2355 1747 1901 1408 1563 
C 1030 1187 659 804 301 408 
L 301 0 
L 2701 0 
L 2701 433 
L 1613 433 
C 1536 433 1459 433 1382 433 
L 742 433 
L 742 439 
L 1651 1357 
z
" transform="scale(0.015625)"/>
       </defs>
       <use xlink:href="#CMSS17-32" transform="scale(0.996264)"/>
      </g>
     </g>
    </g>
    <g id="xtick_4">
     <g id="line2d_4">
      <g>
       <use xlink:href="#m552e7f5e88" x="160.069091" y="307.584" style="stroke: #000000; stroke-width: 0.8"/>
      </g>
     </g>
     <g id="text_4">
      <!-- 3 -->
      <g transform="translate(157.578423 321.502498) scale(0.1 -0.1)">
       <defs>
        <path id="CMSS17-33" d="M 1005 2025 
L 1440 2025 
C 2042 2025 2214 1507 2214 1146 
C 2214 653 1933 267 1472 267 
C 1114 267 608 444 320 912 
C 275 691 275 678 250 526 
C 550 88 1037 -128 1485 -128 
C 2214 -128 2752 473 2752 1138 
C 2752 1638 2400 2057 1920 2215 
C 2304 2424 2586 2816 2586 3273 
C 2586 3805 2093 4229 1491 4229 
C 941 4229 512 3892 333 3530 
C 378 3468 493 3284 550 3189 
C 691 3562 1056 3840 1485 3840 
C 1843 3840 2080 3607 2080 3271 
C 2080 2923 1856 2543 1478 2455 
C 1453 2455 1056 2417 1005 2411 
L 1005 2025 
z
" transform="scale(0.015625)"/>
       </defs>
       <use xlink:href="#CMSS17-33" transform="scale(0.996264)"/>
      </g>
     </g>
    </g>
    <g id="xtick_5">
     <g id="line2d_5">
      <g>
       <use xlink:href="#m552e7f5e88" x="185.432727" y="307.584" style="stroke: #000000; stroke-width: 0.8"/>
      </g>
     </g>
     <g id="text_5">
      <!-- 4 -->
      <g transform="translate(182.94206 321.502498) scale(0.1 -0.1)">
       <defs>
        <path id="CMSS17-34" d="M 2253 1088 
L 2835 1088 
L 2835 1477 
L 2253 1477 
L 2253 4192 
L 1690 4192 
L 166 1477 
L 166 1088 
L 1747 1088 
L 1747 0 
L 2253 0 
L 2253 1088 
z
M 659 1477 
C 1030 2127 1766 3439 1766 3885 
L 1766 1477 
L 659 1477 
z
" transform="scale(0.015625)"/>
       </defs>
       <use xlink:href="#CMSS17-34" transform="scale(0.996264)"/>
      </g>
     </g>
    </g>
    <g id="xtick_6">
     <g id="line2d_6">
      <g>
       <use xlink:href="#m552e7f5e88" x="210.796364" y="307.584" style="stroke: #000000; stroke-width: 0.8"/>
      </g>
     </g>
     <g id="text_6">
      <!-- 5 -->
      <g transform="translate(208.305696 321.502498) scale(0.1 -0.1)">
       <defs>
        <path id="CMSS17-35" d="M 934 3752 
L 2502 3752 
L 2502 4160 
L 467 4160 
L 467 1781 
L 896 1781 
C 1011 2046 1248 2240 1555 2240 
C 1843 2240 2163 1989 2163 1266 
C 2163 493 1709 267 1376 267 
C 966 267 589 512 422 851 
L 218 499 
C 512 49 992 -128 1376 -128 
C 2118 -128 2701 497 2701 1253 
C 2701 2030 2182 2629 1562 2629 
C 1338 2629 1120 2553 934 2399 
L 934 3752 
z
" transform="scale(0.015625)"/>
       </defs>
       <use xlink:href="#CMSS17-35" transform="scale(0.996264)"/>
      </g>
     </g>
    </g>
    <g id="xtick_7">
     <g id="line2d_7">
      <g>
       <use xlink:href="#m552e7f5e88" x="236.16" y="307.584" style="stroke: #000000; stroke-width: 0.8"/>
      </g>
     </g>
     <g id="text_7">
      <!-- 6 -->
      <g transform="translate(233.669332 321.502498) scale(0.1 -0.1)">
       <defs>
        <path id="CMSS17-36" d="M 2496 4101 
C 2227 4210 2035 4229 1856 4229 
C 1024 4229 250 3368 250 2006 
C 250 265 986 -128 1510 -128 
C 1798 -128 2086 -39 2362 280 
C 2643 617 2752 898 2752 1389 
C 2752 2179 2362 2880 1779 2880 
C 1357 2880 992 2657 768 2376 
C 832 3258 1254 3840 1862 3840 
C 2029 3840 2246 3816 2496 3710 
L 2496 4101 
z
M 774 1369 
C 774 1420 774 1452 781 1548 
C 781 2045 1069 2491 1536 2491 
C 1837 2491 1990 2332 2106 2135 
C 2240 1886 2246 1650 2246 1388 
C 2246 1140 2246 891 2099 637 
C 1978 439 1818 267 1510 267 
C 902 267 800 1114 774 1369 
z
" transform="scale(0.015625)"/>
       </defs>
       <use xlink:href="#CMSS17-36" transform="scale(0.996264)"/>
      </g>
     </g>
    </g>
    <g id="xtick_8">
     <g id="line2d_8">
      <g>
       <use xlink:href="#m552e7f5e88" x="261.523636" y="307.584" style="stroke: #000000; stroke-width: 0.8"/>
      </g>
     </g>
     <g id="text_8">
      <!-- 7 -->
      <g transform="translate(259.032969 321.502498) scale(0.1 -0.1)">
       <defs>
        <path id="CMSS17-37" d="M 1389 3776 
C 1466 3776 1542 3776 1619 3776 
L 2355 3776 
C 1440 2711 915 1365 915 -32 
L 1427 -32 
C 1427 1323 1875 2696 2752 3795 
L 2752 4209 
L 250 4209 
L 250 3776 
L 1389 3776 
z
" transform="scale(0.015625)"/>
       </defs>
       <use xlink:href="#CMSS17-37" transform="scale(0.996264)"/>
      </g>
     </g>
    </g>
    <g id="xtick_9">
     <g id="line2d_9">
      <g>
       <use xlink:href="#m552e7f5e88" x="286.887273" y="307.584" style="stroke: #000000; stroke-width: 0.8"/>
      </g>
     </g>
     <g id="text_9">
      <!-- 8 -->
      <g transform="translate(284.396605 321.502498) scale(0.1 -0.1)">
       <defs>
        <path id="CMSS17-38" d="M 1933 2222 
C 2419 2380 2669 2760 2669 3134 
C 2669 3722 2157 4229 1504 4229 
C 826 4229 333 3708 333 3144 
C 333 2780 576 2403 1069 2241 
C 442 1997 250 1512 250 1149 
C 250 446 819 -128 1498 -128 
C 2202 -128 2752 455 2752 1138 
C 2752 1557 2502 2000 1933 2222 
z
M 1504 2432 
C 1075 2432 787 2712 787 3136 
C 787 3566 1075 3840 1504 3840 
C 1901 3840 2214 3591 2214 3136 
C 2214 2687 1907 2432 1504 2432 
z
M 1504 267 
C 1139 267 749 517 749 1156 
C 749 1813 1184 2043 1498 2043 
C 1843 2043 2253 1800 2253 1156 
C 2253 491 1830 267 1504 267 
z
" transform="scale(0.015625)"/>
       </defs>
       <use xlink:href="#CMSS17-38" transform="scale(0.996264)"/>
      </g>
     </g>
    </g>
    <g id="xtick_10">
     <g id="line2d_10">
      <g>
       <use xlink:href="#m552e7f5e88" x="312.250909" y="307.584" style="stroke: #000000; stroke-width: 0.8"/>
      </g>
     </g>
     <g id="text_10">
      <!-- 9 -->
      <g transform="translate(309.760241 321.502498) scale(0.1 -0.1)">
       <defs>
        <path id="CMSS17-39" d="M 435 174 
C 614 21 845 -128 1235 -128 
C 2010 -128 2752 721 2752 2095 
C 2752 3932 1952 4229 1523 4229 
C 1094 4229 819 4041 582 3741 
C 301 3397 250 3090 250 2733 
C 250 2307 326 2045 506 1745 
C 749 1357 973 1275 1222 1275 
C 1600 1275 1978 1459 2234 1776 
C 2189 902 1798 267 1235 267 
C 1005 267 819 339 634 516 
L 435 174 
z
M 2214 2746 
C 2221 2703 2221 2622 2221 2596 
C 2221 2074 1914 1664 1466 1664 
C 1171 1664 1018 1813 902 2006 
C 762 2249 755 2485 755 2733 
C 755 2976 755 3244 934 3511 
C 1069 3703 1235 3840 1523 3840 
C 2112 3840 2208 3000 2214 2746 
z
" transform="scale(0.015625)"/>
       </defs>
       <use xlink:href="#CMSS17-39" transform="scale(0.996264)"/>
      </g>
     </g>
    </g>
    <g id="xtick_11">
     <g id="line2d_11">
      <g>
       <use xlink:href="#m552e7f5e88" x="337.614545" y="307.584" style="stroke: #000000; stroke-width: 0.8"/>
      </g>
     </g>
     <g id="text_11">
      <!-- 10 -->
      <g transform="translate(332.63321 321.502498) scale(0.1 -0.1)">
       <use xlink:href="#CMSS17-31" transform="scale(0.996264)"/>
       <use xlink:href="#CMSS17-30" transform="translate(46.843624 0) scale(0.996264)"/>
      </g>
     </g>
    </g>
    <g id="xtick_12">
     <g id="line2d_12">
      <g>
       <use xlink:href="#m552e7f5e88" x="362.978182" y="307.584" style="stroke: #000000; stroke-width: 0.8"/>
      </g>
     </g>
     <g id="text_12">
      <!-- 11 -->
      <g transform="translate(357.996847 321.502498) scale(0.1 -0.1)">
       <use xlink:href="#CMSS17-31" transform="scale(0.996264)"/>
       <use xlink:href="#CMSS17-31" transform="translate(46.843624 0) scale(0.996264)"/>
      </g>
     </g>
    </g>
    <g id="xtick_13">
     <g id="line2d_13">
      <g>
       <use xlink:href="#m552e7f5e88" x="388.341818" y="307.584" style="stroke: #000000; stroke-width: 0.8"/>
      </g>
     </g>
     <g id="text_13">
      <!-- 12 -->
      <g transform="translate(383.360483 321.502498) scale(0.1 -0.1)">
       <use xlink:href="#CMSS17-31" transform="scale(0.996264)"/>
       <use xlink:href="#CMSS17-32" transform="translate(46.843624 0) scale(0.996264)"/>
      </g>
     </g>
    </g>
    <g id="text_14">
     <!-- Iteration -->
     <g transform="translate(218.614642 334.358175) scale(0.1 -0.1)">
      <defs>
       <path id="CMSS17-49" d="M 1094 4416 
L 557 4416 
L 557 0 
L 1094 0 
L 1094 4416 
z
" transform="scale(0.015625)"/>
       <path id="CMSS17-74" d="M 1069 2368 
L 1901 2368 
L 1901 2737 
L 1069 2737 
L 1069 3520 
L 614 3520 
L 614 2737 
L 109 2737 
L 109 2368 
L 602 2368 
L 602 749 
C 602 384 685 -64 1107 -64 
C 1427 -64 1722 25 2003 172 
L 1901 548 
C 1747 414 1562 337 1363 337 
C 1082 337 1069 696 1069 856 
L 1069 2368 
z
" transform="scale(0.015625)"/>
       <path id="CMSS17-65" d="M 2502 1377 
C 2502 1590 2490 2003 2285 2345 
C 2061 2713 1696 2816 1421 2816 
C 755 2816 192 2188 192 1375 
C 192 582 774 -64 1510 -64 
C 1798 -64 2150 19 2470 248 
C 2470 274 2458 414 2451 420 
C 2451 433 2432 630 2432 656 
C 2125 407 1773 325 1517 325 
C 1107 325 666 667 646 1377 
L 2502 1377 
z
M 698 1728 
C 781 2084 1062 2421 1421 2421 
C 1517 2421 1965 2421 2080 1728 
L 698 1728 
z
" transform="scale(0.015625)"/>
       <path id="CMSS17-72" d="M 954 1363 
C 954 1965 1395 2368 1958 2368 
L 1958 2789 
C 1549 2789 1165 2585 934 2253 
L 934 2758 
L 480 2758 
L 480 0 
L 954 0 
L 954 1363 
z
" transform="scale(0.015625)"/>
       <path id="CMSS17-61" d="M 2406 1791 
C 2406 2392 1978 2808 1402 2808 
C 1120 2808 813 2757 461 2553 
L 499 2135 
C 659 2248 934 2432 1395 2432 
C 1722 2432 1920 2180 1920 1782 
L 1920 1536 
C 896 1536 256 1238 256 726 
C 256 461 416 -64 947 -64 
C 1043 -64 1562 -64 1933 217 
L 1933 -19 
L 2406 -19 
L 2406 1791 
z
M 1920 816 
C 1920 701 1920 548 1728 434 
C 1562 325 1350 325 1261 325 
C 941 325 723 511 723 744 
C 723 1211 1722 1211 1920 1211 
L 1920 816 
z
" transform="scale(0.015625)"/>
       <path id="CMSS17-69" d="M 979 4183 
L 442 4183 
L 442 3648 
L 979 3648 
L 979 4183 
z
M 947 2739 
L 474 2739 
L 474 0 
L 947 0 
L 947 2739 
z
" transform="scale(0.015625)"/>
       <path id="CMSS17-6f" d="M 2829 1356 
C 2829 2176 2221 2816 1504 2816 
C 768 2816 173 2157 173 1356 
C 173 544 787 -64 1498 -64 
C 2227 -64 2829 563 2829 1356 
z
M 1504 337 
C 1050 337 659 709 659 1408 
C 659 2151 1114 2427 1498 2427 
C 1914 2427 2342 2126 2342 1408 
C 2342 683 1926 337 1504 337 
z
" transform="scale(0.015625)"/>
       <path id="CMSS17-6e" d="M 2618 1877 
C 2618 2283 2522 2816 1798 2816 
C 1389 2816 1120 2606 941 2389 
L 941 2758 
L 474 2758 
L 474 0 
L 960 0 
L 960 1559 
C 960 1964 1114 2428 1549 2428 
C 2112 2428 2131 2048 2131 1829 
L 2131 0 
L 2618 0 
L 2618 1877 
z
" transform="scale(0.015625)"/>
      </defs>
      <use xlink:href="#CMSS17-49" transform="scale(0.996264)"/>
      <use xlink:href="#CMSS17-74" transform="translate(25.783926 0) scale(0.996264)"/>
      <use xlink:href="#CMSS17-65" transform="translate(59.615492 0) scale(0.996264)"/>
      <use xlink:href="#CMSS17-72" transform="translate(101.254314 0) scale(0.996264)"/>
      <use xlink:href="#CMSS17-61" transform="translate(133.164087 0) scale(0.996264)"/>
      <use xlink:href="#CMSS17-74" transform="translate(178.086007 0) scale(0.996264)"/>
      <use xlink:href="#CMSS17-69" transform="translate(211.917574 0) scale(0.996264)"/>
      <use xlink:href="#CMSS17-6f" transform="translate(234.098297 0) scale(0.996264)"/>
      <use xlink:href="#CMSS17-6e" transform="translate(280.941921 0) scale(0.996264)"/>
     </g>
    </g>
   </g>
   <g id="matplotlib.axis_2">
    <g id="ytick_1">
     <g id="line2d_14">
      <defs>
       <path id="m785e53a6ac" d="M 0 0 
L -3.5 0 
" style="stroke: #000000; stroke-width: 0.8"/>
      </defs>
      <g>
       <use xlink:href="#m785e53a6ac" x="57.6" y="307.584" style="stroke: #000000; stroke-width: 0.8"/>
      </g>
     </g>
     <g id="text_15">
      <!-- $\mathdefault{0.00}$ -->
      <g transform="translate(32.888586 311.043249) scale(0.1 -0.1)">
       <defs>
        <path id="CMR17-30" d="M 2688 2025 
C 2688 2416 2682 3080 2413 3591 
C 2176 4039 1798 4198 1466 4198 
C 1158 4198 768 4058 525 3597 
C 269 3118 243 2524 243 2025 
C 243 1661 250 1106 448 619 
C 723 -39 1216 -128 1466 -128 
C 1760 -128 2208 -7 2470 600 
C 2662 1042 2688 1559 2688 2025 
z
M 1466 -26 
C 1056 -26 813 325 723 812 
C 653 1188 653 1738 653 2096 
C 653 2588 653 2997 736 3387 
C 858 3929 1216 4096 1466 4096 
C 1728 4096 2067 3923 2189 3400 
C 2272 3036 2278 2607 2278 2096 
C 2278 1680 2278 1169 2202 792 
C 2067 95 1690 -26 1466 -26 
z
" transform="scale(0.015625)"/>
        <path id="CMMI12-3a" d="M 1178 307 
C 1178 492 1024 619 870 619 
C 685 619 557 466 557 313 
C 557 128 710 0 864 0 
C 1050 0 1178 153 1178 307 
z
" transform="scale(0.015625)"/>
       </defs>
       <use xlink:href="#CMR17-30" transform="scale(0.996264)"/>
       <use xlink:href="#CMMI12-3a" transform="translate(45.690477 0) scale(0.996264)"/>
       <use xlink:href="#CMR17-30" transform="translate(72.787654 0) scale(0.996264)"/>
       <use xlink:href="#CMR17-30" transform="translate(118.478131 0) scale(0.996264)"/>
      </g>
     </g>
    </g>
    <g id="ytick_2">
     <g id="line2d_15">
      <g>
       <use xlink:href="#m785e53a6ac" x="57.6" y="257.033732" style="stroke: #000000; stroke-width: 0.8"/>
      </g>
     </g>
     <g id="text_16">
      <!-- $\mathdefault{0.05}$ -->
      <g transform="translate(32.888586 260.492981) scale(0.1 -0.1)">
       <defs>
        <path id="CMR17-35" d="M 730 3692 
C 794 3666 1056 3584 1325 3584 
C 1920 3584 2246 3911 2432 4100 
C 2432 4157 2432 4192 2394 4192 
C 2387 4192 2374 4192 2323 4163 
C 2099 4058 1837 3973 1517 3973 
C 1325 3973 1037 3999 723 4139 
C 653 4171 640 4171 634 4171 
C 602 4171 595 4164 595 4037 
L 595 2203 
C 595 2089 595 2057 659 2057 
C 691 2057 704 2070 736 2114 
C 941 2401 1222 2522 1542 2522 
C 1766 2522 2246 2382 2246 1289 
C 2246 1085 2246 715 2054 421 
C 1894 159 1645 25 1370 25 
C 947 25 518 320 403 814 
C 429 807 480 795 506 795 
C 589 795 749 840 749 1038 
C 749 1210 627 1280 506 1280 
C 358 1280 262 1190 262 1011 
C 262 454 704 -128 1382 -128 
C 2042 -128 2669 440 2669 1264 
C 2669 2030 2170 2624 1549 2624 
C 1222 2624 947 2503 730 2274 
L 730 3692 
z
" transform="scale(0.015625)"/>
       </defs>
       <use xlink:href="#CMR17-30" transform="scale(0.996264)"/>
       <use xlink:href="#CMMI12-3a" transform="translate(45.690477 0) scale(0.996264)"/>
       <use xlink:href="#CMR17-30" transform="translate(72.787654 0) scale(0.996264)"/>
       <use xlink:href="#CMR17-35" transform="translate(118.478131 0) scale(0.996264)"/>
      </g>
     </g>
    </g>
    <g id="ytick_3">
     <g id="line2d_16">
      <g>
       <use xlink:href="#m785e53a6ac" x="57.6" y="206.483463" style="stroke: #000000; stroke-width: 0.8"/>
      </g>
     </g>
     <g id="text_17">
      <!-- $\mathdefault{0.10}$ -->
      <g transform="translate(32.888586 209.942713) scale(0.1 -0.1)">
       <defs>
        <path id="CMR17-31" d="M 1702 4058 
C 1702 4192 1696 4192 1606 4192 
C 1357 3916 979 3827 621 3827 
C 602 3827 570 3827 563 3808 
C 557 3795 557 3782 557 3648 
C 755 3648 1088 3686 1344 3839 
L 1344 461 
C 1344 236 1331 160 781 160 
L 589 160 
L 589 0 
C 896 0 1216 0 1523 0 
C 1830 0 2150 0 2458 0 
L 2458 160 
L 2266 160 
C 1715 160 1702 230 1702 458 
L 1702 4058 
z
" transform="scale(0.015625)"/>
       </defs>
       <use xlink:href="#CMR17-30" transform="scale(0.996264)"/>
       <use xlink:href="#CMMI12-3a" transform="translate(45.690477 0) scale(0.996264)"/>
       <use xlink:href="#CMR17-31" transform="translate(72.787654 0) scale(0.996264)"/>
       <use xlink:href="#CMR17-30" transform="translate(118.478131 0) scale(0.996264)"/>
      </g>
     </g>
    </g>
    <g id="ytick_4">
     <g id="line2d_17">
      <g>
       <use xlink:href="#m785e53a6ac" x="57.6" y="155.933195" style="stroke: #000000; stroke-width: 0.8"/>
      </g>
     </g>
     <g id="text_18">
      <!-- $\mathdefault{0.15}$ -->
      <g transform="translate(32.888586 159.392444) scale(0.1 -0.1)">
       <use xlink:href="#CMR17-30" transform="scale(0.996264)"/>
       <use xlink:href="#CMMI12-3a" transform="translate(45.690477 0) scale(0.996264)"/>
       <use xlink:href="#CMR17-31" transform="translate(72.787654 0) scale(0.996264)"/>
       <use xlink:href="#CMR17-35" transform="translate(118.478131 0) scale(0.996264)"/>
      </g>
     </g>
    </g>
    <g id="ytick_5">
     <g id="line2d_18">
      <g>
       <use xlink:href="#m785e53a6ac" x="57.6" y="105.382927" style="stroke: #000000; stroke-width: 0.8"/>
      </g>
     </g>
     <g id="text_19">
      <!-- $\mathdefault{0.20}$ -->
      <g transform="translate(32.888586 108.842176) scale(0.1 -0.1)">
       <defs>
        <path id="CMR17-32" d="M 2669 989 
L 2554 989 
C 2490 536 2438 459 2413 420 
C 2381 369 1920 369 1830 369 
L 602 369 
C 832 619 1280 1072 1824 1597 
C 2214 1967 2669 2402 2669 3035 
C 2669 3790 2067 4224 1395 4224 
C 691 4224 262 3604 262 3030 
C 262 2780 448 2748 525 2748 
C 589 2748 781 2787 781 3010 
C 781 3207 614 3264 525 3264 
C 486 3264 448 3258 422 3245 
C 544 3790 915 4058 1306 4058 
C 1862 4058 2227 3617 2227 3035 
C 2227 2479 1901 2000 1536 1584 
L 262 146 
L 262 0 
L 2515 0 
L 2669 989 
z
" transform="scale(0.015625)"/>
       </defs>
       <use xlink:href="#CMR17-30" transform="scale(0.996264)"/>
       <use xlink:href="#CMMI12-3a" transform="translate(45.690477 0) scale(0.996264)"/>
       <use xlink:href="#CMR17-32" transform="translate(72.787654 0) scale(0.996264)"/>
       <use xlink:href="#CMR17-30" transform="translate(118.478131 0) scale(0.996264)"/>
      </g>
     </g>
    </g>
    <g id="ytick_6">
     <g id="line2d_19">
      <g>
       <use xlink:href="#m785e53a6ac" x="57.6" y="54.832658" style="stroke: #000000; stroke-width: 0.8"/>
      </g>
     </g>
     <g id="text_20">
      <!-- $\mathdefault{0.25}$ -->
      <g transform="translate(32.888586 58.291908) scale(0.1 -0.1)">
       <use xlink:href="#CMR17-30" transform="scale(0.996264)"/>
       <use xlink:href="#CMMI12-3a" transform="translate(45.690477 0) scale(0.996264)"/>
       <use xlink:href="#CMR17-32" transform="translate(72.787654 0) scale(0.996264)"/>
       <use xlink:href="#CMR17-35" transform="translate(118.478131 0) scale(0.996264)"/>
      </g>
     </g>
    </g>
    <g id="text_21">
     <!-- Time (s) -->
     <g transform="translate(26.397926 192.723675) rotate(-90) scale(0.1 -0.1)">
      <defs>
       <path id="CMSS17-54" d="M 2317 3968 
L 2848 3968 
C 2925 3968 3002 3968 3078 3968 
L 3878 3968 
L 3878 4376 
L 218 4376 
L 218 3968 
L 1018 3968 
C 1094 3968 1171 3968 1248 3968 
L 1779 3968 
L 1779 -32 
L 2317 -32 
L 2317 3968 
z
" transform="scale(0.015625)"/>
       <path id="CMSS17-6d" d="M 4288 1877 
C 4288 2308 4179 2816 3462 2816 
C 2982 2816 2694 2516 2566 2331 
C 2451 2670 2182 2816 1798 2816 
C 1363 2816 1088 2568 941 2389 
L 941 2758 
L 474 2758 
L 474 0 
L 960 0 
L 960 1559 
C 960 1939 1101 2428 1555 2428 
C 2138 2428 2138 2016 2138 1829 
L 2138 0 
L 2624 0 
L 2624 1559 
C 2624 1939 2765 2428 3219 2428 
C 3802 2428 3802 2016 3802 1829 
L 3802 0 
L 4288 0 
L 4288 1877 
z
" transform="scale(0.015625)"/>
       <path id="CMSS17-28" d="M 1613 4768 
C 1267 4417 474 3601 474 1588 
C 474 -433 1267 -1243 1613 -1600 
L 2003 -1600 
C 1216 -784 960 357 960 1581 
C 960 2798 1203 3946 2003 4768 
L 1613 4768 
z
" transform="scale(0.015625)"/>
       <path id="CMSS17-73" d="M 2061 2627 
C 1683 2807 1389 2807 1197 2807 
C 742 2807 198 2648 198 2003 
C 198 1359 902 1218 1094 1179 
C 1389 1122 1715 1058 1715 740 
C 1715 337 1254 337 1171 337 
C 915 337 563 407 243 638 
L 166 210 
C 531 0 883 -64 1178 -64 
C 1965 -64 2163 416 2163 781 
C 2163 1094 1984 1305 1862 1401 
C 1651 1568 1574 1587 1050 1696 
C 960 1709 646 1779 646 2066 
C 646 2432 1050 2432 1139 2432 
C 1555 2432 1811 2303 1984 2208 
L 2061 2627 
z
" transform="scale(0.015625)"/>
       <path id="CMSS17-29" d="M 723 -1600 
C 1069 -1249 1862 -433 1862 1581 
C 1862 3601 1069 4411 723 4768 
L 333 4768 
C 1120 3952 1376 2811 1376 1588 
C 1376 370 1133 -778 333 -1600 
L 723 -1600 
z
" transform="scale(0.015625)"/>
      </defs>
      <use xlink:href="#CMSS17-54" transform="scale(0.996264)"/>
      <use xlink:href="#CMSS17-69" transform="translate(63.819454 0) scale(0.996264)"/>
      <use xlink:href="#CMSS17-6d" transform="translate(86.000177 0) scale(0.996264)"/>
      <use xlink:href="#CMSS17-65" transform="translate(160.229431 0) scale(0.996264)"/>
      <use xlink:href="#CMSS17-28" transform="translate(233.097366 0) scale(0.996264)"/>
      <use xlink:href="#CMSS17-73" transform="translate(269.53128 0) scale(0.996264)"/>
      <use xlink:href="#CMSS17-29" transform="translate(305.444822 0) scale(0.996264)"/>
     </g>
    </g>
   </g>
   <g id="patch_55">
    <path d="M 57.6 307.584 
L 57.6 41.472 
" style="fill: none; stroke: #000000; stroke-width: 0.8; stroke-linejoin: miter; stroke-linecap: square"/>
   </g>
   <g id="patch_56">
    <path d="M 414.72 307.584 
L 414.72 41.472 
" style="fill: none; stroke: #000000; stroke-width: 0.8; stroke-linejoin: miter; stroke-linecap: square"/>
   </g>
   <g id="patch_57">
    <path d="M 57.6 307.584 
L 414.72 307.584 
" style="fill: none; stroke: #000000; stroke-width: 0.8; stroke-linejoin: miter; stroke-linecap: square"/>
   </g>
   <g id="patch_58">
    <path d="M 57.6 41.472 
L 414.72 41.472 
" style="fill: none; stroke: #000000; stroke-width: 0.8; stroke-linejoin: miter; stroke-linecap: square"/>
   </g>
   <g id="legend_1">
    <g id="patch_59">
     <path d="M 64.6 109.32256 
L 246.814725 109.32256 
Q 248.814725 109.32256 248.814725 107.32256 
L 248.814725 48.472 
Q 248.814725 46.472 246.814725 46.472 
L 64.6 46.472 
Q 62.6 46.472 62.6 48.472 
L 62.6 107.32256 
Q 62.6 109.32256 64.6 109.32256 
z
" style="fill: #ffffff; opacity: 0.8; stroke: #cccccc; stroke-linejoin: miter"/>
    </g>
    <g id="patch_60">
     <path d="M 66.6 57.94398 
L 86.6 57.94398 
L 86.6 50.94398 
L 66.6 50.94398 
z
" style="fill: #1f77b4"/>
    </g>
    <g id="text_22">
     <!-- Acquisition ($1.08$ sec, $59.49\%$) -->
     <g transform="translate(94.6 57.94398) scale(0.1 -0.1)">
      <defs>
       <path id="CMSS17-41" d="M 2272 4416 
L 1722 4416 
L 166 0 
L 653 0 
L 1101 1280 
L 2816 1280 
L 3270 0 
L 3827 0 
L 2272 4416 
z
M 2694 1637 
L 1222 1637 
C 1530 2528 1914 3638 1958 3925 
L 1965 3925 
C 2010 3663 2138 3281 2246 2956 
L 2694 1637 
z
" transform="scale(0.015625)"/>
       <path id="CMSS17-63" d="M 2464 2541 
C 2464 2585 2170 2714 2093 2739 
C 1882 2816 1613 2816 1542 2816 
C 710 2816 211 2093 211 1363 
C 211 595 768 -64 1517 -64 
C 1946 -64 2253 76 2502 242 
L 2464 664 
C 2189 453 1869 337 1523 337 
C 1024 337 698 774 698 1369 
C 698 1831 909 2414 1549 2414 
C 1901 2414 2099 2343 2394 2145 
L 2464 2541 
z
" transform="scale(0.015625)"/>
       <path id="CMSS17-71" d="M 2611 2816 
L 2138 2816 
L 2138 2428 
C 2112 2460 1818 2816 1318 2816 
C 736 2816 211 2228 211 1399 
C 211 633 653 -5 1229 -5 
C 1498 -5 1837 91 2125 365 
L 2125 -1216 
L 2611 -1216 
L 2611 2816 
z
M 2138 914 
C 2138 832 2138 718 1939 554 
C 1888 510 1747 384 1504 384 
C 1050 384 698 850 698 1399 
C 698 2011 1126 2415 1562 2415 
C 1926 2415 2138 2061 2138 1797 
L 2138 914 
z
" transform="scale(0.015625)"/>
       <path id="CMSS17-75" d="M 2618 2739 
L 2131 2739 
L 2131 972 
C 2131 498 1786 306 1421 306 
C 998 306 960 447 960 709 
L 960 2739 
L 474 2739 
L 474 678 
C 474 179 646 -64 1088 -64 
C 1306 -64 1798 -13 2144 306 
L 2144 0 
L 2618 0 
L 2618 2739 
z
" transform="scale(0.015625)"/>
       <path id="CMR17-38" d="M 1741 2264 
C 2144 2467 2554 2773 2554 3263 
C 2554 3841 1990 4179 1472 4179 
C 890 4179 378 3759 378 3180 
C 378 3021 416 2747 666 2505 
C 730 2442 998 2251 1171 2130 
C 883 1983 211 1634 211 934 
C 211 279 838 -128 1459 -128 
C 2144 -128 2720 362 2720 1010 
C 2720 1590 2330 1857 2074 2029 
L 1741 2264 
z
M 902 2822 
C 851 2854 595 3051 595 3351 
C 595 3739 998 4032 1459 4032 
C 1965 4032 2336 3676 2336 3262 
C 2336 2669 1670 2331 1638 2331 
C 1632 2331 1626 2331 1574 2370 
L 902 2822 
z
M 2080 1519 
C 2176 1449 2483 1240 2483 851 
C 2483 381 2010 25 1472 25 
C 890 25 448 438 448 940 
C 448 1443 838 1862 1280 2060 
L 2080 1519 
z
" transform="scale(0.015625)"/>
       <path id="CMSS17-2c" d="M 1088 6 
L 1088 510 
L 576 510 
L 576 0 
L 736 0 
L 570 -800 
L 826 -800 
L 1088 6 
z
" transform="scale(0.015625)"/>
       <path id="CMR17-39" d="M 2253 1864 
C 2253 464 1670 31 1190 31 
C 1043 31 685 31 538 294 
C 704 268 826 357 826 518 
C 826 692 685 749 595 749 
C 538 749 365 723 365 506 
C 365 71 742 -128 1203 -128 
C 1939 -128 2688 674 2688 2073 
C 2688 3817 1971 4179 1485 4179 
C 851 4179 243 3628 243 2778 
C 243 1991 762 1408 1414 1408 
C 1952 1408 2189 1903 2253 2112 
L 2253 1864 
z
M 1427 1510 
C 1254 1510 1011 1542 813 1922 
C 678 2169 678 2461 678 2771 
C 678 3146 678 3405 858 3684 
C 947 3817 1114 4032 1485 4032 
C 2240 4032 2240 2885 2240 2632 
C 2240 2182 2035 1510 1427 1510 
z
" transform="scale(0.015625)"/>
       <path id="CMR17-34" d="M 2150 4122 
C 2150 4256 2144 4256 2029 4256 
L 128 1254 
L 128 1088 
L 1779 1088 
L 1779 457 
C 1779 224 1766 160 1318 160 
L 1197 160 
L 1197 0 
C 1402 0 1747 0 1965 0 
C 2182 0 2528 0 2733 0 
L 2733 160 
L 2611 160 
C 2163 160 2150 224 2150 457 
L 2150 1088 
L 2803 1088 
L 2803 1254 
L 2150 1254 
L 2150 4122 
z
M 1798 3703 
L 1798 1254 
L 256 1254 
L 1798 3703 
z
" transform="scale(0.015625)"/>
       <path id="CMR17-25" d="M 4640 959 
C 4640 1698 4275 2240 3846 2240 
C 3411 2240 2970 1736 2970 959 
C 2970 183 3405 -320 3846 -320 
C 4275 -320 4640 215 4640 959 
z
M 3853 -218 
C 3686 -218 3270 -66 3270 959 
C 3270 1991 3686 2138 3853 2138 
C 4205 2138 4525 1634 4525 959 
C 4525 285 4205 -218 3853 -218 
z
M 4083 4577 
C 4128 4647 4134 4653 4134 4685 
C 4134 4761 4077 4800 4026 4800 
C 3962 4800 3936 4756 3891 4706 
C 3520 4190 3008 4134 2746 4134 
C 2106 4134 1715 4494 1594 4607 
C 1510 4682 1389 4800 1171 4800 
C 736 4800 294 4296 294 3519 
C 294 2743 730 2240 1171 2240 
C 1600 2240 1965 2778 1965 3527 
C 1965 3969 1830 4270 1811 4308 
C 2202 4064 2586 4032 2752 4032 
C 3162 4032 3456 4183 3616 4289 
L 3622 4283 
L 858 -84 
C 800 -174 800 -187 800 -206 
C 800 -276 858 -320 915 -320 
C 973 -320 992 -289 1037 -218 
L 4083 4577 
z
M 1178 2342 
C 1011 2342 595 2494 595 3519 
C 595 4551 1011 4698 1178 4698 
C 1530 4698 1850 4194 1850 3519 
C 1850 2845 1530 2342 1178 2342 
z
" transform="scale(0.015625)"/>
      </defs>
      <use xlink:href="#CMSS17-41" transform="scale(0.996264)"/>
      <use xlink:href="#CMSS17-63" transform="translate(62.217855 0) scale(0.996264)"/>
      <use xlink:href="#CMSS17-71" transform="translate(103.856677 0) scale(0.996264)"/>
      <use xlink:href="#CMSS17-75" transform="translate(152.06162 0) scale(0.996264)"/>
      <use xlink:href="#CMSS17-69" transform="translate(200.266563 0) scale(0.996264)"/>
      <use xlink:href="#CMSS17-73" transform="translate(222.447286 0) scale(0.996264)"/>
      <use xlink:href="#CMSS17-69" transform="translate(258.360828 0) scale(0.996264)"/>
      <use xlink:href="#CMSS17-74" transform="translate(280.541551 0) scale(0.996264)"/>
      <use xlink:href="#CMSS17-69" transform="translate(314.373118 0) scale(0.996264)"/>
      <use xlink:href="#CMSS17-6f" transform="translate(336.553841 0) scale(0.996264)"/>
      <use xlink:href="#CMSS17-6e" transform="translate(383.397465 0) scale(0.996264)"/>
      <use xlink:href="#CMSS17-28" transform="translate(462.83152 0) scale(0.996264)"/>
      <use xlink:href="#CMR17-31" transform="translate(499.265435 0) scale(0.996264)"/>
      <use xlink:href="#CMMI12-3a" transform="translate(544.955912 0) scale(0.996264)"/>
      <use xlink:href="#CMR17-30" transform="translate(572.053089 0) scale(0.996264)"/>
      <use xlink:href="#CMR17-38" transform="translate(617.743566 0) scale(0.996264)"/>
      <use xlink:href="#CMSS17-73" transform="translate(694.663156 0) scale(0.996264)"/>
      <use xlink:href="#CMSS17-65" transform="translate(730.576698 0) scale(0.996264)"/>
      <use xlink:href="#CMSS17-63" transform="translate(772.21552 0) scale(0.996264)"/>
      <use xlink:href="#CMSS17-2c" transform="translate(813.854342 0) scale(0.996264)"/>
      <use xlink:href="#CMR17-35" transform="translate(871.10766 0) scale(0.996264)"/>
      <use xlink:href="#CMR17-39" transform="translate(916.798137 0) scale(0.996264)"/>
      <use xlink:href="#CMMI12-3a" transform="translate(962.488614 0) scale(0.996264)"/>
      <use xlink:href="#CMR17-34" transform="translate(989.585791 0) scale(0.996264)"/>
      <use xlink:href="#CMR17-39" transform="translate(1035.276268 0) scale(0.996264)"/>
      <use xlink:href="#CMR17-25" transform="translate(1080.966745 0) scale(0.996264)"/>
      <use xlink:href="#CMSS17-29" transform="translate(1157.886335 0) scale(0.996264)"/>
     </g>
    </g>
    <g id="patch_61">
     <path d="M 66.6 72.90662 
L 86.6 72.90662 
L 86.6 65.90662 
L 66.6 65.90662 
z
" style="fill: #ff7f0e"/>
    </g>
    <g id="text_23">
     <!-- Truth ($0.01$ sec, $0.52\%$) -->
     <g transform="translate(94.6 72.90662) scale(0.1 -0.1)">
      <defs>
       <path id="CMSS17-68" d="M 2618 1891 
C 2618 2292 2522 2820 1798 2820 
C 1395 2820 1133 2623 947 2407 
L 947 4448 
L 474 4448 
L 474 32 
L 960 32 
L 960 1573 
C 960 1973 1114 2432 1549 2432 
C 2112 2432 2131 2056 2131 1839 
L 2131 32 
L 2618 32 
L 2618 1891 
z
" transform="scale(0.015625)"/>
      </defs>
      <use xlink:href="#CMSS17-54" transform="scale(0.996264)"/>
      <use xlink:href="#CMSS17-72" transform="translate(56.012199 0) scale(0.996264)"/>
      <use xlink:href="#CMSS17-75" transform="translate(87.921971 0) scale(0.996264)"/>
      <use xlink:href="#CMSS17-74" transform="translate(136.126914 0) scale(0.996264)"/>
      <use xlink:href="#CMSS17-68" transform="translate(169.958481 0) scale(0.996264)"/>
      <use xlink:href="#CMSS17-28" transform="translate(249.392537 0) scale(0.996264)"/>
      <use xlink:href="#CMR17-30" transform="translate(285.826451 0) scale(0.996264)"/>
      <use xlink:href="#CMMI12-3a" transform="translate(331.516928 0) scale(0.996264)"/>
      <use xlink:href="#CMR17-30" transform="translate(358.614105 0) scale(0.996264)"/>
      <use xlink:href="#CMR17-31" transform="translate(404.304582 0) scale(0.996264)"/>
      <use xlink:href="#CMSS17-73" transform="translate(481.224172 0) scale(0.996264)"/>
      <use xlink:href="#CMSS17-65" transform="translate(517.137714 0) scale(0.996264)"/>
      <use xlink:href="#CMSS17-63" transform="translate(558.776536 0) scale(0.996264)"/>
      <use xlink:href="#CMSS17-2c" transform="translate(600.415358 0) scale(0.996264)"/>
      <use xlink:href="#CMR17-30" transform="translate(657.668676 0) scale(0.996264)"/>
      <use xlink:href="#CMMI12-3a" transform="translate(703.359153 0) scale(0.996264)"/>
      <use xlink:href="#CMR17-35" transform="translate(730.45633 0) scale(0.996264)"/>
      <use xlink:href="#CMR17-32" transform="translate(776.146807 0) scale(0.996264)"/>
      <use xlink:href="#CMR17-25" transform="translate(821.837284 0) scale(0.996264)"/>
      <use xlink:href="#CMSS17-29" transform="translate(898.756874 0) scale(0.996264)"/>
     </g>
    </g>
    <g id="patch_62">
     <path d="M 66.6 87.86926 
L 86.6 87.86926 
L 86.6 80.86926 
L 66.6 80.86926 
z
" style="fill: #2ca02c"/>
    </g>
    <g id="text_24">
     <!-- GP fit ($0.72$ sec, $39.89\%$) -->
     <g transform="translate(94.6 87.86926) scale(0.1 -0.1)">
      <defs>
       <path id="CMSS17-47" d="M 3610 1856 
L 2336 1856 
L 2336 1461 
L 3123 1461 
L 3123 471 
C 2874 401 2618 350 2362 350 
C 1466 350 934 1301 934 2200 
C 934 3095 1491 4032 2362 4032 
C 2854 4032 3130 3881 3469 3627 
L 3552 4134 
C 3130 4351 2867 4440 2387 4440 
C 1146 4440 397 3324 397 2182 
C 397 1090 1152 -64 2349 -64 
C 2797 -64 3213 51 3610 248 
L 3610 1856 
z
" transform="scale(0.015625)"/>
       <path id="CMSS17-50" d="M 2106 1856 
C 2874 1856 3501 2453 3501 3158 
C 3501 3850 2899 4453 2067 4453 
L 570 4453 
L 570 0 
L 1107 0 
L 1107 1856 
L 2106 1856 
z
M 1926 4096 
C 2669 4096 2995 3627 2995 3157 
C 2995 2720 2694 2226 1926 2226 
L 1094 2226 
L 1094 4096 
L 1926 4096 
z
" transform="scale(0.015625)"/>
       <path id="CMSS17-c" d="M 2752 4416 
L 2240 4416 
L 2240 3906 
L 2752 3906 
L 2752 4416 
z
M 2733 2737 
L 2259 2737 
L 2259 0 
L 2733 0 
L 2733 2737 
z
M 1075 2368 
L 1773 2368 
L 1773 2737 
L 1062 2737 
L 1062 3578 
C 1062 3919 1216 4092 1421 4092 
C 1542 4092 1664 4056 1773 3992 
L 1773 4410 
C 1722 4428 1574 4480 1421 4480 
C 941 4480 602 3993 602 3372 
L 602 2737 
L 160 2737 
L 160 2368 
L 602 2368 
L 602 0 
L 1075 0 
L 1075 2368 
z
" transform="scale(0.015625)"/>
       <path id="CMR17-37" d="M 2886 3941 
L 2886 4081 
L 1382 4081 
C 634 4081 621 4165 595 4288 
L 480 4288 
L 294 3094 
L 410 3094 
C 429 3215 474 3540 550 3661 
C 589 3712 1062 3712 1171 3712 
L 2579 3712 
L 1869 2661 
C 1395 1954 1069 999 1069 165 
C 1069 89 1069 -128 1299 -128 
C 1530 -128 1530 89 1530 171 
L 1530 465 
C 1530 1508 1709 2196 2003 2636 
L 2886 3941 
z
" transform="scale(0.015625)"/>
       <path id="CMR17-33" d="M 1414 2157 
C 1984 2157 2234 1662 2234 1090 
C 2234 320 1824 25 1453 25 
C 1114 25 563 194 390 693 
C 422 680 454 680 486 680 
C 640 680 755 782 755 948 
C 755 1133 614 1216 486 1216 
C 378 1216 211 1165 211 926 
C 211 335 787 -128 1466 -128 
C 2176 -128 2720 430 2720 1085 
C 2720 1707 2208 2157 1600 2227 
C 2086 2328 2554 2756 2554 3329 
C 2554 3820 2048 4179 1472 4179 
C 890 4179 378 3829 378 3329 
C 378 3110 544 3072 627 3072 
C 762 3072 877 3155 877 3321 
C 877 3486 762 3569 627 3569 
C 602 3569 570 3569 544 3557 
C 730 3959 1235 4032 1459 4032 
C 1683 4032 2106 3925 2106 3320 
C 2106 3143 2080 2828 1862 2550 
C 1670 2304 1453 2304 1242 2284 
C 1210 2284 1062 2269 1037 2269 
C 992 2263 966 2257 966 2208 
C 966 2163 973 2157 1101 2157 
L 1414 2157 
z
" transform="scale(0.015625)"/>
      </defs>
      <use xlink:href="#CMSS17-47" transform="scale(0.996264)"/>
      <use xlink:href="#CMSS17-50" transform="translate(62.458226 0) scale(0.996264)"/>
      <use xlink:href="#CMSS17-c" transform="translate(153.422925 0) scale(0.996264)"/>
      <use xlink:href="#CMSS17-74" transform="translate(203.549662 0) scale(0.996264)"/>
      <use xlink:href="#CMSS17-28" transform="translate(268.610341 0) scale(0.996264)"/>
      <use xlink:href="#CMR17-30" transform="translate(305.044255 0) scale(0.996264)"/>
      <use xlink:href="#CMMI12-3a" transform="translate(350.734733 0) scale(0.996264)"/>
      <use xlink:href="#CMR17-37" transform="translate(377.83191 0) scale(0.996264)"/>
      <use xlink:href="#CMR17-32" transform="translate(423.522387 0) scale(0.996264)"/>
      <use xlink:href="#CMSS17-73" transform="translate(500.441977 0) scale(0.996264)"/>
      <use xlink:href="#CMSS17-65" transform="translate(536.355519 0) scale(0.996264)"/>
      <use xlink:href="#CMSS17-63" transform="translate(577.994341 0) scale(0.996264)"/>
      <use xlink:href="#CMSS17-2c" transform="translate(619.633163 0) scale(0.996264)"/>
      <use xlink:href="#CMR17-33" transform="translate(676.88648 0) scale(0.996264)"/>
      <use xlink:href="#CMR17-39" transform="translate(722.576958 0) scale(0.996264)"/>
      <use xlink:href="#CMMI12-3a" transform="translate(768.267435 0) scale(0.996264)"/>
      <use xlink:href="#CMR17-38" transform="translate(795.364612 0) scale(0.996264)"/>
      <use xlink:href="#CMR17-39" transform="translate(841.055089 0) scale(0.996264)"/>
      <use xlink:href="#CMR17-25" transform="translate(886.745566 0) scale(0.996264)"/>
      <use xlink:href="#CMSS17-29" transform="translate(963.665156 0) scale(0.996264)"/>
     </g>
    </g>
    <g id="patch_63">
     <path d="M 66.6 102.8319 
L 86.6 102.8319 
L 86.6 95.8319 
L 66.6 95.8319 
z
" style="fill: #d62728"/>
    </g>
    <g id="text_25">
     <!-- Convergence crit. ($0.00$ sec, $0.10\%$) -->
     <g transform="translate(94.6 102.8319) scale(0.1 -0.1)">
      <defs>
       <path id="CMSS17-43" d="M 3501 714 
C 3072 427 2874 344 2355 344 
C 1459 344 934 1303 934 2179 
C 934 3112 1472 4032 2381 4032 
C 2790 4032 3059 3918 3386 3715 
L 3475 4217 
C 3168 4370 2778 4440 2387 4440 
C 1158 4440 397 3316 397 2179 
C 397 927 1299 -64 2323 -64 
C 2874 -64 3066 -19 3539 280 
L 3501 714 
z
" transform="scale(0.015625)"/>
       <path id="CMSS17-76" d="M 2675 2752 
L 2176 2752 
L 1747 1556 
C 1613 1165 1421 627 1389 352 
L 1382 352 
C 1370 468 1318 634 1286 749 
C 1248 890 1197 1056 1158 1172 
L 595 2752 
L 83 2752 
L 1094 0 
L 1664 0 
L 2675 2752 
z
" transform="scale(0.015625)"/>
       <path id="CMSS17-67" d="M 2848 2808 
C 2483 2808 2170 2738 1914 2617 
C 1702 2777 1485 2808 1338 2808 
C 781 2808 358 2349 358 1814 
C 358 1468 550 1207 563 1195 
C 448 1035 384 863 384 672 
C 384 448 474 289 544 200 
C 211 -3 166 -314 166 -435 
C 166 -898 749 -1280 1498 -1280 
C 2253 -1280 2835 -898 2835 -428 
C 2835 448 1856 448 1587 448 
L 1069 448 
C 973 448 717 448 717 791 
C 717 921 774 1004 781 1010 
C 877 940 1075 832 1338 832 
C 1869 832 2310 1278 2310 1827 
C 2310 2132 2170 2355 2112 2432 
L 2131 2432 
C 2150 2432 2419 2432 2515 2432 
C 2720 2432 2739 2429 2918 2419 
L 2848 2808 
z
M 1338 1182 
C 1120 1182 813 1315 813 1823 
C 813 2375 1165 2464 1331 2464 
C 1549 2464 1856 2331 1856 1823 
C 1856 1271 1504 1182 1338 1182 
z
M 1581 -10 
C 1734 -10 2381 -10 2381 -442 
C 2381 -714 1984 -929 1504 -929 
C 1018 -929 621 -720 621 -435 
C 621 -403 621 -10 1062 -10 
L 1581 -10 
z
" transform="scale(0.015625)"/>
       <path id="CMSS17-2e" d="M 1088 510 
L 576 510 
L 576 0 
L 1088 0 
L 1088 510 
z
" transform="scale(0.015625)"/>
      </defs>
      <use xlink:href="#CMSS17-43" transform="scale(0.996264)"/>
      <use xlink:href="#CMSS17-6f" transform="translate(59.855772 0) scale(0.996264)"/>
      <use xlink:href="#CMSS17-6e" transform="translate(106.699395 0) scale(0.996264)"/>
      <use xlink:href="#CMSS17-76" transform="translate(154.904338 0) scale(0.996264)"/>
      <use xlink:href="#CMSS17-65" transform="translate(197.90448 0) scale(0.996264)"/>
      <use xlink:href="#CMSS17-72" transform="translate(239.543302 0) scale(0.996264)"/>
      <use xlink:href="#CMSS17-67" transform="translate(271.453075 0) scale(0.996264)"/>
      <use xlink:href="#CMSS17-65" transform="translate(318.296698 0) scale(0.996264)"/>
      <use xlink:href="#CMSS17-6e" transform="translate(359.93552 0) scale(0.996264)"/>
      <use xlink:href="#CMSS17-63" transform="translate(408.140463 0) scale(0.996264)"/>
      <use xlink:href="#CMSS17-65" transform="translate(449.779285 0) scale(0.996264)"/>
      <use xlink:href="#CMSS17-63" transform="translate(522.64722 0) scale(0.996264)"/>
      <use xlink:href="#CMSS17-72" transform="translate(564.286042 0) scale(0.996264)"/>
      <use xlink:href="#CMSS17-69" transform="translate(596.195815 0) scale(0.996264)"/>
      <use xlink:href="#CMSS17-74" transform="translate(618.376538 0) scale(0.996264)"/>
      <use xlink:href="#CMSS17-2e" transform="translate(652.208104 0) scale(0.996264)"/>
      <use xlink:href="#CMSS17-28" transform="translate(719.871116 0) scale(0.996264)"/>
      <use xlink:href="#CMR17-30" transform="translate(756.30503 0) scale(0.996264)"/>
      <use xlink:href="#CMMI12-3a" transform="translate(801.995508 0) scale(0.996264)"/>
      <use xlink:href="#CMR17-30" transform="translate(829.092685 0) scale(0.996264)"/>
      <use xlink:href="#CMR17-30" transform="translate(874.783162 0) scale(0.996264)"/>
      <use xlink:href="#CMSS17-73" transform="translate(951.702752 0) scale(0.996264)"/>
      <use xlink:href="#CMSS17-65" transform="translate(987.616294 0) scale(0.996264)"/>
      <use xlink:href="#CMSS17-63" transform="translate(1029.255116 0) scale(0.996264)"/>
      <use xlink:href="#CMSS17-2c" transform="translate(1070.893938 0) scale(0.996264)"/>
      <use xlink:href="#CMR17-30" transform="translate(1128.147255 0) scale(0.996264)"/>
      <use xlink:href="#CMMI12-3a" transform="translate(1173.837733 0) scale(0.996264)"/>
      <use xlink:href="#CMR17-31" transform="translate(1200.93491 0) scale(0.996264)"/>
      <use xlink:href="#CMR17-30" transform="translate(1246.625387 0) scale(0.996264)"/>
      <use xlink:href="#CMR17-25" transform="translate(1292.315864 0) scale(0.996264)"/>
      <use xlink:href="#CMSS17-29" transform="translate(1369.235454 0) scale(0.996264)"/>
     </g>
    </g>
   </g>
  </g>
 </g>
 <defs>
  <clipPath id="p577acd30f9">
   <rect x="57.6" y="41.472" width="357.12" height="266.112"/>
  </clipPath>
 </defs>
</svg>
